<?xml version="1.0" encoding="utf-8"?>
<!-- Generator: Adobe Illustrator 16.0.0, SVG Export Plug-In . SVG Version: 6.00 Build 0)  -->
<!DOCTYPE svg PUBLIC "-//W3C//DTD SVG 1.1//EN" "http://www.w3.org/Graphics/SVG/1.1/DTD/svg11.dtd">
<svg version="1.1" id="Capa_1" xmlns="http://www.w3.org/2000/svg" xmlns:xlink="http://www.w3.org/1999/xlink" x="0px" y="0px"
	 width="500px" height="500px" viewBox="0 0 500 500" enable-background="new 0 0 500 500" xml:space="preserve">
<path d="M464.844,420.38l-150.44-144.97c53.52-72.72,119.906-181.219,104.669-255.327L249.058,212.441l-54.49-52.508
	c10.593-28.919,1.647-66.411-24.315-92.077C137.88,35.275,72.001,10.558,41.189,39.631c-29.256,30.636-4.938,96.662,27.45,129.229
	c25.507,26.114,62.941,35.296,91.929,24.871l54.748,56.888l-34.74,39.305c0,0-47.384,81.156-115.19,140.452
	c0,0-29.937,29.057-1.062,50.074c42.529,30.954,44.708-11.822,43.601-28.618c0,0,43.67,6.615,72.574-66.997
	c0,0,9.972-40.731,21.165-30.918c11.191,9.809,19.453,7.156,32.632-16.91l17.906,15.694c0,0,11.592-12.817,28.7-33.934
	l139.912,145.38c9.292,9.35,29.495,4.352,38.848-4.946C469.017,449.901,474.14,429.735,464.844,420.38z M443.362,444.214
	c-6.444,6.532-16.969,6.604-23.5,0.16c-6.534-6.444-6.608-16.97-0.164-23.5c6.442-6.535,16.968-6.608,23.502-0.162
	C449.735,427.156,449.807,437.679,443.362,444.214z"/>
</svg>
