<?xml version="1.0" encoding="utf-8"?>
<!-- Generator: Adobe Illustrator 16.0.0, SVG Export Plug-In . SVG Version: 6.00 Build 0)  -->
<!DOCTYPE svg PUBLIC "-//W3C//DTD SVG 1.1//EN" "http://www.w3.org/Graphics/SVG/1.1/DTD/svg11.dtd">
<svg version="1.1" id="Capa_1" xmlns="http://www.w3.org/2000/svg" xmlns:xlink="http://www.w3.org/1999/xlink" x="0px" y="0px"
	 width="500px" height="500px" viewBox="0 0 500 500" enable-background="new 0 0 500 500" xml:space="preserve">
<path d="M248.764,62.225c-102.89,0-186.596,83.708-186.596,186.597c0,102.89,83.706,186.597,186.596,186.597
	c102.885,0,186.591-83.707,186.591-186.597C435.354,145.933,351.648,62.225,248.764,62.225z M214.327,368.161L104.358,259.72
	l47.348-44.293l64.149,61.096l128.299-126.774l44.289,45.82L214.327,368.161z M460.464,279.273l24.995-30.452l-24.995-30.456
	l15.464-36.237l-32.59-22.158l4.569-39.136l-37.517-12.048l-6.622-38.848l-39.389-1.045l-17.26-35.425l-38.085,10.115
	l-26.593-29.076l-33.679,20.468l-33.677-20.468l-26.591,29.076l-38.083-10.115l-17.265,35.423l-39.39,1.046l-6.616,38.846
	l-37.519,12.052l4.563,39.134l-32.589,22.151l15.467,36.245l-24.999,30.456l24.999,30.452l-15.467,36.243l32.589,22.158
	l-4.563,39.136l37.516,12.048l6.615,38.851l39.39,1.044l17.265,35.426l38.083-10.115l26.591,29.075l33.68-20.466l33.679,20.466
	l26.593-29.075l38.085,10.115l17.26-35.419l39.389-1.051l6.615-38.848l37.523-12.051l-4.569-39.136l32.59-22.151L460.464,279.273z
	 M248.764,451.545c-111.78,0-202.716-90.939-202.716-202.723c0-111.779,90.936-202.713,202.716-202.713
	c111.778,0,202.72,90.934,202.72,202.713C451.483,360.605,360.542,451.545,248.764,451.545z"/>
</svg>
