<?xml version="1.0" encoding="utf-8"?>
<!DOCTYPE svg PUBLIC "-//W3C//DTD SVG 1.1//EN" "http://www.w3.org/Graphics/SVG/1.1/DTD/svg11.dtd">
<svg version="1.1" xmlns="http://www.w3.org/2000/svg" xmlns:xlink="http://www.w3.org/1999/xlink" xml:space="preserve">
<path d="M275 580q9 0 15 7t7 15-7 16-15 6-15-6-6-16 6-15 15-7z m236 0q9 0 15 7t6 15-6 16-15 6-16-6-6-16 6-15 16-7z m-453-102q23 0 40-17t16-40v-240q0-24-16-41t-40-17-41 17-17 41v240q0 23 17 40t41 17z m591-11v-371q0-26-18-44t-43-18h-42v-127q0-24-16-40t-41-17-41 17-17 40v127h-77v-127q0-24-16-40t-41-17q-24 0-40 17t-17 40l-1 127h-41q-26 0-43 18t-18 44v371h512z m-129 226q59-31 95-85t36-121h-516q0 66 35 121t96 85l-39 73q-4 8 2 11 8 4 12-3l40-74q53 24 112 24t112-24l40 74q4 7 11 3 7-3 3-11z m266-272v-240q0-24-17-41t-41-17q-23 0-40 17t-17 41v240q0 24 17 40t40 17q24 0 41-17t17-40z"/>
</svg>