<?xml version="1.0" encoding="utf-8"?>
<!DOCTYPE svg PUBLIC "-//W3C//DTD SVG 1.1//EN" "http://www.w3.org/Graphics/SVG/1.1/DTD/svg11.dtd">
<svg version="1.1" xmlns="http://www.w3.org/2000/svg" xmlns:xlink="http://www.w3.org/1999/xlink" xml:space="preserve">
<path d="M0 201l0 269q0 26 19 45t44 18q26 0 45-18t18-45l0-269q0-26-18-44t-45-19-44 19-19 44z m173-100l0 418 574 0 0-418q0-26-18-44t-45-19l-448 0q-26 0-44 19t-19 44z m0 465l574 0q0 115-85 189t-202 74-202-74-85-189z m101 316q0 8 7 8 3 0 7-2l49-89-15-8q-48 88-48 91z m15-807q0 27 19 45t47 18q25 0 44-19t19-44l0-202q0-28-19-46t-47-17q-26 0-44 18t-19 45l0 202z m5 620q0 16 12 28t28 11 28-11 11-28q0-17-11-28t-29-12q-16 0-27 12t-12 28z m208-620q0 27 20 45t46 18q26 0 45-18t18-45l0-202q0-28-19-46t-47-17q-26 0-44 18t-19 45l0 202z m45 620q0 16 12 28t28 11 28-11 11-28q0-17-12-28t-28-12-27 12-12 28z m36 104q2 3 14 29t24 44 18 18 7-9l0-2-48-89z m211-598l0 268q0 26 19 45t44 19 45-19 18-45l0-268q0-26-18-44t-45-19-45 19-18 44z"/>
</svg>