<?xml version="1.0" encoding="utf-8"?>
<!-- Generator: Adobe Illustrator 16.0.0, SVG Export Plug-In . SVG Version: 6.00 Build 0)  -->
<!DOCTYPE svg PUBLIC "-//W3C//DTD SVG 1.1//EN" "http://www.w3.org/Graphics/SVG/1.1/DTD/svg11.dtd">
<svg version="1.1" id="Capa_1" xmlns="http://www.w3.org/2000/svg" xmlns:xlink="http://www.w3.org/1999/xlink" x="0px" y="0px"
	 width="500px" height="500px" viewBox="0 0 500 500" enable-background="new 0 0 500 500" xml:space="preserve">
<path d="M449.611,359.963c-7.203,24.118-18.887,48.071-35.047,71.856c-24.753,37.917-49.529,56.891-74.329,56.921
	c-9.3,0.011-22.736-3.072-40.31-9.252c-16.54-6.179-31.011-9.263-43.41-9.247c-11.71,0.014-25.312,3.302-40.804,9.865
	c-15.835,6.563-28.577,9.85-38.221,9.861c-29.276,0.036-58.238-24.9-86.887-74.81c-28.304-50.254-42.483-98.63-42.539-145.129
	c-0.053-43.743,10.754-79.577,32.42-107.502s49.032-41.907,82.098-41.947c13.777-0.017,30.659,2.891,50.643,8.722
	c19.984,5.831,33.248,8.743,39.792,8.735c8.611-0.01,22.385-3.299,41.321-9.866c19.624-6.568,36.325-9.86,50.104-9.876
	c22.732-0.027,43.233,6.148,61.503,18.526c9.997,6.877,19.997,16.509,30.001,28.897c-15.484,12.763-26.493,24.143-33.025,34.138
	c-12.378,17.926-18.554,37.738-18.528,59.437c0.029,23.767,6.599,45.286,19.711,64.559
	C417.214,343.124,432.384,355.162,449.611,359.963z M341.227,21.686c0.014,11.712-2.898,24.803-8.736,39.276
	c-5.494,14.473-14.433,27.745-26.818,39.814c-10.321,10.346-20.645,17.419-30.973,21.22c-6.887,2.075-16.874,3.637-29.962,4.686
	c0.655-28.588,8.203-53.225,22.645-73.908C281.479,32.09,305.4,17.768,339.146,9.805c0.346,0.688,0.69,1.721,1.037,3.098
	c0.346,1.378,0.52,2.411,0.521,3.1c0.001,1.033,0.002,2.066,0.003,3.1C340.708,20.137,340.881,20.998,341.227,21.686z"/>
</svg>
