<?xml version="1.0" encoding="utf-8"?>
<!-- Generator: Adobe Illustrator 16.0.0, SVG Export Plug-In . SVG Version: 6.00 Build 0)  -->
<!DOCTYPE svg PUBLIC "-//W3C//DTD SVG 1.1//EN" "http://www.w3.org/Graphics/SVG/1.1/DTD/svg11.dtd">
<svg version="1.1" id="Capa_1" xmlns="http://www.w3.org/2000/svg" xmlns:xlink="http://www.w3.org/1999/xlink" x="0px" y="0px"
	 width="500px" height="500px" viewBox="0 0 500 500" enable-background="new 0 0 500 500" xml:space="preserve">
<path d="M125.546,132.242l63.94,63.94V35.229L37.352,44.048l48.506,47.404c-42.627,44.833-63.573,98.116-62.838,159.852
	c0.735,61.735,22.784,114.652,66.146,158.749c36.747,36.748,80.844,58.062,132.291,63.941l2.205-56.225
	c-36.747-5.879-68.35-22.048-94.809-48.506c-32.337-32.339-48.874-71.475-49.609-117.408
	C78.509,205.921,93.943,166.05,125.546,132.242z M308.549,461.867l152.136-8.818l-48.508-47.404
	c42.627-44.832,63.573-98.116,62.838-159.852c-0.734-61.736-22.783-114.653-66.146-158.75C373.592,51.03,329.495,29.349,276.579,22
	l-1.103,57.326c36.012,5.879,67.248,22.049,93.706,48.506c32.338,32.338,48.874,71.474,49.608,117.408
	s-14.698,85.806-46.302,119.614l-62.838-63.94L308.549,461.867z"/>
</svg>
