<?xml version="1.0" encoding="utf-8"?>
<!DOCTYPE svg PUBLIC "-//W3C//DTD SVG 1.1//EN" "http://www.w3.org/Graphics/SVG/1.1/DTD/svg11.dtd">
<svg version="1.1" xmlns="http://www.w3.org/2000/svg" xmlns:xlink="http://www.w3.org/1999/xlink" xml:space="preserve">
<path d="M0-150l0 402 402 0-160-160q108-107 258-107 125 0 222 75t130 192l138 0q-35-173-173-288t-317-114q-207 0-353 146z m10 598q35 174 173 288t317 114q207 0 354-146l146 146 0-402-402 0 160 160q-108 107-258 107-125 0-222-75t-130-192l-138 0z"/>
</svg>