<?xml version="1.0" encoding="utf-8"?>
<!-- Generator: Adobe Illustrator 16.0.0, SVG Export Plug-In . SVG Version: 6.00 Build 0)  -->
<!DOCTYPE svg PUBLIC "-//W3C//DTD SVG 1.1//EN" "http://www.w3.org/Graphics/SVG/1.1/DTD/svg11.dtd">
<svg version="1.1" id="Capa_1" xmlns="http://www.w3.org/2000/svg" xmlns:xlink="http://www.w3.org/1999/xlink" x="0px" y="0px"
	 width="500px" height="500px" viewBox="0 0 500 500" enable-background="new 0 0 500 500" xml:space="preserve">
<path d="M459.946,84.823c7.198,0,13.302,2.816,18.309,8.45c5.008,5.633,7.197,12.206,6.572,19.716l-24.881,171.35
	c-0.625,5.633-3.286,10.483-7.98,14.553c-4.694,4.067-10.015,5.945-15.962,5.633H159.03l4.225,24.881h247.869
	c6.885,0,12.675,2.503,17.369,7.511c4.694,5.007,7.198,10.642,7.511,16.9c0.313,6.26-2.19,12.05-7.511,17.369
	c-5.32,5.321-11.11,7.668-17.369,7.042H142.599c-6.26,0-11.736-2.034-16.43-6.103c-4.695-4.068-7.199-8.764-7.512-14.084
	L72.651,84.823h-33.8c-6.885,0-12.675-2.348-17.37-7.042c-4.694-4.695-7.198-10.485-7.511-17.37
	c-0.313-6.886,2.19-12.519,7.511-16.901c5.321-4.381,11.11-6.885,17.37-7.511h54.457c5.946,0,11.267,1.878,15.961,5.634
	c4.694,3.755,7.354,8.763,7.98,15.022l5.164,28.167H459.946z M431.779,134.115h-93.89v48.353h86.848L431.779,134.115z
	 M313.479,134.115h-73.703v48.353h73.703V134.115z M313.479,207.348h-73.703v48.824h73.703V207.348z M215.833,134.115h-85.439
	l8.45,49.292c0.938-0.626,2.19-0.939,3.755-0.939h73.234V134.115z M142.599,207.348l7.981,48.824h65.253v-48.824H142.599z
	 M337.89,256.172h76.989l6.573-48.824H337.89V256.172z M142.599,439.256c0-24.411,12.049-36.617,36.148-36.617
	c24.725,0,37.086,12.206,37.086,36.617c0,24.725-12.361,37.087-37.086,37.087C154.648,476.343,142.599,463.98,142.599,439.256z
	 M362.771,439.256c0-24.411,12.049-36.617,36.147-36.617c24.725,0,37.086,12.206,37.086,36.617
	c0,24.725-12.361,37.087-37.086,37.087C374.819,476.343,362.771,463.98,362.771,439.256z"/>
</svg>
