<?xml version="1.0" encoding="utf-8"?>
<!-- Generator: Adobe Illustrator 16.0.0, SVG Export Plug-In . SVG Version: 6.00 Build 0)  -->
<!DOCTYPE svg PUBLIC "-//W3C//DTD SVG 1.1//EN" "http://www.w3.org/Graphics/SVG/1.1/DTD/svg11.dtd">
<svg version="1.1" id="Capa_1" xmlns="http://www.w3.org/2000/svg" xmlns:xlink="http://www.w3.org/1999/xlink" x="0px" y="0px"
	 width="500px" height="500px" viewBox="0 0 500 500" enable-background="new 0 0 500 500" xml:space="preserve">
<path d="M380.459,211.128c5.694,12.099,12.811,21.351,21.35,27.755c8.541,6.405,16.548,10.32,24.02,11.743
	c7.473,1.424,15.302,5.517,23.486,12.276c8.183,6.762,14.411,16.547,18.681,29.358c7.83,22.062-5.337,50.706-39.498,85.935
	c-34.16,35.229-78.996,63.162-134.508,83.801c-58.358,20.639-111.2,28.645-158.527,24.019
	c-47.326-4.625-74.904-17.969-82.732-40.032c-7.117-19.215-4.981-38.964,6.405-59.247c11.386-20.282,14.589-40.031,9.608-59.246
	c-19.928-68.322-28.291-121.699-25.088-160.13c3.203-38.43,23.309-72.59,60.315-102.481c9.251-7.829,14.412-16.903,15.479-27.221
	c1.068-10.32,6.227-17.259,15.48-20.817c8.54-2.846,16.724-0.711,24.552,6.405c7.829,7.116,17.792,10.318,29.891,9.607
	c46.971-0.712,82.2,11.031,105.685,35.229S347.01,139.961,380.459,211.128z M281.18,426.768
	c31.313-11.386,59.604-26.51,84.867-45.369s43.058-35.051,53.376-48.572c10.32-13.522,14.768-22.418,13.345-26.688
	c-2.847-7.828-11.565-13.7-26.155-17.614c-14.589-3.915-36.65-4.092-66.186-0.533c-29.534,3.559-62.806,12.098-99.813,25.619
	c-36.296,13.523-67.076,29.003-92.341,46.438c-25.265,17.437-41.989,32.383-50.174,44.837c-8.184,12.455-11.209,21.884-9.073,28.289
	c1.423,4.27,10.318,8.185,26.687,11.744c16.369,3.557,40.211,4.269,71.524,2.134C218.551,444.917,249.865,438.154,281.18,426.768z
	 M248.086,333.893c2.847-0.712,6.582-1.957,11.209-3.734c4.625-1.78,7.65-3.025,9.074-3.737l1.068,1.068
	c4.979,14.232,1.957,29-9.075,44.301c-11.031,15.301-26.866,26.512-47.505,33.627c-34.161,12.811-61.204,10.319-81.131-7.473
	C159.482,373.748,198.269,352.397,248.086,333.893z"/>
</svg>
