<?xml version="1.0" encoding="utf-8"?>
<!-- Generator: Adobe Illustrator 16.0.0, SVG Export Plug-In . SVG Version: 6.00 Build 0)  -->
<!DOCTYPE svg PUBLIC "-//W3C//DTD SVG 1.1//EN" "http://www.w3.org/Graphics/SVG/1.1/DTD/svg11.dtd">
<svg version="1.1" id="Capa_1" xmlns="http://www.w3.org/2000/svg" xmlns:xlink="http://www.w3.org/1999/xlink" x="0px" y="0px"
	 width="500px" height="500px" viewBox="0 0 500 500" enable-background="new 0 0 500 500" xml:space="preserve">
<path d="M307.822,312.795v35.436l104.222-41.688v-35.436L307.822,312.795z M307.822,204.404v35.436l104.222-41.689v-35.436
	L307.822,204.404z M27.464,24.099C19.822,28.269,16,35.565,16,45.986v333.512c0,11.812,5.559,19.801,16.676,23.97l207.402,83.378
	c2.779,0.694,4.516,1.043,5.211,1.043s1.563,0.173,2.605,0.521c1.042,0.348,1.911,0.521,2.606,0.521
	c0.693,0,1.563-0.174,2.606-0.521c1.041-0.348,1.91-0.521,2.604-0.521l5.211-1.043l207.402-83.378
	C479.441,399.299,485,391.31,485,379.498V45.986c0-10.421-3.821-17.717-11.465-21.887c-7.643-5.558-15.633-6.601-23.971-3.127
	L250.5,101.224L51.436,20.972C43.098,17.499,35.107,18.541,27.464,24.099z M276.556,434.735V142.913L443.311,76.21v291.822
	L276.556,434.735z M57.689,368.032V76.21l166.755,66.702v291.823L57.689,368.032z M88.956,271.106v35.436l104.223,41.688v-35.436
	L88.956,271.106z M88.956,162.715v35.436l104.223,41.689v-35.436L88.956,162.715z"/>
</svg>
