<?xml version="1.0" encoding="utf-8"?>
<!DOCTYPE svg PUBLIC "-//W3C//DTD SVG 1.1//EN" "http://www.w3.org/Graphics/SVG/1.1/DTD/svg11.dtd">
<svg version="1.1" xmlns="http://www.w3.org/2000/svg" xmlns:xlink="http://www.w3.org/1999/xlink" xml:space="preserve">
<path d="M901 850q39 0 69-26t29-65q0-35-25-84-185-351-260-420-54-51-121-51-71 0-121 52t-51 122q0 72 52 119l356 323q33 30 72 30z m-507-577q22-42 59-73t84-42l1-40q2-119-72-193t-195-75q-68 0-121 26t-86 71-48 102-16 123q4-3 23-17t35-25 32-20 26-9q23 0 31 20 14 37 32 63t39 42 49 27 57 14 70 6z"/>
</svg>