<?xml version="1.0" encoding="utf-8"?>
<!-- Generator: Adobe Illustrator 16.0.0, SVG Export Plug-In . SVG Version: 6.00 Build 0)  -->
<!DOCTYPE svg PUBLIC "-//W3C//DTD SVG 1.1//EN" "http://www.w3.org/Graphics/SVG/1.1/DTD/svg11.dtd">
<svg version="1.1" id="Capa_1" xmlns="http://www.w3.org/2000/svg" xmlns:xlink="http://www.w3.org/1999/xlink" x="0px" y="0px"
	 width="500px" height="500px" viewBox="0 0 500 500" enable-background="new 0 0 500 500" xml:space="preserve">
<path d="M424.837,250.948l39.313-38.292c5.786-5.445,7.659-12.083,5.617-19.911c-2.383-7.829-7.318-12.765-14.807-14.807
	l-53.608-13.785l15.315-52.588c2.043-7.829,0.171-14.466-5.615-19.913c-5.446-6.126-12.084-7.998-19.913-5.616l-53.098,15.317
	l-13.786-53.609c-1.7-7.829-6.467-12.935-14.295-15.317c-2.383-0.34-4.255-0.511-5.616-0.511c-5.786,0-10.553,2.213-14.296,6.638
	l-38.292,39.314l-38.803-39.314c-5.105-5.786-11.743-7.829-19.912-6.127c-7.829,2.382-12.594,7.488-14.295,15.317l-13.786,53.609
	l-53.099-15.317c-7.829-2.382-14.466-0.511-19.912,5.616c-5.786,5.447-7.488,12.083-5.105,19.913l14.806,52.588l-53.609,13.785
	c-7.488,2.042-12.424,6.978-14.807,14.807c-2.042,7.829-0.17,14.466,5.616,19.911l39.313,38.292L38.85,289.241
	c-5.786,5.445-7.659,12.083-5.616,19.911c2.382,7.829,7.318,12.765,14.807,14.808l53.609,13.784l-14.806,52.588
	c-2.383,7.829-0.681,14.466,5.105,19.913c5.446,6.126,12.083,7.998,19.912,5.615l53.099-14.806l13.786,53.098
	c1.702,7.829,6.467,12.765,14.295,14.807c7.829,2.383,14.466,0.511,19.912-5.616l38.803-39.313l38.292,39.313
	c5.446,5.786,12.083,7.659,19.912,5.616c7.828-2.042,12.595-6.978,14.295-14.807l13.786-53.098l53.098,14.806
	c7.829,2.383,14.467,0.511,19.913-5.615c5.786-5.447,7.658-12.084,5.615-19.913l-15.315-52.588l53.608-13.784
	c7.488-2.043,12.424-6.979,14.807-14.808c2.042-7.828,0.169-14.466-5.617-19.911L424.837,250.948z"/>
</svg>
