<?xml version="1.0" encoding="utf-8"?>
<!-- Generator: Adobe Illustrator 16.0.0, SVG Export Plug-In . SVG Version: 6.00 Build 0)  -->
<!DOCTYPE svg PUBLIC "-//W3C//DTD SVG 1.1//EN" "http://www.w3.org/Graphics/SVG/1.1/DTD/svg11.dtd">
<svg version="1.1" id="Capa_1" xmlns="http://www.w3.org/2000/svg" xmlns:xlink="http://www.w3.org/1999/xlink" x="0px" y="0px"
	 width="500px" height="500px" viewBox="0 0 500 500" enable-background="new 0 0 500 500" xml:space="preserve">
<path d="M487.637,393.252V423H15.383V68.5h29.335v324.752H487.637z M457.889,105.685v99.988c0,3.305-1.378,5.646-4.132,7.024
	c-2.755,1.376-5.51,0.826-8.264-1.653l-28.097-28.095L271.549,328.797c-1.652,1.652-3.443,2.479-5.372,2.479
	c-1.928,0-3.718-0.827-5.371-2.479l-53.712-53.712l-95.855,96.269l-44.209-44.622l134.693-134.693
	c1.654-1.653,3.443-2.479,5.372-2.479s3.719,0.826,5.372,2.479l53.711,53.712l107.011-107.011l-27.682-27.683
	c-2.479-2.479-3.168-5.233-2.066-8.263c1.103-3.03,3.444-4.545,7.025-4.545h100.399c1.929,0,3.581,0.689,4.958,2.066
	C457.199,101.691,457.889,103.481,457.889,105.685z"/>
</svg>
