<?xml version="1.0" encoding="utf-8"?>
<!-- Generator: Adobe Illustrator 16.0.0, SVG Export Plug-In . SVG Version: 6.00 Build 0)  -->
<!DOCTYPE svg PUBLIC "-//W3C//DTD SVG 1.1//EN" "http://www.w3.org/Graphics/SVG/1.1/DTD/svg11.dtd">
<svg version="1.1" id="Capa_1" xmlns="http://www.w3.org/2000/svg" xmlns:xlink="http://www.w3.org/1999/xlink" x="0px" y="0px"
	 width="500px" height="500px" viewBox="0 0 500 500" enable-background="new 0 0 500 500" xml:space="preserve">
<path d="M159.566,368.117l-13.299,13.301c-1.583,1.582-3.483,2.374-5.7,2.374s-4.274-0.792-6.174-2.374L10.9,257.923
	c-1.9-1.898-2.851-3.958-2.851-6.174c0-2.217,0.951-4.275,2.851-6.175L134.393,122.08c1.584-1.899,3.641-2.85,6.174-2.85
	s4.434,0.951,5.7,2.85l13.299,13.3c1.9,1.583,2.851,3.641,2.851,6.174s-0.951,4.434-2.851,5.699L55.547,251.749l104.019,104.02
	c1.9,1.899,2.851,3.958,2.851,6.175S161.466,366.219,159.566,368.117z M316.309,85.032L217.514,427.49
	c-0.634,2.216-2.058,3.958-4.275,5.225s-4.275,1.425-6.174,0.475l-16.15-4.274c-2.532-0.95-4.274-2.375-5.225-4.275
	c-0.95-1.899-1.266-4.115-0.95-6.648l98.796-341.983c0.949-2.533,2.374-4.275,4.274-5.225c1.899-0.951,3.958-1.267,6.175-0.951
	l16.624,4.75c2.216,0.633,3.958,2.059,5.225,4.275C317.101,81.074,317.259,83.133,316.309,85.032z M490.625,257.923L367.132,381.418
	c-1.9,1.582-3.959,2.374-6.175,2.374c-2.218,0-4.275-0.792-6.175-2.374l-13.3-13.301c-1.582-1.898-2.375-3.957-2.375-6.174
	s0.793-4.275,2.375-6.175l104.021-104.02L341.482,147.254c-1.582-1.583-2.375-3.482-2.375-5.699s0.793-4.275,2.375-6.174l13.3-13.3
	c1.899-1.899,3.957-2.85,6.175-2.85c2.216,0,4.274,0.951,6.175,2.85l123.493,123.494c1.584,1.583,2.375,3.642,2.375,6.175
	S492.209,256.34,490.625,257.923z"/>
</svg>
