<?xml version="1.0" encoding="utf-8"?>
<!DOCTYPE svg PUBLIC "-//W3C//DTD SVG 1.1//EN" "http://www.w3.org/Graphics/SVG/1.1/DTD/svg11.dtd">
<svg version="1.1" xmlns="http://www.w3.org/2000/svg" xmlns:xlink="http://www.w3.org/1999/xlink" xml:space="preserve">
<path d="M0 272l0 156 150 16q14 45 38 88l-96 117 109 109 117-95q41 23 88 37l16 150 156 0 16-150q45-14 88-37l117 95 109-109-96-117q24-43 38-88l150-16 0-156-150-16q-14-47-38-88l96-117-109-109-117 96q-43-24-88-38l-16-150-156 0-16 150q-47 14-88 38l-117-96-109 109 96 117q-24 41-38 88z m355 78q0-60 42-102t103-42 103 42 42 102-42 103-103 42-103-42-42-103z"/>
</svg>