<?xml version="1.0" encoding="utf-8"?>
<!-- Generator: Adobe Illustrator 16.0.0, SVG Export Plug-In . SVG Version: 6.00 Build 0)  -->
<!DOCTYPE svg PUBLIC "-//W3C//DTD SVG 1.1//EN" "http://www.w3.org/Graphics/SVG/1.1/DTD/svg11.dtd">
<svg version="1.1" id="Capa_1" xmlns="http://www.w3.org/2000/svg" xmlns:xlink="http://www.w3.org/1999/xlink" x="0px" y="0px"
	 width="500px" height="500px" viewBox="0 0 500 500" enable-background="new 0 0 500 500" xml:space="preserve">
<path d="M21,213.276v71.447l68.7,7.329c4.274,13.739,10.076,27.174,17.404,40.304l-43.968,53.586l49.922,49.922l53.586-43.511
	c12.519,7.023,25.953,12.672,40.304,16.946l7.328,68.7h71.447l7.329-68.7c13.739-4.274,27.174-9.923,40.304-16.946l53.586,43.511
	l49.922-49.922l-43.968-53.586c7.327-13.13,13.129-26.564,17.403-40.304l68.7-7.329v-71.447l-68.7-7.329
	c-4.274-14.351-10.076-27.785-17.403-40.304l43.968-53.586l-49.922-49.921l-53.586,43.967c-13.13-7.327-26.564-13.129-40.304-17.403
	L285.724,20h-71.447l-7.328,68.7c-14.351,4.274-27.786,10.076-40.304,17.403l-53.586-43.967l-49.922,49.921l43.968,53.586
	c-7.328,12.519-13.129,25.953-17.404,40.304L21,213.276z M183.59,249c0-18.319,6.412-33.892,19.236-46.716
	c12.824-12.825,28.548-19.236,47.174-19.236c18.625,0,34.35,6.411,47.174,19.236c12.823,12.824,19.236,28.396,19.236,46.716
	s-6.413,34.044-19.236,47.174c-12.824,13.13-28.549,19.541-47.174,19.236c-18.625-0.306-34.35-6.718-47.174-19.236
	C190.002,283.655,183.59,267.932,183.59,249z"/>
</svg>
