<?xml version="1.0" encoding="utf-8"?>
<!-- Generator: Adobe Illustrator 16.0.0, SVG Export Plug-In . SVG Version: 6.00 Build 0)  -->
<!DOCTYPE svg PUBLIC "-//W3C//DTD SVG 1.1//EN" "http://www.w3.org/Graphics/SVG/1.1/DTD/svg11.dtd">
<svg version="1.1" id="Capa_1" xmlns="http://www.w3.org/2000/svg" xmlns:xlink="http://www.w3.org/1999/xlink" x="0px" y="0px"
	 width="500px" height="500px" viewBox="0 0 500 500" enable-background="new 0 0 500 500" xml:space="preserve">
<path fill-rule="evenodd" clip-rule="evenodd" d="M492.717,251.366c-0.5,133.459-108.449,241.379-241.848,241.243
	c-64.872-0.065-121.341-22.76-167.934-67.894C31.502,374.893,7.665,313.312,8.783,241.89
	c3.464-62.964,26.335-117.636,71.204-162.193c49.61-49.269,110.094-72.084,179.817-70.917
	c62.952,3.507,117.404,26.601,162.199,71.228C467.779,125.611,492.792,186.833,492.717,251.366z M250.871,58.074
	C144.34,58.104,58.142,144.203,58.08,250.674c-0.062,106.476,86.145,192.887,192.8,192.812
	c106.755-0.074,192.544-86.463,192.613-192.534C443.563,144.047,357.002,58.103,250.871,58.074z M381.958,280.478
	c-20.594-0.007-41.187-0.003-61.78-0.02c-0.959,0-1.53,0.298-1.949,1.225c-2.34,5.187-5.281,10.02-8.783,14.506
	c-9.221,11.813-20.919,20.175-35.121,24.95c-11.248,3.781-22.771,4.734-34.521,2.998c-12.135-1.792-23.201-6.257-32.977-13.625
	c-17.46-13.156-27.532-30.63-29.821-52.444c-1.391-13.261,0.553-26.074,6.348-38.081c12.159-25.189,32.215-39.619,60.041-42.954
	c11.537-1.383,22.79,0.195,33.631,4.368c17.839,6.868,31.118,18.873,39.902,35.836c0.526,1.016,1.114,1.353,2.233,1.352
	c20.755-0.032,41.51-0.023,62.267-0.028c0.338,0,0.676-0.066,1.208-0.123c-6.808-26.833-20.143-49.64-40.595-68.02
	c-28.582-25.687-62.288-37.381-100.629-35.003c-66.065,4.101-124.557,58.417-126.293,132.518
	c-1.669,71.208,52.604,132.848,125.805,138.18c70.962,5.169,128.947-44.238,142.192-105.518
	C382.67,280.548,382.314,280.478,381.958,280.478z"/>
</svg>
