<?xml version="1.0" encoding="utf-8"?>
<!DOCTYPE svg PUBLIC "-//W3C//DTD SVG 1.1//EN" "http://www.w3.org/Graphics/SVG/1.1/DTD/svg11.dtd">
<svg version="1.1" xmlns="http://www.w3.org/2000/svg" xmlns:xlink="http://www.w3.org/1999/xlink" xml:space="preserve">
<path d="M982 779q37 0 63-27t26-63v-678q0-37-26-63t-63-27h-893q-36 0-63 27t-26 63v678q0 37 26 63t63 27h893z m-893-72q-7 0-12-5t-6-13v-125h929v125q0 8-5 13t-13 5h-893z m893-714q7 0 13 5t5 13v339h-929v-339q0-8 6-13t12-5h893z m-839 71v72h143v-72h-143z m214 0v72h214v-72h-214z"/>
</svg>