<?xml version="1.0" encoding="utf-8"?>
<!DOCTYPE svg PUBLIC "-//W3C//DTD SVG 1.1//EN" "http://www.w3.org/Graphics/SVG/1.1/DTD/svg11.dtd">
<svg version="1.1" xmlns="http://www.w3.org/2000/svg" xmlns:xlink="http://www.w3.org/1999/xlink" xml:space="preserve">
<path d="M1000 296v465q0 7-5 12t-13 6h-893q-7 0-12-6t-6-12v-465q0-7 6-12t12-5h893q7 0 13 5t5 12z m71 465v-607q0-37-26-63t-63-27h-303q0-20 9-43t17-40 9-24q0-14-10-25t-25-11h-286q-15 0-25 11t-11 25q0 8 9 25t18 39 9 43h-304q-36 0-63 27t-26 63v607q0 37 26 63t63 26h893q37 0 63-26t26-63z"/>
</svg>