<?xml version="1.0" encoding="utf-8"?>
<!-- Generator: Adobe Illustrator 16.0.0, SVG Export Plug-In . SVG Version: 6.00 Build 0)  -->
<!DOCTYPE svg PUBLIC "-//W3C//DTD SVG 1.1//EN" "http://www.w3.org/Graphics/SVG/1.1/DTD/svg11.dtd">
<svg version="1.1" id="Capa_1" xmlns="http://www.w3.org/2000/svg" xmlns:xlink="http://www.w3.org/1999/xlink" x="0px" y="0px"
	 width="500px" height="500px" viewBox="0 0 500 500" enable-background="new 0 0 500 500" xml:space="preserve">
<path d="M436.865,111.919c5.091,5.092,9.386,11.773,12.886,20.045c3.499,8.272,5.249,16.226,5.249,23.862v306.392
	c0,7.318-2.386,13.363-7.158,18.136c-4.773,4.772-10.818,7.318-18.136,7.636H71.771c-7.318,0-13.363-2.546-18.136-7.636
	c-4.772-5.09-7.318-11.136-7.636-18.136V36.515c0-7.317,2.545-13.363,7.636-18.135c5.091-4.773,11.136-7.318,18.136-7.636h238.623
	c7,0,14.794,1.75,23.385,5.25c8.59,3.499,15.272,7.794,20.045,12.886L436.865,111.919z M318.508,47.014v100.222h100.222
	c-1.591-5.091-3.5-8.749-5.728-10.977l-83.518-83.518C327.576,50.514,323.916,48.604,318.508,47.014z M421.115,454.104V181.121
	H310.395c-7.317,0-13.363-2.386-18.136-7.16c-4.772-4.772-7.317-10.817-7.636-18.135V44.628H79.885v409.477H421.115z
	 M148.13,223.596c0-2.228,0.795-4.137,2.387-5.728c1.591-1.592,3.659-2.386,6.204-2.386h187.558c2.546,0,4.614,0.794,6.204,2.386
	c1.591,1.591,2.387,3.5,2.387,5.728v17.181c0,2.545-0.796,4.613-2.387,6.204c-1.59,1.591-3.658,2.387-6.204,2.387H156.721
	c-2.545,0-4.613-0.795-6.204-2.387c-1.591-1.591-2.387-3.659-2.387-6.204V223.596z M344.278,283.251
	c2.546,0,4.614,0.795,6.204,2.386c1.591,1.592,2.387,3.658,2.387,6.204v17.181c0,2.546-0.796,4.614-2.387,6.205
	c-1.59,1.591-3.658,2.386-6.204,2.386H156.721c-2.545,0-4.613-0.795-6.204-2.386c-1.591-1.591-2.387-3.659-2.387-6.205v-17.181
	c0-2.546,0.795-4.612,2.387-6.204c1.591-1.591,3.659-2.386,6.204-2.386H344.278z M344.278,351.497c2.546,0,4.614,0.795,6.204,2.386
	c1.591,1.592,2.387,3.659,2.387,6.204v17.182c0,2.545-0.796,4.613-2.387,6.204c-1.59,1.592-3.658,2.386-6.204,2.386H156.721
	c-2.545,0-4.613-0.794-6.204-2.386c-1.591-1.591-2.387-3.659-2.387-6.204v-17.182c0-2.545,0.795-4.612,2.387-6.204
	c1.591-1.591,3.659-2.386,6.204-2.386H344.278z"/>
</svg>
