<?xml version="1.0" encoding="utf-8"?>
<!-- Generator: Adobe Illustrator 16.0.0, SVG Export Plug-In . SVG Version: 6.00 Build 0)  -->
<!DOCTYPE svg PUBLIC "-//W3C//DTD SVG 1.1//EN" "http://www.w3.org/Graphics/SVG/1.1/DTD/svg11.dtd">
<svg version="1.1" id="Capa_1" xmlns="http://www.w3.org/2000/svg" xmlns:xlink="http://www.w3.org/1999/xlink" x="0px" y="0px"
	 width="500px" height="500px" viewBox="0 0 500 500" enable-background="new 0 0 500 500" xml:space="preserve">
<path d="M258.583,18.933c4.589,38.678,14.423,74.569,29.5,107.675c15.078,33.105,30.156,59.164,45.233,78.175
	c15.078,19.011,28.517,41.3,40.317,66.866c11.8,25.567,17.699,51.79,17.699,78.667c0,37.367-13.603,69.489-40.809,96.367
	C323.319,473.561,291.033,487,253.667,487c-37.367,0-69.653-13.439-96.859-40.316c-27.206-26.878-40.808-59-40.808-96.367
	c0-26.877,5.9-53.1,17.7-78.667c11.8-25.566,25.239-47.855,40.317-66.866c15.078-19.011,30.155-45.069,45.233-78.175
	c15.078-33.106,24.911-68.997,29.5-107.675c0.656-2.622,2.458-3.933,5.408-3.933S258.583,16.311,258.583,18.933z M237.934,211.667
	c0.655-1.311,0.327-3.605-0.984-6.883c-1.966-1.966-4.261-2.95-6.883-2.95c-2.623,0-4.589,0.983-5.9,2.95L204.5,233.3
	c-10.489,15.078-18.356,26.55-23.6,34.417c-5.245,7.866-10.816,20.158-16.717,36.875c-5.9,16.717-8.85,33.27-8.85,49.658
	c0,7.866,2.786,14.587,8.358,20.158c5.572,5.572,12.292,8.358,20.158,8.358c19.011,0,28.517-11.145,28.517-33.434
	c0-30.811,6.883-71.128,20.65-120.95c0.655-1.967,1.475-4.753,2.458-8.358S237.278,213.633,237.934,211.667z"/>
</svg>
