<?xml version="1.0" encoding="utf-8"?>
<!-- Generator: Adobe Illustrator 16.0.0, SVG Export Plug-In . SVG Version: 6.00 Build 0)  -->
<!DOCTYPE svg PUBLIC "-//W3C//DTD SVG 1.1//EN" "http://www.w3.org/Graphics/SVG/1.1/DTD/svg11.dtd">
<svg version="1.1" id="Capa_1" xmlns="http://www.w3.org/2000/svg" xmlns:xlink="http://www.w3.org/1999/xlink" xml:space="preserve">
<path d="M0 350q6 49 64 110 79 80 176 129 129 60 260 60 137-2 260-60 103-53 176-129 64-73 64-110-6-49-64-109-79-80-176-129-129-61-260-61-137 2-260 61-103 53-176 129-64 72-64 109z m264 0q0-94 69-159t167-65 167 65 69 159-69 159-167 66-167-66-69-159z m86 1q0 60 44 102t106 42 106-42 44-102-44-102-106-43-106 43-44 102z"/>
</svg>
