<?xml version="1.0" encoding="utf-8"?>
<!-- Generator: Adobe Illustrator 16.0.0, SVG Export Plug-In . SVG Version: 6.00 Build 0)  -->
<!DOCTYPE svg PUBLIC "-//W3C//DTD SVG 1.1//EN" "http://www.w3.org/Graphics/SVG/1.1/DTD/svg11.dtd">
<svg version="1.1" id="Capa_1" xmlns="http://www.w3.org/2000/svg" xmlns:xlink="http://www.w3.org/1999/xlink" x="0px" y="0px"
	 width="500px" height="500px" viewBox="0 0 500 500" enable-background="new 0 0 500 500" xml:space="preserve">
<path d="M7,250.314c1.944,15.875,12.312,33.696,31.104,53.459c25.596,25.92,54.108,46.818,85.536,62.694
	c41.796,19.44,83.916,29.16,126.36,29.16c44.388-0.647,86.508-10.368,126.36-29.16c33.372-17.172,61.884-38.069,85.536-62.694
	C482.632,280.122,493,262.302,493,250.314c-1.944-15.875-12.312-33.534-31.104-52.974c-25.597-25.92-54.108-46.818-85.536-62.694
	C334.564,114.882,292.443,105,250,105c-44.388,0.648-86.508,10.53-126.36,29.646c-33.372,17.172-61.884,38.07-85.536,62.694
	C17.368,220.668,7,238.326,7,250.314z M135.304,250.314c0-30.456,11.178-56.214,33.534-77.274s49.41-31.59,81.162-31.59
	s58.806,10.53,81.162,31.59c22.355,21.06,33.534,46.818,33.534,77.274s-11.179,56.214-33.534,77.274
	c-22.356,21.06-49.41,31.752-81.162,32.076s-58.806-10.368-81.162-32.076S135.304,280.122,135.304,250.314z M177.1,250.8
	c0,19.44,7.128,35.964,21.384,49.572s31.428,20.412,51.516,20.412s37.26-6.804,51.516-20.412S322.9,270.24,322.9,250.8
	c0-19.44-7.129-35.964-21.385-49.572S270.088,180.654,250,180.33c-20.088-0.324-37.26,6.642-51.516,20.898
	S177.1,232.008,177.1,250.8z"/>
</svg>
