<?xml version="1.0" encoding="utf-8"?>
<!DOCTYPE svg PUBLIC "-//W3C//DTD SVG 1.1//EN" "http://www.w3.org/Graphics/SVG/1.1/DTD/svg11.dtd">
<svg version="1.1" xmlns="http://www.w3.org/2000/svg" xmlns:xlink="http://www.w3.org/1999/xlink" xml:space="preserve">
<path d="M948 798q52-53 52-127t-52-126l-126-124 58-58q6-6 6-13t-6-13l-117-117q-6-6-13-6t-13 6l-58 59-337-337q-21-21-50-21h-113l-143-71-36 36 71 143v113q0 29 21 50l337 337-59 58q-6 6-6 13t6 13l117 117q6 6 13 6t13-6l58-58 124 126q52 52 126 52t127-52z m-662-769l321 321-107 107-321-321v-107h107z"/>
</svg>