<?xml version="1.0" encoding="utf-8"?>
<!DOCTYPE svg PUBLIC "-//W3C//DTD SVG 1.1//EN" "http://www.w3.org/Graphics/SVG/1.1/DTD/svg11.dtd">
<svg version="1.1" xmlns="http://www.w3.org/2000/svg" xmlns:xlink="http://www.w3.org/1999/xlink" xml:space="preserve">
<path d="M640 650q0-80-74-110-6-58-28-101t-61-69-68-38-75-26q-42-14-63-22t-47-24-38-40-16-60q70-30 70-110 0-50-35-85t-85-35-85 35-35 85q0 78 72 112l0 378q-72 34-72 110 0 50 35 85t85 35 85-35 35-85q0-76-72-110l0-204q40 30 138 60 58 18 84 29t51 41 29 76q-70 32-70 108 0 50 35 85t85 35 85-35 35-85z m-588 0q0-28 20-48t48-20 49 20 21 48q0 30-21 50t-49 20-48-20-20-50z m68-668q28 0 49 20t21 48q0 30-21 50t-49 20-48-20-20-50q0-28 20-48t48-20z m400 600q28 0 49 20t21 48q0 30-21 50t-49 20-48-20-20-50q0-28 20-48t48-20z"/>
</svg>