<?xml version="1.0" encoding="utf-8"?>
<!-- Generator: Adobe Illustrator 16.0.0, SVG Export Plug-In . SVG Version: 6.00 Build 0)  -->
<!DOCTYPE svg PUBLIC "-//W3C//DTD SVG 1.1//EN" "http://www.w3.org/Graphics/SVG/1.1/DTD/svg11.dtd">
<svg version="1.1" id="Capa_1" xmlns="http://www.w3.org/2000/svg" xmlns:xlink="http://www.w3.org/1999/xlink" x="0px" y="0px"
	 width="500px" height="500px" viewBox="0 0 500 500" enable-background="new 0 0 500 500" xml:space="preserve">
<path d="M432,81.875c0,30.25-13.99,51.047-41.972,62.391c-2.269,21.931-7.563,41.026-15.882,57.286
	c-8.318,16.259-19.852,29.304-34.598,39.136c-14.747,9.832-27.604,17.016-38.569,21.553c-10.966,4.538-25.146,9.453-42.539,14.747
	c-15.881,5.295-27.792,9.453-35.732,12.479c-7.941,3.025-16.827,7.563-26.658,13.612c-9.831,6.05-17.016,13.612-21.553,22.688
	c-4.538,9.075-7.563,20.419-9.075,34.031c26.469,11.344,39.703,32.14,39.703,62.391c0,18.907-6.617,34.976-19.852,48.211
	s-29.305,19.852-48.211,19.852s-34.977-6.616-48.211-19.852S69,441.095,69,422.188c0-29.494,13.612-50.669,40.837-63.525V144.266
	C82.612,131.409,69,110.613,69,81.875c0-18.906,6.617-34.977,19.852-48.211s29.305-19.852,48.211-19.852s34.977,6.618,48.211,19.852
	s19.852,29.305,19.852,48.211c0,28.738-13.612,49.534-40.837,62.391v115.706c15.125-11.344,41.216-22.688,78.272-34.031
	c21.931-6.806,37.813-12.289,47.644-16.448c9.831-4.159,19.474-11.911,28.927-23.255s14.936-25.712,16.448-43.106
	c-26.469-12.099-39.703-32.518-39.703-61.256c0-18.906,6.617-34.977,19.852-48.211s29.305-19.852,48.211-19.852
	s34.977,6.618,48.211,19.852S432,62.969,432,81.875z M98.494,81.875c0,10.587,3.781,19.663,11.344,27.225
	c7.563,7.563,16.638,11.344,27.225,11.344s19.852-3.781,27.792-11.344c7.941-7.562,11.911-16.637,11.911-27.225
	c0-11.344-3.97-20.797-11.911-28.359c-7.94-7.562-17.205-11.344-27.792-11.344s-19.663,3.782-27.225,11.344
	S98.494,70.531,98.494,81.875z M137.063,460.756c10.587,0,19.852-3.78,27.792-11.344c7.941-7.563,11.911-16.638,11.911-27.225
	c0-11.344-3.97-20.796-11.911-28.359c-7.94-7.563-17.205-11.344-27.792-11.344s-19.663,3.78-27.225,11.344
	s-11.344,17.016-11.344,28.359c0,10.587,3.781,19.662,11.344,27.225C117.4,456.976,126.475,460.756,137.063,460.756z
	 M363.938,120.443c10.587,0,19.852-3.781,27.792-11.344c7.94-7.562,11.911-16.637,11.911-27.225
	c0-11.344-3.971-20.797-11.911-28.359s-17.205-11.344-27.792-11.344s-19.662,3.782-27.225,11.344
	c-7.563,7.562-11.344,17.016-11.344,28.359c0,10.587,3.78,19.663,11.344,27.225C344.275,116.663,353.351,120.443,363.938,120.443z"
	/>
</svg>
