<?xml version="1.0" encoding="utf-8"?>
<!DOCTYPE svg PUBLIC "-//W3C//DTD SVG 1.1//EN" "http://www.w3.org/Graphics/SVG/1.1/DTD/svg11.dtd">
<svg version="1.1" xmlns="http://www.w3.org/2000/svg" xmlns:xlink="http://www.w3.org/1999/xlink" xml:space="preserve">
<path d="M357 814v-357q0-34-20-62t-51-39v-435q0-29-21-50t-51-21h-71q-29 0-50 21t-22 50v435q-31 11-51 39t-20 62v357q0 15 11 25t25 11 25-11 10-25v-232q0-14 11-25t25-11 25 11 11 25v232q0 15 10 25t26 11 25-11 10-25v-232q0-14 11-25t25-11 25 11 11 25v232q0 15 10 25t25 11 26-11 10-25z m429 0v-893q0-29-21-50t-51-21h-71q-29 0-50 21t-22 50v286h-125q-7 0-12 5t-5 13v446q0 74 52 127t126 52h143q15 0 25-11t11-25z"/>
</svg>