<?xml version="1.0" encoding="utf-8"?>
<!-- Generator: Adobe Illustrator 16.0.0, SVG Export Plug-In . SVG Version: 6.00 Build 0)  -->
<!DOCTYPE svg PUBLIC "-//W3C//DTD SVG 1.1//EN" "http://www.w3.org/Graphics/SVG/1.1/DTD/svg11.dtd">
<svg version="1.1" id="Capa_1" xmlns="http://www.w3.org/2000/svg" xmlns:xlink="http://www.w3.org/1999/xlink" x="0px" y="0px"
	 width="500px" height="500px" viewBox="0 0 500 500" enable-background="new 0 0 500 500" xml:space="preserve">
<path fill-rule="evenodd" clip-rule="evenodd" d="M263.512,133.28c-14.668,14.669-29.221,29.224-43.856,43.86
	c-3.132-2.469-6.221-5.146-9.549-7.483c-17.019-11.952-36.032-16.345-56.578-14.476c-39.157,3.562-72.737,34.41-79.557,75.113
	c-4.721,28.183,2.619,53.419,21.136,75.174c13.759,16.167,31.23,26.559,52.227,29.767c25.915,3.958,50.214-0.578,71.2-17.327
	c13.13-10.479,20.899-24.382,24.357-40.752c0.045-0.216,0.005-0.448,0.005-0.933c-13.56,0-27.076,0-40.593,0
	c-13.456,0-26.911,0-40.6,0c0-20.421,0-40.663,0-61.056c47.585,0,95.146,0,143.156,0c0.858,7.162,1.897,14.272,2.524,21.42
	c0.899,10.238,0.563,20.491-0.482,30.71c-3.537,34.558-15.822,65.236-40.634,90.151c-19.606,19.689-43.476,31.521-70.582,36.95
	c-20.005,4.006-40.112,4.52-60.261,1.005c-25.591-4.464-48.584-14.795-68.756-31.12c-27.732-22.446-45.605-51.145-53.399-85.998
	c-3.236-14.472-4.208-29.131-3.078-43.942c2.9-37.96,18.006-70.346,44.924-97.079c21.068-20.925,46.322-34.534,75.489-40.432
	c33.504-6.775,65.908-3.32,96.891,11.467c13.11,6.257,24.846,14.576,35.55,24.371C263.212,132.82,263.322,133.028,263.512,133.28z"
	/>
<path fill-rule="evenodd" clip-rule="evenodd" d="M435.242,257.048c0,17.906,0,35.442,0,53.13c-12.785,0-25.362,0-38.173,0
	c0-17.676,0-35.212,0-52.957c-17.764,0-35.297,0-53.003,0c0-12.795,0-25.382,0-38.224c17.504,0,35.038,0,52.896,0
	c0-17.823,0-35.398,0-53.073c12.848,0,25.369,0,38.216,0c0,17.591,0,35.171,0,52.982c17.859,0,35.396,0,53.105,0
	c0,12.8,0,25.366,0,38.142C470.674,257.048,453.141,257.048,435.242,257.048z"/>
</svg>
