<?xml version="1.0" encoding="utf-8"?>
<!DOCTYPE svg PUBLIC "-//W3C//DTD SVG 1.1//EN" "http://www.w3.org/Graphics/SVG/1.1/DTD/svg11.dtd">
<svg version="1.1" xmlns="http://www.w3.org/2000/svg" xmlns:xlink="http://www.w3.org/1999/xlink" xml:space="preserve">
<path d="M410 406q0-20 18-40t43-37 51-41 43-59 18-79q0-50-27-96-40-68-118-101t-166-32q-74 0-138 24t-95 76q-21 34-21 73 0 46 25 84t66 64q73 46 225 56-18 24-26 41t-9 41q0 20 12 48-26-3-38-3-83 0-139 54t-57 137q0 45 20 88t55 73q43 37 102 55t122 18h233l-77-49h-73q41-35 62-74t21-90q0-40-13-72t-33-52-39-36-33-34-14-37z m-81 53q21 0 43 10t37 24q30 32 30 89 0 32-10 69t-27 73-47 57-65 23q-24 0-46-11t-37-29q-26-33-26-89 0-26 5-55t18-57 29-52 42-37 54-15z m1-487q32 0 62 7t55 22 41 41 15 61q0 14-4 27t-8 24-15 23-16 19-22 20-20 16-23 16-21 15q-8 1-26 1-30 0-59-4t-60-14-54-25-38-42-15-59q0-39 19-69t51-46 67-25 71-8z m452 489h119v-60h-119v-122h-59v122h-118v60h118v121h59v-121z"/>
</svg>