<?xml version="1.0" encoding="utf-8"?>
<!-- Generator: Adobe Illustrator 16.0.0, SVG Export Plug-In . SVG Version: 6.00 Build 0)  -->
<!DOCTYPE svg PUBLIC "-//W3C//DTD SVG 1.1//EN" "http://www.w3.org/Graphics/SVG/1.1/DTD/svg11.dtd">
<svg version="1.1" id="Capa_1" xmlns="http://www.w3.org/2000/svg" xmlns:xlink="http://www.w3.org/1999/xlink" x="0px" y="0px"
	 width="500px" height="500px" viewBox="0 0 500 500" enable-background="new 0 0 500 500" xml:space="preserve">
<path d="M12,363.471v-63.688c0-8.239,2.852-13.309,8.555-15.21l81.275-38.022c-20.913-12.358-31.686-33.112-32.32-62.264
	c0-17.744,5.545-34.063,16.635-48.955c11.724-12.991,25.982-19.804,42.776-20.438c9.822,0,19.804,3.011,29.943,9.031
	c-15.526,39.607-11.882,77.155,10.932,112.644c-3.802,3.485-7.763,6.495-11.882,9.03l-54.183,26.142
	c-15.209,7.288-23.448,20.596-24.715,39.924v67.967H24.833C16.912,379.631,12.634,374.244,12,363.471z M103.731,391.513v-79.849
	c0-8.555,3.486-14.417,10.457-17.586l72.244-33.27l27.092-13.309c-11.724-7.288-21.23-17.744-28.518-31.369
	s-10.773-28.518-10.457-44.678c0-24.081,7.288-44.677,21.863-61.787S228.416,84,248.695,84c20.278,0,37.548,8.556,51.806,25.666
	c14.259,17.11,21.389,37.706,21.389,61.787c0,33.271-12.357,58.303-37.073,75.097l28.993,14.259l69.393,33.27
	c7.604,3.169,11.407,9.031,11.407,17.586v79.849c-0.634,11.724-6.496,18.22-17.586,19.487H119.891
	c-4.436-0.634-8.239-2.852-11.407-6.654C105.315,400.544,103.731,396.266,103.731,391.513z M328.544,234.667
	C350.09,201.08,353.576,164.482,339,124.875c9.823-6.021,20.279-9.348,31.369-9.981c15.526,0,29.785,6.813,42.776,20.438
	c11.09,12.991,16.635,29.311,16.635,48.955c0,25.983-10.298,46.737-30.894,62.264l79.849,38.022
	c5.703,3.169,8.556,8.239,8.556,15.21v63.688c0,10.14-4.278,15.526-12.833,16.16h-56.085v-67.967
	c0-18.061-7.921-31.369-23.764-39.924l-52.282-25.19C337.574,244.015,332.979,240.054,328.544,234.667z"/>
</svg>
