<?xml version="1.0" encoding="utf-8"?>
<!-- Generator: Adobe Illustrator 16.0.0, SVG Export Plug-In . SVG Version: 6.00 Build 0)  -->
<!DOCTYPE svg PUBLIC "-//W3C//DTD SVG 1.1//EN" "http://www.w3.org/Graphics/SVG/1.1/DTD/svg11.dtd">
<svg version="1.1" id="Capa_1" xmlns="http://www.w3.org/2000/svg" xmlns:xlink="http://www.w3.org/1999/xlink" x="0px" y="0px"
	 width="500px" height="500px" viewBox="0 0 500 500" enable-background="new 0 0 500 500" xml:space="preserve">
<path d="M16.987,249.771c0-31.499,6.134-61.671,18.402-90.517c12.268-28.846,28.846-53.547,49.734-74.105
	c20.889-20.556,45.59-37.135,74.104-49.734c28.515-12.6,58.852-18.733,91.014-18.402c31.498,0,61.671,6.134,90.517,18.402
	c28.847,12.268,53.549,28.847,74.104,49.734c20.557,20.889,37.136,45.59,49.735,74.105S483.331,217.94,483,249.771
	c0,31.498-6.134,61.671-18.401,90.517c-12.269,28.846-28.846,53.713-49.735,74.602c-20.889,20.89-45.59,37.467-74.104,49.735
	c-28.515,12.268-58.687,18.401-90.517,18.401s-62.168-6.134-91.014-18.401c-28.846-12.269-53.547-28.846-74.104-49.735
	C64.566,394,47.988,369.133,35.389,340.287C22.79,311.441,16.656,281.269,16.987,249.771z M75.177,249.771
	c0,23.541,4.642,46.253,13.926,68.137c9.284,21.883,21.717,40.45,37.301,55.702s34.151,27.686,55.703,37.301
	c21.551,9.616,44.264,14.257,68.136,13.926c23.872-0.331,46.418-4.974,67.64-13.926c21.22-8.951,39.787-21.386,55.702-37.301
	s28.35-34.482,37.301-55.702c8.952-21.221,13.594-43.933,13.926-68.137c0.331-24.204-4.311-46.751-13.926-67.64
	c-9.615-20.888-22.049-39.456-37.301-55.702s-33.819-28.681-55.702-37.302c-21.884-8.62-44.43-13.262-67.64-13.925
	c-23.209-0.663-45.921,3.979-68.136,13.925c-22.214,9.947-40.782,22.381-55.703,37.302s-27.354,33.487-37.301,55.702
	C79.155,204.346,74.513,226.892,75.177,249.771z M214.931,165.222c0-9.285,3.315-16.744,9.946-22.381
	c6.631-5.636,15.086-8.455,25.365-8.455c10.61,0,19.064,2.819,25.365,8.455c6.299,5.637,9.449,13.097,9.449,22.381
	c0,9.283-3.15,16.909-9.449,22.877c-6.301,5.968-14.755,8.787-25.365,8.455c-10.61,0-19.064-2.817-25.365-8.455
	C218.578,182.463,215.262,174.836,214.931,165.222z M217.417,365.154V216.448h65.65v148.707H217.417z"/>
</svg>
