<?xml version="1.0" encoding="utf-8"?>
<!DOCTYPE svg PUBLIC "-//W3C//DTD SVG 1.1//EN" "http://www.w3.org/Graphics/SVG/1.1/DTD/svg11.dtd">
<svg version="1.1" xmlns="http://www.w3.org/2000/svg" xmlns:xlink="http://www.w3.org/1999/xlink" xml:space="preserve">
<path d="M331 37q18 6 30-12t-4-34q-5-5-22-16t-59-26-84-15q-109 0-149 79-35 74 13 167l52 104q28 55 3 73-5 5-22 5-11 0-24-3t-22-5l-7-2q-19-7-31 11t4 32q7 7 22 17t58 26 84 16q111 0 150-79 35-73-12-167l-53-104q-27-56-2-74 3-3 21-3 11 0 24 2t22 5z m-174 600q0 130 130 130t130-130-130-130-130 130z"/>
</svg>