<?xml version="1.0" encoding="utf-8"?>
<!-- Generator: Adobe Illustrator 16.0.0, SVG Export Plug-In . SVG Version: 6.00 Build 0)  -->
<!DOCTYPE svg PUBLIC "-//W3C//DTD SVG 1.1//EN" "http://www.w3.org/Graphics/SVG/1.1/DTD/svg11.dtd">
<svg version="1.1" id="Capa_1" xmlns="http://www.w3.org/2000/svg" xmlns:xlink="http://www.w3.org/1999/xlink" x="0px" y="0px"
	 width="500px" height="500px" viewBox="0 0 500 500" enable-background="new 0 0 500 500" xml:space="preserve">
<path d="M429.469,409.716v-194.09h-40.213c3.932,12.511,5.897,25.557,5.897,39.14c0,25.379-6.434,48.611-19.301,69.701
	c-12.868,21.09-30.204,37.889-52.008,50.399c-21.804,12.51-45.752,18.766-71.846,18.766c-39.318,0-72.918-13.584-100.798-40.749
	c-27.88-27.165-41.82-59.87-41.82-98.117c0-13.583,1.966-26.628,5.898-39.14H72.922v194.09c0,5.004,1.787,9.294,5.361,12.868
	c3.575,3.574,8.043,5.361,13.404,5.361h319.551c5.005,0,9.294-1.787,12.868-5.361S429.469,414.72,429.469,409.716z M344.755,249.94
	c0-24.663-9.114-45.752-27.345-63.267c-18.229-17.515-40.033-26.272-65.411-26.272s-47.004,8.757-64.875,26.272
	c-17.873,17.515-26.987,38.604-27.344,63.267c-0.357,24.663,8.758,45.753,27.344,63.268c18.587,17.513,40.212,26.271,64.875,26.271
	c25.736,0,47.539-8.758,65.411-26.271C335.282,295.693,344.396,274.604,344.755,249.94z M429.469,142.172V92.845
	c0-5.361-1.967-10.187-5.898-14.476c-3.932-4.29-8.758-6.255-14.477-5.898H356.55c-5.719,0-10.544,1.966-14.477,5.898
	c-3.931,3.931-5.897,8.756-5.897,14.476v49.327c0,6.076,1.967,11.081,5.897,15.012c3.933,3.932,8.758,5.897,14.477,5.897h52.544
	c5.719,0,10.545-1.965,14.477-5.897C427.502,153.253,429.469,148.248,429.469,142.172z M481.476,79.978v342.07
	c0,16.084-5.72,29.846-17.157,41.284s-25.378,17.337-41.821,17.693H80.964c-16.085,0-30.024-5.897-41.82-17.693
	s-17.515-25.557-17.157-41.284V79.978c0-16.084,5.719-29.847,17.157-41.284C50.582,27.255,64.522,21.358,80.964,21h341.533
	c16.086,0,30.025,5.898,41.821,17.693C476.113,50.489,481.834,64.251,481.476,79.978z"/>
</svg>
