<?xml version="1.0" encoding="utf-8"?>
<!DOCTYPE svg PUBLIC "-//W3C//DTD SVG 1.1//EN" "http://www.w3.org/Graphics/SVG/1.1/DTD/svg11.dtd">
<svg version="1.1" xmlns="http://www.w3.org/2000/svg" xmlns:xlink="http://www.w3.org/1999/xlink" xml:space="preserve">
<path d="M0 350q0 113 80 193t193 81q96 0 169-58t97-148l461 0 0-117-64 0 0-218-116 0 0 218-54 0 0-150-118 0 0 150-105 0q-18-95-94-160t-176-64q-113 0-193 80t-80 193z m127 0q0-60 43-103t103-43 104 43 43 103-43 104-104 43-103-43-43-104z"/>
</svg>