<?xml version="1.0" encoding="utf-8"?>
<!-- Generator: Adobe Illustrator 16.0.0, SVG Export Plug-In . SVG Version: 6.00 Build 0)  -->
<!DOCTYPE svg PUBLIC "-//W3C//DTD SVG 1.1//EN" "http://www.w3.org/Graphics/SVG/1.1/DTD/svg11.dtd">
<svg version="1.1" id="Capa_1" xmlns="http://www.w3.org/2000/svg" xmlns:xlink="http://www.w3.org/1999/xlink" x="0px" y="0px"
	 width="500px" height="500px" viewBox="0 0 500 500" enable-background="new 0 0 500 500" xml:space="preserve">
<path d="M9,248.2c0-36.35,12.868-67.394,38.603-93.129c25.735-25.735,56.778-38.764,93.129-39.086
	c30.883,0,58.065,9.329,81.549,27.988c23.484,18.658,39.086,42.463,46.807,71.415h222.449v56.456h-30.883v105.194h-55.974V271.844
	h-26.057v72.381h-56.939v-72.381h-50.666c-5.791,30.562-20.91,56.296-45.359,77.207c-24.449,20.909-52.757,31.203-84.927,30.882
	c-36.351,0-67.394-12.868-93.129-38.604C21.868,315.595,9,284.551,9,248.2z M70.282,248.2c0,19.302,6.917,35.87,20.749,49.702
	c13.833,13.833,30.4,20.749,49.701,20.749s36.03-6.916,50.184-20.749c14.154-13.832,21.071-30.399,20.749-49.702
	c-0.322-19.301-7.238-36.029-20.749-50.184c-13.511-14.154-30.239-21.07-50.184-20.749c-19.945,0.321-36.512,7.237-49.701,20.749
	C77.842,211.527,70.926,228.255,70.282,248.2z"/>
</svg>
