<?xml version="1.0" encoding="utf-8"?>
<!DOCTYPE svg PUBLIC "-//W3C//DTD SVG 1.1//EN" "http://www.w3.org/Graphics/SVG/1.1/DTD/svg11.dtd">
<svg version="1.1" xmlns="http://www.w3.org/2000/svg" xmlns:xlink="http://www.w3.org/1999/xlink" xml:space="preserve">
<path d="M8 96q-17 66 0 132t67 115l131 131q49 49 115 67t131 0 116-67q20-20 20-49t-20-50-50-20-49 20q-35 34-82 34t-81-34l-132-131q-33-34-33-82t33-82q34-33 82-33t81 33l27 28q78-38 164-35l-91-92q-49-49-115-66t-132 0-115 66-67 115z m291 180q0 29 21 49 20 21 49 21t50-21q33-34 81-34t82 34l131 132q34 34 34 81t-34 81q-33 34-81 34t-82-34l-27-26q-77 36-164 35l91 91q50 49 116 66t131 0 115-66q49-49 67-115t0-132-67-115l-131-131q-49-49-115-67t-132 0-114 67q-21 21-21 50z"/>
</svg>