<?xml version="1.0" encoding="utf-8"?>
<!-- Generator: Adobe Illustrator 16.0.0, SVG Export Plug-In . SVG Version: 6.00 Build 0)  -->
<!DOCTYPE svg PUBLIC "-//W3C//DTD SVG 1.1//EN" "http://www.w3.org/Graphics/SVG/1.1/DTD/svg11.dtd">
<svg version="1.1" id="Capa_1" xmlns="http://www.w3.org/2000/svg" xmlns:xlink="http://www.w3.org/1999/xlink" x="0px" y="0px"
	 width="500px" height="500px" viewBox="0 0 500 500" enable-background="new 0 0 500 500" xml:space="preserve">
<path d="M28.819,380.721c-5.788-22.471-5.788-44.943,0-67.414s17.194-42.049,34.218-58.731l66.903-66.903
	c16.684-16.683,36.261-28.089,58.732-34.217c22.472-6.129,44.772-6.129,66.904,0c22.13,6.128,41.877,17.535,59.241,34.217
	c6.811,6.81,10.215,15.152,10.215,25.025c0,9.874-3.404,18.386-10.215,25.536c-6.81,7.15-15.321,10.555-25.535,10.214
	c-10.214-0.34-18.555-3.745-25.024-10.214c-11.917-11.576-25.876-17.364-41.878-17.364c-16.002,0-29.792,5.788-41.368,17.364
	l-67.414,66.903c-11.236,11.575-16.854,25.535-16.854,41.878s5.618,30.303,16.854,41.878c11.576,11.235,25.536,16.854,41.878,16.854
	c16.343,0,30.132-5.618,41.368-16.854l13.79-14.3c26.556,12.938,54.476,18.896,83.756,17.875l-46.475,46.985
	c-16.683,16.683-36.26,27.918-58.731,33.707s-44.942,5.789-67.414,0c-22.472-5.789-42.049-17.024-58.732-33.707
	S34.947,403.191,28.819,380.721z M177.436,288.793c0-9.875,3.575-18.216,10.725-25.025c6.809-7.149,15.151-10.725,25.025-10.725
	c9.874,0,18.385,3.575,25.536,10.725c11.235,11.576,25.025,17.364,41.368,17.364s30.302-5.788,41.879-17.364l66.902-67.414
	c11.576-11.575,17.364-25.364,17.364-41.367c0-16.002-5.788-29.792-17.364-41.368c-11.236-11.577-25.025-17.365-41.368-17.365
	c-16.342,0-30.301,5.788-41.878,17.365l-13.789,13.278c-26.216-12.257-54.135-18.215-83.756-17.875l46.475-46.475
	c17.023-16.683,36.771-27.919,59.241-33.707c22.472-5.788,44.772-5.788,66.903,0c22.131,5.787,41.708,17.024,58.731,33.707
	c16.685,16.684,28.09,36.26,34.219,58.731c6.128,22.472,6.128,44.943,0,67.414c-6.129,22.471-17.534,42.048-34.219,58.731
	l-66.902,66.903c-16.684,16.683-36.261,28.089-58.732,34.217c-22.471,6.13-44.942,6.13-67.414,0
	c-22.471-6.128-41.877-17.534-58.221-34.217C181.011,307.179,177.436,298.667,177.436,288.793z"/>
</svg>
