<?xml version="1.0" encoding="utf-8"?>
<!-- Generator: Adobe Illustrator 16.0.0, SVG Export Plug-In . SVG Version: 6.00 Build 0)  -->
<!DOCTYPE svg PUBLIC "-//W3C//DTD SVG 1.1//EN" "http://www.w3.org/Graphics/SVG/1.1/DTD/svg11.dtd">
<svg version="1.1" id="Capa_1" xmlns="http://www.w3.org/2000/svg" xmlns:xlink="http://www.w3.org/1999/xlink" x="0px" y="0px"
	 width="500px" height="500px" viewBox="0 0 500 500" enable-background="new 0 0 500 500" xml:space="preserve">
<path d="M210.02,412.422c0,0.719,0.18,2.696,0.54,5.931c0.359,3.235,0.359,5.752,0,7.549c-0.36,1.799-0.719,4.313-1.079,7.55
	c-0.359,3.235-1.258,5.212-2.696,5.932c-1.438,0.719-3.595,1.258-6.471,1.617h-95.98c-24.085,0-44.575-8.447-61.471-25.343
	c-16.896-16.896-25.343-37.386-25.343-61.471V142.813c0-24.085,8.447-44.575,25.343-61.47C59.758,64.447,80.249,56,104.333,56h95.98
	c2.876,0,5.213,0.899,7.01,2.696c1.798,1.797,2.696,4.134,2.696,7.01c0,0.719,0.18,2.696,0.54,5.931
	c0.359,3.235,0.359,5.931,0,8.088c-0.36,2.156-0.719,4.493-1.079,7.01c-0.359,2.517-1.258,4.493-2.696,5.932
	c-1.438,1.438-3.595,1.977-6.471,1.617h-95.98c-13.301,0-24.625,4.853-33.971,14.559c-9.347,9.706-14.2,21.03-14.559,33.971v211.373
	c0,13.3,4.853,24.624,14.559,33.971c9.706,9.346,21.029,14.199,33.971,14.559h93.823c0,0,1.079,0,3.235,0
	c2.157,0,3.415,0.358,3.774,1.078c0.36,0.72,1.079,1.259,2.157,1.618c1.079,0.358,1.798,1.259,2.157,2.696
	C209.84,409.546,210.02,410.984,210.02,412.422z M489.333,248.5c0,5.033-1.978,9.526-5.931,13.48L320.02,425.901
	c-3.954,3.595-8.448,5.393-13.48,5.393s-9.526-1.798-13.479-5.393c-3.955-3.594-5.933-8.087-5.933-13.479v-86.814H152.323
	c-5.032,0-9.525-1.977-13.48-5.932c-3.954-3.954-5.931-8.447-5.931-13.479V190.804c0-5.393,1.977-9.885,5.931-13.48
	c3.955-3.595,8.448-5.572,13.48-5.931h134.804V84.578c0-5.032,1.978-9.526,5.933-13.48c3.953-3.955,8.447-5.752,13.479-5.392
	s9.526,2.156,13.48,5.392l163.383,163.921C487.355,238.614,489.333,243.107,489.333,248.5z"/>
</svg>
