<?xml version="1.0" encoding="utf-8"?>
<!DOCTYPE svg PUBLIC "-//W3C//DTD SVG 1.1//EN" "http://www.w3.org/Graphics/SVG/1.1/DTD/svg11.dtd">
<svg version="1.1" xmlns="http://www.w3.org/2000/svg" xmlns:xlink="http://www.w3.org/1999/xlink" xml:space="preserve">
<path d="M703 533q96 0 165-77t70-184-77-184-183-76l-418 0q-107 0-184 76t-76 184 76 184 184 77q21 0 37-16t16-36-16-37-37-16q-65 0-111-46t-45-110 45-111 111-45l418 0q65 0 110 45t46 111-39 110-92 46l-108 0 66-67q15-15 15-37t-15-36q-16-16-36-16t-36 16l-194 193 194 192q15 15 36 15t36-15 15-36-15-36l-66-68 108 0z"/>
</svg>