<?xml version="1.0" encoding="utf-8"?>
<!-- Generator: Adobe Illustrator 16.0.0, SVG Export Plug-In . SVG Version: 6.00 Build 0)  -->
<!DOCTYPE svg PUBLIC "-//W3C//DTD SVG 1.1//EN" "http://www.w3.org/Graphics/SVG/1.1/DTD/svg11.dtd">
<svg version="1.1" id="Capa_1" xmlns="http://www.w3.org/2000/svg" xmlns:xlink="http://www.w3.org/1999/xlink" x="0px" y="0px"
	 width="500px" height="500px" viewBox="0 0 500 500" enable-background="new 0 0 500 500" xml:space="preserve">
<path d="M308.148,338.958l89.926-119.366L488,338.958h-59.95v30.511c0,24.622-8.564,45.677-25.693,63.162
	c-17.129,17.486-38.362,26.229-63.698,26.229H159.877c-24.979,0-46.212-8.742-63.698-26.229
	c-17.485-17.485-26.229-38.54-26.229-63.162v-30.511h59.416v30.511c0,7.85,3.033,14.81,9.1,20.876
	c6.067,6.066,13.203,8.921,21.411,8.564h178.781c8.208,0,15.345-2.677,21.411-8.03c6.065-5.353,8.922-12.489,8.564-21.41v-30.511
	H308.148z M189.853,159.641l-89.391,119.902L10,159.641h59.951v-29.439c0-24.623,8.743-45.677,26.229-63.162
	c17.485-17.486,38.718-26.407,63.698-26.765h178.781c24.98,0,46.212,8.922,63.698,26.765c17.485,17.842,26.05,38.896,25.693,63.162
	v29.439h-59.416v-29.439c0-8.564-2.854-15.702-8.564-21.411c-5.709-5.71-12.847-8.564-21.411-8.564H159.877
	c-8.564,0-15.702,2.854-21.411,8.564c-5.709,5.709-8.743,12.847-9.1,21.411v29.439H189.853z"/>
</svg>
