<?xml version="1.0" encoding="utf-8"?>
<!DOCTYPE svg PUBLIC "-//W3C//DTD SVG 1.1//EN" "http://www.w3.org/Graphics/SVG/1.1/DTD/svg11.dtd">
<svg version="1.1" xmlns="http://www.w3.org/2000/svg" xmlns:xlink="http://www.w3.org/1999/xlink" xml:space="preserve">
<path d="M834 688q44 0 74-30t30-74l0-468q0-43-30-74t-74-30l-730 0q-44 0-74 30t-30 74l0 468q0 44 30 74t74 30l730 0z m-421-454l-82 72-190-190 655 0-190 190-81-72q-24-20-56-20t-56 20z m-309-82l187 189-187 163 0-352z m542 189l188-188 0 351z m188 243l-730 0 0-11 342-300q9-7 23-7t22 7l343 300 0 11z"/>
</svg>