<?xml version="1.0" encoding="utf-8"?>
<!DOCTYPE svg PUBLIC "-//W3C//DTD SVG 1.1//EN" "http://www.w3.org/Graphics/SVG/1.1/DTD/svg11.dtd">
<svg version="1.1" xmlns="http://www.w3.org/2000/svg" xmlns:xlink="http://www.w3.org/1999/xlink" xml:space="preserve">
<path d="M984 600q16-10 16-30l0-584q0-20-16-30-8-6-16-6t-18 6l-216 136-216-136q-18-10-34 0l-218 136-216-136q-16-10-34 0-16 10-16 30l0 584q0 20 16 30l234 146q18 10 34 0l216-136 218 136q16 10 32 0z m-750-450l0 506-168-104 0-506z m234-104l0 506-168 104 0-506z m234 104l0 506-170-104 0-506z m232-104l0 506-168 104 0-506z"/>
</svg>