<?xml version="1.0" encoding="utf-8"?>
<!-- Generator: Adobe Illustrator 16.0.0, SVG Export Plug-In . SVG Version: 6.00 Build 0)  -->
<!DOCTYPE svg PUBLIC "-//W3C//DTD SVG 1.1//EN" "http://www.w3.org/Graphics/SVG/1.1/DTD/svg11.dtd">
<svg version="1.1" id="Capa_1" xmlns="http://www.w3.org/2000/svg" xmlns:xlink="http://www.w3.org/1999/xlink" x="0px" y="0px"
	 width="500px" height="500px" viewBox="0 0 500 500" enable-background="new 0 0 500 500" xml:space="preserve">
<path d="M24.5,476.5v-64.493h64.494V476.5H24.5z M153.485,476.5v-64.493h64.494V476.5H153.485z M282.021,476.5v-64.493h64.493V476.5
	H282.021z M411.007,476.5v-64.493H475.5V476.5H411.007z M24.5,347.515v-64.493h64.494v64.493H24.5z M411.007,347.515v-64.493H475.5
	v64.493H411.007z M24.5,218.979v-64.494h64.494v64.494H24.5z M411.007,218.979v-64.494H475.5v64.494H411.007z M24.5,89.994V25.5
	h64.494v64.494H24.5z M153.485,89.994V25.5h64.494v64.494H153.485z M282.021,89.994V25.5h64.493v64.494H282.021z M411.007,89.994
	V25.5H475.5v64.494H411.007z"/>
</svg>
