<?xml version="1.0" encoding="utf-8"?>
<!-- Generator: Adobe Illustrator 16.0.0, SVG Export Plug-In . SVG Version: 6.00 Build 0)  -->
<!DOCTYPE svg PUBLIC "-//W3C//DTD SVG 1.1//EN" "http://www.w3.org/Graphics/SVG/1.1/DTD/svg11.dtd">
<svg version="1.1" id="Capa_1" xmlns="http://www.w3.org/2000/svg" xmlns:xlink="http://www.w3.org/1999/xlink" x="0px" y="0px"
	 width="500px" height="500px" viewBox="0 0 500 500" enable-background="new 0 0 500 500" xml:space="preserve">
<path d="M455.495,180.843c9.126,0,16.993,3.303,23.602,9.913c6.608,6.608,9.913,14.633,9.913,24.073
	c0,9.441-3.305,17.307-9.913,23.602c-6.608,6.293-14.476,9.598-23.602,9.912v101.014c0,9.126-3.462,16.994-10.385,23.602
	c-6.923,6.608-14.789,10.07-23.602,10.385c-73.321-61.049-144.598-94.405-213.828-100.069c-10.07,3.146-18.094,8.811-24.073,16.992
	c-5.979,8.183-8.654,17.15-8.025,26.906c0.629,9.755,4.091,17.779,10.385,24.073c-3.461,5.979-5.507,11.801-6.137,17.465
	c-0.628,5.664,0,10.699,1.888,15.105c1.889,4.405,4.721,9.282,8.497,14.633c3.776,5.35,8.024,9.755,12.745,13.216
	c4.72,3.462,10.228,7.867,16.521,13.217c-5.35,10.07-15.262,17.309-29.738,21.714s-29.266,5.506-44.371,3.305
	c-15.105-2.204-26.591-7.081-34.458-14.633c-1.259-4.092-3.934-11.801-8.025-23.131c-4.091-11.328-6.923-19.667-8.496-25.017
	c-1.574-5.35-3.462-13.217-5.665-23.602c-2.203-10.385-3.619-19.195-4.248-26.434s-0.314-15.893,0.944-25.962
	c1.258-10.069,3.146-19.824,5.665-29.266H58.992c-11.329,0-21.241-4.09-29.738-12.272s-12.587-18.095-12.273-29.738v-50.507
	c0-11.643,4.091-21.556,12.273-29.737c8.182-8.182,18.094-12.273,29.738-12.273h126.504c76.468,0,155.14-33.828,236.013-101.485
	c9.127,0,16.994,3.461,23.602,10.384c6.608,6.923,10.07,14.79,10.385,23.602V180.843z M421.509,339.917V88.796
	c-69.23,52.868-136.573,82.92-202.027,90.158v71.277C285.565,257.469,352.908,287.363,421.509,339.917z"/>
</svg>
