<?xml version="1.0" encoding="utf-8"?>
<!DOCTYPE svg PUBLIC "-//W3C//DTD SVG 1.1//EN" "http://www.w3.org/Graphics/SVG/1.1/DTD/svg11.dtd">
<svg version="1.1" xmlns="http://www.w3.org/2000/svg" xmlns:xlink="http://www.w3.org/1999/xlink" xml:space="preserve">
<path d="M238-31c27 0 47 23 47 48 0 27-20 47-47 47s-48-20-48-47c0-25 20-48 48-48z m-154 794l307 0c50 0 84-34 84-81l0-670c0-42-34-75-75-75l-325 0c-41 0-75 33-75 75l0 670c0 47 34 81 84 81z m91-54c-9 0-15-7-15-16s6-16 15-16l125 0c9 0 15 7 15 16s-6 16-15 16l-125 0z m255-607l0 496-385 0 0-496 385 0z"/>
</svg>