<?xml version="1.0" encoding="utf-8"?>
<!-- Generator: Adobe Illustrator 16.0.0, SVG Export Plug-In . SVG Version: 6.00 Build 0)  -->
<!DOCTYPE svg PUBLIC "-//W3C//DTD SVG 1.1//EN" "http://www.w3.org/Graphics/SVG/1.1/DTD/svg11.dtd">
<svg version="1.1" id="Capa_1" xmlns="http://www.w3.org/2000/svg" xmlns:xlink="http://www.w3.org/1999/xlink" x="0px" y="0px"
	 width="500px" height="500px" viewBox="0 0 500 500" enable-background="new 0 0 500 500" xml:space="preserve">
<path d="M202.821,311.307h94.74V287.4h-31.875V176.724h-27.891l-36.745,34.088l19.037,19.48
	c7.083-5.903,11.657-10.478,13.723-13.724h0.442V287.4h-31.432V311.307z M328.993,248c0,11.511-1.623,23.169-4.869,34.975
	c-3.247,11.805-8.265,22.872-15.052,33.202c-6.789,10.331-15.053,18.594-24.793,24.792c-9.739,6.197-21.102,9.445-34.088,9.739
	c-12.986,0.295-24.349-2.951-34.088-9.739c-9.739-6.789-18.151-15.053-25.234-24.792c-7.083-9.74-11.953-20.807-14.609-33.202
	c-2.656-12.397-4.426-24.055-5.313-34.975c-0.885-10.92,0.886-22.578,5.313-34.974c4.427-12.396,9.297-23.463,14.609-33.202
	c5.313-9.741,13.724-18.004,25.234-24.792c11.511-6.788,22.874-10.034,34.088-9.739c11.215,0.295,22.579,3.542,34.088,9.739
	c11.511,6.198,19.775,14.462,24.793,24.792c5.017,10.329,10.034,21.397,15.052,33.202S330.765,236.489,328.993,248z
	 M455.607,311.307V184.693c-17.413,0-32.317-6.198-44.713-18.594c-12.396-12.396-18.595-27.301-18.595-44.714H107.64
	c0,17.413-6.198,32.318-18.594,44.714c-12.396,12.396-27.301,18.594-44.714,18.594v126.613c17.709,0,32.613,6.198,44.714,18.594
	s18.298,27.301,18.594,44.714H392.3c0-17.413,6.198-32.318,18.595-44.714C423.29,317.505,438.194,311.307,455.607,311.307z
	 M487.04,105.891v284.217c0,4.428-1.476,8.265-4.428,11.511c-2.951,3.247-6.641,4.722-11.066,4.428H28.838
	c-4.427,0-8.116-1.477-11.068-4.428c-2.951-2.95-4.574-6.788-4.87-11.511V105.891c0-4.427,1.623-8.264,4.87-11.51
	c3.247-3.247,6.936-4.723,11.068-4.427h442.708c4.132,0,7.82,1.475,11.066,4.427C485.859,97.333,487.335,101.168,487.04,105.891z"/>
</svg>
