<?xml version="1.0" encoding="utf-8"?>
<!DOCTYPE svg PUBLIC "-//W3C//DTD SVG 1.1//EN" "http://www.w3.org/Graphics/SVG/1.1/DTD/svg11.dtd">
<svg version="1.1" xmlns="http://www.w3.org/2000/svg" xmlns:xlink="http://www.w3.org/1999/xlink" xml:space="preserve">
<path d="M521 239l0-167 111 0-168-169-166 169 111 0 0 167 112 0z m-112 223l0 168-111 0 166 167 168-167-111 0 0-168-112 0z m-56-167l-167 0 0-111-168 167 168 168 0-112 167 0 0-112z m223 112l168 0 0 112 167-168-167-167 0 111-168 0 0 112z"/>
</svg>