<?xml version="1.0" encoding="utf-8"?>
<!-- Generator: Adobe Illustrator 16.0.0, SVG Export Plug-In . SVG Version: 6.00 Build 0)  -->
<!DOCTYPE svg PUBLIC "-//W3C//DTD SVG 1.1//EN" "http://www.w3.org/Graphics/SVG/1.1/DTD/svg11.dtd">
<svg version="1.1" id="Capa_1" xmlns="http://www.w3.org/2000/svg" xmlns:xlink="http://www.w3.org/1999/xlink" x="0px" y="0px"
	 width="500px" height="500px" viewBox="0 0 500 500" enable-background="new 0 0 500 500" xml:space="preserve">
<path d="M13.878,323.299c-0.628-5.654,1.571-10.055,6.598-13.195L462.033,15.575c2.514-1.884,5.341-2.827,8.482-2.827
	c3.143,0,5.97,0.943,8.481,2.827c4.714,3.142,6.756,8.012,6.128,14.609l-73.516,442.029c-1.256,4.082-3.77,7.383-7.539,9.896
	c-2.199,1.256-4.556,1.885-7.069,1.885c-1.884,0-3.77-0.313-5.654-0.941l-142.788-57.022l-30.16,50.424
	c-3.142,5.027-7.541,7.54-13.195,7.54s-9.896-2.513-12.724-7.54l-54.193-94.721L23.303,336.021
	C17.648,333.51,14.507,329.269,13.878,323.299z M60.061,318.116l89.065,36.285c0.629,0.629,1.414,1.1,2.356,1.413l1.414,0.944
	L401.242,90.975L60.061,318.116z M164.206,367.125l40.998,71.629L442.712,67.883L164.206,367.125z M250.445,396.343
	c3.77,0.627,6.911,1.254,9.423,1.885l124.881,50.894l58.906-352.492L250.445,396.343z"/>
</svg>
