<?xml version="1.0" encoding="utf-8"?>
<!-- Generator: Adobe Illustrator 16.0.0, SVG Export Plug-In . SVG Version: 6.00 Build 0)  -->
<!DOCTYPE svg PUBLIC "-//W3C//DTD SVG 1.1//EN" "http://www.w3.org/Graphics/SVG/1.1/DTD/svg11.dtd">
<svg version="1.1" id="Capa_1" xmlns="http://www.w3.org/2000/svg" xmlns:xlink="http://www.w3.org/1999/xlink" x="0px" y="0px"
	 width="500px" height="500px" viewBox="0 0 500 500" enable-background="new 0 0 500 500" xml:space="preserve">
<path d="M474.533,19.79c5.89,4.341,8.215,9.921,6.976,16.74l-66.03,398.505c-0.93,4.96-3.721,8.835-8.371,11.625
	c-2.479,1.55-5.27,2.325-8.369,2.325c-1.859,0-3.875-0.465-6.045-1.396l-117.645-47.895l-62.776,76.259
	c-3.1,4.03-7.285,6.046-12.555,6.046c-2.17,0-4.03-0.31-5.58-0.93c-3.41-1.239-6.045-3.255-7.905-6.046
	c-1.86-2.789-2.945-6.044-3.255-9.765v-90.675l224.129-274.35l-277.139,239.94L27.204,297.86c-6.201-2.171-9.61-6.819-10.23-13.95
	c-0.31-7.13,2.48-12.246,8.37-15.345l431.52-249.24c2.79-1.55,5.58-2.325,8.369-2.325C468.644,17,471.744,17.93,474.533,19.79z"/>
</svg>
