<?xml version="1.0" encoding="utf-8"?>
<!DOCTYPE svg PUBLIC "-//W3C//DTD SVG 1.1//EN" "http://www.w3.org/Graphics/SVG/1.1/DTD/svg11.dtd">
<svg version="1.1" xmlns="http://www.w3.org/2000/svg" xmlns:xlink="http://www.w3.org/1999/xlink" xml:space="preserve">
<path d="M0 191q-2 18 14 28l937 625q8 6 18 6t18-6q15-10 13-31l-156-938q-4-13-16-21-7-4-15-4-6 0-12 2l-303 121-64-107q-10-16-28-16t-27 16l-115 201-244 97q-18 8-20 27z m98 11l189-77q2-2 5-3l3-2 527 564z m221-104l87-152 504 787z m183-62q12-2 20-4l265-108 125 748z"/>
</svg>