<?xml version="1.0" encoding="utf-8"?>
<!DOCTYPE svg PUBLIC "-//W3C//DTD SVG 1.1//EN" "http://www.w3.org/Graphics/SVG/1.1/DTD/svg11.dtd">
<svg version="1.1" xmlns="http://www.w3.org/2000/svg" xmlns:xlink="http://www.w3.org/1999/xlink" xml:space="preserve">
<path d="M938 605q22-22 22-55t-22-55l-570-570q-22-21-60-38t-73-17l-235 0 0 234q0 35 17 74t38 60l570 570q23 22 55 22t55-22z m-794-426l65-64 431 433-64 63z m91-205q14 0 33 8-10 10-27 26t-50 50-56 56l-22 22q-9-21-9-32l0-78 52-52 79 0z m74 40l432 432-63 64-433-431z m469 469l67 67-165 165-67-66z"/>
</svg>