<?xml version="1.0" encoding="utf-8"?>
<!-- Generator: Adobe Illustrator 16.0.0, SVG Export Plug-In . SVG Version: 6.00 Build 0)  -->
<!DOCTYPE svg PUBLIC "-//W3C//DTD SVG 1.1//EN" "http://www.w3.org/Graphics/SVG/1.1/DTD/svg11.dtd">
<svg version="1.1" id="Capa_1" xmlns="http://www.w3.org/2000/svg" xmlns:xlink="http://www.w3.org/1999/xlink" x="0px" y="0px"
	 width="500px" height="500px" viewBox="0 0 500 500" enable-background="new 0 0 500 500" xml:space="preserve">
<path d="M278.947,438.081c0,3.448-0.688,7.933-2.069,13.451c-1.379,5.52-2.759,9.888-4.14,13.107
	c-2.528,6.438-10.348,13.337-23.455,20.696c-11.957,6.438-23.799,9.657-35.527,9.657c-3.679,0-7.128-0.23-10.348-0.689
	c-3.22-0.46-6.898-1.264-11.038-2.415c-4.139-1.149-7.127-2.069-8.967-2.759c-1.84-0.689-5.404-1.954-10.693-3.794
	c-5.288-1.84-8.508-2.99-9.657-3.449c-12.418-4.6-23.57-10.004-33.458-16.213c-16.556-10.118-33.573-23.915-51.049-41.391
	c-17.476-17.477-31.273-34.493-41.391-51.049c-6.209-9.888-11.498-21.041-15.867-33.458c-0.46-1.149-1.609-4.369-3.449-9.658
	s-3.219-8.854-4.139-10.692c-0.919-1.84-1.84-4.83-2.759-8.969c-0.919-4.14-1.725-7.818-2.415-11.037
	c-0.689-3.219-0.919-6.553-0.689-10.004c0-11.957,3.334-23.914,10.003-35.872c7.128-13.107,13.912-20.926,20.351-23.456
	c3.22-1.379,7.589-2.759,13.107-4.139s10.002-2.069,13.452-2.069c1.84,0,3.219,0.23,4.139,0.69
	c2.299,0.689,5.749,5.633,10.348,14.831c1.38,2.3,3.22,5.749,5.52,10.348c2.299,4.601,4.599,8.624,6.898,12.073
	c2.3,3.449,4.255,6.898,5.864,10.348c0.46,0.461,1.609,2.069,3.449,4.83c1.839,2.759,3.219,5.059,4.139,6.897
	c0.919,1.84,1.38,3.68,1.38,5.519c0,2.53-1.84,5.749-5.519,9.658c-3.679,3.909-7.704,7.358-12.073,10.348
	c-4.368,2.989-8.278,6.438-11.727,10.347c-3.449,3.91-5.29,6.784-5.519,8.625c0,1.148,0.344,2.644,1.034,4.483
	s1.15,3.104,1.38,3.794c0.23,0.689,1.15,2.3,2.76,4.829s2.414,3.679,2.414,3.448c9.658,17.707,20.812,32.885,33.458,45.53
	c12.646,12.647,27.709,23.8,45.185,33.458c0.231,0,1.379,0.689,3.45,2.069c2.069,1.38,3.679,2.3,4.828,2.76
	c1.15,0.459,2.416,1.034,3.795,1.725c1.38,0.689,2.875,0.918,4.485,0.689c2.299,0,5.174-1.725,8.623-5.174
	c3.45-3.45,6.899-7.472,10.348-12.072c3.449-4.6,7.013-8.623,10.693-12.073c3.679-3.448,6.899-5.289,9.658-5.518
	c1.61,0,3.335,0.46,5.173,1.38c1.84,0.919,4.138,2.3,6.899,4.139c2.759,1.841,4.37,2.989,4.828,3.449
	c3.22,1.841,6.669,3.794,10.349,5.864c3.679,2.069,7.703,4.369,12.072,6.898c4.369,2.53,7.934,4.483,10.692,5.864
	c8.968,4.368,13.799,7.703,14.488,10.003C278.718,434.86,278.947,436.24,278.947,438.081z M297.373,35.885
	c-29.85,0-57.733,5.106-83.655,15.317c-25.921,10.211-46.475,23.958-61.661,41.239c-15.186,17.28-22.911,35.872-23.172,55.77
	c0,16.234,5.237,31.813,15.71,46.737c10.473,14.924,25.267,27.753,44.38,38.489l18.852,10.997l-5.892,21.208
	c-3.403,13.092-8.509,25.659-15.316,37.703c22.255-9.426,42.417-21.994,60.483-37.703l9.425-8.247l12.176,1.178
	c10.211,1.31,19.769,1.963,28.67,1.963c29.85,0,57.734-5.105,83.654-15.317c25.922-10.212,46.477-23.957,61.662-41.239
	c15.187-17.28,22.91-35.872,23.173-55.77c0.261-19.898-7.464-38.489-23.173-55.77c-15.71-17.281-36.265-31.027-61.662-41.239
	C355.63,40.991,327.746,35.885,297.373,35.885z M493.746,148.21c0,25.397-8.771,48.833-26.313,70.302
	c-17.544,21.47-41.369,38.488-71.479,51.057c-30.111,12.568-62.971,18.853-98.58,18.853c-10.211,0-20.814-0.525-31.813-1.571
	c-28.801,25.396-62.446,43.07-100.935,53.021c-7.07,2.095-15.318,3.665-24.744,4.713h-1.178c-2.095,0-4.059-0.786-5.891-2.355
	c-1.833-1.572-3.011-3.535-3.535-5.893v-0.392c-0.523-0.524-0.523-1.31,0-2.357c0.524-1.047,0.655-1.832,0.393-2.356
	c-0.262-0.524,0-1.178,0.785-1.964l1.571-1.963c0,0,0.524-0.654,1.571-1.964c1.048-1.31,1.571-1.963,1.571-1.963
	c1.047-1.311,3.273-3.797,6.677-7.462c3.404-3.667,6.022-6.548,7.854-8.641c1.833-2.096,4.059-4.975,6.676-8.642
	c2.619-3.665,4.975-7.331,7.069-10.996c2.095-3.666,4.059-7.986,5.892-12.961c1.833-4.975,3.795-10.472,5.891-16.494
	c-23.041-13.094-41.107-29.195-54.199-48.309c-13.092-19.113-19.769-39.667-20.03-61.662c0-25.397,8.771-48.832,26.314-70.301
	c17.542-21.471,41.37-38.489,71.48-51.057C228.904,14.284,261.764,8,297.373,8s68.469,6.284,98.58,18.852
	c30.11,12.568,53.936,29.586,71.479,51.057C484.975,99.379,493.746,122.813,493.746,148.21z M378.73,213.185l-58.092-55.809
	c20.665-27.994,46.301-69.764,40.418-98.293l-65.651,74.052l-21.043-20.214c4.091-11.132,0.636-25.565-9.39-35.446
	c-12.501-12.543-37.94-22.058-49.839-10.866c-11.296,11.793-1.906,37.21,10.6,49.75c9.849,10.053,24.305,13.587,35.5,9.574
	l21.142,21.9l-13.416,15.132c0,0-18.297,31.241-44.48,54.07c0,0-11.561,11.185-0.41,19.276
	c16.422,11.916,17.264-4.553,16.835-11.017c0,0,16.865,2.546,28.026-25.794c0,0,3.851-15.68,8.172-11.902
	c4.322,3.778,7.512,2.757,12.601-6.509l6.914,6.043c0,0,4.476-4.936,11.083-13.064l54.028,55.967c3.588,3.601,11.389,1.675,15-1.903
	C380.344,224.55,382.32,216.786,378.73,213.185z M370.436,222.361c-2.49,2.515-6.552,2.542-9.075,0.062
	c-2.522-2.481-2.552-6.534-0.063-9.047c2.489-2.516,6.553-2.544,9.077-0.063C372.896,215.794,372.922,219.845,370.436,222.361z"/>
</svg>
