<?xml version="1.0" encoding="utf-8"?>
<!DOCTYPE svg PUBLIC "-//W3C//DTD SVG 1.1//EN" "http://www.w3.org/Graphics/SVG/1.1/DTD/svg11.dtd">
<svg version="1.1" xmlns="http://www.w3.org/2000/svg" xmlns:xlink="http://www.w3.org/1999/xlink" xml:space="preserve">
<path d="M856 518l-100 0-124 150-214-150-180 0q-52 0-90-39t-38-91l0-160-108 296q-10 38 22 52l680 248q36 10 50-24z m106-90q16 0 27-12t11-28l0-472q0-16-11-28t-27-12l-724 0q-16 0-27 12t-11 28l0 472q0 16 11 28t27 12l724 0z m-56-452l0 162-72 160-166-60-130-132-138 170-92-214 0-86 598 0z"/>
</svg>