<?xml version="1.0" encoding="utf-8"?>
<!-- Generator: Adobe Illustrator 16.0.0, SVG Export Plug-In . SVG Version: 6.00 Build 0)  -->
<!DOCTYPE svg PUBLIC "-//W3C//DTD SVG 1.1//EN" "http://www.w3.org/Graphics/SVG/1.1/DTD/svg11.dtd">
<svg version="1.1" id="Capa_1" xmlns="http://www.w3.org/2000/svg" xmlns:xlink="http://www.w3.org/1999/xlink" x="0px" y="0px"
	 width="500px" height="500px" viewBox="0 0 500 500" enable-background="new 0 0 500 500" xml:space="preserve">
<path d="M482,283.152V220.26c0-8.621-3.135-16.066-9.404-22.336c-6.271-6.27-13.715-9.208-22.336-8.817H313.894V52.152
	c0-8.62-3.135-15.87-9.405-21.748c-6.27-5.878-13.715-9.013-22.336-9.404H219.26c-8.621,0-16.066,3.135-22.336,9.404
	s-9.208,13.52-8.817,21.748v136.954H51.74c-9.013,0-16.458,2.939-22.335,8.817c-5.878,5.878-9.013,13.322-9.405,22.336v62.893
	c0,9.013,3.135,16.458,9.405,22.336c6.27,5.878,13.715,9.013,22.335,9.405h136.367V451.26c0,8.621,2.939,16.065,8.817,22.336
	c5.878,6.27,13.323,9.404,22.336,9.404h62.893c9.013,0,16.458-3.135,22.336-9.404c5.878-6.271,9.013-13.715,9.405-22.336V314.894
	H450.26c8.621,0,16.065-3.135,22.336-9.405C478.865,299.219,482,291.773,482,283.152z"/>
</svg>
