<?xml version="1.0" encoding="utf-8"?>
<!-- Generator: Adobe Illustrator 16.0.0, SVG Export Plug-In . SVG Version: 6.00 Build 0)  -->
<!DOCTYPE svg PUBLIC "-//W3C//DTD SVG 1.1//EN" "http://www.w3.org/Graphics/SVG/1.1/DTD/svg11.dtd">
<svg version="1.1" id="Capa_1" xmlns="http://www.w3.org/2000/svg" xmlns:xlink="http://www.w3.org/1999/xlink" x="0px" y="0px"
	 width="500px" height="500px" viewBox="0 0 500 500" enable-background="new 0 0 500 500" xml:space="preserve">
<path d="M248.301,469.539c15.576,0,27.114-13.269,27.114-27.69c0-15.576-11.538-27.113-27.114-27.113
	c-15.576,0-27.69,11.537-27.69,27.113C220.61,456.271,232.148,469.539,248.301,469.539z M159.459,11.484h177.105
	c28.847,0,48.461,19.614,48.461,46.729v386.521c0,24.229-19.614,43.268-43.268,43.268H154.267C130.614,488,111,468.963,111,444.732
	V58.213C111,31.099,130.614,11.484,159.459,11.484z M211.957,42.636c-5.192,0-8.653,4.039-8.653,9.23c0,5.192,3.461,9.23,8.653,9.23
	h72.111c5.193,0,8.654-4.038,8.654-9.23c0-5.191-3.461-9.23-8.654-9.23H211.957z M359.064,392.813V106.672H136.96v286.142H359.064z
	 M248.635,141.461c-57.651,0-104.382,40.673-104.382,90.827c0,50.141,46.731,90.799,104.382,90.799c3.337,0,6.632-0.142,9.877-0.41
	c-0.155,23.666-27.372,42.104-27.372,42.104c68.067-22.844,95.334-63.461,104.836-82.791c10.749-14.271,17.049-31.349,17.049-49.701
	C353.025,182.134,306.273,141.461,248.635,141.461z M265.535,276.553c1.91-0.636,3.5,0,4.773,1.909
	c1.272,1.91,1.062,3.713-0.638,5.408c-0.53,0.53-1.695,1.38-3.5,2.546c-1.802,1.167-4.931,2.545-9.385,4.137
	c-4.455,1.591-8.908,2.386-13.363,2.386c-11.56,0-19.461-4.188-23.704-12.566c-3.711-7.849-3.022-16.705,2.068-26.568l8.273-16.543
	c2.969-5.833,3.128-9.706,0.477-11.614c-0.53-0.53-1.697-0.795-3.5-0.795c-1.167,0-2.44,0.158-3.818,0.478
	c-1.379,0.318-2.545,0.583-3.5,0.795l-1.114,0.318c-2.015,0.742-3.659,0.159-4.931-1.75c-1.273-1.909-1.062-3.606,0.636-5.091
	c0.742-0.743,1.909-1.644,3.5-2.704c1.591-1.062,4.667-2.44,9.227-4.137c4.561-1.696,9.014-2.545,13.362-2.545
	c11.773,0,19.726,4.19,23.863,12.568c3.711,7.742,3.075,16.598-1.908,26.566l-8.432,16.544c-2.864,5.939-2.97,9.864-0.319,11.772
	c0.319,0.317,1.432,0.478,3.341,0.478c1.167,0,2.44-0.105,3.818-0.318c1.378-0.212,2.547-0.478,3.5-0.795L265.535,276.553z
	 M237.855,181.104c0-13.788,6.894-20.682,20.681-20.682s20.681,6.894,20.681,20.682c0,13.787-6.894,20.681-20.681,20.681
	S237.855,194.891,237.855,181.104z"/>
</svg>
