<?xml version="1.0" encoding="utf-8"?>
<!-- Generator: Adobe Illustrator 16.0.0, SVG Export Plug-In . SVG Version: 6.00 Build 0)  -->
<!DOCTYPE svg PUBLIC "-//W3C//DTD SVG 1.1//EN" "http://www.w3.org/Graphics/SVG/1.1/DTD/svg11.dtd">
<svg version="1.1" id="Capa_1" xmlns="http://www.w3.org/2000/svg" xmlns:xlink="http://www.w3.org/1999/xlink" x="0px" y="0px"
	 width="500px" height="500px" viewBox="0 0 500 500" enable-background="new 0 0 500 500" xml:space="preserve">
<path d="M245.301,472.539c15.576,0,27.114-13.269,27.114-27.69c0-15.576-11.538-27.113-27.114-27.113
	c-15.576,0-27.69,11.537-27.69,27.113C217.61,459.271,229.148,472.539,245.301,472.539z M156.459,14.484h177.105
	c28.847,0,48.461,19.614,48.461,46.729v386.521c0,24.229-19.614,43.268-43.268,43.268H151.267C127.614,491,108,471.963,108,447.732
	V61.213C108,34.099,127.614,14.484,156.459,14.484z M208.957,45.636c-5.192,0-8.653,4.039-8.653,9.23c0,5.192,3.461,9.23,8.653,9.23
	h72.111c5.193,0,8.654-4.038,8.654-9.23c0-5.191-3.461-9.23-8.654-9.23H208.957z M356.064,395.813V109.672H133.96v286.142H356.064z
	 M346.5,242.343h-204V158.5h204V242.343z M176,223c6.691,0,12.363-2.327,17.018-6.981C197.673,211.363,200,205.69,200,199
	c0-6.4-2.327-12-6.982-16.8S182.691,175,176,175s-12.364,2.4-17.018,7.2C154.327,187,152,192.6,152,199
	c0,6.69,2.327,12.363,6.982,17.019C163.636,220.673,169.309,223,176,223z"/>
</svg>
