<?xml version="1.0" encoding="utf-8"?>
<!DOCTYPE svg PUBLIC "-//W3C//DTD SVG 1.1//EN" "http://www.w3.org/Graphics/SVG/1.1/DTD/svg11.dtd">
<svg version="1.1" xmlns="http://www.w3.org/2000/svg" xmlns:xlink="http://www.w3.org/1999/xlink" xml:space="preserve">
<path d="M214 207v-71h-71v71h71z m0 429v-72h-71v72h71z m429 0v-72h-72v72h72z m-572-571h215v214h-215v-214z m0 428h215v214h-215v-214z m429 0h214v214h-214v-214z m-143-143v-357h-357v357h357z m286-286v-71h-72v71h72z m143 0v-71h-72v71h72z m0 286v-214h-215v71h-71v-214h-71v357h214v-71h71v71h72z m-429 429v-358h-357v358h357z m429 0v-358h-357v358h357z"/>
</svg>