<?xml version="1.0" encoding="utf-8"?>
<!-- Generator: Adobe Illustrator 16.0.0, SVG Export Plug-In . SVG Version: 6.00 Build 0)  -->
<!DOCTYPE svg PUBLIC "-//W3C//DTD SVG 1.1//EN" "http://www.w3.org/Graphics/SVG/1.1/DTD/svg11.dtd">
<svg version="1.1" id="Capa_1" xmlns="http://www.w3.org/2000/svg" xmlns:xlink="http://www.w3.org/1999/xlink" x="0px" y="0px"
	 width="500px" height="500px" viewBox="0 0 500 500" enable-background="new 0 0 500 500" xml:space="preserve">
<path d="M80.103,280.652h142.807v145.606c0,8.588-2.24,15.681-6.72,21.281c-4.48,5.601-10.827,8.4-19.042,8.4
	c-8.214,0-15.121-2.987-20.721-8.961c-5.6-5.973-8.587-12.881-8.96-20.721v-49.842l-99.125,99.684c-5.6,5.601-12.321,8.4-20.161,8.4
	c-8.587,0-15.681-2.8-21.281-8.4s-8.4-12.508-8.4-20.721c0-8.214,2.8-15.121,8.4-20.721l95.764-95.765H80.103
	c-7.84,0-14.56-2.986-20.161-8.961c-5.6-5.973-8.4-12.88-8.4-20.72c0-7.841,2.8-14.561,8.4-20.161
	C65.542,283.452,72.263,280.652,80.103,280.652z M105.864,221.849c-7.84,0-14.748-2.8-20.721-8.4s-8.774-12.321-8.4-20.161V76.243
	h117.045c7.84,0,14.561,2.987,20.161,8.96c5.601,5.974,8.587,12.88,8.96,20.721c0.374,7.841-2.613,14.561-8.96,20.161
	c-6.347,5.601-13.067,8.4-20.161,8.4h-58.243v58.803c0,7.84-2.987,14.56-8.96,20.161S113.704,221.849,105.864,221.849z
	 M398.197,280.652c7.84,0,14.561,2.8,20.161,8.4s8.4,12.32,8.4,20.161v117.045H310.273c-7.841,0-14.747-2.8-20.721-8.4
	s-8.773-12.508-8.4-20.722c0.373-8.213,3.174-15.12,8.4-20.72c5.227-5.601,12.134-8.4,20.721-8.4h58.243v-58.803
	c0-7.841,2.985-14.561,8.96-20.161C383.45,283.452,390.357,280.652,398.197,280.652z M435.719,26.4
	C441.319,20.8,448.04,18,455.88,18c7.841,0,14.747,2.8,20.721,8.4c5.975,5.601,8.774,12.507,8.4,20.721
	c-0.373,8.213-3.174,15.121-8.4,20.721l-96.323,95.765h46.481c7.84,0,14.747,2.987,20.721,8.96c5.974,5.974,8.774,12.88,8.4,20.721
	c-0.373,7.84-3.173,14.56-8.4,20.161c-5.227,5.601-12.134,8.4-20.721,8.4H281.152V76.243c0-7.84,2.8-14.747,8.4-20.721
	c5.601-5.974,12.507-8.774,20.721-8.4c8.214,0.374,15.12,3.173,20.721,8.4c5.601,5.227,8.4,12.134,8.4,20.721v46.482L435.719,26.4z"
	/>
</svg>
