<?xml version="1.0" encoding="utf-8"?>
<!DOCTYPE svg PUBLIC "-//W3C//DTD SVG 1.1//EN" "http://www.w3.org/Graphics/SVG/1.1/DTD/svg11.dtd">
<svg version="1.1" xmlns="http://www.w3.org/2000/svg" xmlns:xlink="http://www.w3.org/1999/xlink" xml:space="preserve">
<path d="M110 298l255 0 0-260q0-23-12-38t-34-15-37 16-16 37l0 89-177-178q-15-15-36-15-23 0-38 15t-15 37 15 37l171 171-76 0q-21 0-36 16t-15 37 15 36 36 15z m46 105q-21 0-37 15t-15 36l0 209 209 0q21 0 36-16t16-37-16-36-36-15l-104 0 0-105q0-21-16-36t-37-15z m522-105q21 0 36-15t15-36l0-209-208 0q-21 0-37 15t-15 37 15 37 37 15l104 0 0 105q0 21 16 36t37 15z m67 454q15 15 36 15t37-15 15-37-15-37l-172-171 83 0q21 0 37-16t15-37-15-36-37-15l-260 0 0 260q0 21 15 37t37 15 37-15 15-37l0-83z"/>
</svg>