<?xml version="1.0" encoding="utf-8"?>
<!-- Generator: Adobe Illustrator 16.0.0, SVG Export Plug-In . SVG Version: 6.00 Build 0)  -->
<!DOCTYPE svg PUBLIC "-//W3C//DTD SVG 1.1//EN" "http://www.w3.org/Graphics/SVG/1.1/DTD/svg11.dtd">
<svg version="1.1" id="Capa_1" xmlns="http://www.w3.org/2000/svg" xmlns:xlink="http://www.w3.org/1999/xlink" x="0px" y="0px"
	 width="500px" height="500px" viewBox="0 0 500 500" enable-background="new 0 0 500 500" xml:space="preserve">
<path d="M20,420.226c0-16.904,5.993-31.35,17.979-43.335c11.986-11.987,26.431-17.979,43.334-17.979
	c16.904,0,31.348,5.992,43.335,17.979c11.986,11.985,17.979,26.431,17.979,43.335c0,17.21-5.993,31.81-17.979,43.796
	c-11.987,11.986-26.431,17.824-43.335,17.518c-16.903-0.308-31.348-6.301-43.334-17.979C25.993,451.881,20,437.436,20,420.226z
	 M20,265.787v-88.053c55.014,0,105.878,13.523,152.594,40.569c46.715,27.046,83.75,64.08,111.103,111.103
	C311.05,376.43,324.572,427.294,324.266,482h-88.514c0-59.623-21.053-110.487-63.158-152.594
	C130.181,286.994,79.316,265.787,20,265.787z M20,109.506V20.992c62.39,0,122.013,12.139,178.871,36.419
	c56.858,24.28,105.879,57.165,147.062,98.656c41.184,41.491,74.069,90.511,98.655,147.062
	c24.587,56.55,36.727,116.175,36.42,178.871h-88.514c0-50.404-9.835-98.655-29.505-144.756s-46.1-85.748-79.293-118.94
	c-33.192-33.193-72.839-59.624-118.939-79.293C118.656,119.34,70.403,109.506,20,109.506z"/>
</svg>
