<?xml version="1.0" encoding="utf-8"?>
<!DOCTYPE svg PUBLIC "-//W3C//DTD SVG 1.1//EN" "http://www.w3.org/Graphics/SVG/1.1/DTD/svg11.dtd">
<svg version="1.1" xmlns="http://www.w3.org/2000/svg" xmlns:xlink="http://www.w3.org/1999/xlink" xml:space="preserve">
<path d="M0-16q0 55 39 94t94 39 94-39 39-94q0-56-39-95t-94-38-94 39-39 94z m0 335l0 191q179 0 331-88t241-241 88-331l-192 0q0 194-137 331-138 138-331 138z m0 339l0 192q203 0 388-79t319-214 214-319 79-388l-192 0q0 164-64 314t-172 258-258 172-314 64z"/>
</svg>