<?xml version="1.0" encoding="utf-8"?>
<!-- Generator: Adobe Illustrator 16.0.0, SVG Export Plug-In . SVG Version: 6.00 Build 0)  -->
<!DOCTYPE svg PUBLIC "-//W3C//DTD SVG 1.1//EN" "http://www.w3.org/Graphics/SVG/1.1/DTD/svg11.dtd">
<svg version="1.1" id="Capa_1" xmlns="http://www.w3.org/2000/svg" xmlns:xlink="http://www.w3.org/1999/xlink" x="0px" y="0px"
	 width="500px" height="500px" viewBox="0 0 500 500" enable-background="new 0 0 500 500" xml:space="preserve">
<path d="M376.958,171c21.872,0,40.57-7.585,56.092-22.754c15.522-15.169,23.283-34.043,23.283-56.621
	c0-21.872-7.761-40.569-23.283-56.091c-15.521-15.522-34.22-23.284-56.092-23.284c-21.871,0-40.569,7.761-56.091,23.284
	c-15.522,15.522-23.284,34.219-23.284,56.091c0,2.117,0.177,4.586,0.529,7.408c0.354,2.822,0.529,4.939,0.529,6.35l-137.583,82.55
	C146.242,176.644,130.014,171,112.375,171c-21.873,0-40.569,7.761-56.092,23.284C40.761,209.806,33,228.502,33,250.375
	s7.761,40.57,23.283,56.092c15.522,15.522,34.219,23.283,56.092,23.283c19.05,0,35.278-5.292,48.684-15.875l137.583,82.55
	c0,1.411-0.176,3.528-0.529,6.35c-0.353,2.822-0.529,4.938-0.529,6.351c0,21.872,7.762,40.57,23.284,56.092
	c15.521,15.522,34.22,23.283,56.091,23.283c21.872,0,40.57-7.584,56.092-22.754c15.522-15.17,23.283-34.043,23.283-56.621
	c0-21.872-7.761-40.57-23.283-56.092c-15.521-15.522-34.22-23.283-56.092-23.283c-18.345,0-34.219,5.645-47.624,16.934
	l-138.643-82.55c0.706-2.823,1.059-7.408,1.059-13.759c0-5.645-0.353-9.877-1.059-12.7l138.643-82.55
	C342.033,165.708,357.908,171,376.958,171z"/>
</svg>
