<?xml version="1.0" encoding="utf-8"?>
<!-- Generator: Adobe Illustrator 16.0.0, SVG Export Plug-In . SVG Version: 6.00 Build 0)  -->
<!DOCTYPE svg PUBLIC "-//W3C//DTD SVG 1.1//EN" "http://www.w3.org/Graphics/SVG/1.1/DTD/svg11.dtd">
<svg version="1.1" id="Capa_1" xmlns="http://www.w3.org/2000/svg" xmlns:xlink="http://www.w3.org/1999/xlink" x="0px" y="0px"
	 width="500px" height="500px" viewBox="0 0 500 500" enable-background="new 0 0 500 500" xml:space="preserve">
<path d="M112.789,131.211c13.97-13.97,38.749-13.138,74.339,2.495c35.589,15.633,71.678,41.743,108.265,78.331
	c36.587,36.587,62.697,72.674,78.33,108.265c15.633,35.59,16.465,60.369,2.494,74.339c-9.313,9.313-24.612,20.455-45.9,33.428
	c-21.287,12.972-47.23,25.943-77.831,38.915c-30.6,12.972-62.864,17.795-96.79,14.469c-33.927-3.326-63.196-17.295-87.81-41.908
	c-24.614-24.614-38.583-53.884-41.91-87.811c-3.326-33.926,1.497-66.19,14.469-96.791c12.972-30.6,25.944-56.543,38.916-77.83
	C92.333,155.824,103.476,140.524,112.789,131.211z M344.288,370.692c2.66-3.326,2.161-11.475-1.497-24.447
	c-3.659-12.972-11.808-29.769-24.447-50.391c-12.639-20.622-28.604-40.245-47.896-58.873c-18.626-19.291-38.25-35.257-58.872-47.896
	c-20.622-12.639-37.419-20.788-50.391-24.447c-12.972-3.659-21.121-4.157-24.447-1.497c-2.661,3.327-2.162,11.476,1.497,24.447
	c3.659,12.972,11.807,29.768,24.447,50.391c12.639,20.623,28.272,40.58,46.898,59.871c19.292,18.626,39.249,34.259,59.871,46.898
	c20.621,12.639,37.419,20.788,50.391,24.446C332.813,372.854,340.961,373.354,344.288,370.692z M347.281,174.118
	c-5.987,0-11.641-2.661-16.964-7.982c-5.321-4.656-7.981-10.478-7.981-17.462s2.66-12.805,7.981-17.462l46.898-47.896
	c11.975-10.644,23.948-10.644,35.923,0c10.644,11.974,10.644,23.948,0,35.922l-47.896,46.898
	C359.92,171.458,353.934,174.118,347.281,174.118z M257.476,112.252c-5.987-3.327-9.812-8.316-11.475-14.968
	c-1.664-6.651-0.832-12.971,2.494-18.958l26.941-47.896c8.648-14.634,19.957-17.961,33.927-9.978
	c5.987,3.326,9.813,8.314,11.475,14.967c1.663,6.652,0.832,12.972-2.494,18.959l-26.941,47.896
	c-4.656,8.647-11.642,12.971-20.955,12.971C265.792,115.246,261.467,114.249,257.476,112.252z M476.002,187.09
	c3.327,5.987,3.991,12.307,1.996,18.959c-1.996,6.651-5.987,11.642-11.975,14.967l-47.896,26.942
	c-5.321,2.66-9.313,3.991-11.974,3.991c-9.313,0-16.631-4.324-21.952-12.973c-3.327-5.987-3.991-12.306-1.996-18.959
	c1.996-6.651,5.987-11.641,11.975-14.967l47.896-26.941c5.987-3.327,12.308-4.158,18.96-2.494
	C467.687,177.278,472.676,181.103,476.002,187.09z"/>
</svg>
