<?xml version="1.0" encoding="utf-8"?>
<!-- Generator: Adobe Illustrator 16.0.0, SVG Export Plug-In . SVG Version: 6.00 Build 0)  -->
<!DOCTYPE svg PUBLIC "-//W3C//DTD SVG 1.1//EN" "http://www.w3.org/Graphics/SVG/1.1/DTD/svg11.dtd">
<svg version="1.1" id="Capa_1" xmlns="http://www.w3.org/2000/svg" xmlns:xlink="http://www.w3.org/1999/xlink" x="0px" y="0px"
	 width="500px" height="500px" viewBox="0 0 500 500" enable-background="new 0 0 500 500" xml:space="preserve">
<path d="M14.978,251.74c0.334,10.01,4.004,18.52,11.012,25.527s15.518,10.512,25.529,10.512h64.071
	c9.677,0,18.187-3.504,25.528-10.512s10.845-15.518,10.512-25.527c-0.333-10.012-3.837-18.521-10.512-25.529
	s-15.184-10.512-25.528-10.512H51.519c-10.011,0-18.688,3.504-26.029,10.512C18.148,233.219,14.645,241.729,14.978,251.74z
	 M73.043,111.583c0,9.678,3.671,18.021,11.012,25.028l45.551,45.55c7.008,7.008,15.517,10.512,25.528,10.512
	s18.354-3.336,25.028-10.011c7.008-7.341,10.512-16.018,10.512-26.029c0-10.011-3.504-18.354-10.512-25.028l-45.551-45.55
	c-7.008-7.008-15.517-10.512-25.528-10.512s-18.354,3.504-25.028,10.512C76.714,93.063,73.043,101.573,73.043,111.583z
	 M73.043,391.896c0,10.011,3.504,18.521,10.512,25.528s15.517,10.512,25.528,10.512s18.521-3.504,25.528-10.512l45.551-45.551
	c7.008-7.008,10.512-15.517,10.512-25.528c0-10.011-3.504-18.521-10.512-25.528c-7.008-7.009-15.351-10.513-25.028-10.513
	c-9.678,0-18.187,3.504-25.528,10.513l-46.051,45.551C76.547,373.375,73.043,381.884,73.043,391.896z M213.699,53.018v64.572
	c0,10.012,3.504,18.521,10.512,25.529c7.008,7.008,15.517,10.512,25.528,10.512c10.011,0,18.521-3.504,25.529-10.512
	s10.512-15.517,10.512-25.529V53.018c0-9.677-3.504-18.187-10.512-25.528c-7.008-7.342-15.518-10.845-25.529-10.512
	c-10.011,0.333-18.52,3.837-25.528,10.512C217.203,34.164,213.699,42.674,213.699,53.018z M213.699,385.889v64.071
	c0,10.012,3.504,18.521,10.512,25.528c7.008,7.008,15.517,10.512,25.528,10.512c10.011,0,18.521-3.504,25.529-10.512
	s10.512-15.517,10.512-25.528v-64.071c0-10.012-3.504-18.521-10.512-25.528s-15.518-10.679-25.529-11.012
	c-10.011,0-18.52,3.504-25.528,10.512C217.203,366.868,213.699,375.544,213.699,385.889z M308.806,156.634
	c0,10.011,3.504,18.688,10.512,26.029c7.008,7.008,15.35,10.512,25.027,10.512c9.677,0,18.187-3.504,25.528-10.512l45.551-45.551
	c7.008-7.008,10.512-15.517,10.512-25.528c0-10.011-3.504-18.521-10.512-25.528c-7.008-7.008-15.518-10.512-25.528-10.512
	c-10.012,0-18.521,3.504-25.528,10.512l-45.05,45.55C312.31,138.613,308.806,146.956,308.806,156.634z M308.806,346.345
	c0,10.012,3.504,18.521,10.512,25.528l45.05,45.551c7.008,7.008,15.517,10.512,25.528,10.512c10.011,0,18.521-3.504,25.528-10.512
	s10.512-15.518,10.512-25.528c0-10.012-3.504-18.521-10.512-25.528l-45.551-45.551c-7.008-7.009-15.517-10.513-25.528-10.513
	c-10.011,0-18.354,3.504-25.027,10.513C312.643,327.824,309.139,336.334,308.806,346.345z M347.349,251.74
	c0,10.01,3.67,18.52,11.012,25.527s15.852,10.512,25.528,10.512h64.071c10.011,0,18.521-3.504,25.528-10.512S484,261.75,484,251.74
	c0-10.012-3.504-18.521-10.512-25.529s-15.518-10.512-25.528-10.512h-64.071c-10.012,0-18.688,3.504-26.028,10.512
	C350.518,233.219,347.014,241.729,347.349,251.74z"/>
</svg>
