<?xml version="1.0" encoding="utf-8"?>
<!DOCTYPE svg PUBLIC "-//W3C//DTD SVG 1.1//EN" "http://www.w3.org/Graphics/SVG/1.1/DTD/svg11.dtd">
<svg version="1.1" xmlns="http://www.w3.org/2000/svg" xmlns:xlink="http://www.w3.org/1999/xlink" xml:space="preserve">
<path d="M0 350q1 30 22 51t51 21h128q29 0 51-21t21-51-21-51-51-21h-128q-30 0-52 21t-21 51z m116-280q0 29 22 50l91 91q21 21 51 21t50-20q21-22 21-52t-21-50l-91-91q-21-21-51-21t-50 21q-22 21-22 51z m0 560q0 30 21 51 21 21 51 21t51-21l91-91q21-21 21-51t-21-51-50-21-51 21l-92 91q-21 21-21 51z m281-677v129q0 30 21 51t51 21 51-21 21-51v-129q0-29-21-51t-51-21-51 21-21 51z m0 665v128q0 30 21 51t51 21q30 0 51-21t21-51v-128q0-30-21-51t-51-22q-30 0-51 21t-21 52z m190-458q0 30 21 52 21 21 50 21t51-21l91-91q21-21 21-51t-21-51q-21-21-51-21t-51 21l-90 91q-21 21-21 50z m0 379q0 30 21 51l90 91q21 21 51 21t51-21q21-21 21-51t-21-51l-91-91q-21-21-51-21t-50 21-21 51z m77-189q0 30 22 51t51 21h128q30 0 51-21t21-51-21-51-51-21h-128q-30 0-52 21t-21 51z"/>
</svg>