<?xml version="1.0" encoding="utf-8"?>
<!-- Generator: Adobe Illustrator 16.0.0, SVG Export Plug-In . SVG Version: 6.00 Build 0)  -->
<!DOCTYPE svg PUBLIC "-//W3C//DTD SVG 1.1//EN" "http://www.w3.org/Graphics/SVG/1.1/DTD/svg11.dtd">
<svg version="1.1" id="Capa_1" xmlns="http://www.w3.org/2000/svg" xmlns:xlink="http://www.w3.org/1999/xlink" x="0px" y="0px"
	 width="500px" height="500px" viewBox="0 0 500 500" enable-background="new 0 0 500 500" xml:space="preserve">
<path d="M273.195,442.016c0-5.944-1.98-10.898-5.944-14.861c-3.962-3.962-9.114-6.143-15.454-6.538
	c-6.341-0.396-11.294,1.783-14.861,6.538c-3.566,4.756-5.548,9.71-5.944,14.861c-0.396,5.15,1.584,10.104,5.944,14.86
	c4.359,4.755,9.313,6.737,14.861,5.944c5.547-0.793,10.699-2.773,15.454-5.944C272.006,453.706,273.988,448.753,273.195,442.016z
	 M400.403,388.517V70.499c0-3.171-0.99-5.747-2.972-7.728c-1.982-1.981-4.359-2.972-7.134-2.972H113.89
	c-2.774,0-5.152,0.991-7.133,2.972c-1.981,1.981-3.17,4.557-3.566,7.728v318.018c0,3.171,1.188,5.746,3.566,7.728
	c2.378,1.982,4.755,2.973,7.133,2.973h276.408c2.774,0,5.151-0.99,7.134-2.973C399.413,394.263,400.403,391.688,400.403,388.517z
	 M443.202,70.499v360.816c0,14.662-5.152,27.146-15.455,37.448c-10.304,10.305-22.787,15.456-37.449,15.456H113.89
	c-14.267,0-26.75-5.151-37.449-15.456c-10.7-10.303-15.851-22.786-15.455-37.448V70.499c0-14.664,5.152-27.146,15.455-37.449
	C86.744,22.746,99.227,17.396,113.89,17h276.408c14.267,0,26.75,5.35,37.449,16.05C438.447,43.75,443.599,56.232,443.202,70.499z"/>
</svg>
