<?xml version="1.0" encoding="utf-8"?>
<!DOCTYPE svg PUBLIC "-//W3C//DTD SVG 1.1//EN" "http://www.w3.org/Graphics/SVG/1.1/DTD/svg11.dtd">
<svg version="1.1" xmlns="http://www.w3.org/2000/svg" xmlns:xlink="http://www.w3.org/1999/xlink" xml:space="preserve">
<path d="M357 64q0 15-10 25t-26 11-25-11-10-25 10-25 25-10 26 10 10 25z m214 90v535q0 8-5 13t-12 5h-465q-7 0-12-5t-6-13v-535q0-8 6-13t12-5h465q7 0 12 5t5 13z m72 535v-607q0-37-26-63t-63-26h-465q-36 0-63 26t-26 63v607q0 37 26 63t63 27h465q36 0 63-27t26-63z"/>
</svg>