<?xml version="1.0" encoding="utf-8"?>
<!-- Generator: Adobe Illustrator 16.0.0, SVG Export Plug-In . SVG Version: 6.00 Build 0)  -->
<!DOCTYPE svg PUBLIC "-//W3C//DTD SVG 1.1//EN" "http://www.w3.org/Graphics/SVG/1.1/DTD/svg11.dtd">
<svg version="1.1" id="Capa_1" xmlns="http://www.w3.org/2000/svg" xmlns:xlink="http://www.w3.org/1999/xlink" x="0px" y="0px"
	 width="500px" height="500px" viewBox="0 0 500 500" enable-background="new 0 0 500 500" xml:space="preserve">
<path fill-rule="evenodd" clip-rule="evenodd" d="M367.366,247.44c0,10.205,0,19.473,0,28.745c0,55.978-0.027,111.958,0.021,167.936
	c0.011,13.452-3.188,25.748-12.146,36.147c-6.521,7.574-14.58,11.441-24.776,11.421c-59.069-0.122-118.139-0.06-177.21-0.06
	c-19.522,0-31.786-8.623-37.781-27.329c-1.758-5.491-2.874-11.449-2.882-17.194c-0.152-78.436-0.055-156.869-0.011-235.304
	c0-0.946,0.085-1.892,0.16-3.39c72.16,0,144.11,0,217.374,0c-3.633-3.814-6.347-6.705-9.108-9.554
	C268.151,144.248,215.292,89.646,162.432,35.043c-6.436-6.648-6.396-7.988,0.437-14.614c2.103-2.039,4.188-4.098,6.305-6.12
	c4.831-4.621,8.058-4.586,12.838,0.334c14.16,14.577,28.343,29.133,42.347,43.859c2.596,2.728,4.645,3.517,8.33,1.94
	c9.99-4.27,20.163-8.126,30.333-11.959c14.72-5.543,27.846-2.632,38.83,8.455c15.653,15.805,31.155,31.768,46.42,47.946
	c9.974,10.566,12.168,23.085,6.792,36.582c-4.265,10.713-8.907,21.285-13.667,31.788c-1.436,3.168-1.081,5.112,1.363,7.595
	c14.374,14.599,28.568,29.372,42.808,44.101c5.187,5.365,5.158,8.427-0.064,13.553c-2.32,2.28-4.788,4.426-6.979,6.827
	C375.489,248.657,372.175,250.297,367.366,247.44z M141.176,236.418c-0.104,1.413-0.235,2.358-0.235,3.305
	c-0.008,68.83-0.04,137.654,0.093,206.48c0.007,3.469,1.143,7.021,2.238,10.379c1.501,4.602,4.471,6.654,9.848,6.633
	c56.947-0.214,113.896-0.131,170.844-0.131c10.129,0,12.545-1.92,14.592-12.014c0.48-2.364,0.545-4.844,0.545-7.268
	c0.028-67.363,0.024-134.726,0.024-202.084c0-1.71,0-3.422,0-5.3C272.817,236.418,207.272,236.418,141.176,236.418z M249.625,84.454
	c23.16,23.927,45.761,47.277,68.741,71.021c3.753-8.591,7.452-16.365,10.438-24.404c0.691-1.861-0.323-5.318-1.79-6.87
	c-15.069-15.942-30.317-31.721-45.771-47.291c-1.565-1.574-5.197-2.611-7.229-1.943C266.049,77.58,258.34,80.98,249.625,84.454z
	 M197.588,287.033c-0.014-5.953-2.35-8.23-8.253-8.333c-3.413-0.061-6.831-0.021-10.246-0.013c-8.158,0.02-9.978,1.829-9.979,10.031
	c-0.01,35.297-0.005,70.593-0.004,105.89c0,6.184-0.09,12.366,0.049,18.547c0.11,4.855,2.375,7.097,7.224,7.284
	c3.901,0.147,7.81,0.071,11.712,0.052c7.553-0.048,9.506-1.975,9.512-9.509c0.02-20.495,0.005-40.992,0.005-61.485
	C197.608,328.672,197.638,307.853,197.588,287.033z M225.809,411.967c0.01,6.3,2.171,8.414,8.504,8.517
	c3.578,0.056,7.156,0.036,10.735,0.008c7.255-0.063,9.198-2.007,9.203-9.3c0.015-24.399,0.007-48.8,0.007-73.195
	c-0.005-17.081,0.032-34.162-0.024-51.241c-0.02-5.662-2.353-7.937-8.011-8.052c-3.74-0.076-7.481-0.035-11.223-0.011
	c-7.147,0.043-9.193,2.094-9.199,9.326c-0.018,20.332-0.008,40.666-0.007,60.996C225.795,370.001,225.774,390.985,225.809,411.967z
	 M310.673,345.255c0-19.178,0.025-38.359-0.016-57.538c-0.016-6.796-2.289-8.981-9.101-9.024c-2.925-0.021-5.85-0.009-8.774-0.005
	c-8.548,0.013-10.336,1.757-10.34,10.166c-0.009,39.012-0.004,78.021,0,117.029c0,2.599-0.08,5.206,0.06,7.801
	c0.228,4.225,2.532,6.584,6.783,6.736c3.895,0.139,7.801,0.083,11.699,0.071c7.709-0.028,9.677-2.022,9.682-9.896
	c0.016-20.314,0.007-40.634,0.007-60.953C310.673,348.182,310.673,346.718,310.673,345.255z"/>
</svg>
