<?xml version="1.0" encoding="utf-8"?>
<!DOCTYPE svg PUBLIC "-//W3C//DTD SVG 1.1//EN" "http://www.w3.org/Graphics/SVG/1.1/DTD/svg11.dtd">
<svg version="1.1" xmlns="http://www.w3.org/2000/svg" xmlns:xlink="http://www.w3.org/1999/xlink" xml:space="preserve">
<path d="M903 461c63 16 63 63 63 63h-157c-94 94-189 126-315 126-125 0-220-32-314-126h-157c0 0 0-47 63-63-12-16-25-37-36-59-15-32-27-68-27-98 0-130 90-220 220-220 73 0 145 41 188 94l63-94 63 94c43-53 115-94 189-94 130 0 220 90 220 220 0 29-11 62-25 93-12 25-25 47-38 64z m-660-314c-87 0-157 70-157 157 0 46 20 88 52 117 28 25 65 40 105 40 24 0 48-6 68-16 53-25 89-79 89-141 0-87-70-157-157-157z m251 63c0 90-41 180-101 241-43 45-97 73-150 73 0 0 94 94 251 94 158 0 252-94 252-94-54 0-107-29-151-74-59-60-101-150-101-240z m252-63c-87 0-157 70-157 157 0 61 35 114 86 140 21 11 45 17 71 17 42 0 81-17 109-44 30-29 48-69 48-113 0-87-70-157-157-157z m31 157c0-17-14-32-31-32-17 0-31 15-31 32 0 17 14 31 31 31 17 0 31-14 31-31z m-31 94c-52 0-94-42-94-94 0-52 42-94 94-94 52 0 94 42 94 94 0 52-42 94-94 94z m0-157c-35 0-63 28-63 63 0 35 28 63 63 63 35 0 63-28 63-63 0-35-28-63-63-63z m-472 63c0-17-14-32-31-32-18 0-32 15-32 32 0 17 14 31 32 31 17 0 31-14 31-31z m-31 94c-52 0-95-42-95-94 0-52 43-94 95-94 52 0 94 42 94 94 0 52-42 94-94 94z m0-157c-35 0-63 28-63 63 0 35 28 63 63 63 35 0 63-28 63-63 0-35-28-63-63-63z"/>
</svg>