<?xml version="1.0" encoding="utf-8"?>
<!-- Generator: Adobe Illustrator 16.0.0, SVG Export Plug-In . SVG Version: 6.00 Build 0)  -->
<!DOCTYPE svg PUBLIC "-//W3C//DTD SVG 1.1//EN" "http://www.w3.org/Graphics/SVG/1.1/DTD/svg11.dtd">
<svg version="1.1" id="Capa_1" xmlns="http://www.w3.org/2000/svg" xmlns:xlink="http://www.w3.org/1999/xlink" x="0px" y="0px"
	 width="500px" height="500px" viewBox="0 0 500 500" enable-background="new 0 0 500 500" xml:space="preserve">
<path d="M23.495,23.495V205.2h181.706l-72.32-72.32c32.544-32.243,71.417-48.364,116.618-48.364c37.666,0,71.115,11.3,100.345,33.9
	c29.23,22.6,48.816,51.528,58.762,86.784h62.375c-10.546-52.13-36.612-95.522-78.196-130.176
	c-41.584-34.654-89.347-51.83-143.285-51.529c-62.377,0-115.563,21.999-159.558,65.994L23.495,23.495z M28.015,293.794
	c10.547,52.433,36.613,95.825,78.197,130.177c41.584,34.353,89.346,51.529,143.286,51.529c62.375,0,115.713-21.999,160.01-65.992
	L475.5,475.5V293.794H293.794l72.321,72.321c-32.544,32.242-71.417,48.364-116.617,48.364c-37.667,0-71.115-11.301-100.345-33.9
	c-29.229-22.601-48.816-51.529-58.76-86.785H28.015z"/>
</svg>
