<?xml version="1.0" encoding="utf-8"?>
<!-- Generator: Adobe Illustrator 16.0.0, SVG Export Plug-In . SVG Version: 6.00 Build 0)  -->
<!DOCTYPE svg PUBLIC "-//W3C//DTD SVG 1.1//EN" "http://www.w3.org/Graphics/SVG/1.1/DTD/svg11.dtd">
<svg version="1.1" id="Capa_1" xmlns="http://www.w3.org/2000/svg" xmlns:xlink="http://www.w3.org/1999/xlink" x="0px" y="0px"
	 width="500px" height="500px" viewBox="0 0 500 500" enable-background="new 0 0 500 500" xml:space="preserve">
<path d="M307.116,112.93c-3.106-0.011-5.691-1.227-7.754-3.65c-2.063-2.423-3.263-5.016-3.6-7.778
	c-0.336-2.763,0.882-5.521,3.653-8.273c2.771-2.752,5.363-3.779,7.776-3.081c2.415,0.699,5,1.743,7.757,3.133
	s3.783,4.155,3.078,8.295c-0.704,4.14-1.749,6.725-3.133,7.756S310.917,111.561,307.116,112.93z M184.922,112.516
	c-3.106-0.01-5.692-1.227-7.755-3.65c-2.063-2.423-3.09-5.016-3.081-7.777c0.009-2.762,1.054-5.52,3.135-8.274
	c2.08-2.754,4.673-3.781,7.777-3.081c3.104,0.701,5.861,1.746,8.273,3.135c2.412,1.389,3.438,4.154,3.079,8.295
	s-1.404,6.726-3.133,7.756C191.488,109.95,188.723,111.148,184.922,112.516z M419.294,166.122
	c-7.939-0.026-14.853,2.885-20.741,8.732c-5.887,5.848-8.672,12.743-8.354,20.684l-0.42,124.265
	c-0.028,8.284,2.709,15.369,8.212,21.257c5.503,5.887,12.398,8.845,20.682,8.871c8.285,0.028,15.37-2.881,21.259-8.729
	c5.888-5.848,8.846-12.915,8.874-21.199l0.421-124.265c0.025-7.939-2.886-14.854-8.733-20.741
	C434.645,169.109,427.579,166.15,419.294,166.122z M113.27,170.784l-0.649,192.093c-0.03,8.976,3.051,16.58,9.244,22.814
	s13.603,9.366,22.232,9.396l21.746,0.073l-0.222,65.756c-0.028,8.285,2.71,15.198,8.215,20.74c5.504,5.54,12.57,8.499,21.199,8.873
	c8.629,0.375,15.715-2.536,21.259-8.729c5.543-6.195,8.501-13.089,8.872-20.682l0.222-65.756l39.869,0.134l-0.222,65.757
	c-0.028,8.284,2.709,15.197,8.213,20.739c5.505,5.54,12.57,8.499,21.199,8.874c8.284,0.027,15.198-2.884,20.741-8.731
	c5.542-5.851,8.5-12.744,8.871-20.683l0.741-65.755l21.228,0.072c8.976,0.03,16.407-3.052,22.296-9.245
	c5.89-6.194,9.022-13.777,9.397-22.751l0.649-192.094L113.27,170.784z M180.459,53.993c-20.401,10.632-36.847,25.246-49.336,43.844
	c-12.49,18.597-18.773,39.459-18.852,62.587l267.17,0.904c0.077-22.783-5.894-43.686-17.91-62.712
	c-12.018-19.027-28.537-33.753-49.559-44.179l20.321-37.729c1.39-2.757,1.052-4.656-1.017-5.699c-2.756-1.39-4.829-0.88-6.217,1.532
	L304.22,50.787c-18.267-8.347-37.583-12.553-57.948-12.623c-20.366-0.068-39.71,4.008-58.034,12.23l-20.581-38.385
	c-1.373-2.421-3.269-2.945-5.69-1.572c-2.42,1.028-2.945,2.924-1.573,5.69L180.459,53.993z M42.256,194.361l-0.42,124.266
	c-0.028,8.285,2.883,15.37,8.73,21.259c5.848,5.888,12.915,8.846,21.199,8.873c7.939,0.027,14.853-2.884,20.742-8.731
	c5.887-5.849,8.845-12.914,8.874-21.199l0.419-124.266c0.028-8.284-2.882-15.197-8.731-20.741c-5.849-5.543-12.743-8.5-20.682-8.872
	c-8.285-0.027-15.371,2.883-21.259,8.73C45.24,179.528,42.283,186.422,42.256,194.361z"/>
</svg>
