<?xml version="1.0" encoding="utf-8"?>
<!-- Generator: Adobe Illustrator 16.0.0, SVG Export Plug-In . SVG Version: 6.00 Build 0)  -->
<!DOCTYPE svg PUBLIC "-//W3C//DTD SVG 1.1//EN" "http://www.w3.org/Graphics/SVG/1.1/DTD/svg11.dtd">
<svg version="1.1" id="Capa_1" xmlns="http://www.w3.org/2000/svg" xmlns:xlink="http://www.w3.org/1999/xlink" x="0px" y="0px"
	 width="500px" height="500px" viewBox="0 0 500 500" enable-background="new 0 0 500 500" xml:space="preserve">
<path d="M437.262,19c12.013,0,22.639,4.004,31.879,12.012s13.706,18.018,13.397,30.031c0,10.779-3.85,23.715-11.55,38.807
	c-56.979,108.108-97.021,172.788-120.12,194.041c-16.633,15.707-35.267,23.562-55.902,23.562c-21.867,0-40.502-8.009-55.902-24.024
	s-23.254-34.805-23.562-56.364c0-22.176,8.008-40.502,24.024-54.978L403.998,32.86C414.162,23.62,425.25,19,437.262,19z
	 M203.028,285.573c6.776,12.937,15.862,24.18,27.258,33.728c11.396,9.547,24.332,16.016,38.808,19.403l0.462,18.48
	c0.615,36.651-10.473,66.373-33.264,89.165c-22.792,22.793-52.822,34.343-90.09,34.65c-20.944,0-39.577-4.004-55.902-12.012
	c-16.324-8.009-29.568-18.942-39.732-32.802c-10.164-13.861-17.556-29.568-22.176-47.124S21.308,352.563,21,332.235
	c1.232,0.925,4.774,3.543,10.626,7.854c5.852,4.313,11.242,8.162,16.17,11.551c4.928,3.388,9.856,6.467,14.784,9.24
	c4.928,2.771,8.932,4.157,12.012,4.157c7.083,0,11.857-3.08,14.322-9.24c4.312-11.396,9.24-21.098,14.784-29.105
	c5.544-8.009,11.55-14.477,18.018-19.404c6.468-4.928,14.014-9.086,22.638-12.475c8.624-3.388,17.402-5.544,26.334-6.467
	C179.62,287.422,190.4,286.498,203.028,285.573z"/>
</svg>
