<?xml version="1.0" encoding="utf-8"?>
<!-- Generator: Adobe Illustrator 16.0.0, SVG Export Plug-In . SVG Version: 6.00 Build 0)  -->
<!DOCTYPE svg PUBLIC "-//W3C//DTD SVG 1.1//EN" "http://www.w3.org/Graphics/SVG/1.1/DTD/svg11.dtd">
<svg version="1.1" id="Capa_1" xmlns="http://www.w3.org/2000/svg" xmlns:xlink="http://www.w3.org/1999/xlink" x="0px" y="0px"
	 width="500px" height="500px" viewBox="0 0 500 500" enable-background="new 0 0 500 500" xml:space="preserve">
<path d="M251.373,76.133c-36.537,0-70.669,6.25-102.399,18.749c-31.729,12.499-56.888,29.326-75.477,50.479
	c-18.589,21.152-28.044,43.909-28.364,68.266c0,19.872,6.41,38.941,19.23,57.209s30.928,33.972,54.324,47.112l23.076,13.461
	l-7.211,25.96c-4.166,16.026-10.416,31.409-18.749,46.152c27.242-11.538,51.921-26.922,74.035-46.152l11.538-10.095l14.903,1.442
	c12.5,1.603,24.198,2.403,35.094,2.403c36.537,0,70.67-6.249,102.399-18.749s56.889-29.325,75.477-50.479
	c18.59-21.152,28.044-43.909,28.365-68.266c0.32-24.357-9.135-47.113-28.365-68.266c-19.229-21.153-44.389-37.979-75.477-50.479
	C322.684,82.383,288.551,76.133,251.373,76.133z M491.746,213.626c0,31.088-10.736,59.774-32.209,86.054
	c-21.474,26.28-50.639,47.112-87.496,62.497c-36.857,15.384-77.079,23.076-120.668,23.076c-12.499,0-25.479-0.643-38.94-1.924
	c-35.254,31.088-76.438,52.722-123.551,64.901c-8.654,2.564-18.75,4.487-30.288,5.769h-1.442c-2.564,0-4.968-0.962-7.211-2.884
	c-2.243-1.924-3.686-4.327-4.327-7.212v-0.48c-0.641-0.642-0.641-1.603,0-2.885c0.641-1.281,0.801-2.243,0.481-2.885
	c-0.321-0.641,0-1.441,0.961-2.403l1.923-2.403c0,0,0.641-0.801,1.923-2.404c1.282-1.603,1.923-2.403,1.923-2.403
	c1.282-1.603,4.007-4.647,8.173-9.134c4.167-4.488,7.372-8.014,9.615-10.577c2.244-2.564,4.968-6.089,8.172-10.577
	c3.205-4.486,6.089-8.974,8.653-13.46c2.564-4.487,4.968-9.775,7.212-15.865c2.243-6.089,4.646-12.819,7.211-20.19
	C73.658,332.21,51.543,312.5,35.518,289.104C19.493,265.708,11.32,240.548,11,213.626c0-31.088,10.737-59.773,32.21-86.053
	c21.473-26.281,50.639-47.113,87.496-62.497C167.563,49.692,207.785,42,251.373,42c43.589,0,83.811,7.692,120.668,23.076
	c36.857,15.384,66.022,36.216,87.496,62.497C481.01,153.854,491.746,182.538,491.746,213.626z"/>
</svg>
