<?xml version="1.0" encoding="utf-8"?>
<!-- Generator: Adobe Illustrator 16.0.0, SVG Export Plug-In . SVG Version: 6.00 Build 0)  -->
<!DOCTYPE svg PUBLIC "-//W3C//DTD SVG 1.1//EN" "http://www.w3.org/Graphics/SVG/1.1/DTD/svg11.dtd">
<svg version="1.1" id="Capa_1" xmlns="http://www.w3.org/2000/svg" xmlns:xlink="http://www.w3.org/1999/xlink" x="0px" y="0px"
	 width="500px" height="500px" viewBox="0 0 500 500" enable-background="new 0 0 500 500" xml:space="preserve">
<path d="M282.675,460.83c58.302,0,107.858-20.577,148.669-61.731c40.813-41.154,61.217-90.882,61.217-149.184
	s-20.404-108.03-61.217-149.184C390.533,59.577,340.977,39,282.675,39c-48.699,0-91.911,15.09-129.635,45.269l36.01,38.068
	c28.808-20.577,60.017-30.866,93.625-30.866c43.212,0,80.251,15.433,111.117,46.299c30.864,30.865,46.298,68.247,46.298,112.145
	c0,43.897-15.434,81.278-46.298,112.145c-30.866,30.866-67.905,46.298-111.117,46.298c-42.526,0-79.222-14.917-110.087-44.754
	c-30.866-29.838-46.642-66.019-47.327-108.544h73.049l-94.655-104.943L9,255.06h63.789c0.686,56.929,21.606,105.458,62.76,145.582
	C176.703,440.768,225.745,460.83,282.675,460.83z"/>
</svg>
