<?xml version="1.0" encoding="utf-8"?>
<!-- Generator: Adobe Illustrator 16.0.0, SVG Export Plug-In . SVG Version: 6.00 Build 0)  -->
<!DOCTYPE svg PUBLIC "-//W3C//DTD SVG 1.1//EN" "http://www.w3.org/Graphics/SVG/1.1/DTD/svg11.dtd">
<svg version="1.1" id="Capa_1" xmlns="http://www.w3.org/2000/svg" xmlns:xlink="http://www.w3.org/1999/xlink" x="0px" y="0px"
	 width="500px" height="500px" viewBox="0 0 500 500" enable-background="new 0 0 500 500" xml:space="preserve">
<path fill-rule="evenodd" clip-rule="evenodd" d="M423.025,485.439c-82.313,0-163.569,0-245.916,0
	c0-11.569-0.359-22.892,0.105-34.178c0.427-10.382-3.384-18.711-10.435-25.861c-24.413-24.763-50.517-47.224-82.61-61.777
	c-7.083-3.211-13.708-7.45-20.465-11.352c-18.626-10.76-29.331-25.716-27.234-48.456c2.323-25.205,10.46-47.359,32.555-61.47
	c19.882-12.696,41.962-11.589,64.067-6.673c2.514,0.559,4.984,1.31,7.485,1.94c0.249,0.062,0.557-0.117,1.401-0.313
	c0-33.208,0.903-66.582-0.261-99.882c-1.109-31.705,23.246-64.4,57.27-70.74c47.034-8.766,83.869,29.883,83.536,66.841
	c-0.139,15.777-0.022,31.556-0.022,46.433c11.197,4.174,21.447,8.833,32.179,11.683c6.456,1.715,13.751-0.01,20.509,0.95
	c7.929,1.128,16.567,1.903,23.318,5.666c12.16,6.779,24.809,9.793,38.355,11.96c30.649,4.901,54.512,30.665,59.609,61.58
	c5.722,34.708-2.897,67.32-13.095,99.909c-6.889,22.02-13.641,44.134-19.006,66.555c-2.325,9.723-1.063,20.315-1.321,30.514
	C422.916,474.009,423.025,479.253,423.025,485.439z M386.59,452.214c1.422-12.004,1.401-23.555,4.343-34.299
	c6.637-24.245,14.661-48.113,22.262-72.091c6.607-20.848,11.963-42.009,7.789-63.92c-1.665-8.744-5.115-18.046-10.475-24.993
	c-10.021-12.992-25.321-14.018-40.428-12.363c-5.147,0.566-8.753,0.171-12.203-4c-7.146-8.642-17.496-13.621-27.798-12.304
	c-14.88,1.904-27.271-0.041-40.757-7.321c-13.357-7.213-28.114-1.954-41.952,5.832c0-16.329,0.207-31.774-0.055-47.215
	c-0.289-16.916-0.305-33.884-1.772-50.712c-1.111-12.753-10.293-20.768-21.449-25.179c-11.888-4.699-23.474-2.287-33.541,5.968
	c-10.076,8.26-13.414,19.413-13.426,31.872c-0.044,47.708-0.019,95.416-0.019,143.124c0,3.124,0,6.245,0,11.757
	c-8.775-4.299-16.32-7.119-22.904-11.412c-13.073-8.523-26.924-14.176-42.455-16.426c-16.189-2.346-30.374,5.613-36.268,21.575
	c-7.313,19.798-5.441,24.596,13.794,35.388c1.021,0.571,2,1.235,3.061,1.713c31.127,14.04,58.53,33.546,83.406,56.765
	c14.699,13.721,30.446,26.778,35.096,47.751c1.47,6.633,1.539,13.575,2.26,20.491C271.243,452.214,328.872,452.214,386.59,452.214z
	 M387.791,190.481c6.981,1.745,14.26,2.65,21.457,3.013c2.762,0.138,6.872-1.405,8.273-3.552c8.021-12.27,12.97-25.55,12.635-40.663
	c-0.432-19.592-0.089-39.204-0.109-58.807c-0.039-39.683-35.683-75.447-75.224-75.454c-77.827-0.015-155.659,0.527-233.478-0.267
	C90.41,14.434,59.871,36.425,49.265,63.622c-3.389,8.688-5.283,18.504-5.374,27.829c-0.237,24.174-0.99,48.606,2.065,72.475
	c2.738,21.389,16.599,39.078,35.61,48.067c12.079,5.711,28.079,3.127,42.459,4.273c0-11.013,0-19.711,0-28.656
	c-1.456-0.179-2.56-0.337-3.67-0.45c-20.665-2.096-39.401-17.708-40.048-38.625c-0.568-18.346-2.32-36.779-1.167-55.021
	c1.589-25.147,18.562-41.953,42.053-42.832c34.149-1.276,68.332-1.934,102.506-2.146c17.78-0.109,35.563,1.67,53.357,1.93
	c24.276,0.357,48.568-0.079,72.85,0.125c23.146,0.191,40.809,14.971,43.518,37.865c1.741,14.715,1.058,29.713,1.502,44.583
	c0.59,19.75-2.825,37.797-22.958,50.375C378.188,186.272,382.776,189.227,387.791,190.481z M390.933,417.915
	c6.637-24.245,14.661-48.113,22.262-72.091c6.607-20.848,11.963-42.009,7.789-63.92c-1.665-8.744-5.115-18.046-10.475-24.993
	c-10.021-12.992-25.321-14.018-40.428-12.363c-5.147,0.566-8.753,0.171-12.203-4c-7.146-8.642-17.496-13.621-27.798-12.304
	c-14.88,1.904-27.271-0.041-40.757-7.321c-13.357-7.213-28.114-1.954-41.952,5.832c0-16.329,0.207-31.774-0.055-47.215
	c-0.289-16.916-0.305-33.884-1.772-50.712c-1.111-12.753-10.293-20.768-21.449-25.179c-11.888-4.699-23.474-2.287-33.541,5.968
	c-10.076,8.26-13.414,19.413-13.426,31.872c-0.044,47.708-0.019,95.416-0.019,143.124c0,3.124,0,6.245,0,11.757
	c-8.775-4.299-16.32-7.119-22.904-11.412c-13.073-8.523-26.924-14.176-42.455-16.426c-16.189-2.346-30.374,5.613-36.268,21.575
	c-7.313,19.798-5.441,24.596,13.794,35.388c1.021,0.571,2,1.235,3.061,1.713c31.127,14.04,58.53,33.546,83.406,56.765
	c14.699,13.721,30.446,26.778,35.096,47.751c1.47,6.633,1.539,13.575,2.26,20.491c58.144,0,115.772,0,173.49,0
	C388.012,440.21,387.991,428.659,390.933,417.915z"/>
</svg>
