<?xml version="1.0" encoding="utf-8"?>
<!-- Generator: Adobe Illustrator 16.0.0, SVG Export Plug-In . SVG Version: 6.00 Build 0)  -->
<!DOCTYPE svg PUBLIC "-//W3C//DTD SVG 1.1//EN" "http://www.w3.org/Graphics/SVG/1.1/DTD/svg11.dtd">
<svg version="1.1" id="Capa_1" xmlns="http://www.w3.org/2000/svg" xmlns:xlink="http://www.w3.org/1999/xlink" x="0px" y="0px"
	 width="500px" height="500px" viewBox="0 0 500 500" enable-background="new 0 0 500 500" xml:space="preserve">
<path fill-rule="evenodd" clip-rule="evenodd" d="M286.626,15.375c66.729,0,133.114,0,199.75,0c0,157.66,0,315.101,0,472.949
	c-66.421,0-132.92,0-199.75,0C286.626,330.866,286.626,173.312,286.626,15.375z M429.016,430.959c0-119.62,0-238.809,0-358.042
	c-28.59,0-56.791,0-85.205,0c0,119.439,0,238.628,0,358.042C372.299,430.959,400.501,430.959,429.016,430.959z M14.396,16.345
	c66.756,0,133.144,0,199.769,0c0,157.669,0,315.106,0,472.945c-66.448,0-132.947,0-199.769,0
	C14.396,331.807,14.396,174.252,14.396,16.345z M156.795,431.919c0-119.625,0-238.813,0-358.042c-28.587,0-56.791,0-85.205,0
	c0,119.438,0,238.626,0,358.042C100.082,431.919,128.283,431.919,156.795,431.919z"/>
</svg>
