<?xml version="1.0" encoding="utf-8"?>
<!-- Generator: Adobe Illustrator 16.0.0, SVG Export Plug-In . SVG Version: 6.00 Build 0)  -->
<!DOCTYPE svg PUBLIC "-//W3C//DTD SVG 1.1//EN" "http://www.w3.org/Graphics/SVG/1.1/DTD/svg11.dtd">
<svg version="1.1" id="Capa_1" xmlns="http://www.w3.org/2000/svg" xmlns:xlink="http://www.w3.org/1999/xlink" x="0px" y="0px"
	 width="500px" height="500px" viewBox="0 0 500 500" enable-background="new 0 0 500 500" xml:space="preserve">
<path d="M387.469,440.965l45.607-43.306c6.252-5.937,9.492-13.336,9.723-22.2c0.229-8.864-2.767-16.286-8.986-22.268l-93.897-98.889
	L439.231,160c6.25-5.936,9.349-13.202,9.294-21.796s-2.908-16.152-8.561-22.673l-43.306-45.608
	c-5.937-6.251-13.336-9.492-22.199-9.722c-8.864-0.23-16.146,2.632-21.843,8.581l-99.314,94.303l-93.898-98.889
	c-6.206-6.536-13.463-9.911-21.772-10.125c-8.311-0.215-15.867,2.637-22.674,8.56L69.35,105.937
	c-6.536,6.206-9.776,13.605-9.721,22.2c0.054,8.594,2.908,16.151,8.56,22.672l93.898,98.889l-98.89,93.898
	c-6.251,5.937-9.626,13.193-10.126,21.774c-0.5,8.58,2.354,16.137,8.56,22.673l43.306,45.607c6.206,6.536,13.606,9.777,22.2,9.723
	c8.594-0.056,16.151-2.908,22.673-8.56l98.889-93.897l93.897,98.888c5.937,6.252,13.336,9.492,22.199,9.722
	C373.659,449.755,381.217,446.901,387.469,440.965z"/>
</svg>
