<?xml version="1.0" encoding="utf-8"?>
<!-- Generator: Adobe Illustrator 16.0.0, SVG Export Plug-In . SVG Version: 6.00 Build 0)  -->
<!DOCTYPE svg PUBLIC "-//W3C//DTD SVG 1.1//EN" "http://www.w3.org/Graphics/SVG/1.1/DTD/svg11.dtd">
<svg version="1.1" id="Capa_1" xmlns="http://www.w3.org/2000/svg" xmlns:xlink="http://www.w3.org/1999/xlink" x="0px" y="0px"
	 width="500px" height="500px" viewBox="0 0 500 500" enable-background="new 0 0 500 500" xml:space="preserve">
<path d="M445.923,62.281c10.831,0,20.052,3.952,27.661,11.855C481.194,82.039,485,91.259,485,101.797v297.688
	c0,10.829-3.806,20.051-11.416,27.66c-7.609,7.611-16.83,11.563-27.661,11.855H53.836c-10.537,0-19.758-3.951-27.661-11.855
	c-7.904-7.902-11.708-17.123-11.417-27.66V101.797c0-10.831,3.806-20.051,11.417-27.661c7.61-7.611,16.831-11.563,27.661-11.855
	H445.923z M53.836,93.894c-2.048,0-3.805,0.731-5.269,2.195c-1.464,1.464-2.342,3.367-2.634,5.708v54.883h407.893v-54.883
	c0-2.341-0.732-4.244-2.195-5.708c-1.463-1.463-3.366-2.195-5.708-2.195H53.836z M445.923,407.387c2.05,0,3.952-0.73,5.708-2.194
	s2.488-3.366,2.195-5.708V250.641H45.934v148.844c0,2.342,0.877,4.244,2.634,5.708c1.756,1.464,3.513,2.194,5.269,2.194H445.923z
	 M77.546,376.213v-31.612h62.787v31.612H77.546z M171.506,376.213v-31.612h93.96v31.612H171.506z"/>
</svg>
