<?xml version="1.0" encoding="utf-8"?>
<!-- Generator: Adobe Illustrator 16.0.0, SVG Export Plug-In . SVG Version: 6.00 Build 0)  -->
<!DOCTYPE svg PUBLIC "-//W3C//DTD SVG 1.1//EN" "http://www.w3.org/Graphics/SVG/1.1/DTD/svg11.dtd">
<svg version="1.1" id="Capa_1" xmlns="http://www.w3.org/2000/svg" xmlns:xlink="http://www.w3.org/1999/xlink" x="0px" y="0px"
	 width="500px" height="500px" viewBox="0 0 500 500" enable-background="new 0 0 500 500" xml:space="preserve">
<path d="M27.997,27.891c106.65,0,212.987,0,319.582,0c0,106.539,0,212.875,0,319.593c-106.344,0-212.79,0-319.582,0
	C27.997,241.185,27.997,134.736,27.997,27.891z M294.65,81.122c-71.528,0-142.614,0-213.646,0c0,71.335,0,142.309,0,213.313
	c71.366,0,142.45,0,213.646,0C294.65,223.211,294.65,152.352,294.65,81.122z M471.705,231.012c0-26.48,0-52.62,0-78.956
	c-27.737,0-55.247,0-82.814,0c0,17.686,0,35.099,0,52.886c10.037,0,19.765,0,29.854,0c0,8.823,0,17.286,0,26.07
	C436.872,231.012,454.282,231.012,471.705,231.012z M471.594,390.882c-17.754,0-35.169,0-52.95,0c0,9.476,0,18.567,0,28.192
	c-7.682,0-14.995,0-22.256,0c0,17.847,0,35.146,0,52.668c25.112,0,49.989,0,75.206,0
	C471.594,444.502,471.594,417.625,471.594,390.882z M152.085,471.581c25.324,0,50.311,0,75.18,0c0-17.689,0-34.992,0-52.835
	c-7.57,0-14.886,0-22.555,0c0-8.68,0-16.824,0-25.186c-17.674,0-34.976,0-52.625,0C152.085,419.85,152.085,445.782,152.085,471.581z
	 M342.768,419.275c-20.896,0-41.453,0-61.938,0c0,17.676,0,34.971,0,52.475c20.694,0,41.146,0,61.938,0
	C342.768,453.969,342.768,436.563,342.768,419.275z M471.551,337.115c0-17.742,0-35.148,0-52.463c-17.677,0-34.972,0-52.475,0
	c0,17.545,0,34.836,0,52.463C436.867,337.115,454.275,337.115,471.551,337.115z"/>
</svg>
