<?xml version="1.0" encoding="utf-8"?>
<!-- Generator: Adobe Illustrator 16.0.0, SVG Export Plug-In . SVG Version: 6.00 Build 0)  -->
<!DOCTYPE svg PUBLIC "-//W3C//DTD SVG 1.1//EN" "http://www.w3.org/Graphics/SVG/1.1/DTD/svg11.dtd">
<svg version="1.1" id="Capa_1" xmlns="http://www.w3.org/2000/svg" xmlns:xlink="http://www.w3.org/1999/xlink" x="0px" y="0px"
	 width="500px" height="500px" viewBox="0 0 500 500" enable-background="new 0 0 500 500" xml:space="preserve">
<path d="M466.58,275.529c-5.098-30.922-28.968-56.693-59.624-61.596c-13.552-2.166-26.203-5.183-38.365-11.964
	c-6.753-3.763-15.396-4.538-23.325-5.667c-6.759-0.96-14.057,0.766-20.514-0.949c-10.736-2.853-20.988-7.513-32.188-11.688
	c0-14.881-0.117-30.663,0.021-46.445c0.332-36.967-36.512-75.627-83.558-66.859c-34.033,6.343-58.394,39.047-57.285,70.76
	c1.165,33.309,0.261,66.691,0.261,99.908c-0.843,0.197-1.152,0.375-1.401,0.313c-2.502-0.63-4.972-1.382-7.487-1.94
	c-22.112-4.918-44.197-6.024-64.084,6.674c-22.1,14.115-30.24,36.275-32.564,61.484c-2.098,22.747,8.61,37.707,27.241,48.471
	c6.759,3.901,13.387,8.143,20.471,11.354c32.102,14.558,58.214,37.024,82.632,61.793c7.051,7.152,10.863,15.483,10.438,25.868
	c-0.465,11.29-0.106,22.615-0.106,34.188c82.37,0,163.647,0,245.981,0c0-6.188-0.109-11.433,0.024-16.674
	c0.259-10.201-1.005-20.797,1.321-30.523c5.367-22.425,12.121-44.546,19.012-66.571C463.683,342.869,472.304,310.248,466.58,275.529
	z M423.293,349.583c-7.605,23.983-15.631,47.858-22.27,72.109c-2.941,10.747-2.92,22.3-4.344,34.308
	c-57.733,0-115.377,0-173.536-0.002c-0.723-6.918-0.791-13.861-2.261-20.495c-4.651-20.979-20.404-34.04-35.106-47.766
	c-24.882-23.225-52.293-42.735-83.427-56.778c-1.062-0.478-2.041-1.143-3.061-1.714c-19.241-10.793-21.112-15.593-13.798-35.397
	c5.896-15.965,20.083-23.927,36.277-21.58c15.534,2.252,29.39,7.906,42.466,16.432c6.585,4.294,14.133,7.113,22.91,11.413
	l0.018-154.921c0.012-12.463,3.351-23.616,13.43-31.881c10.07-8.256,21.658-10.668,33.55-5.969
	c11.159,4.412,20.344,12.43,21.456,25.186c1.467,16.834,1.481,33.807,1.771,50.727c0.264,15.444,0.055,30.895,0.055,47.229
	c13.841-7.789,28.603-13.049,41.964-5.836c13.489,7.283,25.885,9.228,40.768,7.324c10.305-1.316,20.658,3.662,27.807,12.307
	c3.451,4.173,7.057,4.568,12.206,4.002c15.11-1.655,30.414-0.629,40.438,12.367c5.361,6.949,8.813,16.252,10.479,24.998
	C435.259,307.562,429.901,328.73,423.293,349.583z M375.053,184.13c20.141-12.581,23.555-30.634,22.965-50.388
	c-0.443-14.874,0.24-29.875-1.504-44.594c-2.707-22.901-20.373-37.684-43.527-37.875c-24.287-0.204-48.584,0.232-72.868-0.125
	c-17.8-0.261-35.587-2.04-53.372-1.93c-34.183,0.212-68.375,0.87-102.533,2.146c-23.497,0.878-40.474,17.688-42.063,42.843
	c-1.152,18.247,0.6,36.685,1.167,55.035c0.647,20.922,19.389,36.539,40.06,38.635c1.109,0.113,2.214,0.271,3.67,0.451
	c0,8.945,0,17.647,0,28.663c-14.385-1.147-30.389,1.438-42.471-4.274c-19.017-8.992-32.881-26.685-35.62-48.08
	c-3.056-23.874-2.304-48.313-2.066-72.494c0.092-9.327,1.986-19.146,5.375-27.836c10.609-27.205,41.156-49.201,72.1-48.884
	c77.84,0.795,155.691,0.253,233.539,0.268c39.553,0.006,75.205,35.78,75.242,75.475c0.021,19.607-0.321,39.224,0.11,58.822
	c0.334,15.117-4.616,28.4-12.639,40.674c-1.402,2.146-5.513,3.69-8.275,3.551c-7.198-0.362-14.479-1.268-21.464-3.013
	C385.864,189.944,381.275,186.988,375.053,184.13z"/>
</svg>
