<?xml version="1.0" encoding="utf-8"?>
<!-- Generator: Adobe Illustrator 16.0.0, SVG Export Plug-In . SVG Version: 6.00 Build 0)  -->
<!DOCTYPE svg PUBLIC "-//W3C//DTD SVG 1.1//EN" "http://www.w3.org/Graphics/SVG/1.1/DTD/svg11.dtd">
<svg version="1.1" id="Capa_1" xmlns="http://www.w3.org/2000/svg" xmlns:xlink="http://www.w3.org/1999/xlink" x="0px" y="0px"
	 width="500px" height="500px" viewBox="0 0 500 500" enable-background="new 0 0 500 500" xml:space="preserve">
<path d="M6,250.439c1.951-15.931,12.354-33.813,31.211-53.645c25.685-26.009,54.294-46.817,85.831-62.422
	c41.939-19.832,84.205-29.748,126.794-29.748c9.428,0,19.02,0.325,28.773,0.975l36.087-62.911c3.252-5.202,6.99-8.128,11.217-8.778
	c1.302,0,2.602,0.325,3.902,0.975l24.87,15.606c5.527,2.275,5.853,7.64,0.977,16.093l-27.797,49.254l-22.922,38.527l-19.994,35.112
	l-70.225,121.918l-19.995,35.112l-22.92,39.014l-27.797,48.768c-4.877,8.127-9.917,10.566-15.118,7.314l-25.846-15.117
	c-4.877-2.601-4.877-7.966,0-16.095l23.896-41.939l-3.901-1.95c-33.487-17.23-62.098-38.201-85.831-62.909
	C16.404,280.187,6,262.467,6,250.439z M134.746,250.439c0,24.059,7.64,45.679,22.921,64.859l23.408-40.965
	c-2.926-7.803-4.389-15.768-4.389-23.895c0-16.582,5.527-31.375,16.581-44.379c11.055-13.005,24.872-21.133,41.453-24.383
	l23.896-40.964h-8.779c-31.861,0-59.008,10.728-81.441,32.187C145.962,194.357,134.746,220.202,134.746,250.439z M221.064,394.303
	l19.994-34.625h8.778c31.861,0,59.009-10.565,81.442-31.699c22.433-21.133,33.649-46.979,33.649-77.539
	c0-24.06-7.641-45.68-22.921-64.861l30.724-53.155c0.649,0.65,1.3,1.138,1.95,1.462c0.649,0.325,1.301,0.488,1.951,0.488
	c33.487,16.907,62.097,37.712,85.83,62.422c20.809,23.732,31.211,41.614,31.211,53.645c-1.95,15.93-12.354,33.649-31.211,53.156
	c-25.685,26.01-54.293,46.979-85.83,62.909c-41.939,19.832-84.205,29.748-126.795,29.748
	C241.708,396.253,232.118,395.603,221.064,394.303z M264.954,318.713l53.645-92.171c2.927,8.128,4.389,16.095,4.389,23.897
	c0,16.58-5.526,31.21-16.581,43.89S281.536,315.138,264.954,318.713z"/>
</svg>
