<?xml version="1.0" encoding="utf-8"?>
<!-- Generator: Adobe Illustrator 16.0.0, SVG Export Plug-In . SVG Version: 6.00 Build 0)  -->
<!DOCTYPE svg PUBLIC "-//W3C//DTD SVG 1.1//EN" "http://www.w3.org/Graphics/SVG/1.1/DTD/svg11.dtd">
<svg version="1.1" id="Capa_1" xmlns="http://www.w3.org/2000/svg" xmlns:xlink="http://www.w3.org/1999/xlink" x="0px" y="0px"
	 width="500px" height="500px" viewBox="0 0 500 500" enable-background="new 0 0 500 500" xml:space="preserve">
<path d="M336.252,268.982c52.805-19.572,54.971-50.725,54.971-50.725s-14.834,0-86.387,0c-67.68,0-74.299,33.583-83.302,67.189
	C221.534,285.448,282.436,288.941,336.252,268.982z M97.952,333.904c-3.833-27.093-6.013-54.242-4.678-81.613
	c2.108-43.101,11.565-87.19,26.845-128.17c-87.52,40.075-62.531,201.47-62.531,201.47l41.346,14.962
	C98.587,338.301,98.258,336.072,97.952,333.904z M142.524,78.008l0.005-0.988c0.067-12.74,10.452-23.011,23.186-22.945l0.987,0.005
	c2.576,0.014,5.042,0.463,7.355,1.255l-0.233,44.687c-2.322,0.767-4.792,1.191-7.368,1.178l-0.987-0.005
	C152.734,101.128,142.458,90.749,142.524,78.008z M492.5,222.5h-14v-139h-68v39h-18v-39h-68v134.758c-6.026,0-12.562,0-19.665,0
	c-71.55,0-74.856,37.53-84.882,72.952c-4.085,14.425-8.066,30.177-11.353,43.79h-59.204c-10.793-20.744-23.173-50.484-26.365-82.277
	c-2.813-28.027-2.965-58.686-2.344-83.223h32.546c14.453,0,22.266-13.426,22.266-27.884v-7.855c0-14.455-7.813-26.261-22.266-26.261
	h-52.357c-14.463,0-28.377,11.806-28.377,26.261v7.855c0,6.866,3.141,13.495,7.984,18.567
	c-32.44,52.78-25.639,135.301-22.932,158.455c-26.494,12.169-44.971,38.79-45.298,69.776h21.367c0,0.042-0.003,0.084-0.003,0.126
	c0,31.522,25.555,57.077,57.084,57.077c30.695,0,55.729-24.237,57.019-54.618h129.422c1.289,30.381,26.314,54.618,57.019,54.618
	c31.52,0,57.08-25.555,57.08-57.077c0-0.042-0.003-0.084-0.003-0.126h20.062c-0.273-25.499-12.834-48.044-32.035-62.014
	c2.427-7.059,4.725-14.376,6.724-21.756c6.428-23.736,7.251-48.305,6.758-65.146H492.5V222.5z M144.857,115.544
	c12.26,0,22.195,9.939,22.195,22.197c0,12.261-9.934,22.197-22.195,22.197c-12.261,0-22.194-9.937-22.194-22.197
	C122.663,125.484,132.597,115.544,144.857,115.544z M90.702,420.872c-17.855,0-32.338-14.477-32.338-32.331
	c0-0.042,0.003-0.084,0.003-0.126h9.521c0,0.042-0.003,0.084-0.003,0.126c0,12.596,10.218,22.809,22.817,22.809
	c11.767,0,21.453-8.91,22.68-20.35h9.546C121.67,407.704,107.726,420.872,90.702,420.872z M334.162,420.872
	c-17.027,0-30.975-13.167-32.233-29.872h9.555c1.228,11.439,10.91,20.35,22.679,20.35c11.767,0,21.453-8.91,22.681-20.35h9.545
	C365.13,407.704,351.188,420.872,334.162,420.872z M410.5,222.5h-18v-41h18V222.5z M134.879,137.741c0-5.512,4.468-9.98,9.98-9.98
	s9.98,4.468,9.98,9.98c0,5.512-4.468,9.98-9.98,9.98S134.879,143.253,134.879,137.741z"/>
</svg>
