<?xml version="1.0" encoding="utf-8"?>
<!-- Generator: Adobe Illustrator 16.0.0, SVG Export Plug-In . SVG Version: 6.00 Build 0)  -->
<!DOCTYPE svg PUBLIC "-//W3C//DTD SVG 1.1//EN" "http://www.w3.org/Graphics/SVG/1.1/DTD/svg11.dtd">
<svg version="1.1" id="Capa_1" xmlns="http://www.w3.org/2000/svg" xmlns:xlink="http://www.w3.org/1999/xlink" x="0px" y="0px"
	 width="500px" height="500px" viewBox="0 0 500 500" enable-background="new 0 0 500 500" xml:space="preserve">
<path d="M469.766,419.476L316.942,272.66C371.31,199.015,438.748,89.134,423.27,14.083L250.561,208.89l-55.354-53.176
	c10.761-29.287,1.673-67.256-24.7-93.249C137.62,29.468,70.697,4.437,39.397,33.88c-29.72,31.026-5.016,97.893,27.885,130.874
	c25.911,26.447,63.938,35.746,93.386,25.188l55.616,57.612l-35.291,39.806c0,0-48.135,82.189-117.016,142.24
	c0,0-30.411,29.426-1.078,50.711c43.203,31.349,45.417-11.973,44.292-28.982c0,0,44.362,6.699,73.724-67.85
	c0,0,10.13-41.25,21.5-31.312c11.369,9.935,19.762,7.247,33.149-17.126l18.189,15.895c0,0,11.775-12.98,29.155-34.365l142.13,147.23
	c9.439,9.469,29.961,4.406,39.463-5.01C474.005,449.373,479.209,428.95,469.766,419.476z M447.944,443.613
	c-6.547,6.615-17.239,6.688-23.873,0.162c-6.638-6.526-6.713-17.186-0.166-23.799c6.543-6.619,17.236-6.693,23.874-0.164
	C454.418,426.339,454.49,436.995,447.944,443.613z"/>
</svg>
