<?xml version="1.0" encoding="utf-8"?>
<!-- Generator: Adobe Illustrator 16.0.0, SVG Export Plug-In . SVG Version: 6.00 Build 0)  -->
<!DOCTYPE svg PUBLIC "-//W3C//DTD SVG 1.1//EN" "http://www.w3.org/Graphics/SVG/1.1/DTD/svg11.dtd">
<svg version="1.1" id="Capa_1" xmlns="http://www.w3.org/2000/svg" xmlns:xlink="http://www.w3.org/1999/xlink" x="0px" y="0px"
	 width="500px" height="500px" viewBox="0 0 500 500" enable-background="new 0 0 500 500" xml:space="preserve">
<path d="M457.08,41.92C473.026,58.173,481,77.647,481,100.34c0,22.693-7.974,42.013-23.92,57.959l-57.96,57.041l26.681,26.68
	c1.84,1.84,2.76,3.833,2.76,5.98s-0.92,4.141-2.76,5.98l-53.82,53.82c-1.84,1.84-3.834,2.76-5.98,2.76s-4.141-0.92-5.98-2.76
	l-26.68-27.141L178.32,435.681c-6.44,6.439-14.107,9.659-23,9.659h-51.98L37.56,478L21,461.44l32.66-65.78v-51.979
	c0-8.895,3.22-16.561,9.66-23L218.34,165.66l-27.14-26.68c-1.84-1.84-2.76-3.833-2.76-5.98s0.92-4.14,2.76-5.98l53.82-53.82
	c1.84-1.84,3.833-2.76,5.98-2.76c2.146,0,4.141,0.92,5.98,2.76l26.68,26.68L340.7,41.92C356.647,25.974,375.967,18,398.66,18
	S440.827,25.974,457.08,41.92z M152.56,395.66L300.22,248L251,198.78L103.34,346.44v49.22H152.56z"/>
</svg>
