<?xml version="1.0" encoding="utf-8"?>
<!-- Generator: Adobe Illustrator 16.0.0, SVG Export Plug-In . SVG Version: 6.00 Build 0)  -->
<!DOCTYPE svg PUBLIC "-//W3C//DTD SVG 1.1//EN" "http://www.w3.org/Graphics/SVG/1.1/DTD/svg11.dtd">
<svg version="1.1" id="Capa_1" xmlns="http://www.w3.org/2000/svg" xmlns:xlink="http://www.w3.org/1999/xlink" x="0px" y="0px"
	 width="500px" height="500px" viewBox="0 0 500 500" enable-background="new 0 0 500 500" xml:space="preserve">
<g>
	<path fill-rule="evenodd" clip-rule="evenodd" d="M47.231,63.176c0-3.898-0.213-6.909,0.111-9.86c0.12-1.088,1.5-2.916,2.319-2.923
		c20.517-0.165,41.037-0.128,61.947-0.128c0,6.792,0,13.983,0,21.987c1.974,0,3.567,0,5.164,0c11.125,0,22.25-0.047,33.376,0.012
		c11.719,0.064,19.342,6.658,21.277,18.113c1.179,6.969,2.521,13.913,3.806,20.866c0.148,0.8,0.386,1.583,0.701,2.873
		c2.247,0,4.4,0,6.552,0c93.22,0,186.435,0.226,279.654-0.193c18.431-0.083,27.997,15.326,24.363,28.603
		c-1.059,3.864-1.132,7.993-1.713,11.994c-6.285,43.158-12.628,86.309-18.848,129.474c-1.734,12.049-9.299,18.96-21.476,18.964
		c-76.864,0.017-153.729,0.008-230.597,0.008c-1.995,0-3.99,0-6.597,0c1.193,7.241,2.308,13.975,3.513,21.284
		c2.21,0,4.172,0,6.134,0c68.274,0,136.54,0.047,204.809-0.047c9.139-0.014,15.976,3.556,20.512,11.385
		c7.837,13.538-2.103,30.759-17.787,30.829c-14.159,0.062-28.317-0.016-42.478-0.016c-62.204-0.006-124.404,0.009-186.608-0.013
		c-13.719-0.004-20.794-5.952-23.251-19.384c-0.485-2.65-0.984-5.301-1.43-7.956c-12.265-73.055-24.523-146.113-36.793-219.168
		c-0.278-1.647-0.695-3.271-1.122-5.262c-6.825,0-13.621,0-20.883,0c0,7.356,0,14.539,0,22.514c-21.585,0-42.718,0-64.418,0
		c-0.15-3.324-0.319-7.099-0.511-11.404c-11.741,0-23.248,0-34.996,0c0-3.681,0-6.809,0-10.649c11.522,0,22.925,0,34.788,0
		c0-14.054,0-27.411,0-41.174c-11.548,0-23.064,0-34.81,0c0-3.534,0-6.67,0-10.729C23.579,63.176,35.113,63.176,47.231,63.176z
		 M441.348,156.825c-27.044,0-53.553,0-80.205,0c0,13.818,0,27.328,0,40.866c24.92,0,49.448,0,74.276,0
		C437.399,184.027,439.347,170.614,441.348,156.825z M255.448,197.906c0-14.167,0-27.543,0-41.082c-24.401,0-48.388,0-72.822,0
		c2.418,14.057,4.773,27.744,7.066,41.082C211.891,197.906,233.537,197.906,255.448,197.906z M361.021,261.194
		c22.155,0,43.808,0,65.892,0c1.855-13.74,3.688-27.317,5.573-41.292c-23.994,0-47.592,0-71.465,0
		C361.021,233.714,361.021,247.257,361.021,261.194z M339.262,197.758c0-13.617,0-27.231,0-40.85c-21.066,0-41.695,0-62.344,0
		c0,13.805,0,27.212,0,40.85C297.75,197.758,318.268,197.758,339.262,197.758z M276.766,261.137c21.174,0,41.828,0,62.505,0
		c0-13.962,0-27.643,0-41.155c-21.096,0-41.723,0-62.505,0C276.766,233.847,276.766,247.29,276.766,261.137z M255.674,219.962
		c-21.018,0-41.573,0-62.513,0c2.288,14.013,4.502,27.567,6.718,41.13c18.783,0,37.2,0,55.795,0
		C255.674,247.339,255.674,233.915,255.674,219.962z"/>
	<path fill-rule="evenodd" clip-rule="evenodd" d="M223.56,450.58c-18.626-0.02-33.8-15.182-33.834-33.802
		c-0.038-18.837,15.321-34.095,34.181-33.959c18.601,0.132,33.658,15.403,33.579,34.053
		C257.407,435.482,242.194,450.601,223.56,450.58z"/>
	<path fill-rule="evenodd" clip-rule="evenodd" d="M412.67,450.58c-18.618-0.05-33.769-15.23-33.778-33.86
		c-0.012-18.83,15.37-34.062,34.238-33.9c18.595,0.16,33.627,15.453,33.523,34.111C446.55,435.535,431.311,450.626,412.67,450.58z"
		/>
</g>
</svg>
