<?xml version="1.0" encoding="utf-8"?>
<!-- Generator: Adobe Illustrator 16.0.0, SVG Export Plug-In . SVG Version: 6.00 Build 0)  -->
<!DOCTYPE svg PUBLIC "-//W3C//DTD SVG 1.1//EN" "http://www.w3.org/Graphics/SVG/1.1/DTD/svg11.dtd">
<svg version="1.1" id="Capa_1" xmlns="http://www.w3.org/2000/svg" xmlns:xlink="http://www.w3.org/1999/xlink" x="0px" y="0px"
	 width="500px" height="500px" viewBox="0 0 500 500" enable-background="new 0 0 500 500" xml:space="preserve">
<path d="M456.114,291.231V85.679c0-2.063-0.736-3.831-2.21-5.305c-1.474-1.473-3.389-2.356-5.746-2.651H53.409
	c-2.063,0-3.831,0.884-5.305,2.651c-1.473,1.77-2.357,3.538-2.652,5.305v205.552c0,2.063,0.884,3.831,2.652,5.306
	c1.768,1.474,3.537,2.209,5.305,2.209h394.75c2.063,0,3.979-0.735,5.746-2.209C455.673,295.063,456.409,293.294,456.114,291.231z
	 M487.5,85.679v268.323c0,10.904-3.831,20.188-11.493,27.85s-16.945,11.641-27.849,11.936h-133.94c0,5.895,1.325,12.23,3.978,19.008
	c2.652,6.778,5.157,12.673,7.516,17.682c2.357,5.01,3.683,8.547,3.978,10.609c0,4.126-1.473,7.81-4.421,11.052
	c-2.946,3.241-6.631,4.862-11.05,4.862H187.792c-4.42,0-8.105-1.621-11.052-4.862c-2.946-3.242-4.567-6.926-4.862-11.052
	c0-2.356,1.326-6.041,3.979-11.05c2.653-5.011,5.305-10.758,7.957-17.241c2.652-6.482,3.979-12.819,3.979-19.008H53.409
	c-10.609,0-19.893-3.979-27.849-11.936c-7.957-7.956-11.788-17.24-11.493-27.85V85.679c0-10.904,3.831-20.187,11.493-27.849
	c7.663-7.662,16.945-11.493,27.849-11.493h394.75c10.903,0,20.187,3.832,27.849,11.493C483.669,65.493,487.5,74.775,487.5,85.679z"
	/>
</svg>
