<?xml version="1.0" encoding="utf-8"?>
<!-- Generator: Adobe Illustrator 16.0.0, SVG Export Plug-In . SVG Version: 6.00 Build 0)  -->
<!DOCTYPE svg PUBLIC "-//W3C//DTD SVG 1.1//EN" "http://www.w3.org/Graphics/SVG/1.1/DTD/svg11.dtd">
<svg version="1.1" id="Capa_1" xmlns="http://www.w3.org/2000/svg" xmlns:xlink="http://www.w3.org/1999/xlink" x="0px" y="0px"
	 width="500px" height="500px" viewBox="0 0 500 500" enable-background="new 0 0 500 500" xml:space="preserve">
<path d="M68.272,304.544c15.966,0,29.503-5.555,40.611-16.661c11.107-11.107,16.661-24.645,16.661-40.611
	c0-15.272-5.554-28.636-16.661-40.09C97.775,195.728,84.238,190,68.272,190c-15.967,0-29.504,5.728-40.611,17.181
	C16.553,218.636,11,231.999,11,247.271c0,15.967,5.553,29.504,16.661,40.611C38.768,298.989,52.305,304.544,68.272,304.544z
	 M250.5,304.544c15.967,0,29.504-5.555,40.61-16.661c11.108-11.107,16.661-24.645,16.661-40.611c0-15.272-5.727-28.636-17.182-40.09
	C279.137,195.728,265.772,190,250.5,190s-28.636,5.728-40.09,17.181c-11.454,11.455-17.182,24.818-17.182,40.09
	c0,15.967,5.554,29.504,16.661,40.611C220.997,298.989,234.533,304.544,250.5,304.544z M432.729,304.544
	c15.967,0,29.504-5.555,40.61-16.661C484.446,276.775,490,263.238,490,247.271c0-15.272-5.554-28.636-16.661-40.09
	C462.232,195.728,448.695,190,432.729,190c-15.968,0-29.504,5.728-40.611,17.181c-11.106,11.455-16.661,24.818-16.661,40.09
	c0,15.967,5.555,29.504,16.661,40.611C403.225,298.989,416.761,304.544,432.729,304.544z"/>
</svg>
