<?xml version="1.0" encoding="utf-8"?>
<!-- Generator: Adobe Illustrator 16.0.0, SVG Export Plug-In . SVG Version: 6.00 Build 0)  -->
<!DOCTYPE svg PUBLIC "-//W3C//DTD SVG 1.1//EN" "http://www.w3.org/Graphics/SVG/1.1/DTD/svg11.dtd">
<svg version="1.1" id="Capa_1" xmlns="http://www.w3.org/2000/svg" xmlns:xlink="http://www.w3.org/1999/xlink" x="0px" y="0px"
	 width="500px" height="500px" viewBox="0 0 500 500" enable-background="new 0 0 500 500" xml:space="preserve">
<g>
	<g>
		<rect x="324.5" y="83.5" width="154" height="139"/>
		<rect x="324.5" y="83.5" width="77" height="139"/>
		<rect x="392.5" y="82.5" fill="#FFFFFF" width="18" height="40"/>
		<rect x="392.5" y="181.5" fill="#FFFFFF" width="18" height="41"/>
	</g>
	<g>
		<path d="M165.469,101.195l0.987,0.005c2.576,0.013,5.046-0.411,7.368-1.178l0.233-44.687c-2.313-0.792-4.779-1.241-7.355-1.255
			l-0.987-0.005c-12.734-0.066-23.119,10.205-23.186,22.945l-0.005,0.988C142.458,90.749,152.734,101.128,165.469,101.195z"/>
	</g>
	<path d="M364.049,364.857c6.912-15.542,15.819-37.613,21.94-60.211c11.345-41.893,5.233-86.388,5.233-86.388s-14.835,0-86.387,0
		c-71.55,0-74.856,37.53-84.882,72.952c-7.931,28.007-15.478,61.039-18.293,73.646H364.049z"/>
	<rect x="329.5" y="222.5" width="163" height="17"/>
	<path d="M336.252,268.983c52.805-19.573,54.971-50.725,54.971-50.725s-14.835,0-86.387,0c-67.68,0-74.299,33.583-83.302,67.189
		C221.534,285.448,282.436,288.941,336.252,268.983z"/>
	<g>
		<path stroke="#000000" stroke-miterlimit="10" d="M58.364,324.865c0,0-25.416-164.053,64.667-202.445c0,0-5.948,71.044,0,130.303
			c5.95,59.263,43.831,111.411,43.831,111.411L58.364,324.865z"/>
		<path d="M97.952,333.904c-3.833-27.092-6.013-54.242-4.678-81.613c2.108-43.101,11.565-87.19,26.845-128.17
			c-87.52,40.075-62.531,201.47-62.531,201.47l41.346,14.962C98.587,338.301,98.258,336.072,97.952,333.904z"/>
	</g>
	<polygon stroke="#000000" stroke-miterlimit="10" points="384.839,335 107,335 107,391 388.672,391 	"/>
	<g>
		<g>
			<path d="M33.618,388.541c0-31.525,25.555-57.083,57.084-57.083c31.52,0,57.081,25.558,57.081,57.083
				c0,31.522-25.561,57.077-57.081,57.077C59.173,445.618,33.618,420.063,33.618,388.541z"/>
			<path fill="#FFFFFF" d="M58.364,388.541c0-17.857,14.483-32.336,32.338-32.336c17.852,0,32.329,14.479,32.329,32.336
				c0,17.854-14.477,32.331-32.329,32.331C72.847,420.872,58.364,406.396,58.364,388.541z"/>
			<path d="M67.885,388.541c0-12.605,10.218-22.816,22.817-22.816c12.598,0,22.814,10.211,22.814,22.816
				c0,12.596-10.216,22.809-22.814,22.809C78.103,411.35,67.885,401.137,67.885,388.541z"/>
		</g>
		<path stroke="#000000" stroke-miterlimit="10" d="M167.599,388.415c-0.456-42.515-35.045-76.846-77.672-76.846
			S12.703,345.9,12.254,388.415H167.599z"/>
	</g>
	<g>
		<g>
			<path d="M277.081,388.541c0-31.525,25.552-57.083,57.081-57.083c31.521,0,57.08,25.558,57.08,57.083
				c0,31.522-25.56,57.077-57.08,57.077C302.633,445.618,277.081,420.063,277.081,388.541z"/>
			<path fill="#FFFFFF" d="M301.826,388.541c0-17.857,14.48-32.336,32.336-32.336c17.854,0,32.328,14.479,32.328,32.336
				c0,17.854-14.475,32.331-32.328,32.331C316.307,420.872,301.826,406.396,301.826,388.541z"/>
			<path d="M311.349,388.541c0-12.605,10.214-22.816,22.813-22.816c12.599,0,22.814,10.211,22.814,22.816
				c0,12.596-10.216,22.809-22.814,22.809C321.563,411.35,311.349,401.137,311.349,388.541z"/>
		</g>
		<path stroke="#000000" stroke-miterlimit="10" d="M411.301,388.415c-0.455-42.515-35.045-76.846-77.673-76.846
			c-42.622,0-77.217,34.331-77.671,76.846H411.301z"/>
	</g>
	<g>
		<path d="M168.5,141.616c0,14.458-7.813,27.884-22.266,27.884H93.877c-14.463,0-28.377-13.425-28.377-27.884v-7.855
			c0-14.455,13.914-26.261,28.377-26.261h52.357c14.453,0,22.266,11.806,22.266,26.261V141.616z"/>
	</g>
	<g>
		<path fill="#FFFFFF" d="M160.052,137.741c0,12.261-9.934,22.197-22.195,22.197s-22.194-9.937-22.194-22.197
			c0-12.257,9.934-22.197,22.194-22.197S160.052,125.483,160.052,137.741z"/>
		<circle cx="137.859" cy="137.741" r="9.98"/>
	</g>
</g>
</svg>
