<?xml version="1.0" encoding="utf-8"?>
<!-- Generator: Adobe Illustrator 16.0.0, SVG Export Plug-In . SVG Version: 6.00 Build 0)  -->
<!DOCTYPE svg PUBLIC "-//W3C//DTD SVG 1.1//EN" "http://www.w3.org/Graphics/SVG/1.1/DTD/svg11.dtd">
<svg version="1.1" id="Capa_1" xmlns="http://www.w3.org/2000/svg" xmlns:xlink="http://www.w3.org/1999/xlink" x="0px" y="0px"
	 width="500px" height="500px" viewBox="0 0 500 500" enable-background="new 0 0 500 500" xml:space="preserve">
<path d="M318.282,429.379c6.827-2.275,12.519,0,17.069,6.829c4.553,6.828,3.795,13.277-2.275,19.347
	c-1.896,1.896-6.07,4.931-12.519,9.104s-17.64,9.104-33.571,14.794c-15.933,5.69-31.865,8.535-47.798,8.535
	c-41.348,0-69.609-14.983-84.783-44.951c-13.277-28.072-10.811-59.746,7.397-95.025l29.589-59.177
	c10.621-20.864,11.19-34.71,1.707-41.539c-1.897-1.896-6.07-2.845-12.519-2.845c-4.173,0-8.725,0.569-13.656,1.707
	c-4.932,1.138-9.104,2.086-12.519,2.845l-3.983,1.139c-7.208,2.655-13.087,0.569-17.639-6.26
	c-4.552-6.828-3.793-12.897,2.276-18.208c2.655-2.655,6.828-5.88,12.519-9.673c5.69-3.793,16.691-8.726,33.002-14.794
	c16.312-6.07,32.244-9.104,47.797-9.104c42.107,0,70.558,14.984,85.352,44.952c13.276,27.692,11.001,59.368-6.828,95.025
	l-30.157,59.178c-10.242,21.243-10.622,35.278-1.139,42.106c1.139,1.138,5.121,1.707,11.949,1.707c4.173,0,8.726-0.379,13.657-1.138
	c4.931-0.76,9.104-1.707,12.518-2.846L318.282,429.379z M219.273,87.972c0-49.315,24.657-73.972,73.973-73.972
	c49.313,0,73.971,24.657,73.971,73.972c0,49.314-24.658,73.971-73.971,73.971C243.931,161.943,219.273,137.287,219.273,87.972z"/>
</svg>
