<?xml version="1.0" encoding="utf-8"?>
<!-- Generator: Adobe Illustrator 16.0.0, SVG Export Plug-In . SVG Version: 6.00 Build 0)  -->
<!DOCTYPE svg PUBLIC "-//W3C//DTD SVG 1.1//EN" "http://www.w3.org/Graphics/SVG/1.1/DTD/svg11.dtd">
<svg version="1.1" id="Capa_1" xmlns="http://www.w3.org/2000/svg" xmlns:xlink="http://www.w3.org/1999/xlink" x="0px" y="0px"
	 width="500px" height="500px" viewBox="0 0 500 500" enable-background="new 0 0 500 500" xml:space="preserve">
<path d="M138.238,438.237h225V326h-225V438.237z M400.476,438.237h37.762V176c0-2.797-1.049-6.469-3.146-11.014
	c-2.098-4.546-4.021-8.042-5.77-10.49l-82.343-81.817c-1.748-2.099-5.069-4.196-9.965-6.294c-4.895-2.098-8.741-2.973-11.538-2.622
	V185.44c0,7.692-2.622,14.336-7.867,19.931c-5.245,5.594-11.889,8.392-19.93,8.392H128.797c-7.692,0-14.161-2.798-19.406-8.392
	c-5.245-5.595-8.042-12.238-8.392-19.931V63.763H63.238v374.475H101V316.56c0-7.692,2.797-14.336,8.392-19.931
	c5.594-5.594,12.063-8.392,19.406-8.392h243.881c7.692,0,14.335,2.798,19.93,8.392c5.595,5.595,8.217,12.238,7.867,19.931V438.237z
	 M288.237,166.56V73.203c0-2.797-0.874-5.07-2.622-6.818s-4.021-2.622-6.818-2.622h-56.119c-2.448,0-4.72,0.874-6.818,2.622
	c-2.098,1.748-2.973,4.021-2.623,6.818v93.356c0,2.797,0.875,5.07,2.623,6.818s4.021,2.622,6.818,2.622h56.119
	c2.448,0,4.721-0.874,6.818-2.622S288.588,169.356,288.237,166.56z M475.476,176v271.679c0,7.691-2.622,14.336-7.867,19.93
	S455.72,476,447.679,476H54.322c-8.042,0-14.686-2.798-19.93-8.392S26.35,455.37,26,447.679V54.321
	c0-7.692,2.797-14.335,8.392-19.93S46.629,26,54.322,26h271.154c8.042,0,16.783,2.098,26.224,6.294
	c9.44,4.195,16.783,8.741,22.028,13.636l81.818,82.343c5.594,5.245,10.314,12.588,14.16,22.028
	C473.553,159.741,475.476,168.308,475.476,176z"/>
</svg>
