<?xml version="1.0" encoding="utf-8"?>
<!-- Generator: Adobe Illustrator 16.0.0, SVG Export Plug-In . SVG Version: 6.00 Build 0)  -->
<!DOCTYPE svg PUBLIC "-//W3C//DTD SVG 1.1//EN" "http://www.w3.org/Graphics/SVG/1.1/DTD/svg11.dtd">
<svg version="1.1" id="Capa_1" xmlns="http://www.w3.org/2000/svg" xmlns:xlink="http://www.w3.org/1999/xlink" x="0px" y="0px"
	 width="500px" height="500px" viewBox="0 0 500 500" enable-background="new 0 0 500 500" xml:space="preserve">
<path d="M112.969,340.311c-11.158,0-20.659-3.922-28.5-11.763c-7.841-7.842-11.762-17.342-11.762-28.501V122.261
	c0-11.158,3.921-20.658,11.762-28.499C92.31,85.921,101.811,82,112.969,82h274.595c11.159,0,20.658,3.921,28.5,11.762
	c7.842,7.841,11.911,17.341,12.215,28.499v177.786c0,11.159-4.072,20.659-12.215,28.501c-8.145,7.841-17.644,11.763-28.5,11.763
	H112.969z M104.826,122.261v177.786c0,2.111,0.905,4.072,2.714,5.883c1.81,1.809,3.619,2.563,5.429,2.262h274.596
	c2.412,0,4.374-0.754,5.882-2.262c1.507-1.509,2.262-3.469,2.262-5.883V122.261c0-2.111-0.755-3.92-2.262-5.428
	c-1.508-1.507-3.47-2.413-5.882-2.713H112.969c-2.111,0-3.921,0.904-5.429,2.713C106.032,118.643,105.127,120.452,104.826,122.261z
	 M452.253,356.596h40.263v24.428c0,6.636-3.921,12.216-11.761,16.738c-7.843,4.523-17.342,6.938-28.502,7.238H48.278
	c-10.857,0-20.357-2.413-28.5-7.238c-8.143-4.824-12.064-10.404-11.762-16.738v-24.428H452.253L452.253,356.596z M270.396,381.023
	c2.713,0,4.072-1.356,4.072-4.071c0-2.714-1.359-4.071-4.072-4.071h-40.263c-2.713,0-4.071,1.357-4.071,4.071
	c0,2.715,1.358,4.071,4.071,4.071H270.396z"/>
</svg>
