<?xml version="1.0" encoding="utf-8"?>
<!-- Generator: Adobe Illustrator 16.0.0, SVG Export Plug-In . SVG Version: 6.00 Build 0)  -->
<!DOCTYPE svg PUBLIC "-//W3C//DTD SVG 1.1//EN" "http://www.w3.org/Graphics/SVG/1.1/DTD/svg11.dtd">
<svg version="1.1" id="Capa_1" xmlns="http://www.w3.org/2000/svg" xmlns:xlink="http://www.w3.org/1999/xlink" x="0px" y="0px"
	 width="500px" height="500px" viewBox="0 0 500 500" enable-background="new 0 0 500 500" xml:space="preserve">
<path d="M230.416,31.436v169.416c0,10.757-3.164,20.565-9.491,29.423c-6.327,8.857-14.395,15.026-24.202,18.507v206.431
	c0,9.174-3.322,17.084-9.966,23.728c-6.644,6.645-14.711,9.966-24.202,9.966h-33.693c-9.175,0-17.084-3.321-23.728-9.966
	c-6.644-6.644-10.124-14.554-10.44-23.728V248.782c-9.807-3.481-17.875-9.65-24.202-18.507C64.164,221.417,61,211.608,61,200.852
	V31.436c0-4.745,1.74-8.7,5.22-11.864c3.48-3.164,7.435-4.903,11.864-5.22s8.384,1.424,11.864,5.22
	c3.48,3.797,5.062,7.751,4.746,11.864v110.096c0,4.43,1.74,8.384,5.22,11.864c3.48,3.48,7.435,5.221,11.864,5.221
	s8.384-1.741,11.864-5.221c3.48-3.48,5.22-7.435,5.22-11.864V31.436c0-4.745,1.582-8.7,4.746-11.864
	c3.164-3.164,7.277-4.903,12.338-5.22s9.017,1.424,11.864,5.22c2.848,3.797,4.429,7.751,4.746,11.864v110.096
	c0,4.43,1.74,8.384,5.22,11.864c3.48,3.48,7.435,5.221,11.864,5.221s8.383-1.741,11.864-5.221s5.22-7.435,5.22-11.864V31.436
	c0-4.745,1.582-8.7,4.746-11.864c3.164-3.164,7.118-4.903,11.864-5.22s8.858,1.424,12.338,5.22
	C229.15,23.369,230.732,27.323,230.416,31.436z M434,31.436v423.777c0,9.174-3.321,17.084-9.966,23.728
	c-6.644,6.645-14.711,9.966-24.202,9.966h-33.693c-9.174,0-17.084-3.321-23.728-9.966c-6.645-6.644-10.124-14.554-10.44-23.728
	V319.49h-59.319c-2.215,0-4.113-0.791-5.694-2.373c-1.582-1.582-2.373-3.639-2.373-6.168V99.297
	c0-23.411,8.226-43.501,24.677-60.269c16.452-16.767,36.383-24.993,59.794-24.676h67.861c4.745,0,8.7,1.74,11.864,5.22
	C431.943,23.051,433.684,27.007,434,31.436z"/>
</svg>
