<?xml version="1.0" encoding="utf-8"?>
<!-- Generator: Adobe Illustrator 16.0.0, SVG Export Plug-In . SVG Version: 6.00 Build 0)  -->
<!DOCTYPE svg PUBLIC "-//W3C//DTD SVG 1.1//EN" "http://www.w3.org/Graphics/SVG/1.1/DTD/svg11.dtd">
<svg version="1.1" id="Capa_1" xmlns="http://www.w3.org/2000/svg" xmlns:xlink="http://www.w3.org/1999/xlink" x="0px" y="0px"
	 width="500px" height="500px" viewBox="0 0 500 500" enable-background="new 0 0 500 500" xml:space="preserve">
<path d="M251.03,484.5c130.849,0,233.453-103.757,233.453-232.877c0-130.272-102.604-234.03-233.453-234.03
	C121.333,17.593,17,121.351,17,251.623C17,380.743,121.333,484.5,251.03,484.5z M264.287,61.401
	c37.469,0,57.644,65.137,66.866,97.417c-22.48-2.305-44.385-3.458-66.866-4.035V61.401z M189.929,108.668
	c10.952-25.938,27.668-47.267,46.69-47.267v93.382c-21.904,0.576-44.385,1.729-66.289,4.035
	C174.941,140.372,181.282,123.656,189.929,108.668z M61.961,225.107c9.223-10.952,32.856-25.363,76.088-32.856
	c-2.882,17.869-4.035,38.044-4.035,57.643c0,14.41,0.576,25.939,1.729,39.197c-32.857,6.917-52.455,11.528-67.442,18.445
	c-5.188-17.293-8.07-36.891-8.07-55.913C60.232,242.4,60.232,233.177,61.961,225.107z M159.954,249.894
	c0-21.328,1.153-43.232,4.035-62.831c24.786-4.611,48.42-6.34,72.63-7.494v102.027c-25.939,0.576-51.878,1.729-76.088,4.612
	C160.531,273.527,159.954,262.575,159.954,249.894z M235.466,440.691c-32.28-13.258-59.949-63.407-71.477-129.696
	c23.634-2.306,48.42-3.459,72.63-4.611v134.308H235.466z M282.733,430.315c-6.341,4.612-13.258,10.376-18.446,10.376V306.384
	c25.363,1.152,48.997,2.306,73.207,4.611C328.271,362.874,307.52,408.412,282.733,430.315z M264.287,179.569
	c25.363,1.153,48.997,2.883,72.631,6.917c3.459,19.022,4.611,41.502,4.611,63.407c0,12.682,0,23.634-1.152,35.738
	c-24.211-2.306-49.574-3.459-76.09-4.035V179.569z M365.739,289.091c1.729-13.258,1.729-24.787,1.729-39.197
	c0-19.598-1.729-40.35-4.035-58.796c74.936,12.682,77.817,29.975,77.817,60.525c0,18.446-2.882,37.468-8.646,54.761
	C419.348,300.619,394.561,291.973,365.739,289.091z M422.806,331.747c-20.176,44.96-58.219,80.699-103.181,96.839
	c21.904-28.244,35.162-68.019,42.655-114.708C400.901,320.795,417.041,327.711,422.806,331.747z M116.722,385.354
	c-16.716-15.563-28.821-34.009-37.468-53.03c6.34-5.765,17.293-6.342,59.372-17.869c8.07,46.113,21.904,84.158,43.232,112.979
	C157.648,415.905,135.745,406.105,116.722,385.354z M116.722,117.315c17.293-19.022,38.621-31.704,61.102-41.502
	c-16.716,23.057-27.669,53.031-34.586,87.617c-28.822,6.34-54.761,14.411-72.054,23.633
	C82.136,160.547,95.395,136.337,116.722,117.315z M385.337,117.315c20.176,18.446,34.011,41.503,43.232,66.866
	c-19.021-8.646-43.232-16.14-69.747-21.904c-8.07-34.586-18.445-62.254-35.738-86.464
	C345.564,85.611,368.045,98.292,385.337,117.315z"/>
</svg>
