<?xml version="1.0" encoding="utf-8"?>
<!-- Generator: Adobe Illustrator 16.0.0, SVG Export Plug-In . SVG Version: 6.00 Build 0)  -->
<!DOCTYPE svg PUBLIC "-//W3C//DTD SVG 1.1//EN" "http://www.w3.org/Graphics/SVG/1.1/DTD/svg11.dtd">
<svg version="1.1" id="Capa_1" xmlns="http://www.w3.org/2000/svg" xmlns:xlink="http://www.w3.org/1999/xlink" x="0px" y="0px"
	 width="500px" height="500px" viewBox="0 0 500 500" enable-background="new 0 0 500 500" xml:space="preserve">
<path fill-rule="evenodd" clip-rule="evenodd" d="M480.896,479.65c-28.851,0-57.054,0-86.31,0
	c-2.158-101.606-37.113-190.213-109.223-262.542c-71.95-72.168-159.924-107.877-262.476-110.128c0-28.979,0-57.976,0-86.976
	C258.903,12.076,482.736,218.14,480.896,479.65z M23.454,261.799c131.335,14.704,202.498,87.231,216.173,217.696
	c27.689,0,56.2,0,84.695,0c3.407-166.277-141.427-306.031-300.868-302.5C23.454,206.176,23.454,234.642,23.454,261.799z
	 M83.498,358.038c-32.244-0.252-60.344,26.838-60.655,58.479c-0.346,35.236,25.383,62.712,59.403,63.438
	c33.521,0.712,61.24-26.434,61.633-60.361C144.273,385.729,117.371,358.304,83.498,358.038z"/>
</svg>
