<?xml version="1.0" encoding="utf-8"?>
<!-- Generator: Adobe Illustrator 16.0.0, SVG Export Plug-In . SVG Version: 6.00 Build 0)  -->
<!DOCTYPE svg PUBLIC "-//W3C//DTD SVG 1.1//EN" "http://www.w3.org/Graphics/SVG/1.1/DTD/svg11.dtd">
<svg version="1.1" id="Capa_1" xmlns="http://www.w3.org/2000/svg" xmlns:xlink="http://www.w3.org/1999/xlink" x="0px" y="0px"
	 width="500px" height="500px" viewBox="0 0 500 500" enable-background="new 0 0 500 500" xml:space="preserve">
<path d="M89.846,305.2L250.5,386.008l132.757-65.416c-1.283,7.055-2.565,14.591-3.849,22.607s-2.245,13.629-2.886,16.835
	c-0.643,3.206-2.406,6.895-5.292,11.063c-2.886,4.167-6.733,7.855-11.544,11.063c-4.81,3.206-12.024,6.734-21.645,10.581
	c-12.827,5.772-25.653,12.347-38.48,19.722c-12.826,7.376-22.928,12.827-30.303,16.354c-7.375,3.526-13.628,5.291-18.759,5.291
	s-11.544-2.085-19.24-6.254c-7.696-4.167-17.958-10.1-30.784-17.797c-12.827-7.695-25.653-14.108-38.48-19.239
	c-23.088-10.262-39.603-21.324-49.543-33.188C102.512,345.766,94.977,328.287,89.846,305.2z M479.456,186.874
	c7.695,4.489,11.544,9.78,11.544,15.873c0,6.093-3.849,11.383-11.544,15.873l-37.518,21.164L293.79,190.722
	c-7.055-11.543-21.485-17.316-43.29-17.316c-12.827,0-23.569,2.565-32.227,7.695c-8.658,5.131-12.987,11.545-12.987,19.24
	c0,7.696,4.329,14.109,12.987,19.24c8.658,5.131,19.4,7.696,32.227,7.696c8.337,0,14.109-0.642,17.316-1.925l140.452,32.709
	L279.36,331.174c-19.24,10.263-38.48,10.263-57.72,0L21.544,218.62C13.848,214.13,10,208.84,10,202.747
	c0-6.093,3.848-11.384,11.544-15.873L221.64,74.319c19.24-10.26,38.48-10.26,57.72,0L479.456,186.874z M417.888,399.476
	c5.772-37.198,7.857-66.377,6.253-87.542c-1.604-21.163-4.649-35.594-9.139-43.289l-6.733-10.582l33.67-18.278
	c1.924,2.565,3.848,7.055,5.772,13.468c1.923,6.414,4.649,22.607,8.176,48.582c3.527,25.973,2.405,57.559-3.366,94.756
	c-1.283,8.338-4.81,13.147-10.582,14.431c-5.772,1.282-11.384,0.48-16.836-2.405C419.651,405.729,417.247,402.683,417.888,399.476z"
	/>
</svg>
