<?xml version="1.0" encoding="utf-8"?>
<!-- Generator: Adobe Illustrator 16.0.0, SVG Export Plug-In . SVG Version: 6.00 Build 0)  -->
<!DOCTYPE svg PUBLIC "-//W3C//DTD SVG 1.1//EN" "http://www.w3.org/Graphics/SVG/1.1/DTD/svg11.dtd">
<svg version="1.1" id="Capa_1" xmlns="http://www.w3.org/2000/svg" xmlns:xlink="http://www.w3.org/1999/xlink" x="0px" y="0px"
	 width="500px" height="500px" viewBox="0 0 500 500" enable-background="new 0 0 500 500" xml:space="preserve">
<path d="M248.301,469.539c15.576,0,27.114-13.268,27.114-27.69c0-15.577-11.538-27.114-27.114-27.114
	c-15.576,0-27.69,11.537-27.69,27.114C220.61,456.271,232.148,469.539,248.301,469.539z M159.459,11.484h177.106
	c28.846,0,48.46,19.614,48.46,46.729v386.52c0,24.23-19.614,43.268-43.267,43.268H154.267C130.614,488,111,468.963,111,444.732
	V58.213C111,31.099,130.614,11.484,159.459,11.484z M211.957,42.636c-5.192,0-8.653,4.039-8.653,9.23c0,5.192,3.461,9.23,8.653,9.23
	h72.112c5.193,0,8.654-4.038,8.654-9.23c0-5.191-3.461-9.23-8.654-9.23H211.957z M359.065,392.813V106.672H136.96v286.141H359.065z"
	/>
</svg>
