<?xml version="1.0" encoding="utf-8"?>
<!-- Generator: Adobe Illustrator 16.0.0, SVG Export Plug-In . SVG Version: 6.00 Build 0)  -->
<!DOCTYPE svg PUBLIC "-//W3C//DTD SVG 1.1//EN" "http://www.w3.org/Graphics/SVG/1.1/DTD/svg11.dtd">
<svg version="1.1" id="Capa_1" xmlns="http://www.w3.org/2000/svg" xmlns:xlink="http://www.w3.org/1999/xlink" x="0px" y="0px"
	 width="500px" height="500px" viewBox="0 0 500 500" enable-background="new 0 0 500 500" xml:space="preserve">
<path d="M166.531,229.062h166.431v-63.069c0-22.969-8.176-42.63-24.526-58.98c-16.352-16.352-36.012-24.332-58.981-23.943
	c-22.97,0.39-42.63,8.37-58.981,23.943c-16.351,15.572-24.332,35.232-23.942,58.98V229.062z M437.492,260.012V448.05
	c0,8.564-3.114,15.767-9.344,21.606c-6.229,5.84-13.625,8.955-22.19,9.344H93.534c-8.954,0-16.351-3.115-22.19-9.344
	c-5.84-6.229-8.955-13.431-9.344-21.606V260.012c0-8.564,3.115-15.963,9.344-22.191c6.229-6.229,13.626-9.148,22.19-8.759h9.928
	v-63.069c0-39.71,14.404-73.97,43.214-102.778C175.485,34.404,209.744,20,249.454,20s74.164,14.404,103.362,43.214
	c29.199,28.809,43.408,63.068,42.63,102.778v63.069h10.512c8.954,0,16.352,2.919,22.19,8.759
	C433.988,243.66,437.103,251.057,437.492,260.012z"/>
</svg>
