<?xml version="1.0" encoding="utf-8"?>
<!-- Generator: Adobe Illustrator 16.0.0, SVG Export Plug-In . SVG Version: 6.00 Build 0)  -->
<!DOCTYPE svg PUBLIC "-//W3C//DTD SVG 1.1//EN" "http://www.w3.org/Graphics/SVG/1.1/DTD/svg11.dtd">
<svg version="1.1" id="Capa_1" xmlns="http://www.w3.org/2000/svg" xmlns:xlink="http://www.w3.org/1999/xlink" x="0px" y="0px"
	 width="500px" height="500px" viewBox="0 0 500 500" enable-background="new 0 0 500 500" xml:space="preserve">
<path d="M377.182,356.9L488,250.097l-110.818-106v71.068H211.356v70.667h165.826V356.9z M310.53,151.325l42.561-42.963
	c-41.757-39.08-86.995-58.621-135.712-58.621c-58.086,0-106.938,19.139-146.553,57.417C31.21,145.436,11.268,193.484,11,251.303
	c0,36.136,9.101,69.596,27.303,100.378c18.202,30.783,42.829,55.142,73.879,73.076c31.051,17.935,64.51,26.769,100.378,26.5
	c49.253,0,95.961-19.809,140.129-59.425l-42.159-42.561c-30.515,27.839-63.039,41.758-97.567,41.758
	c-39.885,0-73.479-13.919-100.781-41.758c-27.303-27.838-41.088-61.833-41.355-101.984c0-37.476,14.187-69.73,42.561-96.766
	c28.374-27.035,61.432-40.553,99.173-40.553C247.627,109.969,280.282,123.754,310.53,151.325z"/>
</svg>
