<?xml version="1.0" encoding="utf-8"?>
<!-- Generator: Adobe Illustrator 16.0.0, SVG Export Plug-In . SVG Version: 6.00 Build 0)  -->
<!DOCTYPE svg PUBLIC "-//W3C//DTD SVG 1.1//EN" "http://www.w3.org/Graphics/SVG/1.1/DTD/svg11.dtd">
<svg version="1.1" id="Capa_1" xmlns="http://www.w3.org/2000/svg" xmlns:xlink="http://www.w3.org/1999/xlink" x="0px" y="0px"
	 width="500px" height="500px" viewBox="0 0 500 500" enable-background="new 0 0 500 500" xml:space="preserve">
<path d="M477.132,127.07c5.02,3.138,7.53,7.845,7.53,14.121v274.866c0,6.275-2.511,10.982-7.53,14.119
	c-2.511,1.883-5.021,2.824-7.532,2.824c-2.509,0-5.333-0.941-8.472-2.824l-101.663-64.01l-101.663,64.01
	c-5.646,3.138-10.981,3.138-16.002,0l-102.604-64.01l-101.663,64.01c-5.021,3.138-10.355,3.138-16.003,0
	c-5.02-3.137-7.53-7.844-7.53-14.119V141.19c0-6.276,2.51-10.982,7.53-14.121l110.135-68.716c5.648-3.138,10.983-3.138,16.003,0
	l101.663,64.01l102.604-64.01c5.021-3.138,10.041-3.138,15.063,0L477.132,127.07z M124.135,338.867V100.713l-79.071,48.949v238.154
	L124.135,338.867z M234.27,387.816V149.662l-79.071-48.949v238.154L234.27,387.816z M344.404,338.867V100.713l-80.013,48.949
	v238.154L344.404,338.867z M453.598,387.816V149.662l-79.07-48.949v238.154L453.598,387.816z"/>
</svg>
