<?xml version="1.0" encoding="utf-8"?>
<!-- Generator: Adobe Illustrator 16.0.0, SVG Export Plug-In . SVG Version: 6.00 Build 0)  -->
<!DOCTYPE svg PUBLIC "-//W3C//DTD SVG 1.1//EN" "http://www.w3.org/Graphics/SVG/1.1/DTD/svg11.dtd">
<svg version="1.1" id="Capa_1" xmlns="http://www.w3.org/2000/svg" xmlns:xlink="http://www.w3.org/1999/xlink" x="0px" y="0px"
	 width="500px" height="500px" viewBox="0 0 500 500" enable-background="new 0 0 500 500" xml:space="preserve">
<path d="M433.567,76.969c14.789,0,27.225,5.042,37.309,15.125C480.958,102.177,486,114.612,486,129.401v235.946
	c0,14.451-5.042,26.888-15.124,37.307c-10.084,10.419-22.52,15.461-37.309,15.125H65.532c-14.789,0-27.224-5.041-37.307-15.125
	C18.142,392.571,13.1,380.136,13.1,365.348V129.401c0-14.789,5.042-27.225,15.125-37.308c10.083-10.083,22.519-15.125,37.307-15.125
	H433.567z M221.317,305.856l-41.341-36.3l-95.79,95.791H414.41l-95.791-95.791l-40.836,36.3
	c-8.066,6.723-17.478,10.083-28.233,10.083C238.794,315.939,229.384,312.579,221.317,305.856z M65.532,347.197l94.277-95.286
	l-94.277-82.177V347.197z M338.785,251.911l94.782,94.782V169.734L338.785,251.911z M433.567,129.401H65.532v5.545l172.422,151.248
	c3.024,2.353,6.89,3.528,11.595,3.528c4.706,0,8.402-1.176,11.092-3.528l172.926-151.248V129.401z"/>
</svg>
