<?xml version="1.0" encoding="utf-8"?>
<!-- Generator: Adobe Illustrator 16.0.0, SVG Export Plug-In . SVG Version: 6.00 Build 0)  -->
<!DOCTYPE svg PUBLIC "-//W3C//DTD SVG 1.1//EN" "http://www.w3.org/Graphics/SVG/1.1/DTD/svg11.dtd">
<svg version="1.1" id="Capa_1" xmlns="http://www.w3.org/2000/svg" xmlns:xlink="http://www.w3.org/1999/xlink" x="0px" y="0px"
	 width="500px" height="500px" viewBox="0 0 500 500" enable-background="new 0 0 500 500" xml:space="preserve">
<path d="M473.366,125.75c7.09,7.089,10.634,15.95,10.634,26.583c0,10.634-3.544,19.494-10.634,26.584l-275.5,275.5
	c-7.089,6.767-16.756,12.889-29,18.366c-12.245,5.479-24.005,8.217-35.283,8.217H20V367.9c0-11.278,2.739-23.2,8.217-35.767
	c5.478-12.567,11.6-22.233,18.367-29l275.5-275.5C329.494,20.544,338.355,17,348.667,17c10.311,0,19.172,3.544,26.583,10.634
	L473.366,125.75z M89.6,331.65l31.417,30.933L329.333,153.3L298.4,122.85L89.6,331.65z M133.583,430.733
	c4.511,0,9.828-1.289,15.95-3.867c-3.222-3.222-7.572-7.411-13.05-12.566s-13.533-13.211-24.167-24.166
	c-10.634-10.956-19.656-19.979-27.067-27.067l-10.633-10.633c-2.9,6.767-4.35,11.922-4.35,15.467V405.6L95.4,430.733H133.583z
	 M169.35,411.4L378.15,202.6l-30.45-30.933L138.417,379.983L169.35,411.4z M396.033,184.717l32.384-32.384l-79.75-79.75
	l-32.384,31.9L396.033,184.717z"/>
</svg>
