<?xml version="1.0" encoding="utf-8"?>
<!-- Generator: Adobe Illustrator 16.0.0, SVG Export Plug-In . SVG Version: 6.00 Build 0)  -->
<!DOCTYPE svg PUBLIC "-//W3C//DTD SVG 1.1//EN" "http://www.w3.org/Graphics/SVG/1.1/DTD/svg11.dtd">
<svg version="1.1" id="Capa_1" xmlns="http://www.w3.org/2000/svg" xmlns:xlink="http://www.w3.org/1999/xlink" x="0px" y="0px"
	 width="500px" height="500px" viewBox="0 0 500 500" enable-background="new 0 0 500 500" xml:space="preserve">
<path d="M417.501,169.745h-47.278l-58.624-70.917l-101.176,70.917h-85.101c-16.39,0-30.573,6.147-42.55,18.439
	c-11.978,12.292-17.966,26.633-17.966,43.023v75.646l-51.06-139.945c-3.152-11.976,0.314-20.172,10.4-24.585l321.492-117.25
	c11.347-3.152,19.228,0.63,23.64,11.347L417.501,169.745z M467.616,212.296c5.043,0,9.298,1.891,12.766,5.673
	c3.467,3.782,5.2,8.194,5.2,13.238v223.154c0,5.043-1.733,9.455-5.2,13.237c-3.468,3.783-7.723,5.674-12.766,5.674H125.322
	c-5.043,0-9.298-1.891-12.766-5.674c-3.466-3.782-5.2-8.194-5.2-13.237V231.208c0-5.043,1.734-9.456,5.2-13.238
	c3.467-3.782,7.723-5.673,12.766-5.673H467.616z M441.141,425.993v-76.59l-34.04-75.645l-78.483,28.366l-61.46,62.408
	l-65.245-80.373l-43.496,101.174v40.659H441.141z"/>
</svg>
