<?xml version="1.0" encoding="utf-8"?>
<!-- Generator: Adobe Illustrator 16.0.0, SVG Export Plug-In . SVG Version: 6.00 Build 0)  -->
<!DOCTYPE svg PUBLIC "-//W3C//DTD SVG 1.1//EN" "http://www.w3.org/Graphics/SVG/1.1/DTD/svg11.dtd">
<svg version="1.1" id="Capa_1" xmlns="http://www.w3.org/2000/svg" xmlns:xlink="http://www.w3.org/1999/xlink" x="0px" y="0px"
	 width="500px" height="500px" viewBox="0 0 500 500" enable-background="new 0 0 500 500" xml:space="preserve">
<path d="M365.397,316.32L483,434.386L434.386,483L316.783,365.397c-32.719,22.225-68.524,33.337-107.416,33.337
	c-52.165,0-96.768-18.521-133.807-55.561C38.52,306.134,20,261.531,20,209.367C20,157.203,38.52,112.6,75.56,75.56
	C112.6,38.52,157.203,20,209.367,20c52.165,0,96.767,18.52,133.807,55.56c37.04,37.04,55.561,81.643,55.561,133.807
	C398.734,248.567,387.622,284.219,365.397,316.32z M335.303,209.367c0-34.879-12.191-64.666-36.577-89.359
	c-24.385-24.693-54.17-37.04-89.358-37.04c-35.188,0-64.975,12.347-89.359,37.04c-24.384,24.693-36.731,54.48-37.04,89.359
	c-0.309,34.879,12.038,64.511,37.04,88.896c25.002,24.384,54.789,36.731,89.359,37.039c34.57,0.309,64.356-12.038,89.358-37.039
	C323.728,273.261,335.921,243.629,335.303,209.367z"/>
</svg>
