<?xml version="1.0" encoding="utf-8"?>
<!-- Generator: Adobe Illustrator 16.0.0, SVG Export Plug-In . SVG Version: 6.00 Build 0)  -->
<!DOCTYPE svg PUBLIC "-//W3C//DTD SVG 1.1//EN" "http://www.w3.org/Graphics/SVG/1.1/DTD/svg11.dtd">
<svg version="1.1" id="Capa_1" xmlns="http://www.w3.org/2000/svg" xmlns:xlink="http://www.w3.org/1999/xlink" x="0px" y="0px"
	 width="500px" height="500px" viewBox="0 0 500 500" enable-background="new 0 0 500 500" xml:space="preserve">
<path d="M481.999,385.988c0,5.878-1.175,13.521-3.527,22.927c-2.352,9.408-4.703,16.854-7.056,22.342
	c-4.311,10.974-17.637,22.732-39.978,35.275c-20.381,10.974-40.566,16.461-60.555,16.461c-6.271,0-12.15-0.391-17.638-1.176
	c-5.488-0.783-11.759-2.154-18.814-4.115c-7.055-1.96-12.149-3.527-15.285-4.703s-9.211-3.331-18.226-6.467
	c-9.014-3.137-14.502-5.095-16.461-5.879c-21.166-7.84-40.175-17.05-57.028-27.634c-28.22-17.245-57.225-40.762-87.012-70.549
	c-29.788-29.787-53.305-58.791-70.55-87.011c-10.583-16.854-19.598-35.864-27.044-57.029c-0.784-1.959-2.743-7.447-5.879-16.461
	c-3.136-9.015-5.487-15.09-7.055-18.226c-1.567-3.135-3.136-8.231-4.703-15.286c-1.568-7.055-2.94-13.326-4.116-18.813
	c-1.176-5.487-1.568-11.17-1.176-17.05c0-20.382,5.683-40.762,17.05-61.144c12.15-22.34,23.712-35.667,34.687-39.979
	c5.488-2.352,12.935-4.704,22.341-7.055c9.407-2.352,17.049-3.527,22.929-3.527c3.136,0,5.487,0.393,7.055,1.176
	c3.919,1.175,9.798,9.602,17.638,25.28c2.352,3.919,5.487,9.798,9.407,17.637c3.919,7.84,7.839,14.699,11.758,20.578
	c3.92,5.879,7.252,11.759,9.995,17.637c0.784,0.785,2.743,3.528,5.879,8.232c3.136,4.703,5.487,8.623,7.055,11.758
	c1.567,3.135,2.352,6.271,2.352,9.407c0,4.311-3.136,9.798-9.406,16.461c-6.271,6.663-13.131,12.542-20.578,17.638
	c-7.446,5.094-14.11,10.974-19.989,17.636c-5.879,6.663-9.015,11.563-9.406,14.699c0,1.959,0.587,4.507,1.763,7.642
	c1.176,3.136,1.96,5.292,2.352,6.468c0.392,1.175,1.96,3.919,4.703,8.23c2.744,4.312,4.116,6.271,4.116,5.879
	c16.461,30.181,35.472,56.049,57.028,77.604c21.556,21.557,47.229,40.566,77.017,57.029c0.393,0,2.351,1.176,5.88,3.526
	c3.526,2.352,6.271,3.92,8.229,4.703c1.96,0.785,4.116,1.764,6.468,2.94c2.352,1.176,4.899,1.566,7.644,1.176
	c3.918,0,8.818-2.94,14.698-8.819c5.878-5.88,11.758-12.736,17.637-20.577c5.879-7.839,11.954-14.698,18.226-20.577
	c6.271-5.879,11.759-9.016,16.462-9.406c2.744,0,5.684,0.785,8.818,2.352c3.136,1.567,7.054,3.919,11.759,7.055
	c4.703,3.137,7.447,5.095,8.229,5.879c5.487,3.137,11.367,6.468,17.639,9.995c6.271,3.527,13.129,7.446,20.576,11.759
	c7.447,4.312,13.523,7.642,18.226,9.995c15.285,7.446,23.518,13.13,24.693,17.049C481.607,380.499,481.999,382.852,481.999,385.988z
	"/>
</svg>
