<?xml version="1.0" encoding="utf-8"?>
<!-- Generator: Adobe Illustrator 16.0.0, SVG Export Plug-In . SVG Version: 6.00 Build 0)  -->
<!DOCTYPE svg PUBLIC "-//W3C//DTD SVG 1.1//EN" "http://www.w3.org/Graphics/SVG/1.1/DTD/svg11.dtd">
<svg version="1.1" id="Capa_1" xmlns="http://www.w3.org/2000/svg" xmlns:xlink="http://www.w3.org/1999/xlink" x="0px" y="0px"
	 width="500px" height="500px" viewBox="0 0 500 500" enable-background="new 0 0 500 500" xml:space="preserve">
<path d="M337.108,22.5h142.849v142.301c0,8.027-2.92,14.777-8.757,20.25c-5.839,5.474-12.588,8.392-20.251,8.757
	c-7.662,0.365-14.412-2.554-20.25-8.757c-5.839-6.203-8.576-12.953-8.211-20.25v-44.879l-93.589,93.59
	c-5.474,5.474-12.224,8.209-20.25,8.209c-8.028,0-14.778-2.736-20.251-8.209c-5.473-5.473-8.211-12.223-8.211-20.25
	c0-8.028,2.738-14.778,8.211-20.251l93.59-93.589h-44.88c-8.026,0-14.777-2.737-20.25-8.211c-5.474-5.472-8.209-12.223-8.209-20.25
	c0-8.028,2.735-14.777,8.209-20.251C322.331,25.237,329.082,22.5,337.108,22.5z M174.558,287.398
	c5.472-5.474,12.223-8.21,20.25-8.21c8.028,0,14.595,2.736,19.703,8.21c5.107,5.473,7.845,12.223,8.21,20.25
	c0.365,8.026-2.373,14.778-8.21,20.251l-93.59,93.589h44.88c7.663,0,14.413,2.92,20.25,8.758c5.838,5.837,8.757,12.589,8.757,20.251
	c0,7.661-2.918,14.229-8.757,19.703c-5.838,5.473-12.588,8.209-20.25,8.209H23.5V336.108c0-7.662,2.919-14.412,8.757-20.25
	c5.838-5.837,12.588-8.757,20.25-8.757c7.663,0,14.23,2.92,19.704,8.757c5.473,5.838,8.209,12.588,8.209,20.25v44.88
	L174.558,287.398z M108.881,250.729c-7.663,0-14.413-2.919-20.251-8.757c-5.838-5.838-8.574-12.588-8.209-20.251v-142.3h142.848
	c7.663,0,14.229,2.918,19.704,8.756c5.474,5.839,8.209,12.589,8.209,20.251c0,7.662-2.735,14.229-8.209,19.703
	c-5.474,5.473-12.041,8.209-19.704,8.209h-85.38v85.38c0,7.663-2.919,14.413-8.757,20.251
	C123.293,247.809,116.542,250.729,108.881,250.729z M394.576,250.729c7.663,0,14.23,2.737,19.703,8.209
	c5.474,5.475,8.209,12.225,8.209,20.251v142.3H280.188c-7.661,0-14.411-2.735-20.25-8.209c-5.838-5.473-8.757-12.223-8.757-20.25
	c0-8.026,2.919-14.777,8.757-20.251c5.839-5.473,12.589-8.209,20.25-8.209h85.382v-85.381c0-7.662,2.918-14.413,8.757-20.251
	C380.164,253.101,386.914,250.363,394.576,250.729z"/>
</svg>
