<?xml version="1.0" encoding="utf-8"?>
<!-- Generator: Adobe Illustrator 16.0.0, SVG Export Plug-In . SVG Version: 6.00 Build 0)  -->
<!DOCTYPE svg PUBLIC "-//W3C//DTD SVG 1.1//EN" "http://www.w3.org/Graphics/SVG/1.1/DTD/svg11.dtd">
<svg version="1.1" id="Capa_1" xmlns="http://www.w3.org/2000/svg" xmlns:xlink="http://www.w3.org/1999/xlink" x="0px" y="0px"
	 width="500px" height="500px" viewBox="0 0 500 500" enable-background="new 0 0 500 500" xml:space="preserve">
<path d="M485.5,71v345.338H15.84V71H485.5z M57.281,374.897H444.06V112.44H57.281V374.897z M402.619,181.508
	c0,7.597-2.648,14.043-7.943,19.339c-5.295,5.295-11.855,8.058-19.684,8.289c-7.828,0.23-14.274-2.533-19.34-8.289
	c-5.065-5.755-7.827-12.202-8.288-19.339c-0.46-7.137,2.303-13.698,8.288-19.684c5.986-5.986,12.433-8.634,19.34-7.943
	c6.906,0.69,13.468,3.338,19.684,7.943C400.893,166.429,403.54,172.99,402.619,181.508z M417.468,344.854
	c0.461,0.229,0.577,0.69,0.346,1.381c-0.23,0.69-0.69,1.036-1.381,1.036H86.289c-0.921,0-1.381-0.46-1.381-1.382v-0.689
	c4.144-8.289,19.684-40.521,46.62-96.696c26.937-56.174,43.513-90.593,49.729-103.256c0.23-0.46,0.69-0.806,1.38-1.036
	c0.691-0.231,1.037,0,1.037,0.69l107.399,133.3l52.491-42.13h2.418l0.345,0.69c8.979,11.512,20.721,29.353,35.225,53.527
	C396.057,314.464,408.029,332.651,417.468,344.854z"/>
</svg>
