<?xml version="1.0" encoding="utf-8"?>
<!-- Generator: Adobe Illustrator 16.0.0, SVG Export Plug-In . SVG Version: 6.00 Build 0)  -->
<!DOCTYPE svg PUBLIC "-//W3C//DTD SVG 1.1//EN" "http://www.w3.org/Graphics/SVG/1.1/DTD/svg11.dtd">
<svg version="1.1" id="Capa_1" xmlns="http://www.w3.org/2000/svg" xmlns:xlink="http://www.w3.org/1999/xlink" x="0px" y="0px"
	 width="500px" height="500px" viewBox="0 0 500 500" enable-background="new 0 0 500 500" xml:space="preserve">
<path d="M250.159,45l121.741,114.25h-76.79v119.869h-88.965V159.25h-77.727L250.159,45z M469.293,315.64
	c5.618,3.122,9.833,8.116,12.643,14.984c2.809,6.867,3.277,13.11,1.404,18.729l-13.11,72.108
	c-1.249,6.243-4.683,11.395-10.302,15.452c-5.618,4.058-11.862,6.087-18.729,6.087H59.119c-6.868,0-13.111-2.029-18.729-6.087
	s-9.053-9.209-10.301-15.452l-13.11-72.108c-3.122-14.983,1.873-26.221,14.983-33.713l73.981-50.569h45.887l-79.6,60.871h83.346
	c2.497,0,4.37,1.248,5.619,3.745l18.729,51.507h140.471l18.729-51.507c2.497-2.497,4.37-3.745,5.619-3.745h83.346l-79.601-60.871
	h45.889L469.293,315.64z"/>
</svg>
