<?xml version="1.0" encoding="utf-8"?>
<!-- Generator: Adobe Illustrator 16.0.0, SVG Export Plug-In . SVG Version: 6.00 Build 0)  -->
<!DOCTYPE svg PUBLIC "-//W3C//DTD SVG 1.1//EN" "http://www.w3.org/Graphics/SVG/1.1/DTD/svg11.dtd">
<svg version="1.1" id="Capa_1" xmlns="http://www.w3.org/2000/svg" xmlns:xlink="http://www.w3.org/1999/xlink" x="0px" y="0px"
	 width="500px" height="500px" viewBox="0 0 500 500" enable-background="new 0 0 500 500" xml:space="preserve">
<path d="M279.058,281.038v84.723c20.92-5.578,38.875-16.038,53.868-31.379c14.992-15.34,25.276-33.121,30.854-53.344H279.058z
	 M279.058,221.942h84.723c-5.578-20.571-15.862-38.526-30.854-53.868c-14.993-15.34-32.948-25.625-53.868-30.855V221.942z
	 M219.961,281.038h-84.723c5.579,20.57,15.865,38.352,30.856,53.344c14.992,14.993,32.947,25.451,53.866,31.379V281.038z
	 M219.961,221.942v-84.723c-20.919,5.578-38.875,15.864-53.866,30.855c-14.992,14.992-25.278,32.949-30.856,53.868H219.961z
	 M279.058,425.903V485c52.995-6.625,98.495-28.938,136.498-66.941c38.004-38.003,60.491-83.677,67.465-137.021h-59.098
	c-6.274,37.306-22.836,69.207-49.683,95.705S315.667,419.628,279.058,425.903z M75.096,281.038H16
	c6.625,52.995,28.938,98.494,66.941,136.498c38.003,38.002,83.676,60.491,137.02,67.464v-59.097
	c-36.957-6.275-68.685-22.662-95.182-49.16C98.282,350.245,81.721,318.344,75.096,281.038z M219.961,77.077v-59.62
	c-53.692,6.624-99.366,29.113-137.02,67.464S22.973,168.946,16,221.942h59.096c6.276-37.306,22.837-69.208,49.684-95.705
	C151.626,99.739,183.354,83.352,219.961,77.077z M423.923,221.942h59.098c-7.322-53.344-29.81-99.018-67.465-137.021
	c-37.654-38.003-83.154-60.492-136.498-67.464v59.62c36.609,6.275,68.336,22.663,95.183,49.16S417.648,184.636,423.923,221.942z"/>
</svg>
