<?xml version="1.0" encoding="utf-8"?>
<!-- Generator: Adobe Illustrator 16.0.0, SVG Export Plug-In . SVG Version: 6.00 Build 0)  -->
<!DOCTYPE svg PUBLIC "-//W3C//DTD SVG 1.1//EN" "http://www.w3.org/Graphics/SVG/1.1/DTD/svg11.dtd">
<svg version="1.1" id="Capa_1" xmlns="http://www.w3.org/2000/svg" xmlns:xlink="http://www.w3.org/1999/xlink" x="0px" y="0px"
	 width="500px" height="500px" viewBox="0 0 500 500" enable-background="new 0 0 500 500" xml:space="preserve">
<path d="M16.146,366.736c5.18-1.813,12.949-4.661,23.308-8.547c10.36-3.884,19.295-7.251,26.805-10.1
	c7.511-2.85,13.985-5.697,19.424-8.547c9.583-4.92,16.963-12.173,22.143-21.754c5.18-9.583,7.899-19.424,8.158-29.524
	c0-6.992-4.014-15.28-12.043-24.862c-4.92-5.438-9.194-13.208-12.819-23.308c-11.654-4.663-17.481-14.504-17.481-29.525
	c0-11.136,1.813-19.035,5.438-23.696c-1.294-10.101-2.46-20.719-3.496-31.855c-1.295-14.244,2.072-28.229,10.101-41.955
	c8.028-13.726,18.905-24.604,32.631-32.631c13.727-8.029,27.97-12.173,42.732-12.432c11.136,0,22.143,2.46,33.02,7.381
	c10.877,4.921,20.33,11.396,28.359,19.423c8.029,8.029,14.244,17.353,18.646,27.97c4.403,10.619,6.216,21.367,5.438,32.244
	c-1.036,14.244-2.071,24.862-3.107,31.855c3.625,4.92,5.438,12.819,5.438,23.696c0,15.021-5.827,24.862-17.481,29.525
	c-3.885,10.618-8.029,18.388-12.432,23.308c-8.287,9.582-12.431,17.87-12.431,24.862c0,10.101,2.589,19.941,7.77,29.524
	c5.18,9.581,12.69,16.834,22.531,21.754c7.511,3.886,19.423,8.806,35.74,14.763c16.315,5.957,30.949,11.524,43.897,16.704
	s21.495,10.1,25.639,14.762c4.662,4.403,8.288,10.489,10.878,18.259c2.59,7.769,3.885,14.373,3.885,19.812l0.389,8.158H16.146
	V366.736z M290.02,250.583c0-8.806,1.554-15.281,4.661-19.424c-1.295-8.288-2.201-16.964-2.719-26.028
	c-1.036-11.654,1.683-23.179,8.157-34.575c6.475-11.395,15.41-20.718,26.806-27.97c11.395-7.252,23.049-10.748,34.962-10.489
	s23.438,3.755,34.574,10.489c11.137,6.733,20.071,16.057,26.805,27.97c6.733,11.914,9.582,23.438,8.547,34.575
	c-0.518,9.064-1.554,17.74-3.108,26.028c3.108,4.143,4.662,10.618,4.662,19.424c0,12.431-4.662,20.46-13.984,24.085
	c-3.108,8.547-6.604,15.021-10.49,19.424c-2.33,2.589-4.014,4.662-5.05,6.216c-1.036,1.553-2.201,3.626-3.495,6.216
	c-1.296,2.589-1.813,5.18-1.555,7.769c0,8.288,2.202,16.316,6.604,24.085c4.401,7.771,10.488,13.727,18.258,17.871
	c4.402,2.33,9.841,4.791,16.315,7.38c6.475,2.591,14.245,5.438,23.309,8.547c9.064,3.107,15.539,5.568,19.424,7.382V432h-98.673
	c0-1.036,0-2.461,0-4.272c0-1.813-0.389-5.181-1.164-10.102c-0.777-4.92-1.684-9.581-2.72-13.984s-2.979-9.324-5.827-14.763
	c-2.85-5.438-5.827-9.711-8.936-12.819c-5.956-6.475-12.819-12.173-20.589-17.093s-17.999-9.711-30.689-14.374
	c6.993-8.805,10.488-18.905,10.488-30.301c0-2.589-0.647-5.18-1.941-7.769c-1.295-2.59-2.331-4.663-3.108-6.216
	c-0.776-1.554-2.331-3.627-4.661-6.216c-3.626-3.885-7.122-10.23-10.489-19.035C294.811,270.913,290.02,262.755,290.02,250.583z"/>
</svg>
