<?xml version="1.0" encoding="utf-8"?>
<!-- Generator: Adobe Illustrator 16.0.0, SVG Export Plug-In . SVG Version: 6.00 Build 0)  -->
<!DOCTYPE svg PUBLIC "-//W3C//DTD SVG 1.1//EN" "http://www.w3.org/Graphics/SVG/1.1/DTD/svg11.dtd">
<svg version="1.1" id="Capa_1" xmlns="http://www.w3.org/2000/svg" xmlns:xlink="http://www.w3.org/1999/xlink" x="0px" y="0px"
	 width="500px" height="500px" viewBox="0 0 500 500" enable-background="new 0 0 500 500" xml:space="preserve">
<path d="M388.292,15c29.635,0,52.804,24.247,52.804,53.881V432.58c0,30.173-23.169,54.42-52.804,54.42H111.343
	C81.708,487,58,462.753,58,432.58V68.881C58,39.247,81.708,15,111.343,15H388.292z M376.438,402.945V79.657H122.657v323.288H376.438
	z M249.817,469.219c15.087,0,25.862-11.854,25.862-25.324c0-15.087-10.775-25.862-25.862-25.862s-25.324,10.775-25.324,25.862
	C224.493,457.365,235.27,469.219,249.817,469.219z"/>
</svg>
