<?xml version="1.0" encoding="utf-8"?>
<!-- Generator: Adobe Illustrator 16.0.0, SVG Export Plug-In . SVG Version: 6.00 Build 0)  -->
<!DOCTYPE svg PUBLIC "-//W3C//DTD SVG 1.1//EN" "http://www.w3.org/Graphics/SVG/1.1/DTD/svg11.dtd">
<svg version="1.1" id="Capa_1" xmlns="http://www.w3.org/2000/svg" xmlns:xlink="http://www.w3.org/1999/xlink" x="0px" y="0px"
	 width="500px" height="500px" viewBox="0 0 500 500" enable-background="new 0 0 500 500" xml:space="preserve">
<path fill-rule="evenodd" clip-rule="evenodd" d="M12.775,150.198c4.208,0,7.655,0,11.102,0c20.427,0,40.856,0.023,61.284-0.045
	c1.527-0.006,3.304-0.272,4.54-1.073c26.866-17.396,56.306-28.46,87.433-35.085c56.292-11.98,112.225-10.909,167.542,5.83
	c22.067,6.678,42.873,16.169,62.277,28.696c1.612,1.041,3.83,1.6,5.769,1.608c24.007,0.107,48.012,0.068,72.019,0.076
	c1.003,0,2.004,0.086,3.476,0.155c-0.804,1.137-1.342,1.954-1.934,2.727c-9.441,12.282-16.688,25.658-20.641,40.737
	c-0.645,2.458-0.328,4.29,1.136,6.396c48.62,69.933,7.398,169-76.624,183.209c-43.687,7.387-80.759-6.067-110.674-38.883
	c-0.693-0.763-1.369-1.542-2.561-2.883c-8.829,12.377-17.492,24.52-26.011,36.461c-8.577-11.978-17.268-24.112-26.17-36.542
	c-1.127,1.075-1.811,1.634-2.387,2.288c-22.637,25.71-50.934,39.765-85.258,41.333c-59.966,2.74-112.803-40.4-121.901-99.889
	c-4.735-30.958,1.836-59.594,19.596-85.489c1.546-2.256,1.355-4.203,0.746-6.451c-3.979-14.675-10.982-27.816-20.201-39.834
	C14.647,152.644,13.961,151.748,12.775,150.198z M132.626,171.784c-52.749-0.045-95.521,42.465-95.575,94.991
	c-0.054,52.626,42.64,95.418,95.188,95.404c51.958-0.013,95.198-42.667,95.259-93.969
	C227.564,214.787,185.298,171.829,132.626,171.784z M464.348,266.957c-0.081-52.644-42.976-95.372-95.856-95.134
	c-54.006,0.243-95.435,45.117-94.729,96.891c0.692,51.018,43.647,93.635,95.456,93.472
	C421.588,362.02,464.427,319.136,464.348,266.957z M135.078,148.08c29.963,1.597,56.093,11.974,77.969,32.363
	c21.865,20.378,33.974,45.784,37.617,75.434c3.515-29.213,15.315-54.135,36.456-74.389c21.066-20.181,46.473-30.798,75.559-33.273
	c-33.164-14.618-67.88-21.289-103.755-22.086C216.229,125.179,174.716,131.379,135.078,148.08z M188.483,266.86
	c-0.423,33.9-28.308,58.453-59.703,57.321c-29.993-1.08-55.862-25.724-55.507-58.73c0.338-31.509,26.673-56.565,59.353-56.27
	C163.126,209.457,188.687,235.85,188.483,266.86z M131.169,227.071c-22.021-0.031-39.921,17.493-39.983,39.143
	c-0.063,22.244,17.426,40.013,39.411,40.037c22.187,0.025,39.962-17.467,40.111-39.473
	C170.854,245.13,152.902,227.101,131.169,227.071z M426.489,266.349c0.019,31.924-25.801,57.771-57.61,57.677
	c-31.691-0.096-57.467-25.903-57.467-57.542c0-31.879,25.917-57.78,57.681-57.648C400.908,208.967,426.473,234.583,426.489,266.349z
	 M329.303,266.219c-0.057,21.89,17.567,39.78,39.325,39.917c21.981,0.139,39.925-17.568,40.081-39.551
	c0.153-21.812-17.879-39.959-39.722-39.974C347.26,226.596,329.36,244.461,329.303,266.219z M128.019,247.271
	c-10.711-0.056-19.437,8.541-19.518,19.23c-0.082,10.736,8.46,19.454,19.159,19.551c10.822,0.1,19.538-8.35,19.622-19.018
	C147.367,256.021,138.894,247.328,128.019,247.271z M365.984,285.914c10.687,0.058,19.609-8.959,19.491-19.698
	c-0.12-10.854-8.776-19.141-19.911-19.061c-10.554,0.075-18.982,8.672-18.926,19.304
	C346.695,277.166,355.338,285.855,365.984,285.914z"/>
</svg>
