<?xml version="1.0" encoding="utf-8"?>
<!-- Generator: Adobe Illustrator 16.0.0, SVG Export Plug-In . SVG Version: 6.00 Build 0)  -->
<!DOCTYPE svg PUBLIC "-//W3C//DTD SVG 1.1//EN" "http://www.w3.org/Graphics/SVG/1.1/DTD/svg11.dtd">
<svg version="1.1" id="Capa_1" xmlns="http://www.w3.org/2000/svg" xmlns:xlink="http://www.w3.org/1999/xlink" x="0px" y="0px"
	 width="500px" height="500px" viewBox="0 0 500 500" enable-background="new 0 0 500 500" xml:space="preserve">
<path d="M483.801,107.12c-13.129,19.158-29.094,35.656-47.897,49.494c0,2.837,0,6.918,0,12.24c0,25.9-3.726,51.623-11.176,77.168
	c-7.451,25.546-18.805,50.205-34.062,73.975s-33.528,44.526-54.816,62.269c-21.286,17.738-46.832,32.285-76.636,43.64
	c-29.803,11.354-61.912,16.676-96.328,15.966c-53.574,0-102.536-14.369-146.886-43.107c6.741,0.709,14.37,1.064,22.884,1.064
	c44.705,0,84.442-13.66,119.212-40.979c-20.933-0.355-39.56-6.742-55.88-19.16c-16.32-12.418-27.674-28.205-34.061-47.365
	c6.741,1.064,12.773,1.598,18.094,1.598c8.516,0,17.031-1.064,25.546-3.193c-22.353-4.612-40.802-15.611-55.349-32.996
	c-14.546-17.384-21.82-37.786-21.82-61.203v-1.064c13.482,7.45,28.029,11.53,43.64,12.24c-13.127-8.87-23.594-20.224-31.399-34.061
	c-7.805-13.837-11.708-29.093-11.708-45.769c0-17.385,4.435-33.528,13.305-48.431c24.126,29.449,53.22,53.042,87.28,70.783
	c34.061,17.739,70.959,27.496,110.697,29.271c-1.774-7.452-2.661-14.724-2.661-21.82c0-26.61,9.404-49.139,28.207-67.589
	c18.806-18.45,41.336-27.852,67.59-28.207c28.028,0,51.445,10.112,70.25,30.336c21.643-4.258,41.866-12.063,60.671-23.417
	c-7.098,22.707-21.111,40.447-42.044,53.219C446.902,119.892,465.351,114.925,483.801,107.12z"/>
</svg>
