<?xml version="1.0" encoding="utf-8"?>
<!-- Generator: Adobe Illustrator 16.0.0, SVG Export Plug-In . SVG Version: 6.00 Build 0)  -->
<!DOCTYPE svg PUBLIC "-//W3C//DTD SVG 1.1//EN" "http://www.w3.org/Graphics/SVG/1.1/DTD/svg11.dtd">
<svg version="1.1" id="Capa_1" xmlns="http://www.w3.org/2000/svg" xmlns:xlink="http://www.w3.org/1999/xlink" x="0px" y="0px"
	 width="500px" height="500px" viewBox="0 0 500 500" enable-background="new 0 0 500 500" xml:space="preserve">
<path d="M382.365,359.506c67.696,23.894,101.546,44.137,101.546,60.729V473H16v-52.765c0-16.593,33.849-36.836,101.546-60.729
	c31.194-11.282,52.433-22.73,63.716-34.346c11.283-11.615,16.924-27.378,16.924-47.289c0-7.3-3.65-15.431-10.951-24.391
	c-7.301-8.961-12.61-21.073-15.929-36.338c-0.664-3.982-2.157-6.969-4.48-8.961c-2.322-1.991-4.646-3.318-6.968-3.981
	c-2.322-0.664-4.646-3.485-6.969-8.463c-2.323-4.977-3.816-12.112-4.48-21.403c0-5.311,0.829-9.624,2.488-12.942
	c1.66-3.32,3.153-5.311,4.48-5.975l1.991-1.99c-2.655-16.593-4.646-31.195-5.973-43.805c-1.327-17.919,5.475-36.502,20.409-55.751
	C186.737,34.624,212.788,25,249.956,25c37.167,0,63.383,9.624,78.649,28.871c15.266,19.249,21.902,37.832,19.911,55.751
	l-5.974,43.805c5.974,2.654,8.96,9.624,8.96,20.907c-0.663,9.292-2.156,16.426-4.479,21.403c-2.323,4.979-4.646,7.799-6.97,8.463
	c-2.323,0.663-4.646,1.99-6.969,3.981c-2.322,1.992-3.815,4.979-4.479,8.961c-2.654,15.929-7.799,28.207-15.431,36.835
	c-7.633,8.629-11.45,16.594-11.45,23.894c0,19.911,5.809,35.674,17.423,47.289C330.762,336.775,351.834,348.224,382.365,359.506z"/>
</svg>
