<?xml version="1.0" encoding="utf-8"?>
<!-- Generator: Adobe Illustrator 16.0.0, SVG Export Plug-In . SVG Version: 6.00 Build 0)  -->
<!DOCTYPE svg PUBLIC "-//W3C//DTD SVG 1.1//EN" "http://www.w3.org/Graphics/SVG/1.1/DTD/svg11.dtd">
<svg version="1.1" id="Capa_1" xmlns="http://www.w3.org/2000/svg" xmlns:xlink="http://www.w3.org/1999/xlink" x="0px" y="0px"
	 width="500px" height="500px" viewBox="0 0 500 500" enable-background="new 0 0 500 500" xml:space="preserve">
<path d="M432.819,125.851c13.561,0,25.071-4.889,34.532-14.664c9.461-9.776,14.349-21.445,14.664-35.006
	c0-13.561-4.888-25.071-14.664-34.532S446.064,27.3,432.819,26.984H260.158c-13.876,0-25.545,4.888-35.006,14.664
	s-14.349,21.287-14.665,34.532s4.573,24.914,14.665,35.006c10.091,10.092,21.76,14.979,35.006,14.664H432.819z M432.819,298.039
	c13.561,0,25.071-4.888,34.532-14.664s14.349-21.287,14.664-34.532c0.315-13.246-4.572-24.757-14.664-34.532
	c-10.092-9.776-21.603-14.665-34.532-14.665H260.158c-13.876,0-25.545,4.889-35.006,14.665
	c-9.461,9.775-14.349,21.286-14.665,34.532c-0.315,13.245,4.573,24.756,14.665,34.532c10.091,9.776,21.76,14.664,35.006,14.664
	H432.819z M432.819,470.701c13.561,0,25.071-4.889,34.532-14.665s14.349-21.287,14.664-34.532c0-13.876-4.888-25.544-14.664-35.005
	s-21.287-14.35-34.532-14.665H260.158c-13.246,0-24.915,4.889-35.006,14.665c-10.092,9.776-14.98,21.444-14.665,35.005
	s5.204,25.071,14.665,34.532s21.129,14.35,35.006,14.665H432.819z M26,76.181c0,40.997,20.499,61.496,61.496,61.496
	c40.997,0,61.496-20.499,61.496-61.496s-20.499-61.496-61.496-61.496C46.499,14.685,26,35.184,26,76.181z M26,248.843
	c0,40.997,20.499,61.495,61.496,61.495c40.997,0,61.496-20.498,61.496-61.495s-20.499-61.496-61.496-61.496
	C46.499,187.347,26,207.846,26,248.843z M26,421.504C26,462.502,46.499,483,87.496,483c40.997,0,61.496-20.498,61.496-61.496
	c0-40.997-20.499-61.496-61.496-61.496C46.499,360.008,26,380.507,26,421.504z"/>
</svg>
