<?xml version="1.0" encoding="utf-8"?>
<!-- Generator: Adobe Illustrator 16.0.0, SVG Export Plug-In . SVG Version: 6.00 Build 0)  -->
<!DOCTYPE svg PUBLIC "-//W3C//DTD SVG 1.1//EN" "http://www.w3.org/Graphics/SVG/1.1/DTD/svg11.dtd">
<svg version="1.1" id="Capa_1" xmlns="http://www.w3.org/2000/svg" xmlns:xlink="http://www.w3.org/1999/xlink" x="0px" y="0px"
	 width="500px" height="500px" viewBox="0 0 500 500" enable-background="new 0 0 500 500" xml:space="preserve">
<path d="M89.681,388.358h325.744c-1.61,12.283-2.932,24.547-3.841,36.604H93.52C92.613,412.905,91.29,400.642,89.681,388.358z
	 M485.842,154.053c-1.211-1.5-2.568-2.851-4.048-4.027c-5.636-4.697-12.884-7.526-20.794-7.526c-17.949,0-32.5,14.551-32.5,32.5
	c0,14.77,9.855,27.23,23.347,31.184c-15.591,27.4-49.421,76.691-91.047,76.691c-7.616,0-15.493-1.652-23.565-5.384
	c-45.967-21.268-69.183-89.138-78.894-127.404c20.429-2.844,36.159-20.374,36.159-41.587c0-23.196-18.805-42-42-42
	c-23.196,0-42,18.804-42,42c0,21.249,15.783,38.801,36.263,41.6c-9.713,38.27-32.927,106.126-78.89,127.392
	c-8.07,3.731-15.951,5.384-23.565,5.384c-41.667,0-75.515-49.373-91.087-76.76C65.112,201.285,73.5,189.625,73.5,176
	c0-17.949-14.551-32.5-32.5-32.5S8.5,158.051,8.5,176s14.551,32.5,32.5,32.5c3.042,0,5.982-0.427,8.775-1.208
	c8.751,29.534,25.399,89.83,35.86,153.628h333.837c10.496-64.003,27.216-124.478,35.942-153.908c1.815,0.315,3.68,0.488,5.586,0.488
	c17.949,0,32.5-14.551,32.5-32.5C493.5,167.017,490.617,159.711,485.842,154.053z"/>
</svg>
