<?xml version="1.0" encoding="utf-8"?>
<!-- Generator: Adobe Illustrator 16.0.0, SVG Export Plug-In . SVG Version: 6.00 Build 0)  -->
<!DOCTYPE svg PUBLIC "-//W3C//DTD SVG 1.1//EN" "http://www.w3.org/Graphics/SVG/1.1/DTD/svg11.dtd">
<svg version="1.1" id="Capa_1" xmlns="http://www.w3.org/2000/svg" xmlns:xlink="http://www.w3.org/1999/xlink" x="0px" y="0px"
	 width="500px" height="500px" viewBox="0 0 500 500" enable-background="new 0 0 500 500" xml:space="preserve">
<path fill-rule="evenodd" clip-rule="evenodd" d="M176.307,252.622c-1.196-56.805-1.209-113.663,0.02-170.457
	c0.741-34.047,32.49-61.809,66.995-61.825c34.875-0.019,65.201,28.185,67.393,62.681c0.09,1.521,0.221,3.037,0.221,4.556
	c0.017,26.742,0.012,53.483,0.012,80.229c-0.033,0-0.067,0-0.108,0c0,27.346,0.676,54.719-0.163,82.04
	c-1.136,36.873-31.928,65.439-68.684,64.973C208.06,314.381,177.012,286.547,176.307,252.622z M383.54,204.324
	c-15.216,0-29.038,0-43.735,0c0,19.134,0.181,37.612-0.041,56.081c-0.467,39.035-25.607,72.605-62.433,79.185
	c-19.164,3.425-39.449,3.281-58.938,1.521c-38.028-3.44-66.036-31.665-70.108-69.783c-1.994-18.644-1.06-37.595-1.426-56.408
	c-0.064-3.503-0.005-7.008-0.005-10.643c-15.293,0-29.102,0-42.142,0c0,24.806-2.034,49.191,0.414,73.125
	c5.419,53.096,47.059,96.405,99.339,106.296c5.527,1.048,11.107,1.8,16.407,2.658c0,17.507,0,33.766,0,51.242
	c-23.527,0-46.383,0-69.581,0c0,14.814,0,28.385,0,42.559c61.89-0.007,122.823-0.007,183.78,0c0-14.46,0-28.265,0-43.25
	c-23.537,0-46.434,0-69.466,0c-0.008-17.5-0.008-33.797,0-50.409c3.65-0.751,6.872-1.64,10.146-2.062
	c48.339-6.172,90.283-41.843,102.224-89.188c4.02-15.941,4.389-32.9,5.397-49.461C384.206,231.986,383.54,218.095,383.54,204.324z"
	/>
</svg>
