<?xml version="1.0" encoding="utf-8"?>
<!-- Generator: Adobe Illustrator 16.0.0, SVG Export Plug-In . SVG Version: 6.00 Build 0)  -->
<!DOCTYPE svg PUBLIC "-//W3C//DTD SVG 1.1//EN" "http://www.w3.org/Graphics/SVG/1.1/DTD/svg11.dtd">
<svg version="1.1" id="Capa_1" xmlns="http://www.w3.org/2000/svg" xmlns:xlink="http://www.w3.org/1999/xlink" x="0px" y="0px"
	 width="500px" height="500px" viewBox="0 0 500 500" enable-background="new 0 0 500 500" xml:space="preserve">
<path d="M418.087,10.512c2.021,5.863,3.563,11.694,4.829,17.593c3.21,14.979,4.644,30.143,4.587,45.447
	c-0.042,11.616-0.744,23.196-2.288,34.704c-0.951,7.102-2.113,14.173-3.194,21.254c-0.089,0.568-0.291,1.116-0.518,1.953
	c-35.772-24.292-72.551-46.372-111.258-65.705c1.448-1.214,2.631-2.247,3.86-3.223c13.857-11.012,28.341-21.094,43.806-29.756
	c17.504-9.809,35.895-17.288,55.529-21.585c1.181-0.258,2.367-0.465,3.557-0.677C417.283,10.466,417.588,10.512,418.087,10.512z
	 M287.025,492.42c15.894-12.188,28.35-27.122,37.623-44.684c14.622-27.7,19.396-57.074,14.939-88.064
	c-1.364-9.492-8.014-32.463-11.113-36.119c-9.971,11.652-20.274,22.959-31.358,33.547c-11.142,10.642-22.878,20.563-35.521,29.896
	C283.846,418.962,292.332,453.991,287.025,492.42z M163.995,329.26c3.987-30.835,12.063-60.359,23.38-89.506
	c-32.356,3.104-60.37,15.01-83.974,36.626c-24.131,22.091-38.702,49.528-44.371,82.302
	C90.419,334.938,125.257,325.195,163.995,329.26z M171.17,347.958c-2.262,3.808-4.403,7.411-6.681,11.244
	c7.334,4.39,14.491,8.672,21.678,12.975c-1.108,3.017-2.19,5.981-3.288,8.937c-4.442,11.982-8.109,24.166-9.594,36.91
	c-0.282,2.433-0.282,4.896-0.429,7.658c0.757-0.319,1.186-0.429,1.531-0.66c2.702-1.798,5.47-3.513,8.055-5.459
	c10.803-8.146,19.749-18.178,28.561-28.332c0.767-0.889,1.461-1.838,2.267-2.86c7.164,4.267,14.137,8.425,21.286,12.681
	c2.304-3.854,4.488-7.516,6.725-11.26c-5.454-5.729-11.454-10.62-17.597-15.475c0.8-1.188,1.467-2.187,2.138-3.178
	c2.536-3.75,5.191-7.433,7.59-11.266c6.64-10.624,12.931-21.45,18.591-32.643c4.772-9.438,8.979-19.121,12.931-28.91
	c1.774-4.396,3.158-8.955,4.59-13.48c1.181-3.738,2.343-7.494,3.194-11.316c0.983-4.399,1.655-8.873,2.396-13.33
	c0.438-2.635,0.522-5.295,0.297-8.15c-0.457,0.217-0.741,0.305-0.968,0.465c-4.17,2.99-8.519,5.764-12.457,9.028
	c-11.461,9.499-21.143,20.707-30.168,32.483c-14.426,18.815-26.719,38.971-37.178,60.244c-0.323,0.656-0.715,1.276-1.126,2
	C186.117,353.04,178.843,350.039,171.17,347.958z M314.406,128.344c-25.947,2.763-46.016,25.567-43.779,52.921
	c2.059,25.195,24.784,48.449,55.264,44.667c25.143-3.114,43.091-24.575,42.878-49.017
	C368.512,146.906,342.41,125.358,314.406,128.344z M320.756,211.248c-9.659,0.434-18.232-2.991-25.164-9.896
	c-6.613-6.585-10.096-14.684-10.093-23.992c0.005-19.447,15.25-34.523,34.627-34.245c18.777,0.279,33.619,15.361,33.542,34.436
	C353.458,195.541,339.825,210.385,320.756,211.248z"/>
</svg>
