<?xml version="1.0" encoding="utf-8"?>
<!-- Generator: Adobe Illustrator 16.0.0, SVG Export Plug-In . SVG Version: 6.00 Build 0)  -->
<!DOCTYPE svg PUBLIC "-//W3C//DTD SVG 1.1//EN" "http://www.w3.org/Graphics/SVG/1.1/DTD/svg11.dtd">
<svg version="1.1" id="Capa_1" xmlns="http://www.w3.org/2000/svg" xmlns:xlink="http://www.w3.org/1999/xlink" x="0px" y="0px"
	 width="500px" height="500px" viewBox="0 0 500 500" enable-background="new 0 0 500 500" xml:space="preserve">
<path fill-rule="evenodd" clip-rule="evenodd" fill="#1A171B" d="M487.291,186.023c-0.021-27.996-19.068-52.402-46.225-59.234
	c-5.186-1.303-10.465-1.83-15.819-1.822c-22.691,0.033-45.388,0.015-68.079,0.015c-0.468,0-0.934,0-1.4,0
	c-0.193-2.374-0.332-4.631-0.572-6.874c-1.05-9.991-4.425-19.164-10.112-27.418c-9.297-13.502-22.019-22.02-38.024-25.567
	c-2.438-0.541-4.946-0.707-7.426-1.053c-0.354-0.05-0.702-0.149-1.056-0.227c-30.977,0-61.947,0-92.924,0
	c-1.728,0.231-3.454,0.433-5.177,0.7c-13.269,2.065-24.656,7.887-34.116,17.384c-8.548,8.583-14.068,18.867-16.476,30.734
	c-0.723,3.566-0.875,7.248-1.274,10.875c-0.047,0.426-0.003,0.862-0.003,1.446c-0.618,0-1.123,0-1.623,0
	c-23.365,0.006-46.728-0.218-70.093,0.089c-18.99,0.248-34.527,8.206-46.557,22.866c-7.057,8.607-11.197,18.569-12.836,29.568
	c-0.215,1.441-0.375,2.896-0.559,4.345c0,62.425,0,124.857,0,187.28c0.231,1.681,0.433,3.37,0.702,5.035
	c2.488,15.525,9.852,28.277,21.986,38.222c8.73,7.161,18.784,11.407,29.946,13.054c1.399,0.21,2.813,0.361,4.221,0.547
	c118.88,0,237.763,0,356.644,0c1.724-0.235,3.45-0.445,5.161-0.723c15.573-2.548,28.35-9.97,38.28-22.191
	c7.021-8.65,11.256-18.569,12.815-29.581c0.421-2.941,0.576-5.943,0.576-8.919c0.033-46.661,0.025-93.314,0.025-139.975
	C487.296,211.737,487.304,198.88,487.291,186.023z M252.122,383.595c-60.12,0.017-108.042-48.805-108.134-107.975
	c-0.084-59.008,47.636-108.053,108.092-108.292c60.031,0.164,108.059,48.738,108.16,107.981
	C360.345,334.411,312.543,383.578,252.122,383.595z M313.325,275.528c-0.13,33.926-27.655,61.254-61.581,61.11
	c-33.133-0.15-60.848-27.025-60.793-61.254c0.051-34.076,27.652-61.235,61.722-61.034
	C285.502,214.536,313.145,241.199,313.325,275.528z"/>
</svg>
