<?xml version="1.0" encoding="utf-8"?>
<!-- Generator: Adobe Illustrator 16.0.0, SVG Export Plug-In . SVG Version: 6.00 Build 0)  -->
<!DOCTYPE svg PUBLIC "-//W3C//DTD SVG 1.1//EN" "http://www.w3.org/Graphics/SVG/1.1/DTD/svg11.dtd">
<svg version="1.1" id="Capa_1" xmlns="http://www.w3.org/2000/svg" xmlns:xlink="http://www.w3.org/1999/xlink" x="0px" y="0px"
	 width="500px" height="500px" viewBox="0 0 500 500" enable-background="new 0 0 500 500" xml:space="preserve">
<path fill="#1A171B" d="M452.419,320.456l-0.791-272.509l-199.71,0.608l0.789,272.509L452.419,320.456z M414.19,81.271
	l0.623,201.451l-46.14,0.13l-0.616-201.447L414.19,81.271z M22.732,49.258l0.397,136.255
	c53.361,38.89,148.202-53.517,148.472,39.499c1.79,42.287,4.077,96.289,4.077,96.289l47.545-0.142l-0.785-272.515L22.732,49.258z
	 M47.033,133.414l-0.169-59.56l59.026-0.175l0.167,59.55L47.033,133.414z M134.345,133.93l-0.169-59.561l59.025-0.174l0.167,59.551
	L134.345,133.93z M481.455,350.349v39.262H226.239v-39.262H481.455z M293.915,419.056h116.761v39.267H293.915V419.056z"/>
</svg>
