<?xml version="1.0" encoding="utf-8"?>
<!-- Generator: Adobe Illustrator 16.0.0, SVG Export Plug-In . SVG Version: 6.00 Build 0)  -->
<!DOCTYPE svg PUBLIC "-//W3C//DTD SVG 1.1//EN" "http://www.w3.org/Graphics/SVG/1.1/DTD/svg11.dtd">
<svg version="1.1" id="Capa_1" xmlns="http://www.w3.org/2000/svg" xmlns:xlink="http://www.w3.org/1999/xlink" x="0px" y="0px"
	 width="500px" height="500px" viewBox="0 0 500 500" enable-background="new 0 0 500 500" xml:space="preserve">
<path d="M168.828,332.01c1.985-3.328,3.841-6.438,5.801-9.729c6.78,1.63,13.153,4.516,19.81,7.185
	c0.927-1.78,1.822-3.45,2.675-5.142c5.419-10.77,11.437-21.195,18.042-31.283c6.824-10.423,14.182-20.445,22.395-29.826
	c7.075-8.078,14.573-15.703,23.399-21.902c1.612-1.133,3.321-2.125,5.241-3.341c0.197,2.63-0.114,4.946-0.395,7.236
	c-1.375,11.224-4.68,21.938-8.622,32.485c-4.339,11.609-9.613,22.785-15.481,33.691c-6.09,11.313-12.814,22.24-20.215,32.744
	c-0.223,0.316-0.4,0.667-0.703,1.18c5.387,4.196,10.59,8.527,15.394,13.474c-1.917,3.298-3.794,6.526-5.809,9.987
	c-6.162-3.66-12.261-7.289-18.515-11.012c-1.47,1.729-2.907,3.419-4.438,5.221c5.211,10.271,5.344,20.557-1.167,30.295
	c-6.519,9.746-16.057,13.588-27.899,12.683c1.79,7.546,0.978,14.672-2.93,21.59c6.209,1.48,11.789,3.976,16.83,7.73
	c7.415-7.87,15.938-10.176,25.664-4.961c6.903,3.699,10.741,11.747,9.706,19.27c-0.64,4.628-2.559,8.609-5.927,11.864
	c-3.315,3.201-7.347,4.898-12.129,5.494c0.349,2.854-0.052,5.544-1.393,8.24c-27.627-5.282-53.222-15.476-76.815-30.621
	c-28.194-18.094-51.083-41.432-68.86-70.101c12.531-6.731,25.554-8.569,39.182-5.244c13.651,3.328,24.351,11.073,32.383,22.765
	c6.075-4.781,12.924-6.752,20.684-6.129c-2.521-10.025-1.01-19.088,5.572-26.914c6.526-7.767,15.079-10.929,25.26-10.184
	c0.764-1.671,1.526-3.336,2.396-5.234C181.568,339.673,175.214,335.854,168.828,332.01z M234.987,478.851
	c47.818,2.688,92.188-8.351,132.52-34.327c40.389-26.018,69.514-61.553,86.598-106.502c18.021-47.418,19.107-95.553,3.98-143.942
	c-8.442-27.008-22.01-51.291-40.146-73.161c-0.228,0.359-0.337,0.458-0.354,0.568c-0.839,5.679-1.608,11.373-2.546,17.035
	c-0.281,1.693-0.315,3.58-1.922,4.801c0.509,0.764,0.937,1.431,1.393,2.077c7.145,10.083,13.261,20.763,18.351,32.014
	c7.461,16.482,12.656,33.643,15.479,51.542c1.652,10.478,2.323,21.009,2.561,31.584c0.045,1.912-0.158,3.827-0.244,5.74
	c-0.183,3.965-0.195,7.945-0.578,11.89c-0.804,8.285-2.013,16.517-3.766,24.669c-3.373,15.674-8.598,30.696-15.567,45.117
	c-4.733,9.801-10.295,19.115-16.555,28.023c-9.604,13.67-20.779,25.912-33.417,36.826c-13.557,11.703-28.422,21.41-44.582,29.162
	c-11.858,5.688-24.145,10.168-36.864,13.442c-16.408,4.224-33.104,6.229-50.039,6.319c-0.647,0.005-1.29,0-1.889,0
	c-0.467,1.258-0.822,2.325-1.257,3.356c-1.179,2.8-3.057,5.084-5.236,7.166c-2.101,2.003-4.117,4.096-6.171,6.149
	C234.816,478.551,234.902,478.703,234.987,478.851z M65.593,343.458c-7.38-16.517-12.641-33.657-15.459-51.556
	c-1.57-9.953-2.208-19.963-2.543-30.004c-0.072-2.109,0.225-4.229,0.225-6.344c0-7.154,0.691-14.25,1.583-21.342
	c1.448-11.521,3.955-22.804,7.437-33.864c6.376-20.246,15.749-39.015,28.057-56.313c8.439-11.863,18.094-22.661,28.852-32.458
	c8.58-7.818,17.804-14.814,27.613-21.046c13.531-8.596,27.877-15.501,43.053-20.651c11.547-3.918,23.359-6.759,35.446-8.515
	c8.649-1.255,17.334-1.91,26.054-2.171c6.219-0.188,12.438,0.075,18.634,0.649c4.536,0.42,9.075,0.871,13.592,1.479
	c1.396,0.188,2.342-0.02,3.305-1.063c4.095-4.446,8.625-8.413,13.476-12.016c0.503-0.374,0.921-0.858,1.438-1.349
	c-63.694-14.937-154.251-0.833-216.833,75.326C19.71,195.011,18.792,288.833,51.74,354.896c4.917-3.178,10.439-4.888,16.25-6.354
	C67.102,346.665,66.314,345.073,65.593,343.458z M395.059,128.981c1.513-8.855,2.943-17.727,3.558-26.695
	c0.434-6.35,0.719-12.714,0.938-19.075c0.095-2.701-0.296-5.419-0.188-8.116c0.104-2.639-0.214-5.228-0.392-7.836
	c-0.182-2.702-0.362-5.405-0.563-8.105c-0.129-1.734-0.171-3.486-0.474-5.192c-0.81-4.54-1.609-9.091-2.66-13.58
	c-1.063-4.542-2.419-9.016-3.652-13.518c-0.185-0.679-0.6-0.973-1.331-0.827c-0.449,0.089-0.934,0.009-1.378,0.115
	c-3.215,0.767-6.463,1.419-9.623,2.377c-5.323,1.617-10.586,3.418-15.795,5.412c-7.482,2.861-14.688,6.283-21.727,10.048
	c-5.298,2.831-10.479,5.891-15.567,9.08c-4.58,2.871-9.055,5.939-13.419,9.132c-5.006,3.659-9.841,7.552-14.739,11.357
	c-0.286,0.222-0.471,0.574-0.872,1.08c33.729,16.979,66.005,36.105,97.166,57.389C394.613,130.884,394.895,129.942,395.059,128.981z
	 M256.553,360.423c3.465,4.628,5.977,9.8,8.604,14.903c2.271,4.412,4.012,9.051,5.676,13.721c0.42,1.178,0.742,2.395,1.09,3.602
	c0.916,3.153,2.021,6.271,2.683,9.479c0.901,4.377,1.903,8.754,2.147,13.249c0.213,3.886,0.543,7.761,0.795,11.639
	c0.039,0.591-0.049,1.188-0.057,1.781c-0.033,3.201,0.096,6.414-0.13,9.603c-0.235,3.401-0.805,6.775-1.229,10.15
	c0.719,0.644,1.256,0.072,1.734-0.329c1.42-1.184,2.771-2.45,4.191-3.628c3.465-2.875,6.574-6.106,9.61-9.409
	c4.203-4.574,8.016-9.446,11.439-14.635c5.188-7.86,9.573-16.124,12.933-24.928c0.422-1.106,0.851-2.218,1.198-3.351
	c1.084-3.537,2.231-7.062,3.156-10.641c0.91-3.512,1.742-7.064,2.313-10.646c0.534-3.373,0.678-6.805,1.005-10.209
	c0.624-6.524,0.443-13.045-0.021-19.566c-0.093-1.309-0.5-2.611-0.47-3.911c0.063-2.541-0.729-4.935-1.082-7.399
	c-0.289-2.01-0.777-3.992-1.21-5.978c-0.393-1.801-0.732-3.619-1.264-5.378c-1.124-3.723-2.294-7.436-3.573-11.104
	c-0.798-2.285-1.839-4.485-2.921-7.078c-17.692,21.136-37.014,40.037-59.06,56.16C255.02,357.984,255.691,359.275,256.553,360.423z
	 M185.869,227.408c-2.426,0.273-4.875,0.455-7.253,0.967c-5.595,1.211-11.254,2.274-16.698,3.986
	c-6.082,1.913-12.115,4.085-17.753,7.174c-3.295,1.805-6.672,3.462-9.898,5.378c-5.52,3.282-10.692,7.075-15.573,11.245
	c-3.71,3.174-7.333,6.438-10.523,10.16c-1.806,2.104-3.82,4.041-5.528,6.216c-3.338,4.255-6.711,8.495-9.307,13.276
	c-1.981,3.652-4.071,7.244-6.037,10.903c-0.806,1.505-1.462,3.097-2.112,4.681c-1.426,3.476-2.961,6.92-4.159,10.476
	c-1.787,5.313-3.009,10.794-4.236,16.265c-0.229,1.028-0.179,2.118-0.286,3.497c0.619-0.384,0.908-0.526,1.151-0.723
	c4.113-3.334,8.605-6.111,13.105-8.875c1.404-0.859,2.863-1.642,4.338-2.379c3.191-1.591,6.348-3.263,9.624-4.652
	c3.336-1.417,6.766-2.622,10.209-3.76c3.312-1.095,6.662-2.122,10.053-2.933c3.386-0.806,6.84-1.33,10.273-1.927
	c1.04-0.182,2.105-0.206,3.16-0.3c3.867-0.337,7.732-0.829,11.608-0.967c5.737-0.206,11.482-0.085,17.169,0.842
	c0.875,0.143,1.244-0.17,1.324-0.982c0.121-1.178,0.165-2.371,0.372-3.537c1.039-5.893,2.059-11.795,3.208-17.666
	c1.379-7.051,3.012-14.047,5.063-20.94c1.693-5.69,3.356-11.392,5.15-17.05c1.261-3.967,2.706-7.876,4.096-11.801
	c0.747-2.106,1.548-4.192,2.434-6.586C187.572,227.396,186.711,227.316,185.869,227.408z M335.613,142.061
	c-8.489-8.627-19.034-12.871-31.052-12.774c-11.536,0.092-21.712,4.269-29.928,12.458c-8.653,8.629-12.96,19.29-12.637,31.483
	c0.308,11.68,4.726,21.837,13.177,30.021c8.489,8.221,18.859,12.379,30.567,12.08c24.6-0.63,42.135-20.125,42.271-42.436
	C348.048,160.94,343.988,150.571,335.613,142.061z M274.886,173.965c-0.598-8.004,2.046-15.465,7.392-21.548
	c5.892-6.705,13.709-10.226,22.505-10.294c8.26-0.065,15.738,2.988,21.651,9.053c5.594,5.735,8.548,12.698,8.66,20.693
	c0.237,16.549-12.759,30.125-29.758,30.538C287.92,202.155,276.034,189.325,274.886,173.965z M122.283,355.199
	c-0.024,6.693,5.359,12.121,12.079,12.173c6.676,0.049,12.195-5.392,12.22-12.041c0.025-6.7-5.368-12.11-12.093-12.136
	C127.73,343.172,122.308,348.507,122.283,355.199z"/>
</svg>
