<?xml version="1.0" encoding="utf-8"?>
<!-- Generator: Adobe Illustrator 16.0.0, SVG Export Plug-In . SVG Version: 6.00 Build 0)  -->
<!DOCTYPE svg PUBLIC "-//W3C//DTD SVG 1.1//EN" "http://www.w3.org/Graphics/SVG/1.1/DTD/svg11.dtd">
<svg version="1.1" id="Capa_1" xmlns="http://www.w3.org/2000/svg" xmlns:xlink="http://www.w3.org/1999/xlink" x="0px" y="0px"
	 width="500px" height="500px" viewBox="0 0 500 500" enable-background="new 0 0 500 500" xml:space="preserve">
<path fill-rule="evenodd" clip-rule="evenodd" d="M207.348,467.771c-42.379,0-83.732,0-125.73,0c0-71.232,0-142.301,0-213.975
	c-25.389,0-50.144,0-74.906,0c-0.193-0.429-0.386-0.858-0.575-1.291c80.965-74.454,161.931-148.913,243.147-223.599
	c81.17,74.646,162.1,149.071,244.092,224.476c-26.012,0-50.825,0-76.249,0c0,71.844,0,142.889,0,214.24
	c-40.671,0-80.729,0-121.294,0c0-37.02,0-73.785,0-110.94c-29.612,0-58.714,0-88.485,0
	C207.348,393.507,207.348,430.395,207.348,467.771z"/>
</svg>
