<?xml version="1.0" encoding="utf-8"?>
<!-- Generator: Adobe Illustrator 16.0.0, SVG Export Plug-In . SVG Version: 6.00 Build 0)  -->
<!DOCTYPE svg PUBLIC "-//W3C//DTD SVG 1.1//EN" "http://www.w3.org/Graphics/SVG/1.1/DTD/svg11.dtd">
<svg version="1.1" id="Capa_1" xmlns="http://www.w3.org/2000/svg" xmlns:xlink="http://www.w3.org/1999/xlink" x="0px" y="0px"
	 width="500px" height="500px" viewBox="0 0 500 500" enable-background="new 0 0 500 500" xml:space="preserve">
<g id="icon_27_">
	<g>
		<g>
			<path fill="#1A171B" d="M75.364,287.977l-49.054-5.81c-3.482-0.38-6.35-3.606-6.35-7.141v-49.138c0-3.482,2.868-6.739,6.35-7.111
				l49.054-5.816c4.701-22.338,13.517-43.182,25.629-61.642l-30.641-38.88c-2.202-2.707-1.96-7.001,0.531-9.496l34.753-34.776
				c2.488-2.465,6.765-2.75,9.563-0.526l38.836,30.583c18.496-12.021,39.305-20.859,61.649-25.549l5.788-49.116
				c0.38-3.454,3.592-6.314,7.145-6.314h49.134c3.527,0,6.73,2.861,7.145,6.314l5.81,49.116
				c22.319,4.69,43.153,13.528,61.627,25.549l38.855-30.583c2.742-2.224,7.041-1.939,9.533,0.526l34.73,34.776
				c2.51,2.495,2.788,6.79,0.575,9.533l-30.606,38.843c12.077,18.46,20.867,39.304,25.568,61.642l49.068,5.816
				c3.516,0.373,6.34,3.629,6.373,7.111l-0.033,49.138c0.033,3.534-2.824,6.761-6.34,7.141l-49.068,5.81
				c-4.701,22.352-13.491,43.175-25.578,61.67l30.616,38.859c2.213,2.729,1.935,7.009-0.575,9.512l-34.73,34.753
				c-2.492,2.509-6.791,2.715-9.557,0.541l-38.832-30.604c-18.474,12.035-39.308,20.889-61.627,25.557l-5.81,49.042
				c-0.414,3.527-3.617,6.358-7.145,6.388l-49.134-0.029c-3.553,0.029-6.765-2.831-7.145-6.358l-5.788-49.042
				c-13.894-2.883-27.101-7.572-39.615-13.492l40.102-38.872c11.754,3.489,24.129,5.384,37.035,5.384
				c72.229,0,130.791-58.575,130.791-130.826c0-72.272-58.562-130.827-130.791-130.827c-72.276,0-130.837,58.555-130.837,130.827
				c0,12.409,1.843,24.335,5.071,35.675l-39.723,38.522C82.427,312.97,78.071,300.824,75.364,287.977z"/>
		</g>
	</g>
	<path fill="#1A171B" d="M25.849,471.292c15.496,16.11,40.943,16.697,57.2,1.441l0.418,0.446l135.399-131.272
		c32.793,11.626,71.318,4.426,98.686-21.906c27.298-26.216,36.151-64.195,26.043-97.354l-32.207,30.979
		c-7.434,7.133-19.29,6.928-26.445-0.542l-31.14-32.368c-7.141-7.448-6.914-19.301,0.557-26.493l32.149-30.898
		c-32.681-11.429-71.019-4.054-98.273,22.125c-27.137,26.083-35.953,63.771-26.086,96.754l-135.7,131.587l0.022,0.021
		C10.681,429.544,10.348,455.159,25.849,471.292z M39.26,443.182c5.312-5.114,13.736-4.953,18.854,0.329
		c5.092,5.335,4.931,13.814-0.359,18.979c-5.268,5.114-13.726,4.975-18.829-0.337C33.798,456.827,33.959,448.333,39.26,443.182z"/>
</g>
</svg>
