<?xml version="1.0" encoding="utf-8"?>
<!-- Generator: Adobe Illustrator 16.0.0, SVG Export Plug-In . SVG Version: 6.00 Build 0)  -->
<!DOCTYPE svg PUBLIC "-//W3C//DTD SVG 1.1//EN" "http://www.w3.org/Graphics/SVG/1.1/DTD/svg11.dtd">
<svg version="1.1" id="Capa_1" xmlns="http://www.w3.org/2000/svg" xmlns:xlink="http://www.w3.org/1999/xlink" x="0px" y="0px"
	 width="500px" height="500px" viewBox="0 0 500 500" enable-background="new 0 0 500 500" xml:space="preserve">
<path d="M217.357,302.801c0,30.508,0,59.945,0,90.454c-13.381,0-24.621,0.535-35.86,0c-2.676,0-5.353-0.536-7.493,0
	c-3.211,0.535-9.099,2.14-9.634,3.746c-0.535,3.746,1.071,8.027,3.211,11.774c3.747,4.282,8.029,8.564,12.311,12.311
	c19.268,20.874,38.536,41.213,58.34,61.551c7.493,8.563,11.239,8.563,19.803,0.536c24.62-23.015,49.241-46.029,73.326-69.58
	c2.676-2.677,3.211-8.028,4.817-11.774c-3.748-1.606-6.958-4.282-10.705-4.282c-11.24-1.07-21.944-1.605-33.185-1.07
	c-6.422,0-8.027-2.141-8.027-8.564c0.534-27.832,0.534-56.198,0.534-85.101C264.457,302.801,241.978,302.801,217.357,302.801z
	 M223.78,191.475c23.015,0,44.958,0,68.508,0c0-27.832,0-55.663,0-85.636c8.563,0,16.058,0,23.551,0
	c6.958,0,13.915,0.535,20.873,0.535c8.564-0.535,12.311-6.957,6.959-12.845c-26.227-26.761-52.452-53.523-78.679-79.749
	c-3.746-4.281-9.099-2.676-12.311,1.071c-26.226,25.155-52.452,50.311-78.142,76.002c-1.606,2.141-2.676,6.958-1.606,9.634
	c0.535,2.141,4.816,3.747,7.493,4.282c12.31,0.534,24.62,0.534,36.395,0.534c6.423-0.534,8.028,1.606,7.494,7.494
	c-0.536,23.015-0.536,46.03-0.536,69.044C223.78,185.051,223.78,188.263,223.78,191.475z M22,232.687c0,9.634,0,18.733,0,28.902
	c151.468,0,302.938,0,454.406,0c0-9.635,0-18.733,0-28.902C325.473,232.687,174.004,232.687,22,232.687z"/>
</svg>
