<?xml version="1.0" encoding="utf-8"?>
<!DOCTYPE svg PUBLIC "-//W3C//DTD SVG 1.1//EN" "http://www.w3.org/Graphics/SVG/1.1/DTD/svg11.dtd">
<svg version="1.1" xmlns="http://www.w3.org/2000/svg" xmlns:xlink="http://www.w3.org/1999/xlink" xml:space="preserve">
<path d="M437 448c0 57 0 112 0 169-25 0-46 1-67 0-5 0-10-1-14 0-6 1-17 4-18 7-1 7 2 15 6 22 7 8 15 16 23 23 36 39 72 77 109 115 14 16 21 16 37 1 46-43 92-86 137-130 5-5 6-15 9-22-7-3-13-8-20-8-21-2-41-3-62-2-12 0-15-4-15-16 1-52 1-105 1-159-38 0-80 0-126 0z m12-208c43 0 84 0 128 0 0-52 0-104 0-160 16 0 30 0 44 0 13 0 26 1 39 1 16-1 23-13 13-24-49-50-98-100-147-149-7-8-17-5-23 2-49 47-98 94-146 142-3 4-5 13-3 18 1 4 9 7 14 8 23 1 46 1 68 1 12-1 15 3 14 14-1 43-1 86-1 129 0 6 0 12 0 18z m-377 77c0 18 0 35 0 54 283 0 566 0 849 0 0-18 0-35 0-54-282 0-565 0-849 0z"/>
</svg>