<?xml version="1.0" encoding="utf-8"?>
<!DOCTYPE svg PUBLIC "-//W3C//DTD SVG 1.1//EN" "http://www.w3.org/Graphics/SVG/1.1/DTD/svg11.dtd">
<svg version="1.1" xmlns="http://www.w3.org/2000/svg" xmlns:xlink="http://www.w3.org/1999/xlink" xml:space="preserve">
<path d="M393 350q-89 0-152 63t-62 151 62 152 152 63 151-63 63-152-63-151-151-63z m601-179l139-138q5-6 5-13 0-8-5-13l-76-76q-5-5-12-5-8 0-13 5l-139 139-139-139q-5-5-13-5-7 0-12 5l-76 76q-5 5-5 13 0 7 5 13l139 138-139 139q-5 5-5 13 0 7 5 13l76 75q5 5 12 5 8 0 13-5l139-139 139 139q5 5 13 5 7 0 12-5l76-75q5-6 5-13 0-8-5-13z m-278 0l-101-101q-21-20-21-50 0-30 21-51l46-46q-11-2-24-2h-488q-67 0-108 39t-41 106q0 30 2 58t8 61 15 60 24 55 34 45 48 30 62 11q11 0 22-10 86-68 178-68t178 68q11 10 22 10 15 0 31-4-15-15-22-28t-8-31q0-30 21-51z"/>
</svg>