<?xml version="1.0" encoding="utf-8"?>
<!-- Generator: Adobe Illustrator 16.0.0, SVG Export Plug-In . SVG Version: 6.00 Build 0)  -->
<!DOCTYPE svg PUBLIC "-//W3C//DTD SVG 1.1//EN" "http://www.w3.org/Graphics/SVG/1.1/DTD/svg11.dtd">
<svg version="1.1" id="Capa_1" xmlns="http://www.w3.org/2000/svg" xmlns:xlink="http://www.w3.org/1999/xlink" x="0px" y="0px"
	 width="500px" height="500px" viewBox="0 0 500 500" enable-background="new 0 0 500 500" xml:space="preserve">
<path d="M180.482,251.511c-23.997,0-44.489-8.493-61.475-25.479c-16.987-16.986-25.345-37.343-25.075-61.07
	c0.27-23.727,8.627-44.219,25.075-61.475c16.446-17.256,36.938-25.75,61.475-25.48c24.536,0.27,44.893,8.764,61.069,25.48
	c16.178,16.717,24.671,37.208,25.48,61.475c0.809,24.266-7.684,44.622-25.48,61.07C223.757,242.479,203.4,250.971,180.482,251.511z
	 M423.551,323.905l56.216,55.813c1.349,1.617,2.022,3.369,2.022,5.257c0,2.157-0.674,3.91-2.022,5.259l-30.737,30.737
	c-1.348,1.348-2.965,2.021-4.853,2.021c-2.157,0-3.909-0.674-5.258-2.021l-56.217-56.218l-56.218,56.218
	c-1.348,1.348-3.101,2.021-5.258,2.021c-1.888,0-3.505-0.674-4.853-2.021l-30.737-30.737c-1.349-1.349-2.022-3.102-2.022-5.259
	c0-1.888,0.674-3.64,2.022-5.257l56.217-55.813l-56.217-56.217c-1.349-1.349-2.022-3.101-2.022-5.258
	c0-1.887,0.674-3.64,2.022-5.257l30.737-30.334c1.348-1.348,2.965-2.022,4.853-2.022c2.157,0,3.91,0.675,5.258,2.022l56.218,56.218
	l56.217-56.218c1.349-1.348,3.101-2.022,5.258-2.022c1.888,0,3.505,0.675,4.853,2.022l30.737,30.334
	c1.349,1.617,2.022,3.37,2.022,5.257c0,2.157-0.674,3.909-2.022,5.258L423.551,323.905z M311.115,323.905l-40.848,40.849
	c-5.662,5.393-8.493,12.133-8.493,20.222c0,8.09,2.831,14.965,8.493,20.627l18.604,18.604c-2.966,0.54-6.201,0.81-9.707,0.81H81.798
	c-18.064,0-32.624-5.257-43.679-15.772c-11.054-10.516-16.582-24.807-16.582-42.872c0-8.089,0.27-15.907,0.809-23.457
	c0.539-7.549,1.618-15.772,3.236-24.67c1.618-8.898,3.64-16.987,6.066-24.267c2.427-7.28,5.663-14.695,9.707-22.245
	c4.044-7.549,8.627-13.615,13.751-18.199c5.122-4.583,11.593-8.629,19.413-12.134c7.819-3.504,16.178-4.987,25.075-4.448
	c2.966,0,5.932,1.349,8.898,4.044c23.188,18.335,47.185,27.502,71.99,27.502s48.802-9.167,71.99-27.502
	c2.965-2.695,5.932-4.044,8.896-4.044c4.046,0,8.225,0.539,12.538,1.618c-4.045,4.045-7.01,7.819-8.897,11.324
	c-1.887,3.504-2.966,7.684-3.235,12.537c0,8.089,2.831,14.965,8.493,20.627L311.115,323.905z"/>
</svg>
