<?xml version="1.0" encoding="utf-8"?>
<!DOCTYPE svg PUBLIC "-//W3C//DTD SVG 1.1//EN" "http://www.w3.org/Graphics/SVG/1.1/DTD/svg11.dtd">
<svg version="1.1" xmlns="http://www.w3.org/2000/svg" xmlns:xlink="http://www.w3.org/1999/xlink" xml:space="preserve">
<path d="M991 186q64-107 12-199-52-93-177-93l-625 0q-126 0-177 93-53 92 11 199l309 513q62 107 170 107 106 0 169-107z m-477-112q34 0 57 23t23 57-23 58-57 24-58-24-23-58 23-57 58-23z m85 387q5 13 5 32 0 38-26 64t-64 27-65-27-26-64q0-17 6-34l72-178q5-9 13-9t11 9q74 178 74 180z"/>
</svg>