<?xml version="1.0" encoding="utf-8"?>
<!-- Generator: Adobe Illustrator 16.0.0, SVG Export Plug-In . SVG Version: 6.00 Build 0)  -->
<!DOCTYPE svg PUBLIC "-//W3C//DTD SVG 1.1//EN" "http://www.w3.org/Graphics/SVG/1.1/DTD/svg11.dtd">
<svg version="1.1" id="Capa_1" xmlns="http://www.w3.org/2000/svg" xmlns:xlink="http://www.w3.org/1999/xlink" x="0px" y="0px"
	 width="500px" height="500px" viewBox="0 0 500 500" enable-background="new 0 0 500 500" xml:space="preserve">
<path d="M465.771,324.768c19.321,32.303,21.133,62.342,5.435,90.117C455.506,442.961,428.788,457,391.05,457H108.019
	c-38.04,0-64.758-14.039-80.155-42.115c-16.001-27.775-14.34-57.814,4.981-90.117L172.776,92.455
	C191.494,60.152,217.155,44,249.761,44c32.001,0,57.513,16.152,76.531,48.455L465.771,324.768z M249.761,375.487
	c10.265,0,18.869-3.472,25.813-10.416c6.943-6.943,10.416-15.549,10.416-25.812c0-10.266-3.473-19.021-10.416-26.267
	c-6.943-7.245-15.548-10.868-25.813-10.868s-19.02,3.623-26.266,10.868c-7.246,7.246-10.717,16.001-10.416,26.267
	c0.302,10.263,3.774,18.868,10.416,25.812C230.137,372.016,238.892,375.487,249.761,375.487z M288.253,200.233
	c1.51-3.925,2.264-8.754,2.264-14.491c0-11.473-3.925-21.133-11.773-28.982s-17.511-11.926-28.982-12.227
	c-11.472-0.303-21.284,3.774-29.435,12.227c-8.152,8.453-12.077,18.114-11.774,28.982c0,5.131,0.906,10.265,2.717,15.397
	l32.605,80.606c1.509,2.718,3.472,4.076,5.887,4.076s4.076-1.358,4.981-4.076C277.082,228.008,288.253,200.837,288.253,200.233z"/>
</svg>
