<?xml version="1.0" encoding="UTF-8" standalone="no"?>
<svg width="500px" height="500px" viewbox="0 0 20 20" version="1.1" xmlns="http://www.w3.org/2000/svg" xmlns:xlink="http://www.w3.org/1999/xlink">

                <path d="M150 400L250 400 250 350 150 350 150 400ZM250 300L300 300 300 350 300 400 300 450 250 450 150 450 100 450 100 400 100 350 100 300 150 300 250 300ZM150 150L450 150 450 100 150 100 150 150ZM500 50L500 100 500 150 500 200 450 200 150 200 100 200 100 150 100 100 100 50 150 50 450 50 500 50ZM0 500L50 500 50 0 0 0 0 500Z" id="alignment_left-[#853]"/>
           
</svg>