<?xml version="1.0" encoding="utf-8"?>
<!-- Svg Vector Icons : http://www.onlinewebfonts.com/icon -->
<!DOCTYPE svg PUBLIC "-//W3C//DTD SVG 1.1//EN" "http://www.w3.org/Graphics/SVG/1.1/DTD/svg11.dtd">
<svg version="1.1" xmlns="http://www.w3.org/2000/svg" xmlns:xlink="http://www.w3.org/1999/xlink" x="0px" y="0px" width="500px" height="500px" viewbox="0 0 500 500" enable-background="new 0 0 500 500" xml:space="preserve">
<path d="M475.64876172625605 300.09107468123864c10.625379477838493 5.616272009714632 17.506577615867233 14.065978546852863 20.643594414086216 25.24792552114956 3.137016798218984 11.181946974296702 1.6697024893746204 21.75672940700263-4.351345881400526 31.724347298117788l-22.212102813195706 35.77211090872293c-6.021048370775147 9.967617891115157-14.97672535923902 16.444039668083384-26.917628010524187 19.378668285772108-11.940902651285166 2.934628617688727-23.224043715846992 1.568508399109492-33.84942319368549-4.0477636106051404l-92.33960736692977-49.78749241044323v99.9291641368144c0 11.28314106456183-4.40194292653309 21.048370775146733-13.20582877959927 29.295689131754703s-19.226877150374417 12.345679012345677-31.218376846792147 12.396276057478243h-44.42420562639141c-12.042096741550294 0-22.46508803885853-4.148957700870269-31.218376846792147-12.396276057478243-8.80388585306618-8.247318356607973-13.20582877959927-18.012548067192874-13.20582877959927-29.295689131754703V358.32827362882006l-92.33960736692977 49.78749241044323c-10.625379477838493 5.616272009714632-21.90852054240032 6.982392228293867-33.84942319368549 4.0477636106051404-11.940902651285166-2.934628617688727-20.896579639749035-9.411050394656952-26.917628010524187-19.378668285772108l-22.212102813195706-35.77211090872293C2.0098222403220394 347.0451325642582 0.5425079314776755 336.4703501315523 3.6795247296966593 325.2884031572556c3.137016798218984-11.181946974296702 10.018214936247723-19.581056466302368 20.643594414086216-25.24792552114956L116.66272651071264 249.94940295486742 24.323119143782876 199.80773122849624c-10.625379477838493-5.616272009714632-17.506577615867233-14.065978546852863-20.643594414086216-25.24792552114956-3.137016798218984-11.181946974296702-1.6697024893746204-21.75672940700263 4.351345881400526-31.724347298117788l22.212102813195706-35.77211090872293c6.021048370775147-9.967617891115157 14.97672535923902-16.444039668083384 26.917628010524187-19.378668285772108s23.224043715846992-1.568508399109492 33.84942319368549 4.0477636106051404l92.33960736692977 49.78749241044323V41.64136814410038c0-11.28314106456183 4.40194292653309-21.048370775146733 13.20582877959927-29.295689131754703C205.3087495829652 4.098360655737705 215.73174088027343 0 227.77383762182376 0h44.42420562639141c12.042096741550294 0 22.46508803885853 4.148957700870269 31.218376846792147 12.396276057478243C312.22030594807353 20.592997368953654 316.6222488746066 30.35822707953855 316.67284591973913 41.64136814410038v99.9291641368144l92.33960736692977-49.78749241044323c10.625379477838493-5.616272009714632 21.90852054240032-6.982392228293867 33.84942319368549-4.0477636106051404 11.940902651285166 2.934628617688727 20.896579639749035 9.411050394656952 26.917628010524187 19.378668285772108l22.212102813195706 35.77211090872293c6.021048370775147 9.967617891115157 7.437765634486945 20.542400323821088 4.351345881400526 31.724347298117788-3.137016798218984 11.181946974296702-10.018214936247723 19.581056466302368-20.643594414086216 25.24792552114956L383.30915435932627 249.94940295486742 475.64876172625605 300.09107468123864z"/>
</svg>