<?xml version="1.0" encoding="iso-8859-1"?>
<!-- Generator: Adobe Illustrator 16.0.0, SVG Export Plug-In . SVG Version: 6.00 Build 0)  -->
<!DOCTYPE svg PUBLIC "-//W3C//DTD SVG 1.1//EN" "http://www.w3.org/Graphics/SVG/1.1/DTD/svg11.dtd">
<svg version="1.1" id="Capa_1" xmlns="http://www.w3.org/2000/svg" xmlns:xlink="http://www.w3.org/1999/xlink" x="0px" y="0px" width="500px" height="500px" viewbox="0 0 616.121 616.121" style="enable-background:new 0 0 616.121 616.121;" xml:space="preserve">

		<path d="M107.91265024716861 92.12557273652416c-11.514783622048267 0-20.430240163863918 9.287948308854917-20.430240163863918 20.802731930903185s8.91545654181565 20.430240163863918 20.430240163863918 20.430240163863918h283.80301921213527c11.513972093144043 0 20.430240163863918-8.91545654181565 20.430240163863918-20.430240163863918s-8.91545654181565-20.802731930903185-20.430240163863918-20.802731930903185H107.91265024716861L107.91265024716861 92.12557273652416zM391.71566945930385 316.493026532126c11.513972093144043 0 20.430240163863918-8.91545654181565 20.430240163863918-20.430240163863918s-8.91545654181565-20.430240163863918-20.430240163863918-20.430240163863918H107.91265024716861c-11.514783622048267 0-20.430240163863918 8.91545654181565-20.430240163863918 20.430240163863918s8.91545654181565 20.430240163863918 20.430240163863918 20.430240163863918H391.71566945930385zM391.71566945930385 458.7670279052329H107.91265024716861c-11.514783622048267 0-20.430240163863918 9.287136779950693-20.430240163863918 20.802731930903185 0 11.513972093144043 8.91545654181565 20.430240163863918 20.430240163863918 20.430240163863918h283.80301921213527c11.513972093144043 0 20.430240163863918-8.91545654181565 20.430240163863918-20.430240163863918C412.14590962316777 468.0549762140878 403.23045308135215 458.7670279052329 391.71566945930385 458.7670279052329zM22.102395443323278 41.2329720947671h455.795209057961c11.513972093144043 0 20.430240163863918-8.91545654181565 20.430240163863918-20.430240163863918C498.3286561940524 10.032931842933449 489.41238812333256 0 477.8984160301885 0H22.102395443323278C10.587611821275011 0 1.6729668083635867 10.032931842933449 1.6729668083635867 20.802731930903185 1.6729668083635867 32.31751555295145 10.587611821275011 41.2329720947671 22.102395443323278 41.2329720947671zM477.8984160301885 183.50697346787402H22.102395443323278c-11.514783622048267 0-20.430240163863918 8.91545654181565-20.430240163863918 20.430240163863918s8.91545654181565 20.802731930903185 20.430240163863918 20.802731930903185h455.795209057961c11.513972093144043 0 20.430240163863918-9.287948308854917 20.430240163863918-20.802731930903185S489.41238812333256 183.50697346787402 477.8984160301885 183.50697346787402zM477.8984160301885 367.01394693574804H22.102395443323278c-11.514783622048267 0-20.430240163863918 8.914645012911425-20.430240163863918 20.430240163863918 0 11.513972093144043 8.91545654181565 20.430240163863918 20.430240163863918 20.430240163863918h455.795209057961c11.513972093144043 0 20.430240163863918-8.91545654181565 20.430240163863918-20.430240163863918C498.3286561940524 375.92859194865946 489.41238812333256 367.01394693574804 477.8984160301885 367.01394693574804z"/>
	
</svg>
