<?xml version="1.0" encoding="UTF-8" standalone="no"?>
<svg width="500px" height="500px" viewbox="0 0 20 20" version="1.1" xmlns="http://www.w3.org/2000/svg" xmlns:xlink="http://www.w3.org/1999/xlink">
   
                <path d="M50 150L350 150 350 100 50 100 50 150ZM0 200L0 150 0 100 0 50 50 50 350 50 400 50 400 100 400 150 400 200 350 200 50 200 0 200ZM250 400L350 400 350 350 250 350 250 400ZM350 300L400 300 400 350 400 400 400 450 350 450 250 450 200 450 200 400 200 350 200 300 250 300 350 300ZM450 500L500 500 500 0 450 0 450 500Z" id="alignment_right-[#854]"/>
            
</svg>