<?xml version="1.0" encoding="iso-8859-1"?>
<!-- Generator: Adobe Illustrator 19.0.0, SVG Export Plug-In . SVG Version: 6.00 Build 0)  -->
<svg version="1.1" id="Capa_1" xmlns="http://www.w3.org/2000/svg" xmlns:xlink="http://www.w3.org/1999/xlink" x="0px" y="0px" width="500px" height="500px" viewbox="0 0 500 510" style="enable-background:new 0 0 500 500;" xml:space="preserve">

		<path d="M480.2038767540266 110.32362273083722L253.18456720257112 0.7280266327865199c-2.0126933469791535-0.9707021770486552-4.356441058163029-0.9707021770486552-6.368157843595856 0L19.796123245973398 110.32362273083722c-2.531247528078586 1.2216784944545953-4.139644394878521 3.7851525535619595-4.139644394878521 6.595696683889957v266.1608728897726c0 2.810544130327998 1.6083968667999349 5.374018189435362 4.139644394878521 6.595696683889957l227.0193095514555 109.59559609805069c1.0058583927164135 0.4853510885243276 2.0957010784169157 0.7285149135596548 3.1845672025710914 0.7285149135596548s2.1777322483083514-0.24316382503532713 3.1845672025710914-0.7285149135596548l227.0193095514555-109.59559609805069c2.531247528078586-1.2216784944545953 4.139644394878521-3.7851525535619595 4.139644394878521-6.595696683889957V116.9202959762735C484.3435211489052 114.10779872285285 482.7341477205589 111.54627778683813 480.2038767540266 110.32362273083722zM250 15.457504436030852l210.1726463157751 101.46181497869632-60.92474519067853 29.412080652264986c-0.38574181079901293-0.2939450254443111-0.7929679756172114-0.56542913532311-1.240233163834801-0.781249237061292L189.26275462621618 44.77876486448747 250 15.457504436030852zM172.72175515453597 53.06000677733716l209.86698255177487 101.314354185201-42.98335646156596 20.75095629789424L129.82531267059312 73.85197866017712 172.72175515453597 53.06000677733716zM387.498889161241 168.26887864367322v76.70500321777031l-40.14937485412612 19.38279357149065v-76.70500321777031L387.498889161241 168.26887864367322zM469.695097954006 378.4844936674866L257.32421159744956 481.0058779239474V231.11159071133721l50.6571770926005-24.455054243111093c3.642574567798274-1.7587873449342335 5.1699168262530995-6.136712757116448 3.411129481318866-9.78026388646105-1.7587873449342335-3.641598006251947-6.136712757116448-5.170893387799426-9.78026388646105-3.411129481318866L250 218.38211095496982l-20.308573917408285-9.804677925119213c-3.6435511293446003-1.7607404680268868-8.021476541526816-0.23144508647940773-9.78026388646105 3.411129481318866-1.7587873449342335 3.642574567798274-0.23144508647940773 8.021476541526816 3.411129481318866 9.78026388646105l19.353496725100857 9.342764313706725V481.0058779239474L30.304902045994098 378.48254054439394V128.5882533317839l161.71859207168743 78.07121282108123c1.0263661851892723 0.4960932655339204 2.1113260631581414 0.730468036652308 3.1787078332931316 0.730468036652308 2.7226535911586023 0 5.3378854122212775-1.5253891353621727 6.600579491621591-4.1415975179711735 1.7587873449342335-3.642574567798274 0.23144508647940773-8.021476541526816-3.411129481318866-9.78026388646105l-158.56429827705247-76.54875337035804 72.75871800906444-35.12496569827569L332.59952871139774 188.00811717957313c0.032226531028778295 0.044921831131024284 0.06835930824286306 0.08496085453041549 0.10156240081796795 0.12890612411511318v87.88956260784902c0 2.520505351068993 1.295897171975418 4.863276500706543 3.4306607122453983 6.204095503812985 1.1855457172405106 0.7441398983008806 2.5380834589028725 1.1201160936366275 3.8945274467505406 1.1201160936366275 1.085936439515196 0 2.1748025636693713-0.24121070194267388 3.1835906410247645-0.7285149135596548l54.797798049025346-26.454075728441673c2.531247528078586-1.2216784944545953 4.139644394878521-3.784175992015633 4.139644394878521-6.595696683889957v-88.37393713482703l67.54778559786563-32.60934315493833V378.4844936674866z"/>

		<path d="M480.2038767540266 110.32362273083722L253.18456720257112 0.7280266327865199c-2.0126933469791535-0.9707021770486552-4.356441058163029-0.9707021770486552-6.368157843595856 0L19.796123245973398 110.32362273083722c-2.531247528078586 1.2216784944545953-4.139644394878521 3.7851525535619595-4.139644394878521 6.595696683889957v266.1608728897726c0 2.810544130327998 1.6083968667999349 5.374018189435362 4.139644394878521 6.595696683889957l227.0193095514555 109.59559609805069c1.0058583927164135 0.4853510885243276 2.0957010784169157 0.7285149135596548 3.1845672025710914 0.7285149135596548s2.1777322483083514-0.24316382503532713 3.1845672025710914-0.7285149135596548l227.0193095514555-109.59559609805069c2.531247528078586-1.2216784944545953 4.139644394878521-3.7851525535619595 4.139644394878521-6.595696683889957V116.9202959762735C484.3435211489052 114.10779872285285 482.7341477205589 111.54627778683813 480.2038767540266 110.32362273083722zM250 15.457504436030852l210.1726463157751 101.46181497869632-60.92474519067853 29.412080652264986c-0.38574181079901293-0.2939450254443111-0.7929679756172114-0.56542913532311-1.240233163834801-0.781249237061292L189.26275462621618 44.77876486448747 250 15.457504436030852zM172.72175515453597 53.06000677733716l209.86698255177487 101.314354185201-42.98335646156596 20.75095629789424L129.82531267059312 73.85197866017712 172.72175515453597 53.06000677733716zM387.498889161241 168.26887864367322v76.70500321777031l-40.14937485412612 19.38279357149065v-76.70500321777031L387.498889161241 168.26887864367322zM469.695097954006 378.4844936674866L257.32421159744956 481.0058779239474V231.11159071133721l50.6571770926005-24.455054243111093c3.642574567798274-1.7587873449342335 5.1699168262530995-6.136712757116448 3.411129481318866-9.78026388646105-1.7587873449342335-3.641598006251947-6.136712757116448-5.170893387799426-9.78026388646105-3.411129481318866L250 218.38211095496982l-20.308573917408285-9.804677925119213c-3.6435511293446003-1.7607404680268868-8.021476541526816-0.23144508647940773-9.78026388646105 3.411129481318866-1.7587873449342335 3.642574567798274-0.23144508647940773 8.021476541526816 3.411129481318866 9.78026388646105l19.353496725100857 9.342764313706725V481.0058779239474L30.304902045994098 378.48254054439394V128.5882533317839l161.71859207168743 78.07121282108123c1.0263661851892723 0.4960932655339204 2.1113260631581414 0.730468036652308 3.1787078332931316 0.730468036652308 2.7226535911586023 0 5.3378854122212775-1.5253891353621727 6.600579491621591-4.1415975179711735 1.7587873449342335-3.642574567798274 0.23144508647940773-8.021476541526816-3.411129481318866-9.78026388646105l-158.56429827705247-76.54875337035804 72.75871800906444-35.12496569827569L332.59952871139774 188.00811717957313c0.032226531028778295 0.044921831131024284 0.06835930824286306 0.08496085453041549 0.10156240081796795 0.12890612411511318v87.88956260784902c0 2.520505351068993 1.295897171975418 4.863276500706543 3.4306607122453983 6.204095503812985 1.1855457172405106 0.7441398983008806 2.5380834589028725 1.1201160936366275 3.8945274467505406 1.1201160936366275 1.085936439515196 0 2.1748025636693713-0.24121070194267388 3.1835906410247645-0.7285149135596548l54.797798049025346-26.454075728441673c2.531247528078586-1.2216784944545953 4.139644394878521-3.784175992015633 4.139644394878521-6.595696683889957v-88.37393713482703l67.54778559786563-32.60934315493833V378.4844936674866z"/>

		<path d="M480.2038767540266 110.32362273083722L253.18456720257112 0.7280266327865199c-2.0126933469791535-0.9707021770486552-4.356441058163029-0.9707021770486552-6.368157843595856 0L19.796123245973398 110.32362273083722c-2.531247528078586 1.2216784944545953-4.139644394878521 3.7851525535619595-4.139644394878521 6.595696683889957v266.1608728897726c0 2.810544130327998 1.6083968667999349 5.374018189435362 4.139644394878521 6.595696683889957l227.0193095514555 109.59559609805069c1.0058583927164135 0.4853510885243276 2.0957010784169157 0.7285149135596548 3.1845672025710914 0.7285149135596548s2.1777322483083514-0.24316382503532713 3.1845672025710914-0.7285149135596548l227.0193095514555-109.59559609805069c2.531247528078586-1.2216784944545953 4.139644394878521-3.7851525535619595 4.139644394878521-6.595696683889957V116.9202959762735C484.3435211489052 114.10779872285285 482.7341477205589 111.54627778683813 480.2038767540266 110.32362273083722zM250 15.457504436030852l210.1726463157751 101.46181497869632-60.92474519067853 29.412080652264986c-0.38574181079901293-0.2939450254443111-0.7929679756172114-0.56542913532311-1.240233163834801-0.781249237061292L189.26275462621618 44.77876486448747 250 15.457504436030852zM172.72175515453597 53.06000677733716l209.86698255177487 101.314354185201-42.98335646156596 20.75095629789424L129.82531267059312 73.85197866017712 172.72175515453597 53.06000677733716zM387.498889161241 168.26887864367322v76.70500321777031l-40.14937485412612 19.38279357149065v-76.70500321777031L387.498889161241 168.26887864367322zM469.695097954006 378.4844936674866L257.32421159744956 481.0058779239474V231.11159071133721l50.6571770926005-24.455054243111093c3.642574567798274-1.7587873449342335 5.1699168262530995-6.136712757116448 3.411129481318866-9.78026388646105-1.7587873449342335-3.641598006251947-6.136712757116448-5.170893387799426-9.78026388646105-3.411129481318866L250 218.38211095496982l-20.308573917408285-9.804677925119213c-3.6435511293446003-1.7607404680268868-8.021476541526816-0.23144508647940773-9.78026388646105 3.411129481318866-1.7587873449342335 3.642574567798274-0.23144508647940773 8.021476541526816 3.411129481318866 9.78026388646105l19.353496725100857 9.342764313706725V481.0058779239474L30.304902045994098 378.48254054439394V128.5882533317839l161.71859207168743 78.07121282108123c1.0263661851892723 0.4960932655339204 2.1113260631581414 0.730468036652308 3.1787078332931316 0.730468036652308 2.7226535911586023 0 5.3378854122212775-1.5253891353621727 6.600579491621591-4.1415975179711735 1.7587873449342335-3.642574567798274 0.23144508647940773-8.021476541526816-3.411129481318866-9.78026388646105l-158.56429827705247-76.54875337035804 72.75871800906444-35.12496569827569L332.59952871139774 188.00811717957313c0.032226531028778295 0.044921831131024284 0.06835930824286306 0.08496085453041549 0.10156240081796795 0.12890612411511318v87.88956260784902c0 2.520505351068993 1.295897171975418 4.863276500706543 3.4306607122453983 6.204095503812985 1.1855457172405106 0.7441398983008806 2.5380834589028725 1.1201160936366275 3.8945274467505406 1.1201160936366275 1.085936439515196 0 2.1748025636693713-0.24121070194267388 3.1835906410247645-0.7285149135596548l54.797798049025346-26.454075728441673c2.531247528078586-1.2216784944545953 4.139644394878521-3.784175992015633 4.139644394878521-6.595696683889957v-88.37393713482703l67.54778559786563-32.60934315493833V378.4844936674866z"/>
	
</svg>
