<?xml version="1.0" encoding="UTF-8" standalone="no"?>
<svg width="500px" height="500px" viewbox="-1 0 19 20" version="1.1" xmlns="http://www.w3.org/2000/svg" xmlns:xlink="http://www.w3.org/1999/xlink">

                <path d="M356.25 350L143.75 350 143.75 200C143.75 133.34999999999854 196.875 100 249.97342500000013 100L250.02657499999987 100C303.125 100 356.25 133.34999999999854 356.25 200L356.25 350ZM276.5625 425C276.5625 438.8000000000011 264.66250000000036 450 250 450 235.33749999999964 450 223.4375 438.8000000000011 223.4375 425L223.4375 400 276.5625 400 276.5625 425ZM409.375 300L409.375 200C409.375 111.17499999999927 346.47500000000036 61.875 276.5625 51.974999999998545L276.5625 0 223.4375 0 223.4375 51.974999999998545C153.52499999999964 61.875 90.625 111.17499999999927 90.625 200L90.625 300C90.625 327.625 66.8515499999994 350 37.5 350L37.5 400 170.3125 400 170.3125 425C170.3125 466.4250000000011 205.98592499999995 500 250 500 294.01407500000005 500 329.6875 466.4250000000011 329.6875 425L329.6875 400 462.5 400 462.5 350C433.1484500000006 350 409.375 327.625 409.375 300L409.375 300Z" id="notification_bell-[#1396]"/>
           
</svg>