<?xml version="1.0" encoding="iso-8859-1"?>
<!-- Generator: Adobe Illustrator 19.0.0, SVG Export Plug-In . SVG Version: 6.00 Build 0)  -->
<svg version="1.1" id="Layer_1" xmlns="http://www.w3.org/2000/svg" xmlns:xlink="http://www.w3.org/1999/xlink" x="0px" y="0px" width="500px" height="500px" viewbox="0 0 290 280" style="enable-background:new 0 0 500 500;" xml:space="preserve">

			<path d="M76.48510596995682 59.00443382126267c-0.0134680588078811 0-0.028619624966747338 0-0.04208768377462844 0-4.728972148917252 0-9.176798570219983 1.8434405493287256-12.535395735435333 5.193620177789149-3.395634326937022 3.3872167901820966-5.26601099388151 7.89733298347128-5.26601099388151 12.698695948480893v268.29214898974647c0 9.838416959157144 8.03538058625206 17.86201299395231 17.91420172183285 17.887265604217085 41.64660484867033 0.09932693370812311 111.42125051760034 8.779490835387492 159.5560926969674 59.151714284213796V141.4525228284088c0-3.3350280623015576-0.8518547195984796-6.468035242484898-2.459604239789286-9.06063656300201C194.1454347303081 68.76877645697647 118.22598723028231 59.10207724761981 76.48510596995682 59.00443382126267zM441.3600716857205 345.1888989372792V76.89506644018174c0-4.801362965009612-1.8703766669444877-9.311479158298795-5.26601099388151-12.698695948480893-3.3585971652153495-3.3501796284604235-7.809790601220053-5.193620177789149-12.53371222808435-5.193620177789149-0.015151566158866236 0-0.030303132317732472 0-0.043771191125613576 0-41.73919775297451 0.09932693370812311-117.65864525300027 9.766026143064783-157.16719576591947 73.3891359514951-1.6077495201908063 2.5926013205171117-2.457920732438301 5.725608500700452-2.457920732438301 9.06063656300201v280.77367248995023c48.13484217936705-50.3722234488263 117.90948784829705-59.05238735050566 159.5560926969674-59.151714284213796C433.32469109946857 363.0492284238805 441.3600716857205 355.02563238908533 441.3600716857205 345.1888989372792zM482.1110506236668 120.87669598466844h-12.97310764669147v224.31220295261073c0 25.119613184049236-20.466398865926315 45.602847123485404-45.62473271904821 45.66513689547185-35.32503474572114 0.08417536754925688-93.57102207510493 6.991606028641275-134.82200269629377 46.033825005337604 71.34367452004815-17.468072273821786 146.5526819179582-6.112815191427034 189.41477907403979 3.6548944589887333 5.351869868781752 1.2188593221132396 10.882191516767929-0.0404041764236433 15.170084739727072-3.4579240989234723 4.272741656800279-3.4091023857449034 6.723928359834639-8.505079137176914 6.723928359834639-13.974794520527627V138.76564509623654C500.0016832425859 128.90197552681457 491.9747201930888 120.87669598466844 482.1110506236668 120.87669598466844zM30.862056758259598 345.1888989372792V120.87669598466844h-12.97310764669147C8.026963049497192 120.87669598466844 5.684341886080802e-14 128.90197552681457 5.684341886080802e-14 138.76564509623654v284.33934105933673c0 5.471398890701697 2.45118670303436 10.565692134782722 6.723928359834639 13.974794520527627 4.284526208257175 3.415836415148844 9.809797334190396 4.680150435738682 15.170084739727072 3.4579240989234723 42.8620971560816-9.769393157766753 118.07278806134262-21.12296673281052 189.4130955666888-3.6548944589887333-41.249297113837834-39.04053546934534-99.49528444322162-45.946282623086375-134.82031918894276-46.030457990635625C51.330139131536896 390.7917460607646 30.862056758259598 370.30851212132836 30.862056758259598 345.1888989372792z"/>
	
</svg>
