<?xml version="1.0" encoding="UTF-8" standalone="no"?>
<svg width="500px" height="500px" viewbox="0 0 16 18" version="1.1" xmlns="http://www.w3.org/2000/svg" xmlns:xlink="http://www.w3.org/1999/xlink">

                <path d="M416.7478294223142 301.63727056079097C403.44774395758714 393.5533964018223 314.5852852725816 461.469796174596 215.12735266738446 440.6645150626837 151.97281476884154 427.4422907215603 100.6405843204252 376.58144923754753 87.36838774905891 313.69282804829436 64.69968967186423 206.1655885944028 139.09097937114302 111.11057336146493 250.62213613334325 111.11057336146493L250.62213613334325 166.6658600421915 390.0361029194296 83.33279113216574 250.62213613334325 1.1795009413617663e-11 250.62213613334325 55.55528668073836C111.20816934725599 55.55528668073836 4.44495779358158 180.08252885895214 32.18835112846 322.3594961038443 49.085298280707775 408.9978433213082 119.29419842085326 478.8309100678716 206.2606290242352 495.663968321006 338.06259459046987 521.1639724075039 454.72419661928825 430.997846846888 471.9557549362703 309.05393841601926 474.2979219782769 292.49838020738116 460.8862809401194 277.77643340367376 444.1287226990985 277.77643340367376L444.15661159245747 277.77643340367376C430.29885937169774 277.77643340367376 418.7274964062285 287.97060170398345 416.7478294223142 301.63727056079097" id="arrow_repeat-[#235]"/>
            
</svg>
