<?xml version="1.0" encoding="iso-8859-1"?>
<!-- Generator: Adobe Illustrator 16.0.0, SVG Export Plug-In . SVG Version: 6.00 Build 0)  -->
<!DOCTYPE svg PUBLIC "-//W3C//DTD SVG 1.1//EN" "http://www.w3.org/Graphics/SVG/1.1/DTD/svg11.dtd">
<svg version="1.1" id="Capa_1" xmlns="http://www.w3.org/2000/svg" xmlns:xlink="http://www.w3.org/1999/xlink" x="0px" y="0px" width="500px" height="500px" viewbox="0 0 500 500" style="enable-background:new 0 0 500 500;" xml:space="preserve">

	<path d="M103.33236453574933 399.148741618044h340.58390664460507c1.0428459461813115 0 2.0530349211878427-0.1480449359923365 3.024035530784638-0.37990943133327526 0.07728816511364625 0 0.14151354175738048 0.013062788469912044 0.21880170687102674 0.013062788469912044 7.270530349211879 0 13.177087869023774-5.9000261255769395 13.177087869023774-13.175999303317948V13.177087869023802C460.33728485273963 5.903291822694446 454.42963876722195 2.842170943040401e-14 447.15910841801 2.842170943040401e-14h-3.216711660715841H124.40699660054077 103.35087015274837c-35.073587041713836 0-63.60271706000174 28.53566141252286-63.60271706000174 63.59945136288426 0 0.4702603849168336 0.09252808499521031 0.9165723243054951 0.13824784463990247 1.3705042236349385-0.04571975964469216 32.39027257685274-0.4474005050944875 330.0161107724462-0.04571975964469216 369.14242793695024-0.025037011233998083 0.7652616911956805-0.11865366193503439 1.512017765392319-0.11865366193503439 2.284899416528782 0 33.71614560654881 26.39989549769224 61.317817643472964 59.60659235391448 63.40350953583558 0.6662022119655142 0.10232517634764435 1.3193416354611165 0.19920752416615867 2.010580858660629 0.19920752416615867h345.8188191239223c7.270530349211879 0 13.177087869023774-5.9000261255769395 13.177087869023774-13.177087869023774v-49.600496385961854c0-7.271618914917704-5.9076460855177215-13.177087869023774-13.177087869023774-13.177087869023774s-13.177087869023774 5.906557519811896-13.177087869023774 13.177087869023774v36.4244970826439H103.33236453574933c-20.02416615866934 0-36.37006879735261-15.898502133588783-37.1734302882522-35.72346076809196 0.019594182704868065-0.3537838543934512 0.08381955934860227-0.6879735260820343 0.07728816511364625-1.0482887747104415-0.013062788469912044-0.579116955499434-0.03265697117478011-1.4793607942175389-0.04571975964469216-2.676783070626143C67.34220516973 414.6869285030044 83.53679717530346 399.148741618044 103.33236453574933 399.148741618044zM112.31738587163716 63.59945136288429c0-7.273796046329357 5.903291822694418-13.177087869023774 13.177087869023774-13.177087869023774s13.177087869023774 5.903291822694418 13.177087869023774 13.177087869023774V331.2614299399112c0 7.270530349211879-5.903291822694418 13.177087869023774-13.177087869023774 13.177087869023774s-13.177087869023774-5.9076460855177215-13.177087869023774-13.177087869023774V63.59945136288429z"/>

</svg>
