<?xml version="1.0" encoding="iso-8859-1"?>
<!-- Generator: Adobe Illustrator 19.1.0, SVG Export Plug-In . SVG Version: 6.00 Build 0)  -->
<svg version="1.1" id="Capa_1" xmlns="http://www.w3.org/2000/svg" xmlns:xlink="http://www.w3.org/1999/xlink" x="0px" y="0px"
	width="500px" height="500px" viewBox="0 0 537.63 537.63" style="enable-background:new 0 0 537.63 537.63;" xml:space="preserve">

		<path d="M394.834,252.038c-0.001,0-0.001,0-0.002,0v-0.001c0-19.857-16.148-36.005-36.005-36.005
			c-7.41,0-14.302,2.25-20.032,6.101c-4.925-14.023-18.289-24.104-33.976-24.104c-6.556,0-12.701,1.769-18.001,4.841v-58.849
			c0-19.857-16.148-36.005-36.005-36.005c-19.857,0-36.005,16.148-36.005,36.005v144.926c-20.513,4.181-36.006,22.359-36.006,44.101
			c0,25.114,9.452,49.075,26.626,67.456c17.661,18.903,27.382,43.08,27.382,68.14v26.428c0,10.082,5.401,24.124,31.199,33.611
			c15.681,5.761,36.564,8.947,58.815,8.947c41.532,0,90.013-11.144,90.012-42.557v-47.167c0-12.476,1.603-25.69,4.879-40.38
			c8.695-39.155,13.124-79.355,13.124-119.483C430.839,268.186,414.691,252.038,394.834,252.038z M400.126,403.619
			c-3.565,15.986-5.293,30.46-5.293,44.286v47.167c0,13.538-32.297,24.556-72.01,24.556s-72.01-11.018-72.01-24.556v-26.428
			c0-29.633-11.45-58.203-32.243-80.454c-14.024-15.014-21.765-34.583-21.765-55.142c0-11.733,7.527-21.739,18.003-25.455v34.456
			h18.001V144.021c0-9.938,8.084-18.003,18.003-18.003c9.92,0,18.003,8.066,18.003,18.003v89.974c0,0.013-0.001,0.026-0.001,0.039
			h0.001v36.005h18.003v-36.024c0.011-9.929,8.089-17.984,18.002-17.984c9.92,0,18.003,8.066,18.003,18.003v17.964
			c0,0.013-0.001,0.026-0.001,0.039h0.001v18.002h18.001v-18.002h0.001c0-9.938,8.084-18.003,18.003-18.003
			c9.92,0,18.003,8.066,18.003,18.003v36.005h18.001V270.15c9.316,0.249,18.004,8.013,18.004,17.892
			C412.836,326.838,408.551,365.742,400.126,403.619z"/>
		<path d="M124.795,144.021c0-69.472,56.528-126.018,126.018-126.018s126.018,56.546,126.018,126.018
			c0,11.432-1.513,22.737-4.537,33.611l17.355,4.789c3.439-12.44,5.185-25.348,5.185-38.4C394.834,64.611,330.222,0,250.813,0
			S106.792,64.611,106.792,144.02c0,40.902,17.499,80.022,47.995,107.314l12.008-13.393
			C140.097,214.051,124.795,179.81,124.795,144.021z"/>
	
</svg>
