<svg id="Capa_3" width="500px" height="500px" data-name="Capa 3" xmlns="http://www.w3.org/2000/svg" viewbox="0 0 496.49 475.94">
<title>icon3</title>
<path id="_Trazado_" data-name="&lt;Trazado&gt;" 
d="M254.60232163124263 10.409339616521894C386.73396234877055 7.2873267642022554 496.8100929160404 112.22724263894624 499.93210576836 244.35888335647414S398.1142027459357 486.4659445492616 265.98256202840776 489.5879574015812c-84.29434701263024 2.0142018402062183-161.84111786056963-39.176225792010946-207.46278954124048-110.17684065928015l64.75658916262992-41.593268000258405c31.018708339175763 48.24013407293893 83.69008646056837 76.23753965180536 140.89341872242497 74.82759836366101 89.73269198118702-2.1149119322165295 160.93472703247684-76.84180020386722 158.8198151002603-166.57449218505425S346.14779526861525 85.1362278881726 256.4151032874282 87.25113982038913A162.43530740343047 162.43530740343047 0 0 0 108.87481849232273 190.17685385492686L37.269943072991666 161.8773180000295A239.13611347848325 239.13611347848325 0 0 1 254.60232163124263 10.409339616521894ZM180.37898381964348 288.77203393302125l-145.02253249484772-44.51386066855743A8.510002774871271 8.510002774871271 0 0 0 24.479761387682185 251.00574942915466L0.1079191211869428 400.76165624848693a8.49993176567024 8.49993176567024 0 0 0 12.890891777319798 8.560357820876428L182.49389575186 304.0799679185885A8.479789747268178 8.479789747268178 0 0 0 180.37898381964348 288.77203393302125Z" transform="translate(-1.78 -11.03)"/>
</svg>