<?xml version="1.0" encoding="UTF-8" standalone="no"?>
<svg width="500px" height="500px" viewbox="0 0 20 20" version="1.1" xmlns="http://www.w3.org/2000/svg" xmlns:xlink="http://www.w3.org/1999/xlink">

                <path d="M400 474.41649999999936L400 475.06475000000137C400 488.8289999999979 388.8000000000002 498.70324999999866 375 498.70324999999866L50 498.70324999999866 50 500C22.375 500 0 478.97975000000224 0 451.4512500000019L0 127.29400000000169C0 113.50499999999738 11.199999999999818 102.35875000000306 25 102.35875000000306 38.80000000000018 102.35875000000306 50 113.50499999999738 50 127.29400000000169L50 426.5159999999996C50 440.2802499999998 61.19999999999982 448.83300000000236 75 448.83300000000236L375 448.83300000000236C388.8000000000002 448.83300000000236 400 460.6522499999992 400 474.41649999999936L400 474.41649999999936ZM450 326.7755000000034C450 340.53949999999895 438.8000000000002 349.0922500000015 425 349.0922500000015L175 349.0922500000015C161.19999999999982 349.0922500000015 150 340.53949999999895 150 326.7755000000034L150 77.42375000000175C150 63.634500000000116 161.19999999999982 49.870249999996304 175 49.870249999996304L300 49.870249999996304 300 152.22925000000032C300 179.75774999999703 322.375 199.48125000000073 350 199.48125000000073L450 199.48125000000073 450 326.7755000000034ZM492.6750000000002 144.27499999999782L357.3249999999998 8.602749999998196C352.625 3.939750000001368 346.27499999999964 0 339.65000000000055 0L150 0 150 1.2967500000013388C122.375 1.2967500000013388 100 24.2867499999993 100 51.81524999999965L100 52.488499999999476 100 351.71050000000105C100 379.2390000000014 122.375 400.25924999999916 150 400.25924999999916L150 398.9627499999988 450 398.9627499999988 450 400.25924999999916C477.625 400.25924999999916 500 378.5907499999994 500 351.0372500000012L500 162.55225000000064C500 155.9444999999978 497.375 148.93774999999732 492.6750000000002 144.27499999999782L492.6750000000002 144.27499999999782Z" id="file_double-[#1715]"/>
            
</svg>