<?xml version="1.0" encoding="UTF-8" standalone="no"?>
<svg width="500px" height="500px" viewbox="0 0 21 14" version="1.1" xmlns="http://www.w3.org/2000/svg" xmlns:xlink="http://www.w3.org/1999/xlink">

                <path d="M250 154.76190476190368C250 146.35714285714403 251.79999999999995 130.95238095238074 254.5999999999999 130.95238095238074L0 130.95238095238074 0 178.57142857142844 254.5999999999999 178.57142857142844C251.79999999999995 178.57142857142844 250 163.16666666666515 250 154.76190476190368L250 154.76190476190368ZM445.4000000000001 130.95238095238074C435.07500000000005 107.14285714285597 407.5999999999999 83.33333333333303 375 83.33333333333303 333.57500000000005 83.33333333333303 300 115.30952380952203 300 154.76190476190368 300 194.21428571428532 333.57500000000005 226.19047619047615 375 226.19047619047615 407.5999999999999 226.19047619047615 435.07500000000005 202.38095238095138 445.4000000000001 178.57142857142844L500 178.57142857142844 500 130.95238095238074 445.4000000000001 130.95238095238074ZM250 345.2380952380945C250 353.642857142856 248.20000000000005 361.57142857142844 245.4000000000001 369.04761904761926L500 369.04761904761926 500 321.42857142857156 245.4000000000001 321.42857142857156C248.20000000000005 321.42857142857156 250 336.83333333333485 250 345.2380952380945L250 345.2380952380945ZM200 345.2380952380945C200 384.69047619047615 166.42499999999995 416.66666666666697 125 416.66666666666697 92.40000000000009 416.66666666666697 64.92499999999995 392.8571428571422 54.59999999999991 369.04761904761926L0 369.04761904761926 0 321.42857142857156 54.59999999999991 321.42857142857156C64.92499999999995 297.6190476190468 92.40000000000009 273.80952380952385 125 273.80952380952385 166.42499999999995 273.80952380952385 200 305.78571428571286 200 345.2380952380945L200 345.2380952380945Z" id="settings-[#1389]"/>
          
</svg>