<?xml version="1.0" encoding="utf-8"?>
<!-- Generator: Adobe Illustrator 16.0.0, SVG Export Plug-In . SVG Version: 6.00 Build 0)  -->
<!DOCTYPE svg PUBLIC "-//W3C//DTD SVG 1.1//EN" "http://www.w3.org/Graphics/SVG/1.1/DTD/svg11.dtd">
<svg version="1.1" id="Capa_1" xmlns="http://www.w3.org/2000/svg" xmlns:xlink="http://www.w3.org/1999/xlink" x="0px" y="0px" width="500px" height="500px" viewbox="0 0 500 500" enable-background="new 0 0 500 500" xml:space="preserve">
<path d="M156.21887572146463 369.96966390297314l-13.711694583576483 13.713756647578824c-1.632123657854092 1.631092625852921-3.5910844600794714 2.4476699707805527-5.876882406676137 2.4476699707805527s-4.406630773005932-0.8165773449276318-6.365591575231311-2.4476699707805527L2.93947223533927 256.3561235659081c-1.958960802225379-1.9568987382230365-2.93947223533924-4.080824660635816-2.93947223533924-6.365591575231311 0-2.285797946596666 0.9805114331138608-4.407661805007104 2.93947223533924-6.366622607232482L130.26470715598072 116.2976434308017c1.6331546898552636-1.9579297702242078 3.7539875162645293-2.9384412033380687 6.365591575231311-2.9384412033380687s4.571595893193332 0.9805114331138608 5.876882406676137 2.9384412033380687l13.711694583576483 13.712725615577654c1.958960802225379 1.632123657854092 2.93947223533924 3.7539875162645293 2.93947223533924 6.365591575231311s-0.9805114331138608 4.571595893193332-2.93947223533924 5.875851374674966L48.971957991632166 249.9905319906768l107.24691772983249 107.24794876183364c1.958960802225379 1.9579297702242078 2.93947223533924 4.080824660635816 2.93947223533924 6.366622607232482S158.17783652369002 368.01276516475 156.21887572146463 369.96966390297314zM317.8259246810502 78.09996985140916L215.96511812533637 431.1851269085139c-0.6536742887425738 2.284766914595495-2.121863858410437 4.080824660635816-4.407661805007104 5.387142206119792s-4.407661805007104 1.4692206016690343-6.365591575231311 0.48974020055634476l-16.65116681891572-4.406630773005932c-2.6105730269656107-0.9794804011126895-4.406630773005932-2.448701002781724-5.387142206119792-4.407661805007104-0.9794804011126895-1.9579297702242078-1.3052865134828053-4.242696684819703-0.9794804011126895-6.854300743786484l101.86183758771503-352.59541685654835c0.9784493691115183-2.6116040589667815 2.4476699707805527-4.407661805007104 4.406630773005932-5.387142206119792 1.9579297702242078-0.9805114331138608 4.080824660635816-1.3063175454839764 6.366622607232482-0.9805114331138608l17.139875987470894 4.897402005563448c2.284766914595495 0.6526432567414027 4.080824660635816 2.1228948904116085 5.387142206119792 4.407661805007104C318.6425020259778 74.01914519077334 318.8054050821629 76.14204008118494 317.8259246810502 78.09996985140916zM497.55129899721817 256.3561235659081L370.2260640765768 383.6834205505519c-1.958960802225379 1.631092625852921-4.081855692636988 2.4476699707805527-6.366622607232482 2.4476699707805527-2.2868289785978373 0-4.407661805007104-0.8165773449276318-6.366622607232482-2.4476699707805527l-13.712725615577654-13.713756647578824c-1.631092625852921-1.9568987382230365-2.448701002781724-4.079793628634644-2.448701002781724-6.365591575231311s0.817608376928803-4.407661805007104 2.448701002781724-6.366622607232482l107.24897979383482-107.24794876183364L343.7800932465342 142.2528430282868c-1.631092625852921-1.632123657854092-2.448701002781724-3.5900534280783-2.448701002781724-5.875851374674966s0.817608376928803-4.407661805007104 2.448701002781724-6.365591575231311l13.712725615577654-13.712725615577654c1.9579297702242078-1.9579297702242078 4.079793628634644-2.9384412033380687 6.366622607232482-2.9384412033380687 2.284766914595495 0 4.406630773005932 0.9805114331138608 6.366622607232482 2.9384412033380687l127.32523492064144 127.32626595264261c1.6331546898552636 1.632123657854092 2.448701002781724 3.7550185482657 2.448701002781724 6.366622607232482S499.1844536870734 254.723999908054 497.55129899721817 256.3561235659081z"/>
</svg>
