<?xml version="1.0" encoding="iso-8859-1"?>
<!-- Generator: Adobe Illustrator 19.0.0, SVG Export Plug-In . SVG Version: 6.00 Build 0)  -->
<svg version="1.1" id="Capa_1" xmlns="http://www.w3.org/2000/svg" xmlns:xlink="http://www.w3.org/1999/xlink" x="0px" y="0px" width="500px" height="500px" viewbox="0 0 512 512" style="enable-background:new 0 0 512 512;" xml:space="preserve">

		<path d="M441.40625 39.0625h-23.4375V0h-39.0625v39.0625H121.09375V0H82.03125v39.0625H58.59375C26.28515625 39.0625 0 65.34765625 0 97.65625v343.75c0 32.30859375 26.28515625 58.59375 58.59375 58.59375h382.8125c32.30859375 0 58.59375-26.28515625 58.59375-58.59375V97.65625C500 65.34765625 473.71484375 39.0625 441.40625 39.0625zM460.9375 441.40625c0 10.76953125-8.76171875 19.53125-19.53125 19.53125H58.59375c-10.76953125 0-19.53125-8.76171875-19.53125-19.53125V183.59375h421.875V441.40625zM460.9375 144.53125H39.0625v-46.875c0-10.76953125 8.76171875-19.53125 19.53125-19.53125h23.4375v39.0625h39.0625V78.125h257.8125v39.0625h39.0625V78.125h23.4375c10.76953125 0 19.53125 8.76171875 19.53125 19.53125V144.53125z"/>
	
</svg>
