<?xml version="1.0" encoding="utf-8"?>
<!-- Generator: Adobe Illustrator 16.0.0, SVG Export Plug-In . SVG Version: 6.00 Build 0)  -->
<!DOCTYPE svg PUBLIC "-//W3C//DTD SVG 1.1//EN" "http://www.w3.org/Graphics/SVG/1.1/DTD/svg11.dtd">
<svg version="1.1" id="Capa_1" xmlns="http://www.w3.org/2000/svg" xmlns:xlink="http://www.w3.org/1999/xlink" x="0px" y="0px" width="500px" height="500px" viewbox="0 0 500 500" enable-background="new 0 0 500 500" xml:space="preserve">
<path d="M447.8137682081787 250.0509168037539l44.8644070715697-43.69923118521982c6.603043759471479-6.213890990377153 8.740530963323895-13.789246067351172 6.410179190624144-22.722641599522404-2.7195045417940777-8.934536742637782-8.351378194229568-14.567551605539826-16.897903378239576-16.897903378239576l-61.1780106909345-15.73158628142315 17.477638295248134-60.013976015051185c2.331492983166304-8.934536742637782 0.1951469897804395-16.50875060914525-6.40789676969104-22.724924020455507-6.215032200843704-6.991055318099254-13.790387277817723-9.127401311485118-22.724924020455507-6.409037980157591l-60.59599335299284 17.479920716181237-15.732727491889701-61.17915190140106c-1.940057793138872-8.934536742637782-7.38020808719358-14.761557384853713-16.31360361936481-17.479920716181237-2.7195045417940777-0.3880115586277745-4.8558505351799415-0.5831585484082139-6.409037980157591-0.5831585484082139-6.603043759471479 0-12.043194053526188 2.525498762480191-16.314744829831362 7.575355076974019l-43.69923118521982 44.86554828203625-44.28238973362803-44.86554828203625c-5.825879431749378-6.603043759471479-13.401234508723398-8.934536742637782-22.723782809988954-6.992196528565805-8.934536742637782 2.718363331327526-14.372404615759386 8.545383973543457-16.31360361936481 17.479920716181237l-15.732727491889701 61.17915190140106-60.59713456345939-17.479920716181237c-8.934536742637782-2.718363331327526-16.50875060914525-0.5831585484082139-22.723782809988954 6.409037980157591-6.603043759471479 6.216173411310257-8.545383973543457 13.789246067351172-5.825879431749378 22.724924020455507l16.896762167773023 60.013976015051185-61.17915190140106 15.73158628142315c-8.545383973543457 2.330351772699751-14.1783988364455 7.963366635601794-16.897903378239576 16.897903378239576-2.330351772699751 8.934536742637782-0.19400577931388724 16.50875060914525 6.409037980157591 22.722641599522404l44.8644070715697 43.69923118521982L7.32136385506471 293.7512891994402c-6.603043759471479 6.213890990377153-8.740530963323895 13.789246067351172-6.409037980157591 22.722641599522404 2.718363331327526 8.934536742637782 8.351378194229568 14.567551605539826 16.897903378239576 16.89904458870613l61.17915190140106 15.730445070956597-16.896762167773023 60.013976015051185c-2.7195045417940777 8.934536742637782-0.7771643277221012 16.50875060914525 5.825879431749378 22.724924020455507 6.215032200843704 6.991055318099254 13.789246067351172 9.127401311485118 22.723782809988954 6.40789676969104l60.59713456345939-16.896762167773023 15.732727491889701 60.59599335299284c1.9423402140719768 8.934536742637782 7.38020808719358 14.567551605539826 16.31360361936481 16.897903378239576 8.934536742637782 2.7195045417940777 16.50875060914525 0.5831585484082139 22.723782809988954-6.409037980157591l44.28238973362803-44.8644070715697 43.69923118521982 44.8644070715697c6.215032200843704 6.603043759471479 13.789246067351172 8.740530963323895 22.723782809988954 6.409037980157591 8.93339553217123-2.330351772699751 14.37354582622594-7.963366635601794 16.31360361936481-16.897903378239576l15.732727491889701-60.59599335299284 60.59599335299284 16.896762167773023c8.934536742637782 2.7195045417940777 16.509891819611802 0.5831585484082139 22.724924020455507-6.40789676969104 6.603043759471479-6.216173411310257 8.739389752857344-13.790387277817723 6.40789676969104-22.724924020455507l-17.477638295248134-60.013976015051185 61.1780106909345-15.730445070956597c8.545383973543457-2.331492983166304 14.1783988364455-7.964507846068346 16.897903378239576-16.89904458870613 2.330351772699751-8.93339553217123 0.19286456884733497-16.50875060914525-6.410179190624144-22.722641599522404L447.8137682081787 250.0509168037539z"/>
</svg>
