<?xml version="1.0" encoding="UTF-8" standalone="no"?>
<svg version="1.1" xmlns="http://www.w3.org/2000/svg" xmlns:xlink="http://www.w3.org/1999/xlink" viewbox="0 0 20 20" enable-background="new 0 0 20 20" xml:space="preserve" width="500px" height="500px">&gt;
    <path d="M308.5999995788553 6.536993168992922e-13L191.42500042096492 6.536993168992922e-13C85.70000118078622 6.536993168992922e-13 0.0000017966925724977045 81.51887441414212 0.0000017966925724977045 186.85562365711368 0.0000017966925724977045 292.19237290008164 85.70000118078622 373.7112723142243 191.42500042096492 373.7112723142243L297.6749996573707 373.7112723142243 397.12499894264636 479.27224655558234C441.074998626788 523.0711962408102 499.9999982033074 490.95694647160485 499.9999982033074 443.22154681467214L499.9999982033074 195.84962359247285C499.9999982033074 90.4879493496853 413.6499988238851 6.536993168992922e-13 307.9499995835266 6.536993168992922e-13L308.5999995788553 6.536993168992922e-13ZM304.2999996097584 52.36939962363314C382.27499904936997 52.36939962363314 449.99999856264606 118.14259915093564 449.99999856264606 195.84962359247285L449.99999856264606 443.22154681467214C449.99999856264606 452.340121749138 439.09999864098165 457.0737967151151 432.47499868859416 450.47154676256537 317.94999951165903 328.9157476361586 337.3249993724154 351.1141974766258 318.3749995086047 323.88309767232636L191.42500042096492 323.88309767232636C113.45000098135336 323.88309767232636 50.00000143735417 264.5626480986473 50.00000143735417 186.85562365711368 50.00000143735417 109.14859921557647 113.45000098135336 49.82817464189495 191.42500042096492 49.82817464189495L299.9999996406615 49.82817464189495 304.2999996097584 52.36939962363314Z" id="message-[#1578]"/>
</svg>