<?xml version="1.0" encoding="iso-8859-1"?>
<!-- Generator: Adobe Illustrator 19.0.0, SVG Export Plug-In . SVG Version: 6.00 Build 0)  -->
<svg version="1.1" id="Capa_1" xmlns="http://www.w3.org/2000/svg" xmlns:xlink="http://www.w3.org/1999/xlink" x="0px" y="0px" width="500px" height="500px" viewbox="0 0 512 512" style="enable-background:new 0 0 512 512;" xml:space="preserve">

		<path d="M474.1381203480261 425.1224638557359L278.0788189141655 229.0621858607145 49.01663305345103 2.842170943040401e-14H31.11529041611834l-3.6552684246105653 9.288073199698394c-9.647447706846854 24.515591378953683-13.769512366286127 49.58977574184465-11.918928966703701 72.50868962300558 2.1093721071757474 26.12496417183592 12.034163183669785 48.743097215492156 28.703085636161834 65.41201966798421L223.06229280214697 326.02689663186925l23.58590515393919-23.58590515393919 165.31715609409554 184.85619179797163c16.44528994668499 16.44528994668499 44.750915190429915 17.421851107414504 62.17276629784442 0C491.28067496347194 470.15462866045584 491.28067496347194 442.264041910021 474.1381203480261 425.1224638557359zM140.19912519192636 284.61093780533065L0.14951257054622147 424.66055042671076c-17.140601493124404 17.140601493124404-17.140601493124404 45.03216480472001 0 62.17276629784442 16.283180794003894 16.283180794003894 44.452087475246685 17.720678822597737 62.17276629784442 0l140.05058918254088-140.05058918254088L140.19912519192636 284.61093780533065zM465.906686324237 83.25086239103024l-79.44422698650658 79.44325042534584-20.725557514162446-20.724580953001716 79.44422698650658-79.44422698650658-20.724580953001716-20.724580953001716-79.44325042534584 79.44325042534584-20.724580953001716-20.724580953001716 79.44422698650658-79.44325042534584L383.0093390733909 0.3525385790233825 279.3864343083823 103.97544334403197c-12.676740427429802 12.676740427429802-20.246065984244254 29.50874859376368-21.316377016403802 47.39739593600689-0.270507441522075 4.532220346945668-1.297849782609522 8.990222045675893-3.0019490080825215 13.230450605563437l67.31338424792457 67.31338424792457c4.2402285598875435-1.7060523477944587 8.699206819778498-2.7324181277211763 13.230450605563437-3.0029255692432515 17.888647342243214-1.0673813486773573 34.720655508577096-8.638660027813268 47.39739593600689-21.315400455243072l103.62290476500858-103.62192820384784L465.906686324237 83.25086239103024z"/>
	
</svg>
