<?xml version="1.0" encoding="iso-8859-1"?>
<!-- Generator: Adobe Illustrator 16.0.0, SVG Export Plug-In . SVG Version: 6.00 Build 0)  -->
<!DOCTYPE svg PUBLIC "-//W3C//DTD SVG 1.1//EN" "http://www.w3.org/Graphics/SVG/1.1/DTD/svg11.dtd">
<svg version="1.1" id="Capa_1" xmlns="http://www.w3.org/2000/svg" xmlns:xlink="http://www.w3.org/1999/xlink" x="0px" y="0px" width="500px" height="500px" viewbox="0 0 512 512" style="enable-background:new 0 0 512 512;" xml:space="preserve">

	<path d="M250 93.75C140.9580078125 93.75 46.4443359375 157.2470703125 0 250c46.4443359375 92.7529296875 140.9580078125 156.25 250 156.25 109.0390625 0 203.5537109375-63.4970703125 250-156.25C453.5556640625 157.2470703125 359.0390625 93.75 250 93.75zM373.2666015625 176.61328125c29.376953125 18.7373046875 54.26953125 43.8349609375 72.9677734375 73.38671875-18.697265625 29.5517578125-43.5927734375 54.6494140625-72.9677734375 73.38671875C336.35546875 346.9306640625 293.7294921875 359.375 250 359.375c-43.73046875 0-86.35546875-12.4443359375-123.2666015625-35.98828125-29.375-18.73828125-54.267578125-43.8359375-72.9658203125-73.38671875 18.697265625-29.552734375 43.5908203125-54.650390625 72.9658203125-73.38671875 1.9130859375-1.220703125 3.845703125-2.4033203125 5.7900390625-3.564453125C127.6611328125 186.392578125 125 200.7939453125 125 215.8203125c0 69.0341796875 55.96484375 125 125 125 69.0341796875 0 125-55.9658203125 125-125 0-15.0263671875-2.6611328125-29.427734375-7.5224609375-42.7724609375C369.4189453125 174.208984375 371.353515625 175.392578125 373.2666015625 176.61328125zM250 200.1953125c0 25.888671875-20.986328125 46.875-46.875 46.875s-46.875-20.986328125-46.875-46.875 20.986328125-46.875 46.875-46.875S250 174.306640625 250 200.1953125z"/>

</svg>
