<?xml version="1.0" encoding="iso-8859-1"?>
<!-- Generator: Adobe Illustrator 19.0.0, SVG Export Plug-In . SVG Version: 6.00 Build 0)  -->
<svg version="1.1" id="Layer_1" xmlns="http://www.w3.org/2000/svg" xmlns:xlink="http://www.w3.org/1999/xlink" x="0px" y="0px" width="500px" height="500px" viewbox="0 0 470 470" style="enable-background:new 0 0 470 470;" xml:space="preserve">

			<path d="M460.10638297872345 13.2978723404255h-420.2127659574468C17.89574468085109 13.2978723404255 2.842170943040401e-14 31.194680851063797 2.842170943040401e-14 53.1914893617021v319.1489361702128c0 21.996808510638296 17.895744680851063 39.8936170212766 39.8936170212766 39.8936170212766h154.25531914893617v58.51063829787234H138.29787234042556c-4.406382978723404 0-7.9787234042553195 3.572340425531915-7.9787234042553195 7.9787234042553195 0 4.406382978723404 3.572340425531915 7.9787234042553195 7.9787234042553195 7.9787234042553195h223.40425531914894c4.406382978723404 0 7.9787234042553195-3.572340425531915 7.9787234042553195-7.9787234042553195 0-4.406382978723404-3.572340425531915-7.9787234042553195-7.9787234042553195-7.9787234042553195h-55.851063829787236v-58.51063829787234h154.25531914893617c21.997872340425534 0 39.8936170212766-17.896808510638298 39.8936170212766-39.8936170212766V53.1914893617021C500 31.194680851063797 482.10425531914893 13.2978723404255 460.10638297872345 13.2978723404255zM289.89361702127667 470.7446808510638h-79.7872340425532v-58.51063829787234h79.7872340425532V470.7446808510638zM484.04255319148933 372.34042553191483c0 13.197872340425532-10.737234042553192 23.93617021276596-23.93617021276596 23.93617021276596h-420.2127659574468C26.694680851063858 396.2765957446808 15.957446808510667 385.53829787234037 15.957446808510667 372.34042553191483v-23.93617021276596h468.0851063829787V372.34042553191483zM484.04255319148933 332.4468085106382H15.957446808510667V53.1914893617021c0-13.197872340425532 10.737234042553192-23.93617021276596 23.93617021276596-23.93617021276596h420.2127659574468c13.198936170212766 0 23.93617021276596 10.738297872340425 23.93617021276596 23.93617021276596V332.4468085106382zM460.10638297872345 45.21276595744678h-420.2127659574468c-4.406382978723404 0-7.9787234042553195 3.572340425531915-7.9787234042553195 7.9787234042553195v255.31914893617022c0 4.406382978723404 3.572340425531915 7.9787234042553195 7.9787234042553195 7.9787234042553195h345.74468085106383c4.406382978723404 0 7.9787234042553195-3.572340425531915 7.9787234042553195-7.9787234042553195 0-4.406382978723404-3.572340425531915-7.9787234042553195-7.9787234042553195-7.9787234042553195H47.872340425531945v-239.36170212765958h404.25531914893617v239.36170212765958h-34.57446808510638c-4.406382978723404 0-7.9787234042553195 3.572340425531915-7.9787234042553195 7.9787234042553195 0 4.406382978723404 3.572340425531915 7.9787234042553195 7.9787234042553195 7.9787234042553195h42.5531914893617c4.406382978723404 0 7.9787234042553195-3.572340425531915 7.9787234042553195-7.9787234042553195V53.1914893617021C468.0851063829788 48.78510638297868 464.51276595744685 45.21276595744678 460.10638297872345 45.21276595744678z"/>
		
</svg>
