<?xml version="1.0" encoding="iso-8859-1"?>
<!-- Generator: Adobe Illustrator 16.0.0, SVG Export Plug-In . SVG Version: 6.00 Build 0)  -->
<!DOCTYPE svg PUBLIC "-//W3C//DTD SVG 1.1//EN" "http://www.w3.org/Graphics/SVG/1.1/DTD/svg11.dtd">
<svg version="1.1" id="Capa_1" xmlns="http://www.w3.org/2000/svg" xmlns:xlink="http://www.w3.org/1999/xlink" x="0px" y="0px" width="500px" height="500px" viewbox="0 0 548.172 548.172" style="enable-background:new 0 0 548.172 548.172;" xml:space="preserve">

	<path d="M487.7566010458353 45.57411676242328c-8.158920610294524-8.158920610294524-17.963307154739-12.2424854590691-29.425929324618405-12.2424854590691H41.66659054207539c-11.458061565849055 0-21.26427235190567 4.083564848774576-29.428665687036617 12.2424854590691C4.078092123938186 53.73577373513601 2.842170943040401e-14 63.541072400386554 2.842170943040401e-14 75.00004608704168v283.3348223518858c0 11.461710049073336 4.078092123938157 21.266096593517812 12.23792485503875 29.429577807842684 8.164393335130942 8.158920610294524 17.97060412118756 12.23518849262054 29.428665687036617 12.23518849262054h141.66877935715203c0 6.595545548690855-1.3900721084504029 13.372603137789604-4.168392083739069 20.31201823036878-2.7764957336765264 6.944887817415595-5.554815708965193 13.018700265034514-8.333135684253858 18.225085826081038-2.7746714920643867 5.21277040668901-4.16383147970872 9.027259617672991-4.16383147970872 11.456237324236916 0 4.51317374843346 1.6482022965681613 8.42799624808512 4.947343252122694 11.718015995578954 3.2973167139423927 3.3027894387788117 7.203930126339423 4.957376580989461 11.718015995578954 4.957376580989461h133.33290731047995c4.51408586923953 0 8.42161140244263-1.6536750214045803 11.718928116385024-4.957376580989461 3.3018773179727416-3.2891076266877644 4.950079614540903-7.203930126339423 4.950079614540903-11.718015995578954 0-2.251114149380311-1.3918963500625425-6.030030648927568-4.1693042045451385-11.32397980735679-2.778319975288666-5.291212796011015-5.556639950577332-11.461710049073336-8.33131144264172-18.485952376617004-2.778319975288666-7.032451414798298-4.167479962932999-13.759342359563208-4.167479962932999-20.183409196712937h141.66877935715203c11.456237324236916 0 21.260623868681392-4.076267882326017 29.41954447897591-12.23518849262054 8.162569093518803-8.162569093518803 12.2424854590691-17.966955637963277 12.2424854590691-29.429577807842684V75.00004608704168C500.00273498812874 63.541072400386554 495.91917013935404 53.73577373513601 487.7566010458353 45.57411676242328zM466.66563164708293 291.66704660247837c0 2.2574989950228-0.8236450878810458 4.207613278400071-2.472759505255277 5.859464058192512-1.6509386589863708 1.645465934149952-3.6047014255879213 2.4691110220309977-5.862200420610721 2.4691110220309977H41.66659054207539c-2.25567475341066 0-4.209437520012211-0.8236450878810458-5.858551937386442-2.4691110220309977-1.6482022965681613-1.6573235046288595-2.473671626061347-3.6019650631697115-2.473671626061347-5.859464058192512V75.00004608704168c0-2.2574989950228 0.822732967074976-4.209437520012211 2.473671626061347-5.858551937386442 1.650026538180301-1.6463780549560216 3.6037893047818517-2.473671626061347 5.858551937386442-2.473671626061347h416.670466024784c2.253850511798521 0 4.211261761624351 0.8245572086871157 5.855815574968233 2.473671626061347 1.6491144173742314 1.650026538180301 2.472759505255277 3.6019650631697115 2.472759505255277 5.858551937386442V291.66704660247837L466.66563164708293 291.66704660247837z"/>

</svg>
