<?xml version="1.0" encoding="UTF-8" standalone="no"?>
<svg width="500px" height="500px" viewbox="0 0 21 20" version="1.1" xmlns="http://www.w3.org/2000/svg" xmlns:xlink="http://www.w3.org/1999/xlink">
    <!-- Generator: Sketch 3.8.1 (29687) - http://www.bohemiancoding.com/sketch -->

                <path d="M466.6779274050639 77.0104704235815C378.36936602232595-44.9362607721163 214.1995913374556-11.981765853725307 163.75902411543646 105.38796604775015 133.0038038579194 95.4669675775618 98.51685917583816 93.58646786755307 57.69356547082751 122.21146345354973 22.455295904600263 146.92745964231617-1.8884253415755836 185.62170367562393 0.11517434946816252 228.27444709853043 3.170673878308463 293.8866869810696 57.99411542448232 346.1884289160913 125.1897550628544 346.1884289160913L225.36963961502332 346.1884289160913C239.11933749480684 346.1884289160913 250.23928578010216 336.29218044210177 250.38956075692911 322.7589325289406 250.23928578010216 309.2011846195634 239.11933749480684 296.7071865461436 225.36963961502332 296.7071865461436L129.2971294294928 296.7071865461436C92.28066013746573 296.7071865461436 57.868890443792935 272.1644403306524 51.307091455628125 236.21619587391214 42.74171777641621 189.25870311479557 79.20718715340789 148.2634594363004 125.1897550628544 148.2634594363004 134.48145363006532 148.2634594363004 143.27222727452025 150.14370914637 151.4619260116613 153.18670867713408L150.9360010927583 172.113205758647C150.56032615068833 186.14120359552507 161.98082438963664 197.74470180626267 176.1813221999071 197.74470180626267 188.8540702457574 197.74470180626267 199.7736935619412 188.5412032254495 201.2012433418129 176.09645514443 202.6788931139579 163.1819571358461 204.957992762518 147.02645962705319 208.31401724501555 130.6232121564495 228.52531412841634 32.18047733640887 413.9582605344847 10.804480632603003 446.49168051780157 142.64721030233667 458.3379536910959 190.69345289356315 430.5630829740064 235.59769596928854 406.5199116814854 264.395941528575 402.78821225691695 268.84919084187607 400.6844375813214 274.29219000255 400.6844375813214 280.08143910984984 400.6844375813214 301.95218573735804 427.45750845288944 312.9369340435038 443.18575602757915 297.54818641645727 495.52972295609084 246.40944430211275 527.9629679548559 161.62320737621812 466.6779274050639 77.0104704235815L466.6779274050639 77.0104704235815ZM250.43966074920425 322.51168256706626C250.43966074920425 322.5856825556508 250.38956075692911 322.65993254420357 250.38956075692911 322.7589325289406 250.38956075692911 322.8579325136776 250.43966074920425 322.9321825022304 250.43966074920425 323.03118248695284L250.43966074920425 322.51168256706626ZM425.7544587155014 389.92967217115404C425.7544587155014 399.57867068326925 432.86720761870924 415.3631682492811 423.09968412486865 425.0366667576269L359.96131886086346 485.1316574909248C340.4011968770526 504.45415451137126 308.6942517662917 505.19640439691614 289.13412978248084 485.8739073764697L228.6755891052433 427.65916635322685C218.8829906152712 417.9856678448956 218.8829906152712 395.66967128603903 228.65053910910572 395.66967128603903L228.62548911296906 395.66967128603903C238.39303760680357 370.92892510108834 254.32163515059872 383.002423239344 264.0891586444384 392.67592174767526L279.1411813234024 404.5266699202872C287.0303551068844 412.3199187185634 300.5296030252873 406.80291956929034 300.5296030252873 395.76867127077605L300.5296030252873 148.2634594363004C300.5296030252873 134.5817115460337 311.39910134920206 123.5227132513497 325.2239492173974 123.5227132513497L325.34917419808767 123.5227132513497C339.17399706628817 123.5227132513497 350.61954530137314 134.5817115460337 350.61954530137314 148.2634594363004L350.61954530137314 393.78942157598397C350.61954530137314 404.8236698744837 364.0937182236437 410.34066902375673 371.98289200712566 402.54742022548055L387.6860895856778 389.7319222016482C397.4536380795141 380.082923689533 400.70948757745805 380.1324236819015 425.7544587155014 389.806172190201L425.7544587155014 389.92967217115404Z" id="cloud_down-[#1051]"/>
           
</svg>