<?xml version="1.0" encoding="iso-8859-1"?>
<!-- Generator: Adobe Illustrator 16.0.0, SVG Export Plug-In . SVG Version: 6.00 Build 0)  -->
<!DOCTYPE svg PUBLIC "-//W3C//DTD SVG 1.1//EN" "http://www.w3.org/Graphics/SVG/1.1/DTD/svg11.dtd">
<svg version="1.1" id="Capa_1" xmlns="http://www.w3.org/2000/svg" xmlns:xlink="http://www.w3.org/1999/xlink" x="0px" y="0px" width="500px" height="500px" viewbox="0 0 511.626 511.627" style="enable-background:new 0 0 511.626 511.627;" xml:space="preserve">

		<path d="M352.95204142063886 285.0234251772281c14.695218605669345-21.300590857828624 22.047225626381618-44.878222305615985 22.047225626381618-70.72996253144369 0-7.25330268612608-0.7427256859951255-15.066581448666906-2.23404068182218-23.438859016983013l-78.12106037773466 140.06340531908864C318.819887066605 321.62123335463787 338.257800085609 306.31424332866203 352.95204142063886 285.0234251772281zM364.3968578794401 92.07990555656545c0.18665869213824865-0.3694083017186282 0.2736357790508357-1.206929239742079 0.2736357790508357-2.5096310021519503 0-3.163425059955554-1.4874059132691855-5.670124250189102-4.467104093004893-7.5396429834899905-0.5550897232174095-0.3713628429975627-2.367926759429196-1.4414741932142239-5.441442920553761-3.2122885919289175-3.066675266648294-1.7639735042384228-6.00044172632904-3.4859243709797534-8.784685778171294-5.1619435176661215-2.7891304050395895-1.6740646054074342-5.852873859769482-3.3930836602303627-9.207843965060622-5.159988976387187-3.3481292108148684-1.767882586796292-6.230100326603848-3.2093567800105154-8.644936076727474-4.326377120921605-2.4226539152393634-1.1150657996321554-4.093786708728396-1.6740646054074342-5.024148357501237-1.6740646054074342-3.3481292108148684 0-5.95353273563461 1.4903377251875871-7.8123014919013585 4.4651495517259585l-15.062672366109037 27.066487630685522c-16.922418393015253-3.1604932480371524-33.66795080028693-4.743671683974131-50.222915432862486-4.743671683974131-50.03723401136371 0-96.16734000613727 12.651745698543282-138.39422706687856 37.94839620115358C69.38426086089731 152.5328900433713 34.044199996481886 187.03542996976327 5.581192621997638 230.7477684024948 1.8597460269062722 236.51855152854907 5.684341886080802e-14 242.93628781793063 5.684341886080802e-14 250.00488635319738c0 7.066643993987832 1.8597460269062154 13.487312095287798 5.581192621997581 19.25027705622629 16.367328669797846 25.480377382830138 35.76028723938636 48.273260507125286 58.17496662620767 68.35910396009609 22.414679386821312 20.093661618086546 46.91974067146312 36.17660453179941 73.51909293648328 48.273260507125286-8.184641605538388 13.948583837116349-12.276473772987849 22.04331654382375-12.276473772987849 24.27735722564593 0 3.347151940175401 1.48936045454812 5.949623653076742 4.466126822365426 7.80839240934349 22.691246977790552 13.026040353459248 35.152424901637715 19.530753729753396 37.386465583459895 19.530753729753396 3.344220128256999 0 5.95060092371621-1.4942468077454563 7.810346950622424-4.471013175562762l13.672016246147113-24.828537866305467c19.71838969253111-35.14949308971931 49.105895091951396-87.88692587793109 88.17131163401606-158.19861657568276C315.5685076490974 179.69221838480624 344.86512687904724 127.05055811926223 364.3968578794401 92.07990555656545zM154.85439644742584 354.6373446384001C106.4931815827485 332.8745047681035 66.77690279479863 297.9996247280745 35.71631006061038 250.0078181651158c28.2734168704276-43.89997439550925 63.70827298687135-76.73333606969113 106.30456834933126-98.49226685742991-11.346112124215008 19.342140496336217-17.021122727601448 40.26941396988835-17.021122727601448 62.77693406745904 0 19.90211657275096 4.555058450556946 38.77809897406129 13.672016246147113 56.63771991032565 9.11500325431123 17.8586436656249 21.76381714093611 32.640839358206826 37.947418930514104 44.36026886669834L154.85439644742584 354.6373446384001zM259.489786544547 152.34427680995412c-2.6014944422618735 2.6063807954592098-5.771760396693698 3.9081052872296143-9.49125245050613 3.9081052872296143-15.99596582680028 0-29.670913884865794 5.675987874025906-41.0170260090808 17.02014545696198-11.34904393613341 11.350998477412345-17.02014545696198 25.021060182280525-17.02014545696198 41.0170260090808 0 3.724378407009767-1.3056335743282732 6.883894384407451-3.9081052872296143 9.489297909227195-2.6073580660986773 2.6063807954592098-5.76785131413583 3.9081052872296143-9.486366097308794 3.9081052872296143-3.722423865730833 0-6.884871655046919-1.3036790330493386-9.489297909227195-3.9081052872296143-2.6063807954592098-2.6054035248197427-3.9081052872296143-5.768828584775297-3.9081052872296143-9.489297909227195 0-23.24926851292636 8.326345848261143-43.20122588829015 24.97219665030716-59.85000850225457 16.64682807268548-16.64682807268548 36.595853636130876-24.97219665030716 59.8490312316151-24.97219665030716 3.7194920538124308 0 6.882917113767985 1.3056335743282732 9.492229721145597 3.9081052872296143 2.6014944422618735 2.603448983540808 3.905173475311212 5.766874043496362 3.905173475311212 9.486366097308794C263.3890963960214 146.58326639029457 262.08541736297207 149.74571417961067 259.489786544547 152.34427680995412zM494.4168528367236 230.7477684024948c-10.606318250138285-17.669053161568247-24.043789542813254-34.78497114119802-40.31730023122224-51.339935773773576-16.267647064572184-16.55398736193609-33.24870169595547-30.780116060661143-50.92068666944212-42.68718153193037l-17.57816699209779 31.250183238244905c31.06254727546719 21.390499756659615 57.292491238768726 48.73648679023277 78.68005918350994 82.0311202062432-22.500679203094432 34.968698021417865-50.54736928516562 63.52259156537257-84.11368393894796 85.65581700802731-33.57706463081647 22.145929960967813-70.0820320974769 34.881720934505275-109.51783421189965 38.22594106276228l-20.648751341303957 36.83137586024249c41.29652541196844 0 80.31210115142028-8.83257203950519 117.0467272183555-26.50455701299184 36.735603337574695-17.66514407901038 69.06176154987307-42.49954556915265 96.9608837653847-74.49245449339267 13.019199458982975-15.070490531224776 23.15642780217697-28.554870814594175 30.41363957086092-40.45998174458446 3.7194920538124308-6.328804661190043 5.578260810079179-12.749472762490008 5.578260810079179-19.25418613878416C499.9970681880817 243.49430935306643 498.13829943181497 237.07657306368486 494.4168528367236 230.7477684024948z"/>
	
</svg>
