<?xml version="1.0" encoding="iso-8859-1"?>
<!-- Generator: Adobe Illustrator 19.0.0, SVG Export Plug-In . SVG Version: 6.00 Build 0)  -->
<svg version="1.1" id="Layer_1" xmlns="http://www.w3.org/2000/svg" xmlns:xlink="http://www.w3.org/1999/xlink" x="0px" y="0px" width="500px" height="500px" viewbox="0 0 299.998 299.998" style="enable-background:new 0 0 299.998 299.998;" xml:space="preserve">

			<path d="M249.9933332888886 0.0008333388888956961C111.92741284941901 0.0008333388888956961 0 111.93324622164147 0 249.99749998333323c0 138.0625870839139 111.92741284941901 250.00166667777788 249.9933332888886 250.00166667777788s250.0066667111114-111.93907959386397 250.0066667111114-250.00166667777788C499.9983333222222 111.93324622164147 388.0592537283582 0.0008333388888956961 249.9933332888886 0.0008333388888956961zM309.48206321375477 107.60988406589375l52.52868352455683 47.78198521323476h-52.52868352455683V107.60988406589375zM284.6268975126501 357.62988419922794v27.350182334548897 7.408382722551485h-116.26744178294524c-16.78011186741245 0-30.375202501350014-13.598423989493265-30.375202501350014-30.375202501350014V137.98508656724377c0-16.776778511856747 13.598423989493265-30.375202501350014 30.375202501350014-30.375202501350014h128.14918766125106v60.75040500270003h65.4971033140221v132.93921959479732h-21.046806978713192H323.6688244588297v0.016666777778518525h-151.4793431956213v17.29011526743512h151.48434322895486v21.065140434269562h-151.48434322895486v17.29011526743512h112.43741624944168V357.62988419922794zM407.3510490069934 384.9817332115547h-39.04192694617964v39.04192694617964h-27.345182301215342v-39.04192694617964h-39.0469269795132v-27.350182334548897h39.0469269795132v-39.04192694617964h27.345182301215342v39.04192694617964h39.04192694617964C407.3510490069934 357.63321755478364 407.3510490069934 384.9817332115547 407.3510490069934 384.9817332115547z"/>
		
</svg>
