<?xml version="1.0" encoding="iso-8859-1"?>
<!-- Generator: Adobe Illustrator 16.0.0, SVG Export Plug-In . SVG Version: 6.00 Build 0)  -->
<!DOCTYPE svg PUBLIC "-//W3C//DTD SVG 1.1//EN" "http://www.w3.org/Graphics/SVG/1.1/DTD/svg11.dtd">
<svg version="1.1" id="Capa_1" xmlns="http://www.w3.org/2000/svg" xmlns:xlink="http://www.w3.org/1999/xlink" x="0px" y="0px" width="500px" height="500px" viewbox="0 0 406.783 406.783" style="enable-background:new 0 0 406.783 406.783;" xml:space="preserve">

		<path d="M156.2507681967305 315.36732204284317c-24.266068799086323 0-43.931393219944496 19.657949463265503-43.931393219944496 43.92647658154938 0 24.26975627788266 19.665324420858173 43.92770574114816 43.931393219944496 43.92770574114816 24.27467291627777 0 43.93508069874083-19.657949463265503 43.93508069874083-43.92770574114816C200.1858488954713 335.02527150610865 180.52544111300827 315.36732204284317 156.2507681967305 315.36732204284317zM156.2507681967305 378.3912513106151c-10.548647676717598 0-19.0962235266237-8.548805009504882-19.0962235266237-19.09745268622248 0-10.553564315112713 8.547575849906103-19.09745268622248 19.0962235266237-19.09745268622248 10.549876836316377 0 19.103598484216374 8.543888371109766 19.103598484216374 19.09745268622248C175.35436668094687 369.84244630111016 166.80064503304686 378.3912513106151 156.2507681967305 378.3912513106151zM387.90801945932805 315.36732204284317c-24.266068799086323 0-43.93016406034572 19.657949463265503-43.93016406034572 43.92647658154938 0 24.26975627788266 19.664095261259394 43.92770574114816 43.93016406034572 43.92770574114816 24.27590207587655 0 43.93508069874083-19.657949463265503 43.93508069874083-43.92770574114816C431.84310015806886 335.02527150610865 412.1839215352046 315.36732204284317 387.90801945932805 315.36732204284317zM387.90801945932805 378.3912513106151c-10.548647676717598 0-19.09499436702492-8.548805009504882-19.09499436702492-19.09745268622248 0-10.553564315112713 8.546346690307324-19.09745268622248 19.09499436702492-19.09745268622248 10.551105995915155 0 19.10482764381515 8.543888371109766 19.10482764381515 19.09745268622248C407.01284710314314 369.84244630111016 398.4591254552432 378.3912513106151 387.90801945932805 378.3912513106151zM205.67404650401758 180.3896190221732c0 6.155631270683026-5.037096035794537 11.191498146878786-11.191498146878786 11.191498146878786H40.04479056860669c-6.155631270683026 0-11.190268987280005-5.035866876195759-11.190268987280005-11.191498146878786v-6.714898888127271c0-6.154402111084247 5.035866876195759-11.190268987280005 11.190268987280005-11.190268987280005h154.4377577885321c6.155631270683026 0 11.191498146878786 5.035866876195759 11.191498146878786 11.190268987280005V180.3896190221732zM473.99221195978447 245.9124297542619c-16.108136541993023-4.187746753038552-25.32560437323344-6.820606613622227-31.65085966854791-19.035994706283553l-21.150149216182676-42.82269126184623c-6.327713614512024-12.215388092661325-22.761577450181367-22.21091394992857-36.51464420091467-22.21091394992857h-28.9282711572534c0 0-3.891519289732919 0.08112453351938494-3.891519289732919-3.8349779481891058 0-8.979010869077378 0-35.91481431671073 0-35.91481431671073 0-13.922690775364744-7.878913028170567-25.31454193684443-24.638504157516227-25.31454193684443H91.45561994711872c-23.994424527756262 0-35.38627568923595 11.393080321078468-35.38627568923595 25.31454193684443v22.507141413234205c0 0 0 6.694003174948035 6.478900245161787 6.694003174948035 32.98326867362387 0 131.93430385409425 0 131.93430385409425 0 12.341991531335516 0 22.38299629375757 10.039775602823273 22.38299629375757 22.38176713415879v6.714898888127271c0 12.341991531335516-10.041004762422054 22.38176713415879-22.38299629375757 22.38176713415879H62.54824450304456c0 0-6.478900245161787-0.538371904265009-6.478900245161787 6.455546212784994 0 3.4736050261482094 0 5.805320785031136 0 7.740017993508589 0 6.155631270683026 8.436951486016032 6.151943791886691 8.436951486016032 6.151943791886691h88.81169765014604c12.341991531335516 0 22.38299629375757 10.041004762422054 22.38299629375757 22.38176713415879v6.714898888127271c0 12.341991531335516-10.041004762422054 22.38176713415879-22.38299629375757 22.38176713415879H65.90753768650636c0 0-9.83819342862359-0.1819156206192268-9.83819342862359 7.651518502396533 0 13.596963481688425 0 54.38539560755615 0 54.38539560755615 0 13.921461615765965 11.391851161479691 25.31454193684443 25.31454193684443 25.31454193684443 0 0 10.48718969677867 0 13.982919595704892 0 3.1712317648486836 0 3.6383124123845363-1.76630234344479 3.6383124123845363-2.65375557376291 0-31.563589337034628 25.68206065687922-57.239504195919956 57.24687915351263-57.239504195919956 31.567276815830965 0 57.248108313111416 25.678373178082886 57.248108313111416 57.239504195919956 0 0.8911407091144556-0.25320687734838326 2.65375557376291 2.1719250110417145 2.65375557376291 27.717548952456518 0 112.84422612546443 0 112.84422612546443 0 2.2370704697769783 0 2.1461126594673647-1.8855308245263103 2.1461126594673647-2.65375557376291 0-31.563589337034628 25.680831497280444-57.239504195919956 57.24687915351263-57.239504195919956s57.24687915351263 25.678373178082886 57.24687915351263 57.239504195919956c0 0.8911407091144556-0.02212487277801407 2.65375557376291 1.3778879102307653 2.65375557376291 12.709510251370306 0 28.45012807332854 0 28.45012807332854 0 13.760441708325974 0 25.015856154341243-11.25541444601527 25.015856154341243-25.014626994742464v-47.524226727174224C500.0012290699388 249.38849309960767 487.3642392348964 249.38849309960767 473.99221195978447 245.9124297542619zM426.3905481778872 243.6864217208739c0 0-53.123048699610564 0-71.2027572380444 0-2.9413789198770925 0-3.332251672288675-2.8639418651540436-3.332251672288675-2.8639418651540436V181.50938341666046c0 0-0.16593654583510556-2.277632736536671 3.611270901211408-2.277632736536671 5.080116621751786 0 20.31677900821081 0 20.31677900821081 0 12.241200444235673 0 26.863283031305418 8.894198856761657 32.491604834112444 19.763657188760458l18.8208917764973 38.103947562135346c0.7928079412121709 1.5339911792756422 1.6396989047705985 2.895900014722286 2.5468186886691755 4.1164554963093964C430.3115672979908 242.11063911523982 429.19057374390474 243.6864217208739 426.3905481778872 243.6864217208739zM164.50826238132484 252.2167893363971c0 6.155631270683026-5.035866876195759 11.191498146878786-11.190268987280005 11.191498146878786H11.190268987280005C5.03463771659698 263.4082874832759 0 258.37242060708013 0 252.2167893363971v-6.714898888127271c0-6.154402111084247 5.035866876195759-11.190268987280005 11.190268987280005-11.190268987280005h142.12772440676483c6.155631270683026 0 11.190268987280005 5.035866876195759 11.190268987280005 11.190268987280005V252.2167893363971z"/>
	
</svg>
