<?xml version="1.0" encoding="utf-8"?>
<!-- Generator: Adobe Illustrator 16.0.0, SVG Export Plug-In . SVG Version: 6.00 Build 0)  -->
<!DOCTYPE svg PUBLIC "-//W3C//DTD SVG 1.1//EN" "http://www.w3.org/Graphics/SVG/1.1/DTD/svg11.dtd">
<svg version="1.1" id="Capa_1" xmlns="http://www.w3.org/2000/svg" xmlns:xlink="http://www.w3.org/1999/xlink" x="0px" y="0px" width="500px" height="500px" viewbox="0 0 500 500" enable-background="new 0 0 500 500" xml:space="preserve">
<path d="M440.47519099991604 71.42872135001258c0 31.745865166652674-14.681806733271765 53.5712786499874-44.047519099991604 65.4762404500042-2.381202250020989 23.01548988330115-7.936991016707244 43.0547393165981-16.667366300058767 60.11879774997901-8.729325833263369 17.063008983292754-20.833683150029383 30.75308538325917-36.308874149945424 41.071278649987406-15.476240450004196 10.318193266728235-28.969020233397696 17.857442700025185-40.4762404500042 22.61879774997901-11.50826966669465 4.762404500041978-26.389471916715642 9.92045168331794-44.64255729997481 15.476240450004196-16.666316849970613 5.55683821677441-29.166316849970617 9.92045168331794-37.49895054991185 13.096087650071361-8.333683150029383 3.174586516665267-17.65909663336412 7.936991016707244-27.976240450004198 14.285114599949626-10.31714381664008 6.349173033330534-17.857442700025185 14.285114599949626-22.61879774997901 23.80992360003358-4.762404500041978 9.523759549995802-7.936991016707244 21.428721350012594-9.523759549995802 35.71383594996222 27.777894383343128 11.90496180001679 41.66631684997061 33.72932583326337 41.66631684997061 65.4762404500042 0 19.841952816724035-6.944211233313744 36.705566283267565-20.833683150029383 50.59503819998321s-30.754134833347326 20.833683150029383-50.59503819998321 20.833683150029383-36.70661573335572-6.943161783225589-50.59503819998321-20.833683150029383S59.52480900008396 448.4121820166233 59.52480900008396 428.57022919989925c0-30.952480900008393 14.285114599949626-53.174586516665265 42.856393249937035-66.66631684997061V136.9049618000168C73.80992360003358 123.41218201662328 59.52480900008396 101.5878179833767 59.52480900008396 71.42872135001258c0-19.84090336663588 6.944211233313744-36.70661573335572 20.833683150029383-50.59503819998321s30.754134833347326-20.833683150029383 50.59503819998321-20.833683150029383 36.70661573335572 6.945260683401897 50.59503819998321 20.833683150029383 20.833683150029383 30.754134833347326 20.833683150029383 50.59503819998321c0 30.159096633364115-14.285114599949626 51.98346066661069-42.856393249937035 65.4762404500042v121.42767189992443c15.872932583326337-11.90496180001679 43.25413483334732-23.80992360003358 82.14255729997481-35.71383594996222 23.01548988330115-7.142557299974813 39.68285618335992-12.896692133322139 49.99999999999999-17.261355049953824 10.31714381664008-4.364662916631684 20.436991016707246-12.499999999999998 30.357442700025185-24.40496180001679s15.674586516665267-26.983460666610693 17.261355049953824-45.23759549995802c-27.777894383343128-12.697296616572915-41.66631684997061-34.12601796658551-41.66631684997061-64.28511459994962 0-19.84090336663588 6.944211233313744-36.70661573335572 20.833683150029383-50.59503819998321s30.754134833347326-20.833683150029383 50.59503819998321-20.833683150029383 36.70661573335572 6.945260683401897 50.59503819998321 20.833683150029383S440.47519099991604 51.58781798337671 440.47519099991604 71.42872135001258zM90.47728990009236 71.42872135001258c0 11.110528083284358 3.967970783309546 20.635337083368313 11.90496180001679 28.571278649987406 7.936991016707244 7.936991016707244 17.460750566703048 11.90496180001679 28.571278649987406 11.90496180001679s20.833683150029383-3.967970783309546 29.166316849970617-11.90496180001679c8.333683150029383-7.935941566619092 12.499999999999998-17.459701116614895 12.499999999999998-28.571278649987406 0-11.90496180001679-4.166316849970616-21.82541348333473-12.499999999999998-29.761355049953824-8.332633699941232-7.935941566619092-18.055788766686256-11.90496180001679-29.166316849970617-11.90496180001679s-20.635337083368313 3.9690202333976994-28.571278649987406 11.90496180001679S90.47728990009236 59.5237595499958 90.47728990009236 71.42872135001258zM130.95353035009654 469.0454201998153c11.110528083284358 0 20.833683150029383-3.9669213332213915 29.166316849970617-11.90496180001679 8.333683150029383-7.936991016707244 12.499999999999998-17.460750566703048 12.499999999999998-28.571278649987406 0-11.90496180001679-4.166316849970616-21.824364033246578-12.499999999999998-29.761355049953824-8.332633699941232-7.936991016707244-18.055788766686256-11.90496180001679-29.166316849970617-11.90496180001679s-20.635337083368313 3.9669213332213915-28.571278649987406 11.90496180001679-11.90496180001679 17.857442700025185-11.90496180001679 29.761355049953824c0 11.110528083284358 3.967970783309546 20.63428763328016 11.90496180001679 28.571278649987406C110.31819326672824 465.0784988665939 119.84195281672405 469.0454201998153 130.95353035009654 469.0454201998153zM369.0475190999916 111.90391234992863c11.110528083284358 0 20.833683150029383-3.967970783309546 29.166316849970617-11.90496180001679 8.332633699941232-7.935941566619092 12.499999999999998-17.459701116614895 12.499999999999998-28.571278649987406 0-11.90496180001679-4.167366300058769-21.82541348333473-12.499999999999998-29.761355049953824s-18.055788766686256-11.90496180001679-29.166316849970617-11.90496180001679-20.63428763328016 3.9690202333976994-28.571278649987406 11.90496180001679c-7.936991016707244 7.935941566619092-11.90496180001679 17.857442700025185-11.90496180001679 29.761355049953824 0 11.110528083284358 3.9669213332213915 20.635337083368313 11.90496180001679 28.571278649987406C348.41218201662326 107.93699101670724 357.9369910167072 111.90391234992863 369.0475190999916 111.90391234992863z"/>
</svg>
