<?xml version="1.0" encoding="iso-8859-1"?>
<!-- Generator: Adobe Illustrator 16.0.0, SVG Export Plug-In . SVG Version: 6.00 Build 0)  -->
<!DOCTYPE svg PUBLIC "-//W3C//DTD SVG 1.1//EN" "http://www.w3.org/Graphics/SVG/1.1/DTD/svg11.dtd">
<svg version="1.1" id="Capa_1" xmlns="http://www.w3.org/2000/svg" xmlns:xlink="http://www.w3.org/1999/xlink" x="0px" y="0px" width="500px" height="500px" viewbox="0 0 31.771 31.771" style="enable-background:new 0 0 31.771 31.771;" xml:space="preserve">

		<path d="M500 319.77862190297986c0-7.459629958447734-4.390794848959743-13.691725873100273-10.638628379558373-16.776298598534357V187.28363325282908c1.416385435148304-0.5350789421671371 2.297691928129471-1.8727762975849798 2.2819543121833785-3.3678498124637453 0-1.4950735148787655-0.9757321886577206-2.8170332543505157-2.344904775967748-3.304899348679376L250.54304963849148 96.39890116414622c-3.0530974935419-1.0858955002803665-6.389472074113461-1.0858955002803665-9.458307183601452 0L2.360846168616425 180.62662170763204c-1.4006478192022118 0.4878660943288603-2.344904775967748 1.8098258338006108-2.36064239191384 3.304899348679376s0.881306492981167 2.832770870296608 2.2662166962372865 3.3678498124637453l238.39340635140567 92.78898361816c3.3206369646254683 1.2747468916334737 6.987501480064967 1.2747468916334737 10.308138444690435 0l221.93186007179315-86.43098677593873v109.32921797750298c-6.232095914652538 3.0688351094879924-10.622890763612281 9.348143871978806-10.622890763612281 16.760560982588263 0 7.742907045477396 4.72128478382768 14.462869054458794 11.472722024701262 17.34285277259368-6.7514372408735825 13.329760706340151-11.472722024701262 40.681737220648515-11.472722024701262 48.48759472991028 0 10.402564140366989 8.451099763051548 18.837926287472445 18.853663903418536 18.837926287472445 10.386826524420897 0 18.837926287472445-8.435362147105456 18.837926287472445-18.837926287472445 0-7.805857509261765-4.737022399773772-35.157834023570125-11.472722024701262-48.48759472991028C495.2629776002262 334.24149095743866 500 327.5215289484573 500 319.77862190297986zM76.9256705212016 234.02435261272308c0.015737615946092267 26.690996644572486 0.031475231892184534 58.10327807297266 0.031475231892184534 63.09210232788391 0 49.69939115775938 74.80088859177656 90.16080175516261 168.86461910157004 92.69455792248345 94.0479928938474-2.5337561673208553 168.84888148562393-42.9479539168858 168.84888148562393-92.69455792248345 0-4.957349023019065 0-36.38536806736532 0.031475231892184534-63.09210232788391l-163.76563153503614 63.753082197619776c-3.3206369646254683 1.290484507579566-6.987501480064967 1.290484507579566-10.308138444690435 0L76.9256705212016 234.02435261272308z"/>
	
</svg>
