<?xml version="1.0" encoding="utf-8"?>
<!-- Generator: Adobe Illustrator 16.0.0, SVG Export Plug-In . SVG Version: 6.00 Build 0)  -->
<!DOCTYPE svg PUBLIC "-//W3C//DTD SVG 1.1//EN" "http://www.w3.org/Graphics/SVG/1.1/DTD/svg11.dtd">
<svg version="1.1" id="Capa_1" xmlns="http://www.w3.org/2000/svg" xmlns:xlink="http://www.w3.org/1999/xlink" x="0px" y="0px"
	 width="500px" height="500px" viewBox="0 0 500 500" enable-background="new 0 0 500 500" xml:space="preserve">
<path fill-rule="evenodd" clip-rule="evenodd" d="M249.999,22.612c30.813,0.544,61.631,0.848,92.435,1.706
	c26.427,0.735,52.064,5.444,75.052,19.38c30.505,18.492,49.173,45.86,55.157,80.704c3.559,20.725,4.794,42.023,5.115,63.094
	c0.69,45.309,0.426,90.641-0.072,135.956c-0.261,23.784-1.063,47.663-8.975,70.533c-15.339,44.34-46.481,71.257-92.138,79.889
	c-20.626,3.9-42.012,4.804-63.082,5.125c-45.143,0.687-90.308,0.414-135.457-0.071c-23.786-0.256-47.662-1.05-70.548-8.9
	c-44.398-15.229-71.338-46.369-80.088-91.979c-3.955-20.61-4.835-42.007-5.156-63.077c-0.689-45.31-0.426-90.642,0.072-135.957
	c0.26-23.784,1.068-47.662,8.979-70.532C46.629,64.14,77.785,37.244,123.43,28.606c20.625-3.903,42.002-4.344,63.085-5.171
	c21.129-0.829,42.315-0.183,63.477-0.183C249.994,23.039,249.996,22.826,249.999,22.612z M437.778,247.525
	c-0.309-0.007-0.617-0.013-0.926-0.02c0-17.998,0.368-36.006-0.105-53.991c-0.457-17.298-1.12-34.641-2.866-51.844
	c-3.913-38.541-26.894-65.145-64.903-72.334c-20.288-3.837-41.358-4.361-62.106-4.749c-37.815-0.708-75.66-0.622-113.479-0.029
	c-19.77,0.31-39.73,0.981-59.216,4.001c-32.993,5.112-55.516,24.054-64.62,56.773c-2.917,10.483-4.621,21.601-4.879,32.475
	c-0.979,41.3-1.588,82.621-1.44,123.932c0.094,26.288,0.699,52.663,2.979,78.833c3.371,38.698,26.54,65.201,64.564,72.498
	c20.433,3.921,41.684,4.417,62.597,4.813c37.815,0.718,75.657,0.494,113.481,0.075c17.627-0.195,35.299-1.158,52.839-2.892
	c16.254-1.605,31.466-6.927,44.531-17.321c21.185-16.854,29.354-40.079,30.6-65.834C436.51,317.15,436.857,282.324,437.778,247.525z
	 M250.41,134.093c65.032,0.004,116.75,52.305,116.737,118.055c-0.012,64.32-52.548,116.271-117.559,116.248
	c-65.227-0.023-116.79-52.396-116.736-118.57C132.903,185.969,185.603,134.088,250.41,134.093z M250.236,175.231
	c-41.721-0.113-76.072,34.025-76.243,75.771c-0.171,41.646,34.019,76.053,75.77,76.251c41.612,0.198,76.076-34.056,76.244-75.778
	C326.175,209.819,291.913,175.344,250.236,175.231z M371.809,102.097c-15.329,0.005-27.678,12.288-27.619,27.473
	c0.058,15.086,12.714,27.591,27.813,27.479c14.977-0.11,27.097-12.367,27.143-27.447
	C399.19,114.025,387.329,102.091,371.809,102.097z"/>
</svg>
