<?xml version="1.0" encoding="utf-8"?>
<!-- Generator: Adobe Illustrator 16.0.0, SVG Export Plug-In . SVG Version: 6.00 Build 0)  -->
<!DOCTYPE svg PUBLIC "-//W3C//DTD SVG 1.1//EN" "http://www.w3.org/Graphics/SVG/1.1/DTD/svg11.dtd">
<svg version="1.1" id="Capa_1" xmlns="http://www.w3.org/2000/svg" xmlns:xlink="http://www.w3.org/1999/xlink" x="0px" y="0px" width="500px" height="500px" viewbox="0 0 500 500" enable-background="new 0 0 500 500" xml:space="preserve">
<path fill-rule="evenodd" clip-rule="evenodd" d="M498.83698313061166 499.65373524971926c-31.347107558501314 0-61.990151975416246 0-93.77729899740906 0-2.344704104233678-110.39666599386796-40.32391261372775-206.66969498544975-118.67266745908944-285.25639709625494-78.1749120943527-78.41177284260245-173.7601757022552-117.21021531622635-285.1846869614638-119.655965519484 0-31.486181759308504 0-62.99192082810552 0-94.50091944848396C257.63777172600237-8.373455126998776 500.83617476721497 215.5186238974723 498.83698313061166 499.65373524971926zM1.818384961537408 262.9548780618551c142.6977356485311 15.976148817725672 220.01755871135833 94.77798133290452 234.8756813366575 236.53044702282426 30.084574579298568 0 61.06226629190579 0 92.02257372941212 0 3.701764079297563-180.66281943450568-153.66286716842276-332.5079433376908-326.89825506606957-328.67145112636126C1.818384961537408 202.5195321907755 1.818384961537408 233.44833062966146 1.818384961537408 262.9548780618551zM67.05722334643406 367.52020627656543c-35.03366039708559-0.2738023328391505-65.56479354303849 29.15994844736953-65.9027003903122 63.538438976590015-0.37593494905692887 38.2845198409536 27.579065930381578 68.13766625797146 64.54238086366689 68.92647774067473 36.42114285357605 0.7736002419899808 66.5383129486888-28.720995501071847 66.96531420585463-65.58326433533318C133.090305800003 397.6069538902516 103.86082025222986 367.80921985011787 67.05722334643406 367.52020627656543z"/>
</svg>
