<svg id="Capa_6" data-name="Capa 6" width="500px" height="500px" xmlns="http://www.w3.org/2000/svg" viewBox="0 0 500 500"><title>icon6</title><path d="M250,0C111.9,0,0,111.9,0,250S111.9,500,250,500,500,388.1,500,250,388.1,0,250,0ZM217.7,28.5a349.05,349.05,0,0,0-56.2,99.7A334.15,334.15,0,0,1,86,97.6,223.26,223.26,0,0,1,217.7,28.5ZM74.8,110.7a349.54,349.54,0,0,0,81.3,33.5,356.26,356.26,0,0,0-15.9,97.3H26.3A222.72,222.72,0,0,1,74.8,110.7ZM26.3,258.4H140.2a355.63,355.63,0,0,0,15.9,97.3,353.92,353.92,0,0,0-81.3,33.5A222.23,222.23,0,0,1,26.3,258.4ZM86,402.3a341.7,341.7,0,0,1,75.5-30.6,352.51,352.51,0,0,0,56.2,99.7A222.71,222.71,0,0,1,86,402.3Zm155.6,71.3A338.74,338.74,0,0,1,178,367.7a340,340,0,0,1,63.6-7.6Zm0-130.3a358.54,358.54,0,0,0-69.1,8.4,338.69,338.69,0,0,1-15.4-93.3h84.5Zm0-101.7H157.1a338.69,338.69,0,0,1,15.4-93.3,350,350,0,0,0,69.1,8.4Zm0-101.8a342,342,0,0,1-63.6-7.6A335,335,0,0,1,241.6,26.3ZM473.7,241.6h-114a358.7,358.7,0,0,0-15.9-97.3,353.89,353.89,0,0,0,81.5-33.6A223.34,223.34,0,0,1,473.7,241.6ZM414,97.7a333.77,333.77,0,0,1-75.7,30.6,352.84,352.84,0,0,0-56.1-99.8A222.81,222.81,0,0,1,414,97.7ZM258.5,26.4a336.21,336.21,0,0,1,63.4,105.9,347.46,347.46,0,0,1-63.4,7.6Zm0,130.3a348.87,348.87,0,0,0,68.9-8.4,336.7,336.7,0,0,1,15.4,93.2H258.5Zm0,101.7h84.3a340.45,340.45,0,0,1-15.4,93.2,363.49,363.49,0,0,0-68.9-8.4Zm0,101.8a330.78,330.78,0,0,1,63.4,7.6,336.21,336.21,0,0,1-63.4,105.9Zm23.8,111.3a352.84,352.84,0,0,0,56.1-99.8,335.63,335.63,0,0,1,75.7,30.6A223.39,223.39,0,0,1,282.3,471.5Zm142.9-82.2a353.89,353.89,0,0,0-81.5-33.6,358.07,358.07,0,0,0,15.9-97.3h114A222,222,0,0,1,425.2,389.3Z"/></svg>