<?xml version="1.0" encoding="utf-8"?>
<!-- Generator: Adobe Illustrator 16.0.0, SVG Export Plug-In . SVG Version: 6.00 Build 0)  -->
<!DOCTYPE svg PUBLIC "-//W3C//DTD SVG 1.1//EN" "http://www.w3.org/Graphics/SVG/1.1/DTD/svg11.dtd">
<svg version="1.1" id="Capa_1" xmlns="http://www.w3.org/2000/svg" xmlns:xlink="http://www.w3.org/1999/xlink" x="0px" y="0px"
	 width="500px" height="500px" viewBox="0 0 500 500" enable-background="new 0 0 500 500" xml:space="preserve">
<path d="M458.698,453.46c-7.886,0-19.558-0.315-35.015-0.947c-15.456-0.63-27.286-0.945-35.487-0.945
	c-7.571,0-19.084,0.315-34.542,0.945c-15.456,0.632-27.127,0.947-35.014,0.947c-4.416,0-7.729-1.893-9.937-5.678
	c-2.208-3.786-3.312-7.729-3.312-11.829c0-5.363,1.419-9.464,4.258-12.303c2.84-2.838,6.31-4.259,10.41-4.259
	s8.674-0.63,13.722-1.893c5.047-1.261,8.99-2.681,11.829-4.258c5.677-3.47,8.517-15.773,8.517-36.908V273.185
	c0-3.786-0.157-6.468-0.474-8.045c-2.207-0.945-6.624-1.419-13.248-1.419h-177.91c-6.94,0-11.515,0.474-13.722,1.419
	c0,1.577,0,4.259,0,8.045l-0.474,97.944c0,24.92,3.313,39.431,9.937,43.531c2.839,1.578,6.94,2.681,12.302,3.313
	c5.363,0.63,10.41,0.945,15.142,0.945c4.732,0,8.674,1.263,11.829,3.786c3.154,2.523,4.889,6.625,5.205,12.302
	c0,4.417-1.104,8.517-3.312,12.303c-2.208,3.785-5.363,5.836-9.464,6.151c-8.201,0-20.503-0.315-36.907-0.947
	c-16.403-0.63-28.548-0.945-36.434-0.945c-7.571,0-18.769,0.315-33.595,0.945c-14.826,0.632-26.024,0.947-33.595,0.947
	c-4.101,0-7.255-1.893-9.463-5.678c-2.208-3.786-3.312-7.729-3.312-11.829c0-5.363,1.419-9.306,4.258-11.83
	c2.839-2.523,5.993-4.1,9.463-4.731c3.47-0.63,7.571-1.261,12.302-1.893c4.732-0.632,8.517-2.051,11.356-4.258
	c5.678-4.101,8.517-16.719,8.517-37.854l-0.474-14.669V145.902c0-0.63,0.158-2.838,0.474-6.625c0.315-3.785,0.315-7.096,0-9.936
	c-0.315-2.839-0.474-6.151-0.474-9.937c0-3.785-0.315-7.57-0.946-11.356c-0.631-3.785-1.261-6.939-1.893-9.462
	c-0.631-2.524-1.577-5.364-2.838-8.518c-1.262-3.155-2.682-4.732-4.259-4.732c-2.523-1.576-6.466-2.523-11.829-2.838
	c-5.363-0.316-9.937-0.632-13.722-0.947c-3.785-0.315-7.413-1.419-10.882-3.312c-3.47-1.894-5.047-5.994-4.732-12.303
	c0-4.415,0.946-8.517,2.839-12.301c1.893-3.787,5.047-5.836,9.463-6.152c8.202,0,20.504,0.316,36.907,0.947
	c16.403,0.63,28.548,0.947,36.434,0.947c7.255,0,18.453-0.317,33.595-0.947c15.141-0.63,26.181-0.947,33.121-0.947
	c4.416,0,7.728,2.051,9.937,6.152c2.208,4.1,3.312,8.2,3.312,12.301c0,5.362-1.42,9.306-4.258,11.83
	c-2.839,2.523-6.309,3.785-10.41,3.785c-4.101,0-8.517,0.315-13.249,0.947c-4.731,0.63-8.517,1.734-11.356,3.312
	c-5.993,3.786-8.99,17.98-8.99,42.585l0.474,84.224c0,3.785,0,6.625,0,8.517c2.208,0.63,5.678,0.946,10.41,0.946h184.535
	c4.415,0,7.729-0.315,9.936-0.946c0.316-1.892,0.474-4.731,0.474-8.517v-84.224c0-24.605-2.996-38.799-8.99-42.585
	c-3.154-1.893-8.359-2.997-15.614-3.312c-7.255-0.316-13.091-1.42-17.507-3.313c-4.416-1.892-6.624-6.309-6.624-13.249
	c0-4.415,1.104-8.517,3.312-12.301c2.208-3.787,5.521-5.836,9.937-6.152c7.57,0,19.242,0.316,35.014,0.947
	c15.772,0.63,27.287,0.947,34.542,0.947c7.571,0,18.927-0.317,34.068-0.947c15.141-0.63,26.497-0.947,34.067-0.947
	c4.416,0,7.729,2.051,9.937,6.152c2.209,4.1,3.313,8.2,3.313,12.301c0,5.362-1.577,9.306-4.731,11.83
	c-3.155,2.523-6.625,3.785-10.411,3.785c-3.785,0-8.358,0.315-13.721,0.947c-5.363,0.63-9.148,1.734-11.355,3.312
	c-6.31,4.102-9.464,18.297-9.464,42.585l0.474,248.885c0,20.819,2.996,33.121,8.99,36.907c2.838,1.893,6.781,3.153,11.828,3.785
	c5.048,0.63,9.778,0.945,14.195,0.945c4.416,0,8.043,1.421,10.883,4.26c2.839,2.838,4.416,6.781,4.731,11.828
	c0,4.417-0.947,8.517-2.84,12.303C466.269,451.094,463.113,453.145,458.698,453.46z"/>
</svg>
