<?xml version="1.0" encoding="UTF-8" standalone="no"?>
<svg width="500px" height="500px" viewbox="0 0 21 20" version="1.1" xmlns="http://www.w3.org/2000/svg" xmlns:xlink="http://www.w3.org/1999/xlink">

                <path d="M171.875 107.14285714285779C171.875 93.99999999999909 183.075 83.33333333333303 196.875 83.33333333333303 210.675 83.33333333333303 221.875 93.99999999999909 221.875 107.14285714285779 221.875 120.28571428571468 210.675 130.95238095238074 196.875 130.95238095238074 183.075 130.95238095238074 171.875 120.28571428571468 171.875 107.14285714285779L171.875 107.14285714285779ZM400 369.04761904761926C400 382.19047619047615 388.79999999999995 392.8571428571422 375 392.8571428571422L125.00000000000001 392.8571428571422C111.2 392.8571428571422 100.00000000000001 382.19047619047615 100.00000000000001 369.04761904761926 100.00000000000001 355.9047619047624 111.2 345.2380952380945 125.00000000000001 345.2380952380945L375 345.2380952380945C388.79999999999995 345.2380952380945 400 355.9047619047624 400 369.04761904761926L400 369.04761904761926ZM400 273.80952380952385C400 286.95238095238074 388.79999999999995 297.6190476190486 375 297.6190476190486L125.00000000000001 297.6190476190486C111.2 297.6190476190486 100.00000000000001 286.95238095238074 100.00000000000001 273.80952380952385 100.00000000000001 260.66666666666697 111.2 250.0000000000009 125.00000000000001 250.0000000000009L375 250.0000000000009C388.79999999999995 250.0000000000009 400 260.66666666666697 400 273.80952380952385L400 273.80952380952385ZM450 416.66666666666697C450 429.80952380952385 438.8 440.4761904761899 425.00000000000006 440.4761904761899L75.00000000000001 440.4761904761899C61.2 440.4761904761899 50 429.80952380952385 50 416.66666666666697L50 179.6190476190468C50 176.45238095237892 51.32499999999999 173.42857142857156 53.650000000000006 171.21428571428714L100.00000000000001 127.07142857142844 100.00000000000001 154.7619047619055C100.00000000000001 181.07142857142844 122.37499999999999 202.3809523809532 150 202.3809523809532L350 202.3809523809532C377.625 202.3809523809532 400 181.07142857142844 400 154.7619047619055L400 59.52380952381009 425.00000000000006 59.52380952381009C438.8 59.52380952381009 450 70.19047619047615 450 83.33333333333303L450 416.66666666666697ZM150 79.45238095238074L167.27500000000003 62.99999999999909C169.60000000000002 60.785714285714675 172.8 59.52380952381009 176.10000000000002 59.52380952381009L350 59.52380952381009 350 130.95238095238074C350 144.09523809523944 338.8 154.7619047619055 324.99999999999994 154.7619047619055L175 154.7619047619055C161.2 154.7619047619055 150 144.09523809523944 150 130.95238095238074L150 79.45238095238074ZM450 11.904761904762381L160.72500000000002 11.904761904762381C154.10000000000002 11.904761904762381 147.75 14.404761904762381 143.075 18.857142857144026L7.425000000000011 147.78571428571468C2.7250000000000085 152.26190476190368 0.09999999999999432 158.30952380952385 0.09999999999999432 164.64285714285597L0 440.4761904761899C0 466.7619047619055 22.375 488.0952380952376 49.97500000000001 488.0952380952376L450 488.0952380952376C477.625 488.0952380952376 500 466.7857142857147 500 440.4761904761899L500 59.52380952381009C500 33.214285714285325 477.625 11.904761904762381 450 11.904761904762381L450 11.904761904762381Z" id="save_item-[#1410]"/>
           
</svg>