<?xml version="1.0" encoding="iso-8859-1"?>
<!-- Generator: Adobe Illustrator 18.1.1, SVG Export Plug-In . SVG Version: 6.00 Build 0)  -->
<svg version="1.1" id="Capa_1" xmlns="http://www.w3.org/2000/svg" xmlns:xlink="http://www.w3.org/1999/xlink" x="0px" y="0px" width="500px" height="500px" viewbox="0 0 23.625 23.625" style="enable-background:new 0 0 23.625 23.625;" xml:space="preserve">

	<path style="fill:#030104;" d="M249.98941798941797 0C111.93650793650794 0 0 111.93650793650794 0 249.98941798941797s111.93650793650794 250.01058201058203 249.98941798941797 250.01058201058203 250.01058201058203-111.95767195767196 250.01058201058203-250.01058201058203S388.04232804232805 0 249.98941798941797 0zM302.0317460317461 387.44973544973544c-12.867724867724867 5.079365079365079-23.111111111111114 8.931216931216932-30.793650793650794 11.5978835978836-7.661375661375661 2.666666666666667-16.571428571428573 4-26.70899470899471 4-15.576719576719578 0-27.703703703703702-3.8095238095238093-36.33862433862434-11.407407407407408s-12.931216931216932-17.227513227513228-12.931216931216932-28.93121693121693c0-4.550264550264551 0.31746031746031744-9.206349206349207 0.9523809523809523-13.947089947089948 0.656084656084656-4.740740740740741 1.6931216931216932-10.074074074074074 3.111111111111111-16.063492063492063l16.105820105820108-56.88888888888889c1.4179894179894181-5.4603174603174605 2.6455026455026456-10.645502645502646 3.6190476190476195-15.470899470899472 0.9735449735449736-4.867724867724868 1.4391534391534393-9.333333333333334 1.4391534391534393-13.396825396825397 0-7.238095238095239-1.5026455026455026-12.317460317460316-4.4867724867724865-15.174603174603174-3.0264550264550265-2.857142857142857-8.71957671957672-4.253968253968254-17.206349206349206-4.253968253968254-4.148148148148149 0-8.423280423280424 0.6137566137566138-12.804232804232804 1.9047619047619047-4.338624338624339 1.3333333333333335-8.105820105820106 2.5396825396825395-11.195767195767196 3.7248677248677247l4.253968253968254-17.523809523809522c10.53968253968254-4.296296296296297 20.634920634920636-7.9788359788359795 30.264550264550262-11.026455026455027 9.62962962962963-3.0899470899470898 18.73015873015873-4.613756613756614 27.301587301587304-4.613756613756614 15.470899470899472 0 27.40740740740741 3.767195767195767 35.80952380952381 11.216931216931219 8.35978835978836 7.470899470899471 12.571428571428571 17.185185185185187 12.571428571428571 29.12169312169312 0 2.4761904761904763-0.29629629629629634 6.835978835978836-0.8677248677248678 13.058201058201059-0.5714285714285714 6.243386243386243-1.650793650793651 11.936507936507935-3.2169312169312168 17.164021164021165l-16.021164021164022 56.71957671957672c-1.312169312169312 4.550264550264551-2.4761904761904763 9.756613756613758-3.534391534391535 15.576719576719578-1.0370370370370372 5.8201058201058204-1.5449735449735449 10.264550264550264-1.5449735449735449 13.248677248677248 0 7.534391534391534 1.671957671957672 12.677248677248677 5.058201058201058 15.407407407407407 3.343915343915344 2.7301587301587302 9.206349206349207 4.105820105820106 17.502645502645503 4.105820105820106 3.9153439153439153 0 8.296296296296298-0.6984126984126985 13.248677248677248-2.052910052910053 4.910052910052911-1.3544973544973546 8.465608465608467-2.560846560846561 10.708994708994709-3.597883597883598L302.0317460317461 387.44973544973544zM299.1957671957672 157.22751322751324c-7.470899470899471 6.941798941798942-16.465608465608465 10.412698412698413-26.984126984126984 10.412698412698413-10.497354497354497 0-19.555555555555557-3.470899470899471-27.089947089947092-10.412698412698413-7.492063492063492-6.941798941798942-11.280423280423282-15.386243386243386-11.280423280423282-25.24867724867725 0-9.841269841269842 3.8095238095238093-18.306878306878307 11.280423280423282-25.312169312169313 7.534391534391534-7.026455026455027 16.592592592592595-10.518518518518519 27.089947089947092-10.518518518518519 10.518518518518519 0 19.534391534391535 3.4920634920634925 26.984126984126984 10.518518518518519 7.470899470899471 7.005291005291006 11.216931216931219 15.470899470899472 11.216931216931219 25.312169312169313C310.41269841269843 141.86243386243387 306.6666666666667 150.28571428571428 299.1957671957672 157.22751322751324z"/>

</svg>
