<?xml version="1.0" encoding="iso-8859-1"?>
<!-- Generator: Adobe Illustrator 16.0.0, SVG Export Plug-In . SVG Version: 6.00 Build 0)  -->
<!DOCTYPE svg PUBLIC "-//W3C//DTD SVG 1.1//EN" "http://www.w3.org/Graphics/SVG/1.1/DTD/svg11.dtd">
<svg version="1.1" id="Capa_1" xmlns="http://www.w3.org/2000/svg" xmlns:xlink="http://www.w3.org/1999/xlink" x="0px" y="0px" width="500px" height="500px" viewbox="0 0 380.721 380.722" style="enable-background:new 0 0 380.721 380.722;" xml:space="preserve">
		<path d="M106.67314913303692 281.8078712306648c0.40048185977367967-6.523048531993695 0.8009637195473593-13.055708628621957 1.6563929720239392-19.654047750253103 1.5811023823864874-15.644423370199023 4.978790480706386-31.352923837961832 8.450167241224642-46.63370967948636 2.112942292165934-7.621970755212671 4.402096602632287-15.15102971895785 6.80338583383527-22.511886301598082 3.070894900744576-7.184644564339814 6.076110776486268-14.330842870141353 9.073317015032487-21.310440722277043 6.784162704566135-13.624392869500584 14.369289128679627-26.354910227986316 23.423383014442976-37.010931552844376 2.1497866232651126-2.745703630608348 4.280350117261088-5.4065051069446755 6.366059642962412-8.07691814791557 2.3820661019338467-2.3820661019338467 4.765734131306788-4.690443541669336 7.062898078968614-6.998820981404825 4.849034358139714-4.3828734733631505 9.05409388576335-9.129384475400801 13.89511860670759-12.610372800553625 9.64840896566749-7.146198305801541 18.185080288603245-13.939972575002242 26.875536645692097-18.146634030064973 8.376478579026283-4.6728223398392945 15.559521215927-8.728902615627122 22.03611385218695-11.018056926093475 12.693673027386552-5.108546603273058 19.8975407209955-7.6764362881418915 19.8975407209955-7.6764362881418915s-6.143391728928246 4.876267124604324-16.881111353180145 12.786584818854045c-5.547474721585011 3.6203560123540637-11.428150350501724 9.334431187604926-18.42697133190655 15.187874050057028-7.296779485076443 5.582717125245094-13.903128243903064 13.585946610962308-21.75737847778447 21.255975189347822-3.9279260806602503 3.9183145160256823-6.977995924696595 8.841037536363753-10.692865655957247 13.372890261562713-1.805372223859748 2.30837743973549-3.6572003434532427 4.634376081301021-5.566697850854148 6.998820981404825-1.5442580512873088 2.606335943407107-3.144583562942933 5.220681524009688-4.764132203867693 7.891094564980585-6.9331419564019425 10.274762594353525-12.115377221873358 22.335674283297664-17.515474619061653 34.57279799054222-2.2154656482679957 6.402903974061591-4.456562135561508 12.898719739590675-6.747318373466955 19.458612602683548-1.5634811805564455 6.821007035665312-3.293562814778742 13.71570273352898-5.182235265471415 20.584767592367136-2.8386154220758417 14.11618459330266-5.621163383783368 28.514308415885992-6.822608963104408 43.31932180799939-0.8362061232074431 5.369660775845497-1.2366879829811228 10.78577744742474-1.7396931988568647 16.238738450103163 117.63914341735978 0.019223129269136625 208.68949520062537 0.09291179146749369 336.09238635926744 0.09291179146749369 0.42771462623828993-5.584319052684189 0.6696056695415924-11.242326767566736 0.6696056695415924-16.927567248913892 0-107.29870179800335-78.19168022965232-195.67063090310262-178.8087426791916-207.37751662800682 6.495815765529084-6.076110776486268 10.609565429124322-14.694480398815855 10.609565429124322-24.280414194358652 0.03684433109917853-18.425369404467457-14.88991554638541-33.334508080122-33.27844061975369-33.334508080122-18.40774820263741 0-33.352129281952045 14.909138675654548-33.352129281952045 33.334508080122 0 9.605156924811935 4.094526534326101 18.202701490433288 10.607963501685227 24.280414194358652-100.6090528123438 11.706885724904204-178.77990798528788 100.07881483000345-178.77990798528788 207.37751662800682 0 5.6676192795171145 0.20344478476502928 11.250336404762209 0.6231497738078456 16.817034255616356C114.96312363035209 281.8078712306648 126.95835629429332 281.8078712306648 138.71169791493128 281.8078712306648zM342.8565249708449 366.0836718739988c-24.213133241916672 11.762953185272519-108.63951506452563 42.21238994758493-108.63951506452563 42.21238994758493l-99.79847752816188-6.2523227947866875c0 0 57.084684292140295-15.876702848867756 79.21370993579474-20.845881764939573 22.167471902192716-4.951557714241776 12.525470646281605-29.94643154643667 0.2691238097679128-29.94643154643667-12.2547449090746 0-119.06165498327587 4.410106239827761-119.06165498327587 4.410106239827761L27.12143250759317 381.1978572618575l18.76978380387282 118.80214273814254c0 0 14.60156860734836-24.996475759633988 29.166292883597546-24.996475759633988 14.619189809178401 0 141.24835001473772 3.3688534044161935 158.43703143622406 0 17.1982929861209-3.4072996629544665 121.94832822852456-75.06471786853943 134.4930220040753-83.42197331829657C380.4761889505453 383.2627417308506 370.3680268098576 354.30309748689626 346.06037984903435 366.0836718739988z"/>
		
</svg>
