<?xml version="1.0" encoding="iso-8859-1"?>
<!-- Generator: Adobe Illustrator 19.0.0, SVG Export Plug-In . SVG Version: 6.00 Build 0)  -->
<svg version="1.1" id="Layer_1" xmlns="http://www.w3.org/2000/svg" xmlns:xlink="http://www.w3.org/1999/xlink" x="0px" y="0px" width="500px" height="500px" viewbox="0 0 330 330" style="enable-background:new 0 0 330 330;" xml:space="preserve">

	<path id="XMLID_4_" d="M77.59545454545454 272.72727272727275h263.31060606060606c12.551515151515153 0 22.727272727272727-10.175757575757576 22.727272727272727-22.727272727272727s-10.175757575757576-22.727272727272727-22.727272727272727-22.727272727272727H77.59545454545454l29.384848484848483-29.383333333333333c8.875757575757575-8.874242424242425 8.875757575757575-23.265151515151516 0-32.14090909090909-8.872727272727273-8.875757575757575-23.263636363636362-8.875757575757575-32.14090909090909 0L6.662121212121212 233.92575757575756c-0.5272727272727272 0.5257575757575758-1.0242424242424244 1.0757575757575757-1.4969696969696968 1.6515151515151516-0.11515151515151514 0.1409090909090909-0.21363636363636362 0.2924242424242424-0.32575757575757575 0.43636363636363634-0.346969696969697 0.44090909090909086-0.6878787878787879 0.8833333333333333-1 1.35-0.09090909090909091 0.13636363636363635-0.16515151515151516 0.2803030303030303-0.2545454545454546 0.4181818181818182-0.3121212121212121 0.4878787878787879-0.6181818181818182 0.9803030303030303-0.8939393939393939 1.493939393939394-0.05303030303030303 0.10151515151515152-0.09696969696969697 0.2090909090909091-0.15 0.3106060606060606-0.2863636363636364 0.556060606060606-0.5621212121212121 1.1196969696969696-0.8030303030303031 1.7015151515151514-0.030303030303030304 0.07121212121212121-0.05151515151515152 0.14696969696969697-0.0803030303030303 0.21969696969696967-0.24696969696969698 0.6121212121212122-0.47575757575757577 1.2318181818181817-0.6696969696969697 1.8696969696969696-0.02575757575757576 0.0803030303030303-0.03939393939393939 0.16363636363636364-0.062121212121212126 0.24545454545454545-0.18333333333333332 0.6257575757575757-0.3515151515151515 1.2575757575757576-0.4803030303030303 1.9045454545454543-0.03787878787878788 0.19242424242424241-0.05454545454545454 0.39090909090909093-0.08939393939393939 0.5848484848484848-0.09393939393939393 0.5363636363636364-0.18787878787878787 1.0727272727272728-0.2409090909090909 1.6196969696969696C0.03787878787878788 248.48181818181817 0 249.23939393939392 0 250s0.03787878787878788 1.518181818181818 0.11515151515151514 2.2696969696969695c0.05303030303030303 0.5545454545454546 0.15 1.0954545454545455 0.24242424242424243 1.6363636363636365 0.03333333333333333 0.18787878787878787 0.05 0.3803030303030303 0.08787878787878788 0.5666666666666667 0.13030303030303028 0.653030303030303 0.296969696969697 1.2909090909090908 0.4818181818181818 1.9227272727272726 0.022727272727272728 0.07424242424242425 0.03636363636363636 0.15303030303030304 0.05909090909090909 0.22727272727272727 0.19545454545454546 0.6409090909090909 0.42424242424242425 1.2666666666666666 0.6742424242424242 1.8848484848484848 0.02727272727272727 0.06666666666666667 0.04696969696969697 0.13787878787878788 0.07575757575757576 0.20454545454545456 0.24242424242424243 0.5863636363636364 0.5196969696969698 1.153030303030303 0.8090909090909091 1.712121212121212 0.05 0.09848484848484848 0.09242424242424242 0.20151515151515154 0.14393939393939395 0.3 0.2787878787878788 0.5166666666666667 0.5863636363636364 1.0136363636363637 0.903030303030303 1.506060606060606 0.08484848484848485 0.13333333333333333 0.15757575757575756 0.27424242424242423 0.24545454545454545 0.40454545454545454 0.3136363636363636 0.4681818181818182 0.6575757575757576 0.9136363636363636 1.0030303030303032 1.356060606060606 0.1106060606060606 0.14242424242424243 0.2090909090909091 0.2924242424242424 0.3227272727272727 0.43181818181818177 0.47424242424242424 0.5742424242424242 0.9712121212121212 1.1257575757575757 1.4969696969696968 1.6515151515151516l68.17727272727272 68.17727272727272C79.27575757575758 338.69090909090914 85.09242424242424 340.9090909090909 90.9090909090909 340.9090909090909s11.633333333333333-2.2181818181818183 16.06969696969697-6.657575757575758c8.875757575757575-8.875757575757575 8.875757575757575-23.265151515151516 0-32.14090909090909L77.59545454545454 272.72727272727275zM314.089393939394 64.08939393939394c-62.03636363636364 0-119.75454545454545 30.775757575757577-154.39848484848486 82.32272727272726-7 10.416666666666666-4.23030303030303 24.53787878787879 6.1863636363636365 31.53939393939394 10.418181818181818 7 24.53787878787879 4.233333333333333 31.54090909090909-6.1863636363636365 26.18333333333333-38.96212121212121 69.79848484848485-62.22272727272727 116.67121212121212-62.22272727272727C391.5363636363636 109.5439393939394 454.54545454545456 172.55151515151516 454.54545454545456 250s-63.00909090909091 140.4560606060606-140.4560606060606 140.4560606060606c-46.734848484848484 0-90.27878787878788-23.156060606060606-116.48181818181818-61.94090909090909-7.028787878787879-10.401515151515152-21.153030303030302-13.134848484848485-31.55606060606061-6.109090909090909-10.4 7.027272727272727-13.136363636363637 21.154545454545453-6.109090909090909 31.554545454545455 34.66818181818182 51.31515151515152 92.29242424242423 81.95 154.14696969696968 81.95C416.6 435.91060606060614 500 352.5121212121212 500 250S416.6 64.08939393939394 314.089393939394 64.08939393939394z"/>

</svg>
