<?xml version="1.0" encoding="UTF-8" standalone="no"?>
<svg width="500px" height="500px" viewbox="0 0 20 20" version="1.1" xmlns="http://www.w3.org/2000/svg" xmlns:xlink="http://www.w3.org/1999/xlink">
   
                <path d="M450 412.5C450 426.29999999998836 436.25 450 422.45000000000005 450L250 450 250 150 422.45000000000005 150C436.25 150 450 148.70000000001164 450 162.5L450 412.5ZM200 408.6499999999942L150 347.125 150 64.27499999999418 200 122.84999999999127 200 408.6499999999942ZM100 350L72.45000000000005 350C58.625 350 50 326.29999999998836 50 312.5L50 62.5C50 48.70000000001164 58.625 50 72.45000000000005 50L100 50 100 350ZM447.45000000000005 100L255.85000000000014 100C241.2249999999999 100 227.32500000000005 87.34999999999127 217.82500000000005 76.22500000000582L162.42499999999995 14.42500000000291C152.92499999999995 3.2999999999883585 139.0250000000001 0 124.375 0L47.450000000000045 0C19.825000000000045 0 0 9.875000000014552 0 37.5L0 337.5C0 365.12499999998545 19.825000000000045 400 47.450000000000045 400L92.375 400C107.42499999999995 400 121.67499999999995 400.5249999999942 131.17499999999995 412.22499999999127L182.42499999999995 478.42499999998836C191.92499999999995 490.1000000000058 206.17499999999995 500 221.2249999999999 500L447.45000000000005 500C475.04999999999995 500 500 465.12499999998545 500 437.5L500 137.5C500 109.87500000001455 475.04999999999995 100 447.45000000000005 100L447.45000000000005 100Z" id="map_round-[#667]"/>
           
</svg>
