<?xml version="1.0" encoding="UTF-8" standalone="no"?>
<svg width="500px" height="500px" viewbox="0 0 14 20" version="1.1" xmlns="http://www.w3.org/2000/svg" xmlns:xlink="http://www.w3.org/1999/xlink">

    <path d="M374.9971293845514 425.00172236927483C374.9971293845514 438.8014054533169 363.7973865916955 450.00114824617503 349.9977035076412 450.00114824617503L150.00229649235905 450.00114824617503C136.2026134083045 450.00114824617503 125.00287061544884 438.8014054533169 125.00287061544884 425.00172236927483L125.00287061544884 225.0063153539859C125.00287061544884 211.20663226991476 136.2026134083045 200.00688947707116 150.00229649235905 200.00688947707116L349.9977035076412 200.00688947707116C363.7973865916955 200.00688947707116 374.9971293845514 211.20663226991476 374.9971293845514 225.0063153539859L374.9971293845514 425.00172236927483ZM200.00114824617947 100.00918596944123C200.00114824617947 72.43481922720551 222.42563325776803 50.01033421561172 250.0000000000001 50.01033421561172 277.5743667422322 50.01033421561172 299.99885175382053 75.00976009252648 299.99885175382053 100.00918596944123L299.99885175382053 150.0080377232562 200.00114824617947 150.0080377232562 200.00114824617947 100.00918596944123ZM349.9977035076412 150.0080377232562L349.9977035076412 100.00918596944123C349.9977035076412 43.83547602400816 293.474001599947-12.36323334727328 229.1004799669032 2.3864279200834346 181.65156965252743 13.261178176549066 150.00229649235905 58.53513843962449 150.00229649235905 107.20902062197732L150.00229649235905 150.0080377232562 125.00287061544884 150.0080377232562C97.37850502146296 150.0080377232562 75.0040188616282 172.3825238830805 75.0040188616282 200.00688947707116L75.0040188616282 450.00114824617503C75.0040188616282 477.62551384015114 97.37850502146296 500.00000000000455 125.00287061544884 500.00000000000455L374.9971293845514 500.00000000000455C402.62149497853704 500.00000000000455 424.9959811383718 477.62551384015114 424.9959811383718 450.00114824617503L424.9959811383718 200.00688947707116C424.9959811383718 172.3825238830805 402.62149497853704 150.0080377232562 374.9971293845514 150.0080377232562L349.9977035076412 150.0080377232562Z" id="lock_close_round-[#707]"/>
           
</svg>