<?xml version="1.0" encoding="utf-8"?>
<!-- Generator: Adobe Illustrator 16.0.0, SVG Export Plug-In . SVG Version: 6.00 Build 0)  -->
<!DOCTYPE svg PUBLIC "-//W3C//DTD SVG 1.1//EN" "http://www.w3.org/Graphics/SVG/1.1/DTD/svg11.dtd">
<svg version="1.1" id="Capa_1" xmlns="http://www.w3.org/2000/svg" xmlns:xlink="http://www.w3.org/1999/xlink" x="0px" y="0px"
	 width="500px" height="500px" viewBox="0 0 500 500" enable-background="new 0 0 500 500" xml:space="preserve">
<path d="M123.862,172.624V470H24.916V172.624H123.862z M130.315,80.667c0,14.698-5.199,26.888-15.595,36.567
	c-10.397,9.679-23.84,14.52-40.332,14.52h-0.538c-16.491,0-29.756-4.84-39.794-14.52C24.019,107.555,19,95.366,19,80.667
	S24.198,53.78,34.595,44.1s23.84-14.519,40.332-14.519S104.682,34.42,114.72,44.1S129.957,65.969,130.315,80.667z M479.854,299.533
	V470h-98.409V310.824c0-21.151-4.123-37.641-12.367-49.473c-8.246-11.83-20.973-17.745-38.182-17.745
	c-12.547,0-22.943,3.406-31.188,10.218c-8.246,6.811-14.699,15.414-19.36,25.812c-2.15,6.095-3.226,14.162-3.226,24.199V470h-98.947
	c0.358-79.945,0.538-144.655,0.538-194.129c0-49.473,0-79.049,0-88.729l-0.538-14.519h98.947v43.02h-0.538
	c3.942-6.453,8.067-12.01,12.369-16.67s9.857-9.859,16.67-15.594c6.812-5.737,15.594-10.039,26.35-12.907
	c10.755-2.867,22.227-4.48,34.416-4.839c34.058,0,61.483,11.293,82.276,33.878C469.457,222.096,479.854,255.437,479.854,299.533z"/>
</svg>
