<?xml version="1.0" encoding="UTF-8" standalone="no"?>
<svg width="500px" height="500px" viewbox="0 0 20 20" version="1.1" xmlns="http://www.w3.org/2000/svg" xmlns:xlink="http://www.w3.org/1999/xlink">

                <path d="M200 300L300 300 300 200 200 200 200 300ZM500 249.75L411.625 161.375 376.25 196.72500000000582 404.52500000000055 225 350 225 350 150 275 150 275 95.47500000000582 303.27499999999964 123.75 338.625 88.375 250.25 0 250 0.25 249.75 0 161.375 88.375 196.72500000000036 123.75 225 95.47500000000582 225 150 150 150 150 225 95.47499999999945 225 123.75 196.72500000000582 88.39999999999964 161.375 0 249.75 0.25 250 0 250.25 88.39999999999964 338.625 123.75 303.2749999999942 95.47499999999945 275 150 275 150 350 225 350 225 404.5249999999942 196.72500000000036 376.25 161.375 411.6000000000058 249.75 500 250 499.75 250.25 500 338.625 411.6000000000058 303.27499999999964 376.25 275 404.5249999999942 275 350 350 350 350 275 404.52500000000055 275 376.25 303.2749999999942 411.625 338.625 500 250.25 499.75 250 500 249.75Z" id="arrow_all-[#328]"/>
            
</svg>