<svg id="Capa_5" width="500px" height="500px" data-name="Capa 5" xmlns="http://www.w3.org/2000/svg" viewBox="0 0 309.8 500"><title>icon5</title><path d="M374.9,0H125.1a30,30,0,0,0-30,30V470a30,30,0,0,0,30,30H374.9a30,30,0,0,0,30-30V30A30,30,0,0,0,374.9,0ZM204.6,23h90.8a3.6,3.6,0,1,1,0,7.2H204.6a3.6,3.6,0,1,1,0-7.2Zm-11,448.6H158.3a9.5,9.5,0,0,1,0-19h35.3a9.5,9.5,0,1,1,0,19Zm76.2-1.8a12.08,12.08,0,0,1-12.1,12.1H242.2a12.08,12.08,0,0,1-12.1-12.1V454.3a12.08,12.08,0,0,1,12.1-12.1h15.5a12.08,12.08,0,0,1,12.1,12.1Zm71.8,1.8H306.3a9.5,9.5,0,0,1,0-19h35.3a9.5,9.5,0,0,1,0,19Zm47.8-46.7H110.6V54.5H389.4Z" transform="translate(-95.1)"/></svg>