<?xml version="1.0" encoding="iso-8859-1"?>
<!-- Generator: Adobe Illustrator 18.1.1, SVG Export Plug-In . SVG Version: 6.00 Build 0)  -->
<svg version="1.1" id="Capa_1" xmlns="http://www.w3.org/2000/svg" xmlns:xlink="http://www.w3.org/1999/xlink" x="0px" y="0px" height="500px" width="500px" viewbox="0 0 28.359 28.359" style="enable-background:new 0 0 28.359 28.359;" xml:space="preserve">

		<path d="M386.7368977828713 341.4907215586019h57.03706968748622c15.48023096927756-0.052893727685458636 28.016044430731256-11.812932516419096 28.016044430731256-26.30581390223476 0-14.528143870939303-12.535813461453696-26.30581390223476-28.016044430731256-26.30581390223476h-119.2577246881474c-15.49786221183938 0-28.033675673293075 11.777670031295456-28.051306915854894 26.30581390223476 0.017631242561819544 0.33499360867457134 0.12341869793273681 0.7228809450346013 0.12341869793273681 1.0755057962709922 0 0.47604354916912767-0.12341869793273681 1.004980826023714-0.12341869793273681 1.5162868603164807v117.65328161502183c0 15.233393573412085 11.742407546171817 27.610525851809406 26.270551417111122 27.610525851809406 14.492881385815664-0.03526248512363909 26.30581390223476-12.377132278397319 26.30581390223476-27.610525851809406v-57.33680081103715l106.10481773703002 106.14008022215364c10.261383170978974 10.279014413540793 26.887644906774803 10.279014413540793 37.1666593203156 0 10.226120685855335-10.261383170978974 10.226120685855335-26.905276149336625 0-37.1666593203156L386.7368977828713 341.4907215586019zM203.5130250804426 315.18490765636716c-0.03526248512363909-14.528143870939303-12.553444704015515-26.30581390223476-28.068938158416717-26.30581390223476H56.22162471900213c-15.462599726715741 0-28.086569400978533 11.777670031295456-28.086569400978533 26.30581390223476 0 14.492881385815664 12.623969674262794 26.252920174549303 28.086569400978533 26.30581390223476h57.03706968748622l-105.62877418786088 105.54061797505179c-10.173226958169876 10.261383170978974-10.173226958169876 26.905276149336625 0 37.1666593203156 10.296645656102614 10.279014413540793 26.92290739189844 10.279014413540793 37.1666593203156 0l106.12244897959184-106.14008022215364v57.33680081103715c0 15.233393573412085 11.812932516419096 27.575263366685768 26.28818265967294 27.610525851809406 14.563406356062943 0 26.28818265967294-12.377132278397319 26.28818265967294-27.610525851809406v-117.65328161502183c0-0.5113060342927668-0.14104994049455635-1.040243311147353-0.14104994049455635-1.5162868603164807C203.37197513994803 315.90778860140176 203.47776259531895 315.5199012650417 203.5130250804426 315.18490765636716zM296.4649358663553 184.76660642658794c0.017631242561819544 14.528143870939303 12.553444704015515 26.28818265967294 28.051306915854894 26.28818265967294h119.2577246881474c15.48023096927756 0 28.016044430731256-11.760038788733636 28.016044430731256-26.28818265967294 0-14.492881385815664-12.535813461453696-26.217657689425664-28.016044430731256-26.252920174549303h-57.03706968748622l105.59351170273725-105.55824921761361c10.226120685855335-10.296645656102614 10.226120685855335-26.940538634460264 0-37.184290562877415-10.279014413540793-10.261383170978974-26.905276149336625-10.261383170978974-37.1666593203156 0l-106.10481773703002 106.14008022215364V64.57442588266412c0-15.286287301097545-11.812932516419096-27.645788336933045-26.30581390223476-27.645788336933045-14.528143870939303 0-26.270551417111122 12.3595010358355-26.270551417111122 27.645788336933045v117.61801912989819c0 0.5289372768545864 0.12341869793273681 1.004980826023714 0.12341869793273681 1.5339181028783002C296.588354564288 184.07898796667698 296.48256710891707 184.36108784766608 296.4649358663553 184.76660642658794zM177.22484242076965 36.92863754573107c-14.475250143253845 0-26.28818265967294 12.3595010358355-26.28818265967294 27.645788336933045v57.31916956847534l-106.12244897959184-106.14008022215364c-10.243751928417154-10.261383170978974-26.870013664212987-10.261383170978974-37.1666593203156 0-10.173226958169876 10.243751928417154-10.173226958169876 26.887644906774803 0 37.184290562877415l105.62877418786088 105.55824921761361H56.22162471900213c-15.44496848415392 0.052893727685458636-28.068938158416717 11.777670031295456-28.068938158416717 26.270551417111122 0 14.528143870939303 12.623969674262794 26.28818265967294 28.086569400978533 26.28818265967294h119.20483096046193c15.515493454401199 0 28.033675673293075-11.760038788733636 28.068938158416717-26.28818265967294-0.03526248512363909-0.4055185789218495-0.14104994049455635-0.6876184599109623-0.14104994049455635-1.0578745537091727 0-0.5289372768545864 0.14104994049455635-1.004980826023714 0.14104994049455635-1.5339181028783002v-117.60038788733635C203.5130250804426 49.28813858156657 191.7882487768326 36.92863754573107 177.22484242076965 36.92863754573107z"/>
	
</svg>
