<?xml version="1.0" encoding="utf-8"?>
<!-- Generator: Adobe Illustrator 16.0.0, SVG Export Plug-In . SVG Version: 6.00 Build 0)  -->
<!DOCTYPE svg PUBLIC "-//W3C//DTD SVG 1.1//EN" "http://www.w3.org/Graphics/SVG/1.1/DTD/svg11.dtd">
<svg version="1.1" id="Capa_1" xmlns="http://www.w3.org/2000/svg" xmlns:xlink="http://www.w3.org/1999/xlink" x="0px" y="0px"
	 width="500px" height="500px" viewBox="0 0 500 500" enable-background="new 0 0 500 500" xml:space="preserve">
<path d="M233.194,288.969v107.354c0,15.05-5.351,27.76-16.053,38.126C206.439,444.815,193.73,450,179.016,450H71.662
	c-14.716,0-27.424-5.185-38.126-15.552c-10.701-10.366-15.885-23.076-15.551-38.126V199.173c0-19.397,3.846-37.958,11.538-55.683
	c7.693-17.725,17.893-32.942,30.602-45.65c12.708-12.709,27.925-22.91,45.65-30.602c17.725-7.691,36.286-11.538,55.683-11.538
	h17.558c5.016,0,9.365,1.84,13.043,5.518c3.679,3.679,5.351,7.86,5.017,12.541v36.12c0,4.682-1.672,8.862-5.017,12.542
	c-3.345,3.678-7.692,5.351-13.043,5.016h-17.558c-19.731,0-36.621,7.023-50.667,21.069c-14.047,14.047-21.07,30.936-21.07,50.667
	v9.03c0,7.357,2.675,13.712,8.027,19.063c5.35,5.351,11.538,8.026,18.561,8.026h62.707c15.049,0,27.758,5.183,38.125,15.55
	C227.509,261.211,232.859,273.92,233.194,288.969z M484.021,288.969v107.354c0,15.05-5.351,27.76-16.053,38.126
	C457.267,444.815,444.557,450,429.842,450H322.488c-14.716,0-27.424-5.185-38.125-15.552
	c-10.702-10.366-15.887-23.076-15.552-38.126V199.173c0-19.397,3.847-37.958,11.537-55.683c7.692-17.725,17.893-32.942,30.603-45.65
	c12.708-12.709,27.925-22.91,45.648-30.602c17.727-7.691,36.287-11.538,55.685-11.538h17.558c5.018,0,9.365,1.84,13.043,5.518
	c3.679,3.679,5.351,7.86,5.018,12.541v36.12c0,4.682-1.672,8.862-5.018,12.542c-3.344,3.678-7.692,5.351-13.043,5.016h-17.558
	c-19.731,0-36.62,7.023-50.667,21.069c-14.046,14.047-21.069,30.936-21.069,50.667v9.03c0,7.357,2.509,13.712,7.525,19.063
	c5.016,5.351,11.371,8.026,19.063,8.026h62.706c15.05,0,27.758,5.183,38.126,15.55C478.336,261.211,483.686,273.92,484.021,288.969z
	"/>
</svg>
