<?xml version="1.0" encoding="UTF-8" standalone="no"?>
<svg width="500px" height="500px" viewbox="0 0 20 20" version="1.1" xmlns="http://www.w3.org/2000/svg" xmlns:xlink="http://www.w3.org/1999/xlink">
  
    <path d="M250.00218170355276 200.0055324317895L250.00218170355276 250.00509609106888 300.00174536284214 250.00509609106888C300.00174536284214 222.38033716933063 277.6269406253101 200.0055324317895 250.00218170355276 200.0055324317895M250.00218170355276 100.00640511320165L250.00218170355276 150.00596877251013C305.1517004197491 150.00596877251013 350.001309022132 194.85557737489074 350.001309022132 250.00509609106888L400.00087268142136 250.00509609106888C400.00087268142136 167.1558191076278 332.8514586869952 100.00640511320165 250.00218170355276 100.00640511320165M250.00218170355276 0.007277794642902791L250.00218170355276 50.00684145392228C360.2762193541158 50.00684145392228 450.00043634071073 139.73105844051537 450.00043634071073 250.00509609106888L500.0000000000001 250.00509609106888C500.0000000000001 111.93130104595406 388.0759767486808 0.007277794642902791 250.00218170355276 0.007277794642902791M366.3011667750603 455.8532996763774C366.02616917493435 456.62829291310703 366.0011693931043 456.75329182223726 366.3011667750603 455.8532996763774M352.9262834962002 389.453879136849C335.5514351245971 380.103960732546 317.9765884983568 369.45405367313145 299.8017471082054 362.0291184697075 264.6770536375544 347.7042434813288 267.0520329113707 390.0538739007556 241.97725173623678 403.77875412522775 225.67739398330843 412.70367623838905 202.67759470003523 396.52881739462686 188.45271883896714 387.5788954996046 163.60293570030046 371.92903207425337 141.57812790838318 351.3292118466292 123.27828760908335 327.5044197629854 113.90336942296665 315.3295260119434 93.20355006802049 292.4297258559913 95.75352781464437 275.35487486634014 99.80349247104698 248.25511136301287 131.85321277665173 246.90512314420852 122.67829284517177 213.75541243809351 117.77833560656165 196.00556733904017 109.00341218435608 178.53071984010825 102.42846956315964 161.43086906865432 93.62854635912493 138.50606913087034 90.0035779938263 123.8311971968746 64.3288020547808 125.08118628832239 45.778963937184585 125.98117843421136 33.47907127699966 133.90610927421443 22.07917076268143 148.780979462836-8.770560015100159 188.9556288630942-4.120600594786424 243.13015608794598 16.604218541989326 287.20477145359695 45.95396240999219 349.5792271185441 96.25352345123713 408.37871398188366 149.97805460314396 446.37838236291503 186.5277356380849 472.2281567747945 234.67731544198034 495.70295191285044 278.92692928045165 499.6779172237388 311.3266465316716 502.6028916978052 356.6512509888172 485.07804463523865 368.2511497577726 449.9033516009171 367.45115673922385 452.3533302202363 366.67616350250466 454.72830949405983 366.3011667750603 455.8532996763774 366.5761643751863 454.9783073123203 367.1761591390979 453.2033228024324 368.2511497577726 449.9033516009171 369.42613950376574 446.35338258111227 370.00113448584773 444.5783980712244 370.2761320859737 443.7784050526629 369.9261351403585 444.82839588948485 369.1261421218102 447.278374508804 368.27614953960176 449.8283522554506 378.47606052609683 418.8286227866724 379.7260496175792 403.8787532525261 352.9262834962002 389.453879136849M370.2761320859737 443.7784050526629C370.4761303406109 443.1784102887272 370.4761303406109 443.1284107250926 370.2761320859737 443.7784050526629" id="call-[#191]"/>
           
</svg>