<?xml version="1.0" encoding="UTF-8" standalone="no"?>
<svg width="500px" height="500px" viewbox="0 0 20 20" version="1.1" xmlns="http://www.w3.org/2000/svg" xmlns:xlink="http://www.w3.org/1999/xlink">
    
                <path d="M356.0499999999997 136.72500000000582C356.0499999999997 122.92500000000291 367.25 111.72500000000582 381.0499999999997 111.72500000000582 394.85000000000036 111.72500000000582 406.0499999999997 122.92500000000291 406.0499999999997 136.72500000000582 406.0499999999997 150.52500000000873 394.85000000000036 161.72500000000582 381.0499999999997 161.72500000000582 367.25 161.72500000000582 356.0499999999997 150.52500000000873 356.0499999999997 136.72500000000582L356.0499999999997 136.72500000000582ZM450 275L367.1500000000001 196.60000000000582 226.82500000000027 338.2749999999942 140.17500000000018 250.3249999999971 50 338.125 50 50 450 50 450 275ZM450 450L50 450 50 408.8000000000029 139.45000000000027 322.9499999999971 225.875 408.8000000000029 226.5250000000001 408.4250000000029 227.04999999999973 408.8000000000029 364.9000000000001 268.65000000000873 450 356.0500000000029 450 450ZM0 500L500 500 500 0 0 0 0 500Z" id="image-[#987]"/>
          
</svg>