<?xml version="1.0" encoding="iso-8859-1"?>
<!-- Generator: Adobe Illustrator 18.1.1, SVG Export Plug-In . SVG Version: 6.00 Build 0)  -->
<svg version="1.1" id="Capa_1" xmlns="http://www.w3.org/2000/svg" xmlns:xlink="http://www.w3.org/1999/xlink" x="0px" y="0px" viewbox="0 0 31.237 31.237" style="enable-background:new 0 0 31.237 31.237;" xml:space="preserve" width="500px" height="500px">

		<path style="fill:#030104;" d="M69.83705133536243 174.87274800767278H2.842170943040401e-14v155.5046879951973h69.8370513353624l131.95889324059766 97.86471048920599c0 0 24.202067755917476 20.296443065147727 24.202067755917476-0.6562730013178681 0-21.00073604217178 0-333.86688442653883 0-352.9628280990319 0-16.45484500865289-21.288855896408894-0.38415980564948377-21.288855896408894-0.38415980564948377L69.83705133536243 174.87274800767278zM301.18128762919525 144.5241233613636c-6.978903135965622-6.946889818828165-18.199570792644295-6.946889818828165-25.098440635766273 0-6.978903135965622 6.946889818828165-6.978903135965622 18.21557745121302 0 25.098440635766273 22.825495119006824 22.90552841185047 34.14220272709787 52.59788005684182 34.17421604423532 82.54633823893282-0.03201331713745698 30.01248481636592-11.348720925228498 59.89691636418201-34.17421604423532 82.69039816605138-6.978903135965622 6.946889818828165-6.978903135965622 18.183564134075564 0 25.178473928609915 3.441431592276625 3.489451567982811 7.971315967226788 5.186157376268031 12.565226976451864 5.186157376268031 4.497871057812706 0 9.059768749900325-1.6967058082852198 12.533213659314407-5.186157376268031 29.692351644991348-29.75637827926626 44.6105574310463-68.92467179694488 44.57854411390885-107.86887209466128C345.8078517188103 213.1926886212088 330.88964593275534 174.23248166492365 301.18128762919525 144.5241233613636zM349.3293166039306 88.58085166365751c-7.0109164531030785-6.978903135965622-18.23158410978175-6.978903135965622-25.162467270041187 0-6.88286318455325 6.962896477396893-6.88286318455325 18.199570792644295 0 25.162467270041187 38.38396724781092 38.35195393067346 57.495917578872735 88.35675529938126 57.55994421314765 138.56964322948255-0.06402663427491397 50.48500112576966-19.09594367249309 100.71389571443966-57.55994421314765 139.28994286507532-6.914876501690707 6.946889818828165-6.88286318455325 18.135544158369377 0 25.13045395290373 3.5054582265515393 3.3934116165704395 8.035342601501702 5.154144059130574 12.597240293589323 5.154144059130574 4.5298843749501625 0 9.091782067037782-1.7607324425601338 12.565226976451864-5.154144059130574 45.33085706663908-45.45891033518891 67.90024564854626-105.03569352799636 67.90024564854626-164.42039681797905C417.22956225247685 193.12033877602326 394.4841004263136 133.78365546174678 349.3293166039306 88.58085166365751zM408.2978467711264 31.277013987609514c-6.914876501690707-6.978903135965622-18.167557475506836-6.978903135965622-25.13045395290373 0-6.88286318455325 6.946889818828165-6.88286318455325 18.21557745121302 0 25.098440635766273 54.214552572283395 54.214552572283395 81.28181221200327 124.99599676320078 81.28181221200327 196.00153417408035 0 71.21362397227306-26.987226346876234 142.2031547245839-81.28181221200327 196.5297539068484-6.946889818828165 6.930883160259436-6.88286318455325 18.23158410978175 0 25.13045395290373 3.5054582265515393 3.441431592276625 8.067355918639159 5.154144059130574 12.62925361072678 5.154144059130574 4.497871057812706 0 9.027755432762868-1.7127124668539484 12.50120034217695-5.154144059130574 61.17744904968029-61.225469025386474 91.71815359881425-141.5788950404035 91.70214694024553-221.67621451832085C500.01600036994057 172.4077225880886 469.3152292351193 92.29439645160252 408.2978467711264 31.277013987609514z"/>
	
</svg>
