<svg id="Capa_2"  width="500px" height="500px" data-name="Capa 2" xmlns="http://www.w3.org/2000/svg" viewBox="0 0 333.25 500"><title>icon2</title><path d="M350.16,405.11H121.55V61.44H350.16v74h27.29v-99A36.44,36.44,0,0,0,341.07,0H130.67a36.4,36.4,0,0,0-36.4,36.42V463.61A36.38,36.38,0,0,0,130.67,500h210.4a36.41,36.41,0,0,0,36.38-36.39V303.19H350.16ZM317.05,22.79a9.31,9.31,0,1,1-9.31,9.31A9.27,9.27,0,0,1,317.05,22.79Zm-130,3.52h97.56V37H187.08Zm93.2,434.87H191.42v-27.3h88.86Z" transform="translate(-94.27)"/><path d="M216.85,146.85V288.74h24.54l-24.54,58.31,71.6-58.31H427.52V146.85ZM409.58,270.76H282l-4.92,4-15.69,12.78,7.09-16.82H234.78V164.84h174.8Z" transform="translate(-94.27)"/></svg>