<?xml version="1.0" encoding="UTF-8" standalone="no"?>
<svg width="500px" height="500px" viewbox="0 0 21 20" version="1.1" xmlns="http://www.w3.org/2000/svg" xmlns:xlink="http://www.w3.org/1999/xlink">

                <path d="M499.9999999999998 454.42857142857156L464.6500000000003 488.0952380952381 323.22500000000014 353.4047619047615 358.5749999999996 319.7380952380954 499.9999999999998 454.42857142857156ZM174.99999999999977 297.6190476190477C106.07500000000005 297.6190476190477 49.99999999999977 244.21428571428578 49.99999999999977 178.57142857142844 49.99999999999977 112.9285714285711 106.07500000000005 59.52380952380963 174.99999999999977 59.52380952380963 243.92500000000086 59.52380952380963 299.9999999999998 112.9285714285711 299.9999999999998 178.57142857142844 299.9999999999998 244.21428571428578 243.92500000000086 297.6190476190477 174.99999999999977 297.6190476190477L174.99999999999977 297.6190476190477ZM174.99999999999977 11.904761904761926C78.34999999999968 11.904761904761926 2.2737367544323206e-13 86.52380952380963 2.2737367544323206e-13 178.57142857142844 2.2737367544323206e-13 270.6190476190477 78.34999999999968 345.23809523809496 174.99999999999977 345.23809523809496 271.6500000000003 345.23809523809496 349.9999999999998 270.6190476190477 349.9999999999998 178.57142857142844 349.9999999999998 86.52380952380963 271.6500000000003 11.904761904761926 174.99999999999977 11.904761904761926L174.99999999999977 11.904761904761926Z" id="search_left-[#1506]"/>
            
</svg>