<?xml version="1.0" encoding="UTF-8" standalone="no"?>
<svg width="500px" height="500px" viewbox="0 0 20 20" version="1.1" xmlns="http://www.w3.org/2000/svg" xmlns:xlink="http://www.w3.org/1999/xlink">

                <path d="M164.65000000000055 300L50 414.6499999999942 50 300 0 300 0 500 200 500 200 450 85.34999999999945 450 200 335.3500000000058 164.65000000000055 300ZM300 0L300 50 414.65000000000055 50 300 164.64999999999418 335.34999999999945 200 450 85.35000000000582 450 200 500 200 500 0 300 0ZM450 414.6499999999942L335.34999999999945 300 300 335.3500000000058 414.65000000000055 450 300 450 300 500 500 500 500 300 450 300 450 414.6499999999942ZM0 0L0 200 50 200 50 85.35000000000582 163.72500000000036 199.07499999998254 199.07499999999982 163.72500000000582 85.34999999999945 50 200 50 200 0 0 0Z" id="arrow_all-[#376]"/>
           
</svg>