<?xml version="1.0" encoding="iso-8859-1"?>
<!-- Generator: Adobe Illustrator 16.0.0, SVG Export Plug-In . SVG Version: 6.00 Build 0)  -->
<!DOCTYPE svg PUBLIC "-//W3C//DTD SVG 1.1//EN" "http://www.w3.org/Graphics/SVG/1.1/DTD/svg11.dtd">
<svg version="1.1" id="Capa_1" xmlns="http://www.w3.org/2000/svg" xmlns:xlink="http://www.w3.org/1999/xlink" x="0px" y="0px" width="500px" height="500px" viewbox="0 0 475.078 475.077" style="enable-background:new 0 0 475.078 475.077;" xml:space="preserve">

		<path d="M491.58348734313097 344.96230092742655c-5.600133030786522-5.610657618327937-12.415855922606392-8.41335528060655-20.4292768766392-8.41335528060655h-128.30524671738112c-4.2035202640408516 11.216052942885167-11.266570963083954 20.4292768766392-21.18178488585032 27.639671801262104-9.919423757782932 7.2114473833770445-20.98392264007173 10.819275992573848-33.20086385814539 10.819275992573848h-76.93052509272161c-12.217993676827803 0-23.28670239413317-3.608881067950946-33.19981139939125-10.819275992573848-9.917318840274648-7.210394924622903-16.976159704301185-16.422566399622795-21.182837344604458-27.639671801262104H28.845789533508206c-8.011316036524526 0-14.821776634573688 2.8026976622786144-20.432434252901626 8.41335528060655C2.8037501210327846 350.5666437932297 2.842170943040401e-14 357.37710439127886 2.842170943040401e-14 365.39157780406583v96.15368423711473c0 8.009211119016244 2.8037501210327562 14.828091387098537 8.41335528060655 20.42822441788506 5.609605159573795 5.608552700819653 12.420065757622956 8.410197904344127 20.432434252901626 8.410197904344127h442.31263076800013c8.009211119016244 0 14.824934010836113-2.801645203524473 20.42822441788506-8.410197904344127 5.611710077082078-5.6075002420655125 8.41335528060655-12.419013298868816 8.41335528060655-20.42822441788506v-96.15368423711473C499.9999999999999 357.37710439127886 497.1983547964754 350.57401100450863 491.58348734313097 344.96230092742655zM378.9114629597665 446.2204101221273c-3.8109531487461 3.8067433137295343-8.319686451487964 5.7127461174796546-13.528304825733876 5.7127461174796546s-9.71103692446293-1.9060028037501207-13.520937614454887-5.7127461174796546c-3.8035859374671097-3.8025334787129683-5.705378906200665-8.312319240208975-5.705378906200665-13.520937614454887s1.9017929687335549-9.720509053250202 5.705378906200665-13.520937614454887c3.8099006899919585-3.8025334787129683 8.312319240208975-5.7127461174796546 13.520937614454887-5.7127461174796546s9.716299218233635 1.909160180012545 13.528304825733876 5.7127461174796546c3.8025334787129683 3.799376102450544 5.705378906200665 8.312319240208975 5.705378906200665 13.520937614454887S382.7139964384795 442.4168241846601 378.9114629597665 446.2204101221273zM455.82935854743846 446.2204101221273c-3.8035859374671097 3.8067433137295343-8.312319240208975 5.7127461174796546-13.521990073209029 5.7127461174796546-5.207565915491771 0-9.71314184197121-1.9060028037501207-13.520937614454887-5.7127461174796546-3.8025334787129683-3.8025334787129683-5.704326447446523-8.312319240208975-5.704326447446523-13.520937614454887s1.9017929687335549-9.720509053250202 5.704326447446523-13.520937614454887c3.8067433137295343-3.8025334787129683 8.312319240208975-5.7127461174796546 13.520937614454887-5.7127461174796546 5.208618374245912 0 9.717351676987777 1.909160180012545 13.521990073209029 5.7127461174796546 3.8067433137295343 3.799376102450544 5.711693658725513 8.312319240208975 5.711693658725513 13.520937614454887S459.63925923743045 442.4168241846601 455.82935854743846 446.2204101221273zM115.38315813403274 182.69736759016416h76.9231578814426v134.61894678347554c0 5.207565915491771 1.9038978862418376 9.716299218233635 5.70853628246309 13.520937614454887 3.8067433137295343 3.8025334787129683 8.314424157717257 5.711693658725513 13.520937614454887 5.711693658725513h76.93052509272161c5.207565915491771 0 9.71103692446293-1.9081077212584034 13.520937614454887-5.711693658725513 3.8035859374671097-3.8035859374671097 5.705378906200665-8.312319240208975 5.705378906200665-13.520937614454887V182.69736759016416h76.92526279895088c8.416512656868976 0 14.327121020127217-4.008815394524688 17.727615254758163-12.019078972295073 3.406808987155793-7.811348873237656 2.00177655037699-14.723897970438536-4.206677640303275-20.734489915340212L263.51988515570076 15.32695683656163c-3.608881067950946-3.8067433137295343-8.110247159413822-5.710641199971372-13.520937614454887-5.710641199971372-5.4054281612703585 0-9.913109005258082 1.9038978862418376-13.520937614454887 5.710641199971372L101.86327297833199 149.94379870252888c-6.211611566942691 6.0105919449016785-7.612434168704927 12.918931207085992-4.208782557811559 20.734489915340212C101.0634043251845 178.69276203065604 106.97190777093446 182.69736759016416 115.38315813403274 182.69736759016416z"/>
	
</svg>
