<?xml version="1.0" encoding="iso-8859-1"?>
<!-- Generator: Adobe Illustrator 16.0.0, SVG Export Plug-In . SVG Version: 6.00 Build 0)  -->
<!DOCTYPE svg PUBLIC "-//W3C//DTD SVG 1.1//EN" "http://www.w3.org/Graphics/SVG/1.1/DTD/svg11.dtd">
<svg version="1.1" id="Capa_1" xmlns="http://www.w3.org/2000/svg" xmlns:xlink="http://www.w3.org/1999/xlink" x="0px" y="0px" width="500px" height="500px" viewbox="0 0 32.707 32.707" style="enable-background:new 0 0 32.707 32.707;" xml:space="preserve">

	<path d="M328.3217917387195 68.9586420480851c0 38.01820943772722-30.894572285342463 68.91278172306968-68.91278172306968 68.91278172306968-38.06406976274258 0-68.92806849807481-30.894572285342463-68.92806849807481-68.91278172306968 0-38.06406976274258 30.879285510337347-68.95864204808504 68.92806849807481-68.95864204808504C297.4577930033872 5.684341886080802e-14 328.3217917387195 30.89457228534252 328.3217917387195 68.9586420480851zM259.45487034066514 423.1379321416524c-21.18747015709285-0.030573550010235-38.41566558786027 17.10590123072648-38.47681268788074 38.33923171283468-0.0458603250153525 21.26390403211844 17.075327680716246 38.492099462885854 38.29337138781933 38.52267301289609 21.24861725711332 0.06114710002047 38.47681268788074-17.075327680716246 38.50738623789098-38.30865816282444C297.8552491535204 440.42727467244026 280.6882008227734 423.1990792416729 259.45487034066514 423.1379321416524zM480.79208563976147 265.2561198887989c0-13.849818154636454-11.220492853756243-25.085597783397816-25.085597783397816-25.085597783397816-13.880391704646689 0-25.131458108413167 11.189919303746008-25.131458108413167 25.085597783397816 0 13.819244604626219 11.205206078751125 25.11617133340805 25.131458108413167 25.11617133340805C469.55630601100006 290.3570044472018 480.79208563976147 279.10593804343534 480.79208563976147 265.2561198887989zM106.9387161146079 265.2561198887989c0-24.229538383111233-19.628219106570867-43.87304426468722-43.87304426468722-43.87304426468722s-43.85775748968211 19.643505881575983-43.85775748968211 43.87304426468722c0 24.214251608106117 19.612932331565748 43.85775748968211 43.85775748968211 43.85775748968211S106.9387161146079 289.470371496905 106.9387161146079 265.2561198887989zM412.16975264178893 112.41894338763414c-7.704534602579219-7.735108152589454-20.16325623174998-7.704534602579219-27.898364384339434 0-7.719821377584337 7.735108152589454-7.719821377584337 20.30083720679604 0 28.00537180937526 7.735108152589454 7.735108152589454 20.193829781760215 7.735108152589454 27.898364384339434 0S419.87428724436825 120.15405154022359 412.16975264178893 112.41894338763414zM152.46273207984783 372.2941184746316c-17.610364805895355-17.518644155864653-46.15077374044973-17.518644155864653-63.745851771339964-0.030573550010235-17.59507803089024 17.518644155864653-17.610364805895355 46.043766315413905 0 63.59298402128879 17.610364805895355 17.549217705874888 46.135486965444606 17.579791255885123 63.71527822132973 0C170.07309688574315 418.3531715650506 170.07309688574315 389.84333618050647 152.46273207984783 372.2941184746316zM416.5876306182679 422.38888016640163c10.058697953367314-10.119845053387785 10.058697953367314-26.507267858873742-0.030573550010235-36.62711291226152-10.058697953367314-10.058697953367314-26.384973658832802-10.058697953367314-36.45895838720523 0.06114710002047-10.058697953367314 10.08927150337755-10.058697953367314 26.476694308863507 0 36.61182613725641C390.2026569594351 432.5087252197894 406.4983591148904 432.5087252197894 416.5876306182679 422.38888016640163zM153.5939534302265 159.3952029783602c18.160688706079586-18.175975481084706 18.160688706079586-47.67945124096148 0-65.90128704706153-18.160688706079586-18.175975481084706-47.61830414094101-18.175975481084706-65.80956639703082 0-18.160688706079586 18.175975481084706-18.160688706079586 47.67945124096148 0.0152867750051175 65.90128704706153S135.4179779491418 177.60175200945514 153.5939534302265 159.3952029783602z"/>

</svg>
