<?xml version="1.0" encoding="iso-8859-1"?>
<!-- Generator: Adobe Illustrator 19.0.0, SVG Export Plug-In . SVG Version: 6.00 Build 0)  -->
<svg version="1.1" id="Capa_1" xmlns="http://www.w3.org/2000/svg" xmlns:xlink="http://www.w3.org/1999/xlink" x="0px" y="0px" width="500px" height="500px" viewbox="0 0 60 60" style="enable-background:new 0 0 60 60;" xml:space="preserve">
<path d="M458.45000000000005 378.24166666666673l-79.60833333333335-39.800000000000004C371.33333333333337 334.68333333333334 366.6666666666667 327.1333333333334 366.6666666666667 318.73333333333335v-28.175c1.9083333333333334-2.333333333333334 3.9166666666666665-4.991666666666667 5.991666666666667-7.925 10.325000000000001-14.583333333333334 18.6-30.81666666666667 24.61666666666667-48.32500000000001C409.0333333333334 228.91666666666666 416.6666666666667 217.29166666666666 416.6666666666667 204.16666666666666v-33.333333333333336c0-8.025-3-15.8-8.333333333333334-21.875v-44.325c0.46666666666666673-4.583333333333334 2.3000000000000003-31.866666666666667-17.433333333333334-54.37500000000001C373.78333333333336 30.733333333333317 346.0083333333334 20.833333333333314 308.33333333333337 20.833333333333314s-65.45 9.9-82.56666666666666 29.416666666666668c-11.958333333333334 13.641666666666667-15.983333333333334 29.008333333333333-17.200000000000003 40.041666666666664C194.28333333333336 82.9083333333333 177.45000000000002 79.16666666666666 158.33333333333334 79.16666666666666c-86.575 0-91.61666666666667 73.79166666666667-91.66666666666667 75v38.15833333333333c-5.4 5.883333333333334-8.333333333333334 12.675-8.333333333333334 19.416666666666668v28.78333333333334c0 8.991666666666667 4.025 17.375 10.925 23.041666666666668 6.875 25.916666666666668 23.783333333333335 45.5 30.36666666666667 52.37500000000001v22.858333333333334c0 6.5583333333333345-3.566666666666667 12.575-9.758333333333335 15.958333333333334l-55.44166666666667 34.775000000000006C13.191666666666666 401.1166666666667 0 423.3416666666667 0 447.52500000000003V479.1666666666667h116.66666666666667 16.666666666666668 366.6666666666667v-33.69166666666667C500.00000000000006 416.825 484.07500000000005 391.05833333333334 458.45000000000005 378.24166666666673zM116.66666666666667 443.85V462.50000000000006H16.666666666666668v-14.975c0-18.083333333333336 9.866666666666667-34.7 26.175-43.608333333333334l55.43333333333334-34.775000000000006c11.108333333333334-6.058333333333334 18.008333333333336-17.675 18.008333333333336-30.34166666666667v-29.925000000000004l-2.6500000000000004-2.475c-0.21666666666666667-0.2-22.358333333333334-21.116666666666667-28.900000000000002-49.62500000000001l-0.7583333333333334-3.3000000000000003-2.8500000000000005-1.8333333333333335C77.29166666666667 249.15833333333333 75 244.99999999999997 75 240.52499999999998v-28.78333333333334c0-3 2.041666666666667-6.566666666666667 5.591666666666668-9.783333333333333L83.33333333333334 199.48333333333332l-0.01666666666666667-44.833333333333336C83.46666666666667 152.25833333333333 87.80833333333335 95.83333333333331 158.33333333333334 95.83333333333331c19.941666666666666 0 36.73333333333334 4.608333333333334 50 13.700000000000001v39.425000000000004c-5.333333333333334 6.075-8.333333333333334 13.85-8.333333333333334 21.875v33.333333333333336c0 2.5333333333333337 0.29166666666666674 5.025 0.8416666666666668 7.441666666666667 0.225 0.9666666666666668 0.675 1.85 0.9833333333333334 2.7833333333333337 0.45833333333333337 1.4000000000000001 0.8250000000000001 2.8416666666666672 1.4666666666666668 4.166666666666667 0.008333333333333335 0.01666666666666667 0.01666666666666667 0.025 0.025 0.04166666666666667 2.1333333333333337 4.4 5.241666666666667 8.333333333333334 9.158333333333333 11.475000000000001 0.04166666666666667 0.15833333333333335 0.09166666666666667 0.3 0.13333333333333336 0.45 0.5 1.9083333333333334 1.0250000000000001 3.8083333333333336 1.5916666666666668 5.666666666666668l0.675 2.1750000000000003c0.11666666666666668 0.38333333333333336 0.25833333333333336 0.775 0.38333333333333336 1.1583333333333334 0.29166666666666674 0.9 0.5750000000000001 1.7916666666666667 0.875 2.6750000000000003 0.5 1.4583333333333333 1.0250000000000001 2.966666666666667 1.6333333333333335 4.608333333333334 0.25833333333333336 0.6833333333333335 0.5416666666666667 1.3 0.8083333333333335 1.975 0.6833333333333335 1.7416666666666667 1.366666666666667 3.4250000000000003 2.0833333333333335 5.091666666666667 0.17500000000000002 0.4 0.325 0.8333333333333335 0.5 1.225l0.46666666666666673 1.05c0.21666666666666667 0.4833333333333334 0.4416666666666667 0.9166666666666667 0.6583333333333334 1.3916666666666668 0.8166666666666668 1.7833333333333334 1.616666666666667 3.5083333333333333 2.45 5.175000000000001 0.13333333333333336 0.2666666666666667 0.25833333333333336 0.5583333333333335 0.3916666666666667 0.8250000000000001 0.525 1.0416666666666667 1.05 2.025 1.5750000000000002 3.025 0.9 1.7166666666666668 1.7833333333333334 3.333333333333334 2.666666666666667 4.9 0.43333333333333335 0.7666666666666667 0.8583333333333334 1.5166666666666668 1.2833333333333334 2.241666666666667 1.2 2.0500000000000003 2.3416666666666672 3.9333333333333336 3.45 5.6833333333333345 0.2416666666666667 0.375 0.47500000000000003 0.7666666666666667 0.7083333333333335 1.1250000000000002 2.0166666666666666 3.125 3.766666666666667 5.658333333333334 5.216666666666667 7.633333333333334 0.38333333333333336 0.525 0.7166666666666667 0.9750000000000001 1.0416666666666667 1.416666666666667 0.18333333333333335 0.2416666666666667 0.43333333333333335 0.5916666666666667 0.5916666666666667 0.8083333333333335v27.575000000000003c0 8.066666666666666-4.4 15.466666666666669-11.475000000000001 19.333333333333332l-22.05 12.025000000000002-3.8416666666666672-0.34166666666666673-1.5666666666666669 3.291666666666667-46.88333333333334 25.575000000000003C131.675 391.03333333333336 116.66666666666667 416.31666666666666 116.66666666666667 443.85zM483.33333333333337 462.50000000000006H133.33333333333334v-18.650000000000002c0-21.425000000000004 11.683333333333334-41.116666666666674 30.491666666666667-51.36666666666667l74.34166666666667-40.55C250.60833333333335 345.1416666666667 258.33333333333337 332.1166666666667 258.33333333333337 317.95833333333337v-33.483333333333334-0.008333333333333335l-1.616666666666667-1.9333333333333336-0.3166666666666667-0.375c-0.01666666666666667-0.025-0.5333333333333334-0.65-1.3750000000000002-1.75-0.05-0.06666666666666668-0.1-0.13333333333333336-0.15833333333333335-0.2-0.4416666666666667-0.5750000000000001-0.9583333333333335-1.2666666666666668-1.55-2.091666666666667-0.008333333333333335-0.01666666666666667-0.01666666666666667-0.025-0.025-0.04166666666666667-1.2416666666666667-1.725-2.8000000000000003-3.966666666666667-4.533333333333334-6.666666666666668-0.04166666666666667-0.05833333333333334-0.075-0.125-0.11666666666666668-0.18333333333333335-0.8166666666666668-1.2750000000000001-1.6833333333333336-2.666666666666667-2.566666666666667-4.141666666666667-0.06666666666666668-0.10833333333333334-0.13333333333333336-0.21666666666666667-0.2-0.33333333333333337-1.8833333333333335-3.1583333333333337-3.8833333333333337-6.733333333333334-5.875-10.691666666666666 0 0-0.008333333333333335-0.008333333333333335-0.008333333333333335-0.01666666666666667-1.0583333333333333-2.125-2.1166666666666667-4.358333333333333-3.1500000000000004-6.6833333333333345l0 0c-0.1416666666666667-0.325-0.29166666666666674-0.6416666666666667-0.43333333333333335-0.9666666666666668h0c-0.45833333333333337-1.0416666666666667-0.9166666666666667-2.1333333333333337-1.3833333333333335-3.2583333333333337-0.16666666666666669-0.4083333333333334-0.33333333333333337-0.8333333333333335-0.5-1.25-0.43333333333333335-1.0916666666666668-0.875-2.191666666666667-1.3416666666666668-3.45-0.85-2.266666666666667-1.6500000000000001-4.633333333333334-2.4166666666666665-7.075l-0.45833333333333337-1.4833333333333334c-0.05-0.16666666666666669-0.10833333333333334-0.33333333333333337-0.15833333333333335-0.5083333333333333-0.7833333333333334-2.6333333333333337-1.5333333333333334-5.325-2.166666666666667-8.091666666666667l-0.7583333333333334-3.3000000000000003-2.8416666666666672-1.8333333333333335C219.55 215.025 216.66666666666669 209.79999999999998 216.66666666666669 204.16666666666666v-33.333333333333336c0-4.675000000000001 1.9833333333333334-9.033333333333335 5.583333333333334-12.291666666666668L225.00000000000003 156.06666666666666V104.16666666666666v-2.95l-0.225-0.17500000000000002c-0.2833333333333334-6.016666666666667 0.075-24.458333333333336 13.525-39.800000000000004C252.10833333333335 45.48333333333332 275.67500000000007 37.49999999999998 308.33333333333337 37.49999999999998c32.541666666666664 0 56.05833333333334 7.925 69.88333333333333 23.566666666666666 16.225 18.34166666666667 13.541666666666668 41.80833333333334 13.525 42.00833333333334L391.6666666666667 156.06666666666666l2.7500000000000004 2.4833333333333334C398.0166666666667 161.79999999999998 400 166.1583333333333 400 170.83333333333331v33.333333333333336c0 7.275-4.766666666666667 13.641666666666667-11.85 15.825000000000001l-4.15 1.2750000000000001-1.3333333333333335 4.125c-5.575000000000001 17.34166666666667-13.51666666666667 33.358333333333334-23.61666666666667 47.608333333333334-2.475 3.5083333333333333-4.883333333333334 6.616666666666667-6.9750000000000005 8.991666666666667L350 284.35833333333335v34.375c0 14.750000000000002 8.191666666666666 28.008333333333336 21.383333333333333 34.608333333333334l79.60833333333335 39.800000000000004C470.94166666666666 403.11666666666673 483.33333333333337 423.1666666666667 483.33333333333337 445.475V462.50000000000006z"/>

</svg>
