<?xml version="1.0" encoding="utf-8"?>
<!-- Generator: Adobe Illustrator 16.0.0, SVG Export Plug-In . SVG Version: 6.00 Build 0)  -->
<!DOCTYPE svg PUBLIC "-//W3C//DTD SVG 1.1//EN" "http://www.w3.org/Graphics/SVG/1.1/DTD/svg11.dtd">
<svg version="1.1" id="Capa_1" xmlns="http://www.w3.org/2000/svg" xmlns:xlink="http://www.w3.org/1999/xlink" x="0px" y="0px"
	 width="500px" height="500px" viewBox="0 0 500 500" enable-background="new 0 0 500 500" xml:space="preserve">
<path fill-rule="evenodd" clip-rule="evenodd" d="M253.791,410.64c-27.223,0-54.447,0-81.671,0
	c-0.386-0.039-0.774-0.106-1.162-0.108c-9.117-0.072-18.233-0.104-27.349-0.209c-21.739-0.244-43.478-0.456-65.205-1.413
	c-6.145-0.27-12.094-1.321-17.92-3.224c-8.377-2.733-15.944-6.82-22.151-13.196c-5.339-5.484-9.141-11.945-12.044-18.968
	c-4.401-10.642-6.733-21.815-8.444-33.139c-1.473-9.761-2.514-19.574-2.983-29.434c-0.627-13.197-1.263-26.399-1.497-39.608
	c-0.27-15.31-0.189-30.627-0.109-45.94c0.1-18.791,0.573-37.571,2.387-56.293c0.807-8.322,1.958-16.591,3.771-24.759
	c2.687-12.102,6.949-23.605,13.196-34.336c4.161-7.147,9.686-12.932,17.099-16.785c5.212-2.708,10.758-4.461,16.465-5.725
	c11.873-2.63,23.921-3.963,36.05-4.48c12.056-0.514,24.116-0.946,36.181-1.18c17.409-0.338,34.821-0.462,52.232-0.686
	c1.962-0.024,3.922-0.103,5.884-0.156c22.96,0,45.918,0,68.881,0c0.416,0.037,0.839,0.104,1.256,0.108
	c7.608,0.061,15.219,0.051,22.826,0.179c24.005,0.403,48.007,0.761,72.005,1.334c11.438,0.271,22.87,0.879,34.291,1.539
	c8.283,0.477,16.492,1.688,24.627,3.344c9.337,1.902,18.423,4.576,26.979,8.871c13.293,6.672,22.717,16.845,28.039,30.786
	c3.848,10.08,5.617,20.596,6.396,31.274c0.624,8.564,1.044,17.157,1.14,25.742c0.23,20.66,0.167,41.324,0.313,61.985
	c0.174,24.072,0.413,48.145-0.81,72.198c-0.513,10.09-1.37,20.146-3.187,30.096c-1.565,8.574-3.974,16.888-7.831,24.738
	c-3.539,7.201-7.984,13.846-12.637,20.354c-2.294,3.208-5.163,5.832-8.661,7.729c-3.429,1.861-7.106,3.007-10.889,3.857
	c-8.346,1.869-16.839,2.617-25.349,3.082c-9.724,0.53-19.457,0.991-29.191,1.174c-19.543,0.374-39.087,0.604-58.633,0.77
	c-21.776,0.183-43.555,0.222-65.328,0.335C258.437,410.508,256.112,410.587,253.791,410.64z M210.489,170.251
	c0.142,50.677,0.285,101.208,0.426,151.853c8.724-3.739,109.289-71.83,114.055-77.199
	C286.96,219.775,249.073,194.489,210.489,170.251z"/>
</svg>
