<?xml version="1.0" encoding="UTF-8" standalone="no"?>
<svg width="500px" height="500px" viewbox="0 0 21 20" version="1.1" xmlns="http://www.w3.org/2000/svg" xmlns:xlink="http://www.w3.org/1999/xlink">
    
    <path d="M75.00000000000001 345.2380952380953C116.425 345.2380952380953 150 377.21428571428567 150 416.66666666666663 150 456.1190476190476 116.425 488.0952380952381 75.00000000000001 488.0952380952381 33.575 488.0952380952381 0 456.1190476190476 0 416.66666666666663 0 377.21428571428567 33.575 345.2380952380953 75.00000000000001 345.2380952380953L75.00000000000001 345.2380952380953ZM75.00000000000001 392.8571428571429C61.22499999999998 392.8571428571429 50 403.54761904761904 50 416.66666666666663 50 429.7857142857142 61.22499999999998 440.4761904761905 75.00000000000001 440.4761904761905 88.77500000000002 440.4761904761905 100.00000000000001 429.7857142857142 100.00000000000001 416.66666666666663 100.00000000000001 403.54761904761904 88.77500000000002 392.8571428571429 75.00000000000001 392.8571428571429L75.00000000000001 392.8571428571429ZM75.00000000000001 11.904761904761898C116.425 11.904761904761898 150 43.88095238095238 150 83.33333333333333 150 122.78571428571428 116.425 154.76190476190476 75.00000000000001 154.76190476190476 33.575 154.76190476190476 0 122.78571428571428 0 83.33333333333333 0 43.88095238095238 33.575 11.904761904761898 75.00000000000001 11.904761904761898L75.00000000000001 11.904761904761898ZM75.00000000000001 59.52380952380952C61.22499999999998 59.52380952380952 50 70.21428571428571 50 83.33333333333333 50 96.45238095238095 61.22499999999998 107.14285714285714 75.00000000000001 107.14285714285714 88.77500000000002 107.14285714285714 100.00000000000001 96.45238095238095 100.00000000000001 83.33333333333333 100.00000000000001 70.21428571428571 88.77500000000002 59.52380952380952 75.00000000000001 59.52380952380952L75.00000000000001 59.52380952380952ZM75.00000000000001 178.57142857142858C116.425 178.57142857142858 150 210.54761904761904 150 250 150 289.45238095238096 116.425 321.42857142857144 75.00000000000001 321.42857142857144 33.575 321.42857142857144 0 289.45238095238096 0 250 0 210.54761904761904 33.575 178.57142857142858 75.00000000000001 178.57142857142858L75.00000000000001 178.57142857142858ZM75.00000000000001 226.19047619047618C61.22499999999998 226.19047619047618 50 236.88095238095238 50 250 50 263.1190476190476 61.22499999999998 273.80952380952385 75.00000000000001 273.80952380952385 88.77500000000002 273.80952380952385 100.00000000000001 263.1190476190476 100.00000000000001 250 100.00000000000001 236.88095238095238 88.77500000000002 226.19047619047618 75.00000000000001 226.19047619047618L75.00000000000001 226.19047619047618ZM200 440.4761904761905L500 440.4761904761905 500 392.8571428571429 200 392.8571428571429 200 440.4761904761905ZM200 107.14285714285714L500 107.14285714285714 500 59.52380952380952 200 59.52380952380952 200 107.14285714285714ZM200 273.80952380952385L500 273.80952380952385 500 226.19047619047618 200 226.19047619047618 200 273.80952380952385Z" id="list-[#1540]"/>
           
</svg>