<?xml version="1.0" encoding="iso-8859-1"?>
<!-- Generator: Adobe Illustrator 19.0.0, SVG Export Plug-In . SVG Version: 6.00 Build 0)  -->
<svg version="1.1" id="Capa_1" xmlns="http://www.w3.org/2000/svg" xmlns:xlink="http://www.w3.org/1999/xlink" x="0px" y="0px" width="500px" height="500px" viewbox="0 0 500 500" style="enable-background:new 0 0 60 60;" xml:space="preserve">
<path d="M400.11666666666673 357.4083333333334l-79.60833333333335-39.800000000000004C313 313.85 308.33333333333337 306.30000000000007 308.33333333333337 297.9v-28.175c1.9083333333333334-2.333333333333334 3.9166666666666665-4.991666666666667 5.991666666666667-7.925 10.325000000000001-14.583333333333334 18.6-30.81666666666667 24.61666666666667-48.32500000000001C350.70000000000005 208.08333333333337 358.33333333333337 196.45833333333337 358.33333333333337 183.33333333333337v-33.333333333333336c0-8.025-3-15.8-8.333333333333334-21.875v-44.325c0.46666666666666673-4.583333333333334 2.3000000000000003-31.866666666666667-17.433333333333334-54.37500000000001C315.45 9.900000000000029 287.67499999999995 2.842170943040401e-14 250 2.842170943040401e-14s-65.45 9.9-82.56666666666666 29.416666666666668C147.7 51.92500000000003 149.5333333333333 79.2166666666667 149.99999999999997 83.80000000000003v44.325c-5.333333333333334 6.075-8.333333333333334 13.85-8.333333333333334 21.875v33.333333333333336c0 10.141666666666667 4.608333333333334 19.6 12.475000000000001 25.908333333333335 7.633333333333334 30.225 23.608333333333338 53.00000000000001 29.19166666666667 60.30833333333334v27.575000000000003c0 8.066666666666666-4.4 15.466666666666669-11.475000000000001 19.333333333333332l-74.34166666666667 40.55C73.34166666666664 370.20000000000005 58.333333333333314 395.48333333333335 58.333333333333314 423.01666666666677V450.0000000000001c0 39.550000000000004 125.37500000000001 50 191.66666666666669 50s191.66666666666669-10.450000000000001 191.66666666666669-50v-25.358333333333338C441.6666666666667 395.9916666666667 425.7416666666667 370.225 400.11666666666673 357.4083333333334zM425.00000000000006 450.0000000000001c0 11.308333333333334-61.76666666666667 33.333333333333336-175 33.333333333333336S74.99999999999997 461.3083333333334 74.99999999999997 450.0000000000001v-26.983333333333334c0-21.425000000000004 11.683333333333334-41.116666666666674 30.491666666666667-51.36666666666667l74.34166666666667-40.55C192.27499999999998 324.3083333333334 199.99999999999997 311.2833333333334 199.99999999999997 297.1250000000001v-33.49166666666667l-1.9416666666666669-2.316666666666667c-0.2-0.2416666666666667-20.625000000000004-24.950000000000003-28.41666666666667-58.87500000000001l-0.7583333333333334-3.3000000000000003-2.8416666666666672-1.8333333333333335C161.21666666666664 194.19166666666672 158.33333333333331 188.9666666666667 158.33333333333331 183.33333333333337v-33.333333333333336c0-4.675000000000001 1.9833333333333334-9.033333333333335 5.583333333333334-12.291666666666668L166.66666666666666 135.23333333333338V83.33333333333337l-0.075-1.0916666666666668c-0.025-0.225-2.858333333333334-23.325000000000003 13.375-41.84166666666667C193.77499999999998 24.65000000000003 217.34166666666664 16.666666666666696 250 16.666666666666696c32.541666666666664 0 56.05833333333334 7.925 69.88333333333333 23.566666666666666 16.225 18.34166666666667 13.541666666666668 41.80833333333334 13.525 42.00833333333334L333.33333333333337 135.23333333333338l2.7500000000000004 2.4833333333333334C339.68333333333334 140.9666666666667 341.6666666666667 145.32500000000005 341.6666666666667 150.00000000000003v33.333333333333336c0 7.275-4.766666666666667 13.641666666666667-11.85 15.825000000000001l-4.15 1.2750000000000001-1.3333333333333335 4.125c-5.575000000000001 17.34166666666667-13.51666666666667 33.358333333333334-23.61666666666667 47.608333333333334-2.475 3.5083333333333333-4.883333333333334 6.616666666666667-6.9750000000000005 8.991666666666667L291.66666666666663 263.5250000000001v34.375c0 14.750000000000002 8.191666666666666 28.008333333333336 21.383333333333333 34.608333333333334l79.60833333333335 39.800000000000004C412.60833333333335 382.2833333333334 425.00000000000006 402.33333333333337 425.00000000000006 424.64166666666677V450.0000000000001z"/>


</svg>
