<?xml version="1.0" encoding="UTF-8" standalone="no"?>
<svg width="500px" height="500px" viewbox="0 0 20 20" version="1.1" xmlns="http://www.w3.org/2000/svg" xmlns:xlink="http://www.w3.org/1999/xlink">
 
                <path d="M350 250C350 236.20000000001164 361.1999999999998 225 375 225L397.7500000000009 225C387.14999999999964 162.32500000001164 337.6750000000002 112.85000000000582 275 102.25L275 125C275 138.79999999998836 263.8000000000002 150 250 150 236.19999999999982 150 225 138.79999999998836 225 125L225 102.25C162.32499999999982 112.85000000000582 112.85000000000036 162.32500000001164 102.24999999999909 225L125 225C138.80000000000018 225 150 236.20000000001164 150 250 150 263.79999999998836 138.80000000000018 275 125 275L102.24999999999909 275C112.85000000000036 337.67499999998836 162.32499999999982 387.1499999999942 225 397.75L225 375C225 361.20000000001164 236.19999999999982 350 250 350 263.8000000000002 350 275 361.20000000001164 275 375L275 397.75C337.6750000000002 387.1499999999942 387.14999999999964 337.67499999998836 397.7500000000009 275L375 275C361.1999999999998 275 350 263.79999999998836 350 250M500 250C500 263.79999999998836 488.8000000000002 275 475 275L448.27499999999964 275C436.97499999999945 365.42500000001746 365.4250000000002 436.9750000000058 275 448.2749999999942L275 475C275 488.79999999998836 263.8000000000002 500 250 500 236.19999999999982 500 225 488.79999999998836 225 475L225 448.2749999999942C134.57499999999982 436.9750000000058 63.025000000000546 365.42500000001746 51.725000000000364 275L25 275C11.199999999999818 275 0 263.79999999998836 0 250 0 236.20000000001164 11.199999999999818 225 25 225L51.725000000000364 225C63.025000000000546 134.57499999998254 134.57499999999982 63.02499999999418 225 51.72500000000582L225 25C225 11.200000000011642 236.19999999999982 0 250 0 263.8000000000002 0 275 11.200000000011642 275 25L275 51.72500000000582C365.4250000000002 63.02499999999418 436.97499999999945 134.57499999998254 448.27499999999964 225L475 225C488.8000000000002 225 500 236.20000000001164 500 250M325 250C325 263.79999999998836 313.8000000000002 275 300 275L275 275 275 300C275 313.79999999998836 263.8000000000002 325 250 325 236.19999999999982 325 225 313.79999999998836 225 300L225 275 200 275C186.19999999999982 275 175 263.79999999998836 175 250 175 236.20000000001164 186.19999999999982 225 200 225L225 225 225 200C225 186.20000000001164 236.19999999999982 175 250 175 263.8000000000002 175 275 186.20000000001164 275 200L275 225 300 225C313.8000000000002 225 325 236.20000000001164 325 250" id="target-[#81]"/>
           
</svg>