<?xml version="1.0" encoding="iso-8859-1"?>
<!-- Generator: Adobe Illustrator 16.0.0, SVG Export Plug-In . SVG Version: 6.00 Build 0)  -->
<!DOCTYPE svg PUBLIC "-//W3C//DTD SVG 1.1//EN" "http://www.w3.org/Graphics/SVG/1.1/DTD/svg11.dtd">
<svg version="1.1" id="Capa_1" xmlns="http://www.w3.org/2000/svg" xmlns:xlink="http://www.w3.org/1999/xlink" x="0px" y="0px" width="500px" height="500px" viewbox="0 0 94.926 94.926" style="enable-background:new 0 0 94.926 94.926;" xml:space="preserve">

		<path d="M454.0694857046543 368.10186355687597l36.79181678359986-36.797084044413545c5.846659503191961-5.841392242378274 9.12816299011862-13.773887027790071 9.12816299011862-22.038219244464113 0-8.264332216674042-3.281503486926659-16.19155974127215-9.12816299011862-22.043486505277794l-32.535870046141206-32.535870046141206c-12.167372479615702-12.167372479615702-31.909066009312518-12.167372479615702-44.06590396730085 0l-36.80235130522723 36.797084044413545-36.80235130522723-36.797084044413545c-5.841392242378274-5.841392242378274-13.773887027790071-9.12816299011862-22.038219244464113-9.12816299011862-8.269599477487729 0-16.196827002085836 3.2867707477403454-22.048753766091483 9.12816299011862l-11.25086909803426 11.25086909803426-21.911804984935635-18.472283673598383-44.1607146619472 43.918420664517626-44.27132713903462-43.918420664517626-25.69896550997619 21.664243726692376-53.4890335629859 24.624444303984156c-7.911425742157049 3.2551671828582265-14.932684406801089 8.864799949434298-19.641615574236777 16.765691169963972L1.1368683772161603e-13 437.8351294692708h256.9317152308114c1.54330741841013 4.145334260371237 3.929376567010092 7.964098350293914 7.121336620104082 11.150791142574217l32.530602785327524 32.530602785327524c12.172639740429387 12.172639740429387 31.914333270126207 12.172639740429387 44.07117122811454 0l36.80235130522723-36.797084044413545 36.80235130522723 36.797084044413545c6.078418978994164 6.083686239807851 14.053051850915452 9.12816299011862 22.038219244464113 9.12816299011862 7.979900132734973 0 15.954533004656259-3.0444767503107686 22.038219244464113-9.117628468491247l32.541137306954894-32.535870046141206c5.836124981564589-5.846659503191961 9.122895729304933-13.768619766976382 9.122895729304933-22.043486505277794 0-8.264332216674042-3.281503486926659-16.19155974127215-9.122895729304933-22.038219244464113L454.0694857046543 368.10186355687597zM436.2977477192762 459.47830415270846L377.4571771695849 400.63773360301707 318.61660661989356 459.47830415270846l-32.541137306954894-32.530602785327524 58.84583781050503-58.835303288877654-58.835303288877654-58.84583781050503 32.530602785327524-32.541137306954894 58.84583781050503 58.84583781050503 58.84057054969134-58.84583781050503 32.541137306954894 32.541137306954894L409.99304721572605 368.11239807850325l58.84583781050503 58.835303288877654L436.2977477192762 459.47830415270846zM218.9126266776227 252.76992078039734v0.015801782441059353c0.047405347323178054 0 0.10534521627372902-0.010534521627372902 0.14748330278322064-0.010534521627372902 0.026336304068432254 0 0.06847439057792386 0.010534521627372902 0.10534521627372902 0.010534521627372902 0.005267260813686451 0 0.021069043254745803 0 0.03687082569580516 0s0.031603564882118705 0 0.03687082569580516 0c0.03687082569580516 0 0.07900891220529677-0.010534521627372902 0.10534521627372902-0.010534521627372902 0.05267260813686451 0 0.10007795546004257 0.010534521627372902 0.14748330278322064 0.010534521627372902v-0.015801782441059353c62.3591007732339 0.9481069464635611 100.26230958852159-53.625982344141754 101.24728736068097-143.60133156353373C321.3555822430105 46.746281313865516 282.64648252322877 11.055322040326127 219.60263784421562 9.36979857994646V9.353996797505403c-0.10007795546004257 0-0.16855234603796643 0.005267260813686451-0.26336304068432254 0.005267260813686451V9.353996797505403c-0.057939868950550956 0-0.10007795546004257 0-0.13694878115584772 0.005267260813686451-0.04213808650949161-0.005267260813686451-0.09481069464635611-0.005267260813686451-0.13694878115584772-0.005267260813686451v0.005267260813686451c-0.09481069464635611 0-0.16855234603796643-0.005267260813686451-0.25282851905694964-0.005267260813686451V9.375065840760147c-63.04911193982682 1.6855234603796643-101.76347892042223 37.371215473105366-101.13667488359354 99.79352337610351C118.65031708910111 199.14393843625558 156.5535259043888 253.71276046604723 218.9126266776227 252.76992078039734z"/>

</svg>
