<?xml version="1.0" encoding="iso-8859-1"?>
<!-- Generator: Adobe Illustrator 18.1.1, SVG Export Plug-In . SVG Version: 6.00 Build 0)  -->
<svg version="1.1" id="Capa_1" xmlns="http://www.w3.org/2000/svg" xmlns:xlink="http://www.w3.org/1999/xlink" x="0px" y="0px" height="500px" width="500px" viewbox="0 0 100 100" style="enable-background:new 0 0 100 100;" xml:space="preserve">

		<path style="fill:#030104;" d="M250 200c-41.425 0-75 33.59-75 75 0 41.425 33.575 75 75 75 41.415 0 75-33.575 75-75C325 233.59000000000003 291.415 200 250 200zM450 125H390c-8.25 0-17.14-6.4-19.744999999999997-14.23l-15.51-46.544999999999995C352.13 56.4 343.25 50 335 50H165c-8.25 0-17.14 6.4-19.744999999999997 14.23l-15.51 46.544999999999995C127.13 118.6 118.25 125 110 125H50C22.5 125 0 147.5 0 175v225c0 27.5 22.5 50 50 50h400c27.5 0 50-22.5 50-50V175C500 147.5 477.5 125 450 125zM250 400c-69.035 0-125-55.964999999999996-125-125 0-69.03 55.964999999999996-125 125-125 69.025 0 125 55.970000000000006 125 125C375 344.035 319.025 400 250 400zM432.5 209.965c-9.66 0-17.5-7.83-17.5-17.5 0-9.66 7.84-17.5 17.5-17.5 9.67 0 17.5 7.84 17.5 17.5C450 202.135 442.165 209.965 432.5 209.965z"/>
	
</svg>
