<?xml version="1.0" encoding="iso-8859-1"?>
<!-- Generator: Adobe Illustrator 16.0.0, SVG Export Plug-In . SVG Version: 6.00 Build 0)  -->
<!DOCTYPE svg PUBLIC "-//W3C//DTD SVG 1.1//EN" "http://www.w3.org/Graphics/SVG/1.1/DTD/svg11.dtd">
<svg version="1.1" id="Capa_1" xmlns="http://www.w3.org/2000/svg" xmlns:xlink="http://www.w3.org/1999/xlink" 
x="0px" y="0px" width="500px" height="500px" viewbox="0 0 49.654 49.655" style="enable-background:new 0 0 49.654 49.655;" xml:space="preserve">
			<path d="M171.44295639915416 323.84956197764575L42.77514852482126 110.29604269459269C15.778874232202194 150.2114590675662 0 198.28315376095054 0 250c0 25.697311448998086 3.906958010270869 50.50850871009968 11.146913704561474 73.84956197764575H171.44295639915416zM225.50599134024768 143.9985902728829h250.81059309233711C444.10431980666596 75.4959218608398 381.7037559158191 23.92004833350117 306.33370254757824 6.499848957808896L225.50599134024768 143.9985902728829zM144.99043399456247 221.3926090021146L274.3933138656731 1.2234417480616406C266.35786929815725 0.4279528748363866 258.23179941597016 0.005034739703972946 249.9848957808881 0.005034739703972946 175.45060920350417 0.005034739703972946 108.4785016614641 32.8315376095056 62.64223139663679 84.74977343671334L144.99043399456247 221.3926090021146zM197.1201288893364 492.12063236330675l79.14610814620883-138.0626321619172H22.777162420702847c33.24942100493404 72.31900110764273 99.97986104118417 126.09002114590675 180.2436814016715 141.44597724297654L197.1201288893364 492.12063236330675zM328.14419494512134 174.20702849662672l126.36189708992043 219.27298358674855c28.627529956701235-40.65048836975128 45.493907964958204-90.12184070083575 45.493907964958204-143.4900815627832 0-26.412244486960024-4.148625516060819-51.86788843016815-11.781290907260093-75.78290202396535H328.14419494512134zM353.9019232705669 279.4330883093344L228.02336119222633 498.9578088812808c7.239955694290605 0.6343772026986204 14.560467223844526 1.0371563790152047 21.961534588661763 1.0371563790152047 72.83254455744637 0 138.48555029704963-31.326150438022353 184.22112576779782-81.20028194542341L353.9019232705669 279.4330883093344z"/>		
</svg>
