<svg id="Capa_1" width="500px" height="500px" data-name="Capa 1" xmlns="http://www.w3.org/2000/svg" viewBox="0 0 498 489.56"><title>icon1</title><path d="M288,82.34H1A33.76,33.76,0,0,1,34.76,48.58H85.41V31.69A25.32,25.32,0,0,1,110.73,6.37h67.52a25.33,25.33,0,0,1,25.33,25.32V48.58h50.64A33.75,33.75,0,0,1,288,82.34ZM1,445.29H288V99.22H1Zm33.76,50.64H254.22A33.77,33.77,0,0,0,288,462.17H1A33.77,33.77,0,0,0,34.76,495.93ZM499,141.42v71.51a25.34,25.34,0,0,1-10.42,20.48l-46.69,53.07a143.48,143.48,0,0,0-35.74,94.74v21.86a25.31,25.31,0,0,1-25.32,25.32h-76V116.1H473.68A25.32,25.32,0,0,1,499,141.42ZM347.07,377.76a8.44,8.44,0,0,0-8.44-8.44h-8.44a8.44,8.44,0,0,0-8.44,8.44v16.88a8.44,8.44,0,0,0,8.44,8.44h8.44a8.44,8.44,0,0,0,8.44-8.44Zm0-227.9a8.44,8.44,0,0,0-8.44-8.44h-8.44a8.44,8.44,0,0,0-8.44,8.44v16.88a8.44,8.44,0,0,0,8.44,8.44h8.44a8.44,8.44,0,0,0,8.44-8.44Zm42.2,227.9a8.44,8.44,0,0,0-8.44-8.44h-8.44a8.44,8.44,0,0,0-8.44,8.44v16.88a8.44,8.44,0,0,0,8.44,8.44h8.44a8.44,8.44,0,0,0,8.44-8.44Zm0-227.9a8.44,8.44,0,0,0-8.44-8.44h-8.44a8.44,8.44,0,0,0-8.44,8.44v16.88a8.44,8.44,0,0,0,8.44,8.44h8.44a8.44,8.44,0,0,0,8.44-8.44Zm42.2,0a8.44,8.44,0,0,0-8.44-8.44h-8.44a8.44,8.44,0,0,0-8.44,8.44v16.88a8.44,8.44,0,0,0,8.44,8.44H423a8.44,8.44,0,0,0,8.44-8.44V149.86Zm42.21,0a8.44,8.44,0,0,0-8.44-8.44H456.8a8.44,8.44,0,0,0-8.44,8.44v16.88a8.44,8.44,0,0,0,8.44,8.44h8.44a8.44,8.44,0,0,0,8.44-8.44Z" transform="translate(-1 -6.37)"/></svg>