<?xml version="1.0" encoding="UTF-8" standalone="no"?>
<svg width="500px" height="500px" viewbox="0 0 21 20" version="1.1" xmlns="http://www.w3.org/2000/svg" xmlns:xlink="http://www.w3.org/1999/xlink">

                <path d="M324.99999999999994 440.4761904761905L450 440.4761904761905 450 321.4285714285712 324.99999999999994 321.4285714285712 324.99999999999994 440.4761904761905ZM275 488.0952380952382L500 488.0952380952382 500 273.8095238095235 275 273.8095238095235 275 488.0952380952382ZM50 440.4761904761905L175 440.4761904761905 175 321.4285714285712 50 321.4285714285712 50 440.4761904761905ZM0 488.0952380952382L225 488.0952380952382 225 273.8095238095235 0 273.8095238095235 0 488.0952380952382ZM324.99999999999994 178.57142857142856L450 178.57142857142856 450 59.52380952380952 324.99999999999994 59.52380952380952 324.99999999999994 178.57142857142856ZM275 226.19047619047626L500 226.19047619047626 500 11.904761904761813 275 11.904761904761813 275 226.19047619047626ZM50 178.57142857142856L175 178.57142857142856 175 59.52380952380952 50 59.52380952380952 50 178.57142857142856ZM0 226.19047619047626L225 226.19047619047626 225 11.904761904761813 0 11.904761904761813 0 226.19047619047626Z" id="grid_system-[#1520]"/>
            
</svg>