<?xml version="1.0" encoding="utf-8"?>
<!-- Generator: Adobe Illustrator 21.1.0, SVG Export Plug-In . SVG Version: 6.00 Build 0)  -->
<svg version="1.1" id="Capa_1" xmlns="http://www.w3.org/2000/svg" xmlns:xlink="http://www.w3.org/1999/xlink" x="0px" y="0px" viewbox="0 0 55.4 70" style="enable-background:new 0 0 55.4 70;" xml:space="preserve" width="500px" height="500px">

	<path class="st0" d="M113.71841155234657 337.5451263537906L113.71841155234657 337.5451263537906c0-0.9025270758122744 0-1.8050541516245489 0-2.707581227436823V67.68953068592054c-0.9025270758122744-30.685920577617328-26.173285198555956-55.95667870036102-56.85920577617328-56.85920577617328C25.270758122743683 10.830324909747276 0 37.00361010830322 0 67.68953068592054v267.14801444043326c0 84.8375451263538 68.59205776173285 153.42960288808666 152.52707581227435 153.42960288808666 35.1985559566787 0 69.49458483754513-12.635379061371841 97.47292418772564-34.29602888086642C174.18772563176896 453.971119133574 113.71841155234657 406.1371841155235 113.71841155234657 337.5451263537906zM306.8592057761733 335.740072202166V203.971119133574c0-1.8050541516245489-0.9025270758122744-3.6101083032490977-0.9025270758122744-5.415162454873646-3.6101083032490977-30.685920577617328-31.588447653429604-53.24909747292419-63.17689530685921-49.63898916967509-27.97833935018051 3.6101083032490977-49.63898916967509 27.075812274368232-50.541516245487365 55.05415162454874v130.8664259927798c0 21.660649819494584-18.050541516245488 39.711191335740075-39.711191335740075 39.711191335740075-20.75812274368231 0-38.808664259927795-16.24548736462094-39.711191335740075-37.00361010830325l0 0c0 68.59205776173285 60.46931407942239 116.4259927797834 136.28158844765343 116.4259927797834C286.101083032491 425.09025270758127 306.8592057761733 381.76895306859205 306.8592057761733 335.740072202166zM500 210.28880866425988v-5.415162454873646c0-1.8050541516245489-0.9025270758122744-3.6101083032490977-0.9025270758122744-5.415162454873646-3.6101083032490977-30.685920577617328-31.588447653429604-53.24909747292419-63.17689530685921-49.63898916967509-27.97833935018051 3.6101083032490977-49.63898916967509 27.075812274368232-50.541516245487365 55.05415162454874v130.8664259927798c-0.9025270758122744 21.660649819494584-18.953068592057765 39.711191335740075-40.61371841155235 38.808664259927795-21.660649819494584-0.9025270758122744-37.90613718411553-18.050541516245488-38.808664259927795-38.808664259927795V148.01444043321297c-0.9025270758122744-30.685920577617328-25.270758122743683-56.85920577617328-56.85920577617328-56.85920577617328s-56.85920577617328 25.270758122743683-56.85920577617328 56.85920577617328v187.7256317689531c0 84.8375451263538 68.59205776173285 153.42960288808666 153.42960288808666 153.42960288808666s153.42960288808666-68.59205776173285 153.42960288808666-153.42960288808666V210.28880866425988L500 210.28880866425988zM500 335.740072202166V203.971119133574c0-1.8050541516245489-0.9025270758122744-3.6101083032490977-0.9025270758122744-5.415162454873646-3.6101083032490977-30.685920577617328-31.588447653429604-53.24909747292419-63.17689530685921-49.63898916967509-27.97833935018051 3.6101083032490977-49.63898916967509 27.075812274368232-50.541516245487365 55.05415162454874v130.8664259927798c0 21.660649819494584-18.050541516245488 39.711191335740075-39.711191335740075 39.711191335740075-20.75812274368231 0-38.808664259927795-16.24548736462094-39.711191335740075-37.00361010830325l0 0c0 68.59205776173285 60.46931407942239 116.4259927797834 136.28158844765343 116.4259927797834C479.2418772563177 425.09025270758127 500 381.76895306859205 500 335.740072202166zM92.05776173285199 475.63176895306856c46.02888086642599 19.855595667870038 98.37545126353791 16.24548736462094 141.69675090252707-9.927797833935019C68.59205776173285 464.80144404332134 45.12635379061372 373.64620938628155 45.12635379061372 295.1263537906137V68.59205776173283H0v267.14801444043326C0 396.2093862815884 36.101083032490976 451.26353790613723 92.05776173285199 475.63176895306856zM285.1985559566787 475.63176895306856c46.02888086642599 19.855595667870038 98.37545126353791 16.24548736462094 141.69675090252707-9.927797833935019-165.16245487364623 0-188.62815884476532-92.05776173285199-188.62815884476532-170.57761732851984V148.01444043321297h-45.12635379061372v187.7256317689531C193.1407942238267 396.2093862815884 229.24187725631768 451.26353790613723 285.1985559566787 475.63176895306856z"/>

</svg>
