<?xml version="1.0" encoding="UTF-8" standalone="no"?>
<svg width="500px" height="500px" viewbox="0 0 21 20" version="1.1" xmlns="http://www.w3.org/2000/svg" xmlns:xlink="http://www.w3.org/1999/xlink">

                <path d="M400.00000000000136 440.4761904761904L450.00000000000136 440.4761904761904 450.00000000000136 392.85714285714295 400.00000000000136 392.85714285714295 400.00000000000136 440.4761904761904ZM450.00000000000136 345.23809523809524L400.00000000000136 345.23809523809524C372.37500000000045 345.23809523809524 350.00000000000045 366.5476190476191 350.00000000000045 392.85714285714295L350.00000000000045 440.4761904761904C350.00000000000045 466.76190476190465 372.37500000000045 488.09523809523813 400.00000000000136 488.09523809523813L450.00000000000136 488.09523809523813C477.6000000000008 488.09523809523813 500.00000000000136 466.76190476190465 500.00000000000136 440.4761904761904L500.00000000000136 392.85714285714295C500.00000000000136 366.5476190476191 477.6000000000008 345.23809523809524 450.00000000000136 345.23809523809524L450.00000000000136 345.23809523809524ZM225.00000000000045 440.4761904761904L275.00000000000136 440.4761904761904 275.00000000000136 392.85714285714295 225.00000000000045 392.85714285714295 225.00000000000045 440.4761904761904ZM275.00000000000136 345.23809523809524L225.00000000000045 345.23809523809524C197.37500000000045 345.23809523809524 175.00000000000045 366.5476190476191 175.00000000000045 392.85714285714295L175.00000000000045 440.4761904761904C175.00000000000045 466.76190476190465 197.37500000000045 488.09523809523813 225.00000000000045 488.09523809523813L275.00000000000136 488.09523809523813C302.6000000000008 488.09523809523813 325.00000000000136 466.76190476190465 325.00000000000136 440.4761904761904L325.00000000000136 392.85714285714295C325.00000000000136 366.5476190476191 302.6000000000008 345.23809523809524 275.00000000000136 345.23809523809524L275.00000000000136 345.23809523809524ZM50.000000000000455 440.4761904761904L100.00000000000045 440.4761904761904 100.00000000000045 392.85714285714295 50.000000000000455 392.85714285714295 50.000000000000455 440.4761904761904ZM100.00000000000045 345.23809523809524L50.000000000000455 345.23809523809524C22.375000000001364 345.23809523809524 4.547473508864641e-13 366.5476190476191 4.547473508864641e-13 392.85714285714295L4.547473508864641e-13 440.4761904761904C4.547473508864641e-13 466.76190476190465 22.375000000001364 488.09523809523813 50.000000000000455 488.09523809523813L100.00000000000045 488.09523809523813C127.60000000000082 488.09523809523813 150.00000000000136 466.76190476190465 150.00000000000136 440.4761904761904L150.00000000000136 392.85714285714295C150.00000000000136 366.5476190476191 127.60000000000082 345.23809523809524 100.00000000000045 345.23809523809524L100.00000000000045 345.23809523809524ZM400.00000000000136 273.8095238095237L450.00000000000136 273.8095238095237 450.00000000000136 226.1904761904762 400.00000000000136 226.1904761904762 400.00000000000136 273.8095238095237ZM450.00000000000136 178.5714285714285L400.00000000000136 178.5714285714285C372.37500000000045 178.5714285714285 350.00000000000045 199.88095238095235 350.00000000000045 226.1904761904762L350.00000000000045 273.8095238095237C350.00000000000045 300.09523809523813 372.37500000000045 321.4285714285714 400.00000000000136 321.4285714285714L450.00000000000136 321.4285714285714C477.6000000000008 321.4285714285714 500.00000000000136 300.09523809523813 500.00000000000136 273.8095238095237L500.00000000000136 226.1904761904762C500.00000000000136 199.88095238095235 477.6000000000008 178.5714285714285 450.00000000000136 178.5714285714285L450.00000000000136 178.5714285714285ZM225.00000000000045 273.8095238095237L275.00000000000136 273.8095238095237 275.00000000000136 226.1904761904762 225.00000000000045 226.1904761904762 225.00000000000045 273.8095238095237ZM275.00000000000136 178.5714285714285L225.00000000000045 178.5714285714285C197.37500000000045 178.5714285714285 175.00000000000045 199.88095238095235 175.00000000000045 226.1904761904762L175.00000000000045 273.8095238095237C175.00000000000045 300.09523809523813 197.37500000000045 321.4285714285714 225.00000000000045 321.4285714285714L275.00000000000136 321.4285714285714C302.6000000000008 321.4285714285714 325.00000000000136 300.09523809523813 325.00000000000136 273.8095238095237L325.00000000000136 226.1904761904762C325.00000000000136 199.88095238095235 302.6000000000008 178.5714285714285 275.00000000000136 178.5714285714285L275.00000000000136 178.5714285714285ZM50.000000000000455 273.8095238095237L100.00000000000045 273.8095238095237 100.00000000000045 226.1904761904762 50.000000000000455 226.1904761904762 50.000000000000455 273.8095238095237ZM100.00000000000045 178.5714285714285L50.000000000000455 178.5714285714285C22.375000000001364 178.5714285714285 4.547473508864641e-13 199.88095238095235 4.547473508864641e-13 226.1904761904762L4.547473508864641e-13 273.8095238095237C4.547473508864641e-13 300.09523809523813 22.375000000001364 321.4285714285714 50.000000000000455 321.4285714285714L100.00000000000045 321.4285714285714C127.60000000000082 321.4285714285714 150.00000000000136 300.09523809523813 150.00000000000136 273.8095238095237L150.00000000000136 226.1904761904762C150.00000000000136 199.88095238095235 127.60000000000082 178.5714285714285 100.00000000000045 178.5714285714285L100.00000000000045 178.5714285714285ZM400.00000000000136 107.14285714285717L450.00000000000136 107.14285714285717 450.00000000000136 59.52380952380946 400.00000000000136 59.52380952380946 400.00000000000136 107.14285714285717ZM450.00000000000136 11.90476190476187L400.00000000000136 11.90476190476187C372.37500000000045 11.90476190476187 350.00000000000045 33.21428571428572 350.00000000000045 59.52380952380946L350.00000000000045 107.14285714285717C350.00000000000045 133.4285714285714 372.37500000000045 154.76190476190465 400.00000000000136 154.76190476190465L450.00000000000136 154.76190476190465C477.6000000000008 154.76190476190465 500.00000000000136 133.4285714285714 500.00000000000136 107.14285714285717L500.00000000000136 59.52380952380946C500.00000000000136 33.21428571428572 477.6000000000008 11.90476190476187 450.00000000000136 11.90476190476187L450.00000000000136 11.90476190476187ZM225.00000000000045 107.14285714285717L275.00000000000136 107.14285714285717 275.00000000000136 59.52380952380946 225.00000000000045 59.52380952380946 225.00000000000045 107.14285714285717ZM275.00000000000136 11.90476190476187L225.00000000000045 11.90476190476187C197.37500000000045 11.90476190476187 175.00000000000045 33.21428571428572 175.00000000000045 59.52380952380946L175.00000000000045 107.14285714285717C175.00000000000045 133.4285714285714 197.37500000000045 154.76190476190465 225.00000000000045 154.76190476190465L275.00000000000136 154.76190476190465C302.6000000000008 154.76190476190465 325.00000000000136 133.4285714285714 325.00000000000136 107.14285714285717L325.00000000000136 59.52380952380946C325.00000000000136 33.21428571428572 302.6000000000008 11.90476190476187 275.00000000000136 11.90476190476187L275.00000000000136 11.90476190476187ZM50.000000000000455 107.14285714285717L100.00000000000045 107.14285714285717 100.00000000000045 59.52380952380946 50.000000000000455 59.52380952380946 50.000000000000455 107.14285714285717ZM100.00000000000045 11.90476190476187L50.000000000000455 11.90476190476187C22.375000000001364 11.90476190476187 4.547473508864641e-13 33.21428571428572 4.547473508864641e-13 59.52380952380946L4.547473508864641e-13 107.14285714285717C4.547473508864641e-13 133.4285714285714 22.375000000001364 154.76190476190465 50.000000000000455 154.76190476190465L100.00000000000045 154.76190476190465C127.60000000000082 154.76190476190465 150.00000000000136 133.4285714285714 150.00000000000136 107.14285714285717L150.00000000000136 59.52380952380946C150.00000000000136 33.21428571428572 127.60000000000082 11.90476190476187 100.00000000000045 11.90476190476187L100.00000000000045 11.90476190476187Z" id="grid-[#1525]"/>
          
</svg>