<?xml version="1.0" encoding="UTF-8" standalone="no"?>
<svg width="500px" height="500px" viewbox="0 0 21 20" version="1.1" xmlns="http://www.w3.org/2000/svg" xmlns:xlink="http://www.w3.org/1999/xlink">
    <path d="M74.99999999999909 107.14285714285779C61.19999999999982 107.14285714285779 50 96.47619047619173 50 83.33333333333303 50 70.19047619047615 61.19999999999982 59.52380952381009 74.99999999999909 59.52380952381009 88.80000000000018 59.52380952381009 100 70.19047619047615 100 83.33333333333303 100 96.47619047619173 88.80000000000018 107.14285714285779 74.99999999999909 107.14285714285779M100 11.904761904762381L50 11.904761904762381C22.375 11.904761904762381 0 33.214285714285325 0 59.52380952381009L0 107.14285714285779C0 133.45238095238074 22.375 154.7619047619055 50 154.7619047619055L100 154.7619047619055C127.625 154.7619047619055 150 133.45238095238074 150 107.14285714285779L150 59.52380952381009C150 33.214285714285325 127.625 11.904761904762381 100 11.904761904762381M74.99999999999909 273.80952380952385C61.19999999999982 273.80952380952385 50 263.1428571428578 50 249.9999999999991 50 236.8571428571422 61.19999999999982 226.19047619047615 74.99999999999909 226.19047619047615 88.80000000000018 226.19047619047615 100 236.8571428571422 100 249.9999999999991 100 263.1428571428578 88.80000000000018 273.80952380952385 74.99999999999909 273.80952380952385M100 178.57142857142844L50 178.57142857142844C22.375 178.57142857142844 0 199.88095238095138 0 226.19047619047615L0 273.80952380952385C0 300.1190476190486 22.375 321.42857142857156 50 321.42857142857156L100 321.42857142857156C127.625 321.42857142857156 150 300.1190476190486 150 273.80952380952385L150 226.19047619047615C150 199.88095238095138 127.625 178.57142857142844 100 178.57142857142844M74.99999999999909 440.4761904761899C61.19999999999982 440.4761904761899 50 429.80952380952385 50 416.66666666666697 50 403.52380952380827 61.19999999999982 392.8571428571422 74.99999999999909 392.8571428571422 88.80000000000018 392.8571428571422 100 403.52380952380827 100 416.66666666666697 100 429.80952380952385 88.80000000000018 440.4761904761899 74.99999999999909 440.4761904761899M100 345.2380952380945L50 345.2380952380945C22.375 345.2380952380945 0 366.54761904761926 0 392.8571428571422L0 440.4761904761899C0 466.7857142857147 22.375 488.0952380952376 50 488.0952380952376L100 488.0952380952376C127.625 488.0952380952376 150 466.7857142857147 150 440.4761904761899L150 392.8571428571422C150 366.54761904761926 127.625 345.2380952380945 100 345.2380952380945M425 273.80952380952385L275 273.80952380952385C261.1999999999998 273.80952380952385 250 263.1428571428578 250 249.9999999999991 250 236.8571428571422 261.1999999999998 226.19047619047615 275 226.19047619047615L425 226.19047619047615C438.8000000000002 226.19047619047615 449.9999999999991 236.8571428571422 449.9999999999991 249.9999999999991 449.9999999999991 263.1428571428578 438.8000000000002 273.80952380952385 425 273.80952380952385M449.9999999999991 178.57142857142844L250 178.57142857142844C222.3749999999991 178.57142857142844 199.9999999999991 199.88095238095138 199.9999999999991 226.19047619047615L199.9999999999991 273.80952380952385C199.9999999999991 300.1190476190486 222.3749999999991 321.42857142857156 250 321.42857142857156L449.9999999999991 321.42857142857156C477.625 321.42857142857156 500 300.1190476190486 500 273.80952380952385L500 226.19047619047615C500 199.88095238095138 477.625 178.57142857142844 449.9999999999991 178.57142857142844M425 107.14285714285779L275 107.14285714285779C261.1999999999998 107.14285714285779 250 96.47619047619173 250 83.33333333333303 250 70.19047619047615 261.1999999999998 59.52380952381009 275 59.52380952381009L425 59.52380952381009C438.8000000000002 59.52380952381009 449.9999999999991 70.19047619047615 449.9999999999991 83.33333333333303 449.9999999999991 96.47619047619173 438.8000000000002 107.14285714285779 425 107.14285714285779M449.9999999999991 11.904761904762381L250 11.904761904762381C222.3749999999991 11.904761904762381 199.9999999999991 33.214285714285325 199.9999999999991 59.52380952381009L199.9999999999991 107.14285714285779C199.9999999999991 133.45238095238074 222.3749999999991 154.7619047619055 250 154.7619047619055L449.9999999999991 154.7619047619055C477.625 154.7619047619055 500 133.45238095238074 500 107.14285714285779L500 59.52380952381009C500 33.214285714285325 477.625 11.904761904762381 449.9999999999991 11.904761904762381M425 440.4761904761899L275 440.4761904761899C261.1999999999998 440.4761904761899 250 429.80952380952385 250 416.66666666666697 250 403.52380952380827 261.1999999999998 392.8571428571422 275 392.8571428571422L425 392.8571428571422C438.8000000000002 392.8571428571422 449.9999999999991 403.52380952380827 449.9999999999991 416.66666666666697 449.9999999999991 429.80952380952385 438.8000000000002 440.4761904761899 425 440.4761904761899M449.9999999999991 345.2380952380945L250 345.2380952380945C222.3749999999991 345.2380952380945 199.9999999999991 366.54761904761926 199.9999999999991 392.8571428571422L199.9999999999991 440.4761904761899C199.9999999999991 466.7857142857147 222.3749999999991 488.0952380952376 250 488.0952380952376L449.9999999999991 488.0952380952376C477.625 488.0952380952376 500 466.7857142857147 500 440.4761904761899L500 392.8571428571422C500 366.54761904761926 477.625 345.2380952380945 449.9999999999991 345.2380952380945" id="list-[#1422]"/>
    
</svg>