<?xml version="1.0" encoding="utf-8"?>
<!-- Generator: Adobe Illustrator 16.0.0, SVG Export Plug-In . SVG Version: 6.00 Build 0)  -->
<!DOCTYPE svg PUBLIC "-//W3C//DTD SVG 1.1//EN" "http://www.w3.org/Graphics/SVG/1.1/DTD/svg11.dtd">
<svg version="1.1" id="Capa_1" xmlns="http://www.w3.org/2000/svg" xmlns:xlink="http://www.w3.org/1999/xlink" x="0px" y="0px"
	 width="500px" height="500px" viewBox="0 0 500 500" enable-background="new 0 0 500 500" xml:space="preserve">
<path fill-rule="evenodd" clip-rule="evenodd" d="M56.043,371.819c0-1.558,0-2.572,0-3.589c0-48.866-0.041-97.733,0.014-146.599
	c0.048-44.948,0.206-89.896,0.26-134.844c0.007-1.811,0.467-2.875,2.121-3.836c40.659-23.627,81.289-47.315,121.927-70.991
	c0.57-0.336,1.174-0.618,2.148-1.132c0,1.208,0,2.086,0,2.972c-0.165,94.246-0.343,188.493-0.481,282.732
	c0,1.489-0.315,2.341-1.75,3.157c-8.62,4.886-17.156,9.93-25.706,14.939c-10.651,6.237-21.26,12.544-31.936,18.733
	c-9.738,5.654-19.557,11.152-29.302,16.793c-11.418,6.594-22.796,13.271-34.194,19.913C58.218,370.605,57.285,371.12,56.043,371.819
	z M323.815,442.255c37.467-21.507,74.929-43.033,112.445-64.479c1.839-1.05,2.306-2.237,2.306-4.206
	c-0.049-41.553-0.014-83.104-0.041-124.647c-0.041-54.294-0.131-108.589-0.193-162.883c0-0.886,0-1.778,0-3.02
	c-1.344,0.741-2.236,1.201-3.108,1.708c-37.091,21.486-74.167,42.992-111.3,64.417c-2.017,1.167-2.744,2.382-2.744,4.722
	c0.062,95.509,0.055,191.026,0.055,286.536c0,0.926,0,1.859,0,3.231C322.353,443.037,323.1,442.666,323.815,442.255z
	 M66.913,383.136c10.98,6.409,21.925,12.874,32.945,19.194c24.06,13.799,48.172,27.497,72.232,41.289
	c24.23,13.89,48.426,27.834,72.61,41.806c1.495,0.858,2.586,0.927,4.116,0.041c18.652-10.814,37.338-21.568,56.052-32.287
	c1.482-0.844,2.142-1.723,2.135-3.534c-0.076-21.246-0.076-42.49-0.007-63.736c0-1.763-0.577-2.669-2.094-3.549
	c-21.465-12.385-42.89-24.819-64.306-37.281c-17.603-10.232-35.211-20.472-52.758-30.799c-1.914-1.126-3.293-1.234-5.277-0.068
	c-22.776,13.341-45.621,26.578-68.442,39.85c-16.072,9.34-32.137,18.692-48.502,28.21C66.22,382.676,66.549,382.93,66.913,383.136z
	 M258.5,338.901c16.223,9.423,32.156,18.679,48.365,28.102c0-18.893,0-37.291,0-56.217
	C290.574,320.256,274.679,329.493,258.5,338.901z"/>
</svg>
