<?xml version="1.0" encoding="utf-8"?>
<!-- Generator: Adobe Illustrator 16.0.0, SVG Export Plug-In . SVG Version: 6.00 Build 0)  -->
<!DOCTYPE svg PUBLIC "-//W3C//DTD SVG 1.1//EN" "http://www.w3.org/Graphics/SVG/1.1/DTD/svg11.dtd">
<svg version="1.1" id="Capa_1" xmlns="http://www.w3.org/2000/svg" xmlns:xlink="http://www.w3.org/1999/xlink" x="0px" y="0px"
	 width="500px" height="500px" viewBox="0 0 500 500" enable-background="new 0 0 500 500" xml:space="preserve">
<path d="M252.483,472.326c15.755,0,27.427-13.42,27.427-28.009c0-15.756-11.672-27.427-27.427-27.427
	c-15.756,0-28.008,11.669-28.008,27.427C224.474,458.906,236.146,472.326,252.483,472.326z M162.618,9.001h179.146
	c29.177,0,49.017,19.84,49.017,47.267v390.968c0,24.508-19.84,43.765-43.766,43.765H157.367c-23.926,0-43.764-19.257-43.764-43.765
	V56.268C113.604,28.842,133.441,9.001,162.618,9.001z M215.722,40.511c-5.252,0-8.752,4.085-8.752,9.337
	c0,5.251,3.5,9.336,8.752,9.336h72.94c5.252,0,8.754-4.084,8.754-9.336s-3.502-9.337-8.754-9.337H215.722z M364.522,394.717V105.284
	H139.861v289.433H364.522z M233.213,136.898l2.937,8.299h-8.059l2.917-8.263c0.173-0.435,0.356-0.949,0.551-1.542
	c0.193-0.592,0.378-1.236,0.553-1.934c0.175,0.685,0.358,1.321,0.552,1.906C232.854,135.95,233.039,136.462,233.213,136.898z
	 M281.168,142.99c0.168,0.75,0.253,1.658,0.253,2.729c0,1.083-0.101,2.02-0.3,2.804c-0.198,0.785-0.482,1.431-0.85,1.936
	c-0.368,0.505-0.809,0.875-1.317,1.113c-0.512,0.236-1.08,0.354-1.702,0.354c-0.647,0-1.255-0.113-1.821-0.337
	c-0.566-0.224-1.095-0.616-1.58-1.178v-8.448c0.549-0.687,1.131-1.207,1.748-1.563c0.616-0.353,1.38-0.531,2.29-0.531
	c0.535,0,1.021,0.103,1.458,0.309c0.437,0.206,0.807,0.539,1.112,1C280.764,141.639,281,142.244,281.168,142.99z M152.994,120.006
	v47.443h197.677v-47.443H152.994z M190.193,157.053h-27.136v-6.285h27.136V157.053z M190.193,146.704h-27.136v-6.285h27.136V146.704
	z M190.193,136.354h-27.136v-6.285h27.136V136.354z M241.213,155.497c-0.484,0-0.883-0.117-1.188-0.346
	c-0.306-0.231-0.533-0.525-0.684-0.887l-1.83-5.179h-10.806l-1.833,5.179c-0.124,0.311-0.341,0.594-0.651,0.849
	c-0.313,0.256-0.705,0.384-1.179,0.384h-4.394l10.6-27.124h5.738l10.58,27.124H241.213z M264.794,149.73
	c-0.392,1.228-0.949,2.29-1.674,3.188c-0.722,0.897-1.59,1.597-2.605,2.102s-2.146,0.759-3.395,0.759
	c-1.047,0-1.935-0.157-2.662-0.469c-0.729-0.312-1.38-0.734-1.955-1.271v7.682h-5.157v-25.497h3.178c0.646,0,1.077,0.299,1.29,0.897
	l0.392,1.626c0.386-0.422,0.799-0.813,1.235-1.168c0.435-0.354,0.901-0.659,1.399-0.914c0.498-0.257,1.035-0.456,1.608-0.599
	c0.571-0.144,1.196-0.215,1.869-0.215c1.034,0,1.982,0.219,2.852,0.663c0.864,0.442,1.609,1.083,2.231,1.925
	c0.625,0.841,1.109,1.874,1.46,3.094c0.349,1.221,0.521,2.617,0.521,4.187C265.383,147.166,265.186,148.503,264.794,149.73z
	 M286.142,149.73c-0.395,1.228-0.952,2.29-1.673,3.188c-0.726,0.897-1.595,1.597-2.609,2.102s-2.146,0.759-3.394,0.759
	c-1.047,0-1.934-0.157-2.661-0.469c-0.729-0.312-1.382-0.734-1.955-1.271v7.682h-5.158v-25.497h3.178
	c0.648,0,1.078,0.299,1.29,0.897l0.393,1.626c0.387-0.422,0.798-0.813,1.233-1.168c0.437-0.354,0.902-0.659,1.4-0.914
	c0.501-0.257,1.036-0.456,1.606-0.599c0.575-0.144,1.196-0.215,1.87-0.215c1.035,0,1.985,0.219,2.852,0.663
	c0.865,0.442,1.609,1.083,2.234,1.925c0.622,0.841,1.106,1.874,1.458,3.094c0.349,1.221,0.522,2.617,0.522,4.187
	C286.729,147.166,286.533,148.503,286.142,149.73z M342.762,146.474l-5.283,0.564c-0.328,1.057-0.774,2.091-1.338,3.1l3.38,4.121
	l-3.837,3.838l-4.121-3.345c-1.011,0.54-2.045,0.974-3.099,1.303l-0.564,5.284h-5.495l-0.563-5.284
	c-1.104-0.329-2.138-0.763-3.101-1.303l-4.12,3.345l-3.841-3.838l3.382-4.121c-0.563-1.009-1.008-2.043-1.338-3.1l-5.282-0.564
	v-5.493l5.282-0.564c0.33-1.103,0.774-2.137,1.338-3.1l-3.382-4.121l3.841-3.837l4.12,3.38c0.963-0.564,1.996-1.01,3.101-1.338
	l0.564-5.284h5.493l0.564,5.284c1.054,0.328,2.088,0.773,3.099,1.338l4.121-3.38l3.837,3.837l-3.38,4.121
	c0.563,0.963,1.01,1.997,1.338,3.1l5.283,0.564V146.474L342.762,146.474z M259.82,142.99c0.168,0.75,0.254,1.658,0.254,2.729
	c0,1.083-0.101,2.02-0.299,2.804c-0.2,0.785-0.483,1.431-0.853,1.936c-0.366,0.505-0.806,0.875-1.316,1.113
	c-0.512,0.236-1.078,0.354-1.702,0.354c-0.646,0-1.254-0.113-1.822-0.337c-0.564-0.224-1.092-0.616-1.579-1.178v-8.448
	c0.549-0.687,1.133-1.207,1.747-1.563c0.618-0.353,1.381-0.531,2.292-0.531c0.536,0,1.021,0.103,1.458,0.309
	c0.438,0.206,0.808,0.539,1.111,1C259.418,141.639,259.654,142.244,259.82,142.99z M252.454,188.255
	c21.968,0,39.776,17.808,39.776,39.778c0,21.968-17.81,39.777-39.776,39.777S212.677,250,212.677,228.033
	C212.677,206.063,230.486,188.255,252.454,188.255z M351.169,329.568H153.455v-36.475h197.714V329.568z M351.206,380.266H153.492
	V343.79h197.714V380.266z"/>
</svg>
