<svg xmlns="http://www.w3.org/2000/svg" width="500px" height="500px" viewbox="0 0 24 24">
<path d="M333.33333333333337 208.33333333333331c0 46.020833333333336-37.31249999999999 83.33333333333333-83.33333333333333 83.33333333333333s-83.33333333333333-37.31249999999999-83.33333333333333-83.33333333333333v-125c0-46.020833333333336 37.31249999999999-83.33333333333333 83.33333333333333-83.33333333333333s83.33333333333333 37.31249999999999 83.33333333333333 83.33333333333333v125z m83.33333333333333-41.666666666666664v41.666666666666664c0 92.04166666666667-74.62499999999999 166.66666666666666-166.66666666666666 166.66666666666666s-166.66666666666666-74.62499999999999-166.66666666666666-166.66666666666666v-41.666666666666664h41.666666666666664v41.666666666666664c0 68.9375 56.06249999999999 125 125 125s125-56.06249999999999 125-125v-41.666666666666664h41.666666666666664z m-145.83333333333331 271.4583333333333v-42.29166666666666h-41.666666666666664v42.29166666666666c-47.541666666666664 2.8958333333333335-83.33333333333333 15.499999999999998-83.33333333333333 30.624999999999996 0 17.270833333333332 46.625 31.25 104.16666666666666 31.25s104.16666666666666-13.979166666666666 104.16666666666666-31.25c0-15.124999999999998-35.791666666666664-27.729166666666664-83.33333333333333-30.624999999999996z"/></svg>