<?xml version="1.0" encoding="iso-8859-1"?>
<!-- Generator: Adobe Illustrator 17.1.0, SVG Export Plug-In . SVG Version: 6.00 Build 0)  -->
<!DOCTYPE svg PUBLIC "-//W3C//DTD SVG 1.1//EN" "http://www.w3.org/Graphics/SVG/1.1/DTD/svg11.dtd">
<svg version="1.1" id="Capa_1" xmlns="http://www.w3.org/2000/svg" xmlns:xlink="http://www.w3.org/1999/xlink" x="0px" y="0px" width="500px" height="500px" viewbox="0 0 267.5 267.5" style="enable-background:new 0 0 267.5 267.5;" xml:space="preserve">
<path d="M480.32710280373834 187.5514018691589c0.07663551401869159 1.3757009345794393-0.024299065420560748 2.7757009345794392-0.37009345794392523 4.166355140186916l-30.8411214953271 123.3644859813084c-1.5551401869158878 6.214953271028038-7.125233644859812 10.585046728971964-13.528971962616824 10.618691588785047l-185.0467289719626 0.9345794392523364c-0.024299065420560748 0-0.04672897196261683 0-0.07102803738317756 0H65.42056074766356c-6.437383177570093 0-12.046728971962617-4.385046728971963-13.601869158878506-10.631775700934579l-30.8411214953271-123.83177570093459c-0.35514018691588783-1.4280373831775701-0.45794392523364486-2.8672897196261684-0.3682242990654206-4.2785046728971965C8.678504672897196 184.13457943925238 0 172.97009345794396 0 159.81308411214957c0-16.233644859813086 13.205607476635514-29.439252336448597 29.439252336448597-29.439252336448597S58.87850467289719 143.57943925233644 58.87850467289719 159.81308411214957c0 9.142056074766355-4.188785046728972 17.321495327102802-10.74766355140187 22.725233644859813l38.61308411214954 38.904672897196264c9.758878504672897 9.833644859813084 23.30093457943925 15.471028037383176 37.15514018691589 15.471028037383176 16.381308411214953 0 32-7.779439252336449 41.83551401869159-20.813084112149532l63.45794392523365-84.08224299065421C223.86168224299067 126.69158878504675 220.5607476635514 119.33084112149534 220.5607476635514 111.21495327102805c0-16.233644859813086 13.205607476635514-29.439252336448597 29.439252336448597-29.439252336448597s29.439252336448597 13.205607476635514 29.439252336448597 29.439252336448597c0 7.872897196261682-3.125233644859813 15.018691588785046-8.177570093457945 20.30654205607477 0.016822429906542053 0.022429906542056077 0.037383177570093455 0.041121495327102804 0.05420560747663552 0.06542056074766356l62.998130841121494 84.31401869158879c9.831775700934578 13.158878504672897 25.506542056074768 21.014953271028038 41.93457943925233 21.014953271028038 13.981308411214954 0 27.12897196261682-5.444859813084112 37.01495327102804-15.332710280373831l38.85607476635514-38.85607476635514C445.42242990654205 177.32523364485985 441.1214953271028 169.06728971962616 441.1214953271028 159.81308411214957c0-16.233644859813086 13.205607476635514-29.439252336448597 29.439252336448597-29.439252336448597s29.439252336448597 13.205607476635514 29.439252336448597 29.439252336448597C500 172.61869158878505 491.766355140187 183.5102803738318 480.32710280373834 187.5514018691589zM446.1065420560748 370.5607476635514c0-7.742056074766356-6.276635514018691-14.018691588785046-14.018691588785046-14.018691588785046h-362.61682242990656c-7.742056074766356 0-14.018691588785046 6.276635514018691-14.018691588785046 14.018691588785046v33.64485981308411c0 7.742056074766356 6.276635514018691 14.018691588785046 14.018691588785046 14.018691588785046h362.61682242990656c7.742056074766356 0 14.018691588785046-6.276635514018691 14.018691588785046-14.018691588785046V370.5607476635514z"/>
</svg>
