<?xml version="1.0" encoding="utf-8"?>
<!-- Generator: Adobe Illustrator 16.0.0, SVG Export Plug-In . SVG Version: 6.00 Build 0)  -->
<!DOCTYPE svg PUBLIC "-//W3C//DTD SVG 1.1//EN" "http://www.w3.org/Graphics/SVG/1.1/DTD/svg11.dtd">
<svg version="1.1" id="Capa_1" xmlns="http://www.w3.org/2000/svg" xmlns:xlink="http://www.w3.org/1999/xlink" x="0px" y="0px"
	 width="500px" height="500px" viewBox="0 0 500 500" enable-background="new 0 0 500 500" xml:space="preserve">
<path fill-rule="evenodd" clip-rule="evenodd" d="M295.91,362.556c15.258-4.023,31.028-6.937,45.891-12.352
	c34.186-12.459,53.117-38.288,59.502-73.464c3.941-21.691,5.816-43.764-2.394-64.852c-4.001-10.281-10.549-19.638-16.534-29.038
	c-1.833-2.881-2.515-4.915-1.486-8.145c5.953-18.734,3.813-37.173-2.423-55.42c-1.731-5.063-5.784-4.191-9.518-3.777
	c-12.641,1.4-24.311,5.878-35.465,11.742c-5.89,3.096-11.804,6.253-17.254,10.035c-3.636,2.526-6.844,2.994-11.046,1.936
	c-36.923-9.302-73.862-8.66-110.836-0.042c-2.531,0.589-5.988-0.022-8.223-1.378c-14.337-8.701-28.735-17.37-45.41-20.66
	c-19.062-3.759-16.709-3.88-21.284,12.837c-4.186,15.302-3.82,30.87,0.854,46.229c0.484,1.596,0.102,4.195-0.946,5.408
	c-17.543,20.332-23.808,44.025-22.366,70.481c0.917,16.869,3.304,33.311,9.948,48.887c13.125,30.782,37.955,47.145,69.262,55.026
	c9.684,2.438,19.619,3.877,30.117,5.905c-8.63,8.372-12.453,18.73-14.897,29.792c-0.268,1.21-1.519,2.693-2.665,3.143
	c-24.747,9.658-50.29,7.433-66.907-19.109c-6.545-10.461-14.481-19.476-26.348-23.506c-5.498-1.868-11.839-2.305-17.677-1.833
	c-5.583,0.448-6.105,3.431-2.069,7.62c1.579,1.637,3.317,3.225,5.256,4.381c12.864,7.678,21.089,19.233,26.609,32.711
	c9.693,23.652,28.459,33.291,52.547,34.266c9.814,0.4,19.705-1,30.846-1.655c0,14.534,0.478,29.416-0.168,44.248
	c-0.423,9.788-8.637,13.904-18.944,10.399c-36.376-12.367-67.996-32.32-94.85-59.792c-35.408-36.226-57.749-79.404-65.239-129.359
	c-10.244-68.317,5.657-130.537,48.59-185.057c35.876-45.559,82.759-74.079,139.272-86.589c24.353-5.391,49.045-6.435,73.922-4.04
	c60.757,5.851,112.119,31.126,153.926,75.271c32.619,34.44,53.32,75.285,61.053,122.272c11.584,70.372-4.74,133.885-48.854,189.771
	c-29.057,36.815-66.355,62.6-110.894,77.642c-11.192,3.781-18.695-1.458-18.676-13.188c0.034-19.686,0.486-39.368,0.572-59.054
	c0.052-12.064-0.98-24.06-6.611-35.01C301.624,370.435,298.234,366.106,295.91,362.556z M189.076,404.792
	c-1.643-1.245-3.444-3.648-4.89-3.451c-1.919,0.268-3.562,2.56-5.322,3.979c1.273,1.445,2.55,2.887,4.616,5.221
	C185.962,407.991,187.519,406.39,189.076,404.792z M170.714,407.183c-1.687-1.258-3.457-3.606-5.033-3.486
	c-1.865,0.153-3.562,2.436-5.332,3.795c1.378,1.471,2.753,2.935,4.947,5.278C167.655,410.337,169.183,408.758,170.714,407.183z
	 M124.697,393.294c1.729,2.164,3.858,4.033,6.061,5.727c0.143,0.108,3.167-2.747,2.957-3.098c-1.404-2.353-3.317-4.399-5.927-7.604
	C126.084,390.995,124.407,392.931,124.697,393.294z M140.912,403.7c1.872,1.519,3.553,3.629,5.689,4.297
	c1.098,0.344,2.999-1.894,4.536-2.964c-1.633-1.712-3.27-3.432-5.73-6.013C143.351,401.163,142.131,402.43,140.912,403.7z
	 M115.904,376.735c-0.821,1.19-2.604,2.96-2.298,3.47c1.159,1.916,2.858,3.622,4.699,4.918c0.353,0.248,2.266-1.722,4.562-3.546
	C119.902,379.517,117.903,378.122,115.904,376.735z M104.04,366.905c1,1.802,2.566,3.329,4.145,4.692
	c0.163,0.14,2.865-1.942,2.722-2.279c-0.859-2.006-2.212-3.808-4.202-6.946C105.205,364.835,103.738,366.364,104.04,366.905z"/>
</svg>
