<?xml version="1.0" encoding="utf-8"?>
<!-- Generator: Adobe Illustrator 16.0.0, SVG Export Plug-In . SVG Version: 6.00 Build 0)  -->
<!DOCTYPE svg PUBLIC "-//W3C//DTD SVG 1.1//EN" "http://www.w3.org/Graphics/SVG/1.1/DTD/svg11.dtd">
<svg version="1.1" id="Capa_1" xmlns="http://www.w3.org/2000/svg" xmlns:xlink="http://www.w3.org/1999/xlink" x="0px" y="0px"
	 width="500px" height="500px" viewBox="0 0 500 500" enable-background="new 0 0 500 500" xml:space="preserve">
<path fill-rule="evenodd" clip-rule="evenodd" d="M30.311,183.537c-7.597-9.806-15.093-19.479-22.831-29.469
	c3.62-3.193,7.193-6.313,10.729-9.472c20.763-18.54,41.367-37.262,62.322-55.58c15.627-13.659,31.904-26.545,50.677-35.762
	c18.366-9.018,36.703-9.153,54.406,1.641c10.651,6.492,17.36,16.562,22.559,27.657c6.26,13.354,9.574,27.572,11.99,42.026
	c3.636,21.782,6.862,43.639,10.876,65.349c3.992,21.594,8.442,43.115,13.27,64.539c3.148,13.966,7.467,27.668,14.33,40.357
	c2.063,3.817,4.595,7.516,7.525,10.708c5.034,5.482,10.771,6.393,16.897,2.204c5.05-3.453,9.981-7.475,13.872-12.151
	c21.984-26.421,39.954-55.35,52.498-87.448c4.52-11.571,6.177-23.645,4.46-36.078c-1.991-14.397-12.014-23.567-26.482-24.545
	c-13.483-0.913-26.356,1.42-38.813,6.455c-0.646,0.261-1.296,0.506-1.955,0.727c-0.172,0.056-0.387-0.014-1.013-0.053
	c1.397-4.182,2.702-8.286,4.145-12.337c7.475-20.964,17.236-40.695,31.561-57.917c19.121-22.996,43.327-37.123,73.012-41.624
	c15.995-2.425,31.995-2.908,47.813,0.943c24.915,6.064,39.482,22.632,46.259,46.726c3.951,14.04,4.705,28.429,4.489,42.938
	c-0.381,25.513-8.213,49.106-18.468,72.038c-14.827,33.159-34.241,63.634-55.38,93.038c-25.582,35.586-52.381,70.187-83.515,101.194
	c-17.222,17.147-35.521,32.974-56.645,45.231c-12.725,7.383-26.139,12.844-40.761,15.46c-19.747,3.531-35.88-2.678-49.436-16.846
	c-12.315-12.865-20.377-28.364-27.797-44.337c-7.561-16.273-11.226-33.72-15.979-50.835
	c-11.114-40.016-21.869-80.134-33.057-120.127c-4.504-16.104-10.234-31.815-18.523-46.449c-3.456-6.096-7.349-11.881-12.92-16.312
	c-5.97-4.754-12.195-6.473-19.159-1.909c-9.327,6.111-18.739,12.091-28.112,18.131C32.249,182.233,31.357,182.843,30.311,183.537z"
	/>
</svg>
